<?xml version="1.0" encoding="UTF-8"?>
<svg width="47px" height="65px" viewBox="0 0 47 65" version="1.1" xmlns="http://www.w3.org/2000/svg" xmlns:xlink="http://www.w3.org/1999/xlink">
    <!-- Generator: sketchtool 60 (101010) - https://sketch.com -->
    <title>F0A3240B-FD4E-4381-A01F-4731211FD168</title>
    <desc>Created with sketchtool.</desc>
    <defs>
        <linearGradient x1="50%" y1="0%" x2="50%" y2="86.9301618%" id="linearGradient-1">
            <stop stop-color="#7F5AB9" offset="0%"></stop>
            <stop stop-color="#FFFFFF" offset="100%"></stop>
        </linearGradient>
    </defs>
    <g id="Page-1" stroke="none" stroke-width="1" fill="none" fill-rule="evenodd" opacity="0.400000006">
        <g id="11.1-Career" transform="translate(-616.000000, -964.000000)" fill="url(#linearGradient-1)">
            <g id="Group-2-Copy" transform="translate(421.000000, 964.000000)">
                <path d="M241.86,53.75 L241.86,65 L197.85,65 L197.85,54.65 L219.18,31.97 C223.620022,27.169976 225.84,22.7900198 225.84,18.83 C225.84,16.3099874 225.105007,14.4050065 223.635,13.115 C222.164993,11.8249935 220.020014,11.18 217.2,11.18 C211.739973,11.18 206.070029,13.2499793 200.19,17.39 L195.69,7.31 C198.270013,5.0899889 201.56998,3.33500645 205.59,2.045 C209.61002,0.75499355 213.689979,0.11 217.83,0.11 C224.490033,0.11 229.78498,1.71498395 233.715,4.925 C237.64502,8.13501605 239.61,12.439973 239.61,17.84 C239.61,21.5600186 238.845008,24.9949843 237.315,28.145 C235.784992,31.2950158 233.220018,34.7899808 229.62,38.63 L215.13,53.75 L241.86,53.75 Z" id="2"></path>
            </g>
        </g>
    </g>
</svg>