<?xml version="1.0" encoding="UTF-8"?>
<svg width="48px" height="66px" viewBox="0 0 48 66" version="1.1" xmlns="http://www.w3.org/2000/svg" xmlns:xlink="http://www.w3.org/1999/xlink">
    <!-- Generator: sketchtool 60 (101010) - https://sketch.com -->
    <title>A85004E7-0805-444F-8E82-AEFC7F144800</title>
    <desc>Created with sketchtool.</desc>
    <defs>
        <linearGradient x1="50%" y1="0%" x2="50%" y2="86.9301618%" id="linearGradient-1">
            <stop stop-color="#7F5AB9" offset="0%"></stop>
            <stop stop-color="#FFFFFF" offset="100%"></stop>
        </linearGradient>
    </defs>
    <g id="Page-1" stroke="none" stroke-width="1" fill="none" fill-rule="evenodd" opacity="0.400000006">
        <g id="11.1-Career" transform="translate(-929.000000, -964.000000)" fill="url(#linearGradient-1)">
            <g id="Group-2-Copy-2" transform="translate(708.000000, 964.000000)">
                <path d="M256.62,32.06 C260.340019,33.1400054 263.20499,35.0149867 265.215,37.685 C267.22501,40.3550134 268.23,43.6399805 268.23,47.54 C268.23,53.1800282 266.100021,57.6199838 261.84,60.86 C257.579979,64.1000162 251.790037,65.72 244.47,65.72 C240.029978,65.72 235.77002,65.0750065 231.69,63.785 C227.60998,62.4949936 224.310013,60.7400111 221.79,58.52 L226.29,48.44 C231.990028,52.5800207 237.83997,54.65 243.84,54.65 C247.740019,54.65 250.574991,53.9750068 252.345,52.625 C254.115009,51.2749933 255,49.1300147 255,46.19 C255,43.3699859 254.115009,41.3150065 252.345,40.025 C250.574991,38.7349936 247.740019,38.09 243.84,38.09 L234.66,38.09 L234.66,27.11 L242.31,27.11 C246.030019,27.11 248.79,26.4650065 250.59,25.175 C252.390009,23.8849936 253.29,21.9200132 253.29,19.28 C253.29,16.6399868 252.495008,14.6300069 250.905,13.25 C249.314992,11.8699931 247.050015,11.18 244.11,11.18 C241.349986,11.18 238.530014,11.7049948 235.65,12.755 C232.769986,13.8050053 229.950014,15.3499898 227.19,17.39 L222.69,7.31 C225.270013,5.0899889 228.56998,3.33500645 232.59,2.045 C236.61002,0.75499355 240.749979,0.11 245.01,0.11 C249.330022,0.11 253.124984,0.8299928 256.395,2.27 C259.665016,3.7100072 262.184991,5.7199871 263.955,8.3 C265.725009,10.8800129 266.61,13.9099826 266.61,17.39 C266.61,20.8700174 265.740009,23.8849873 264,26.435 C262.259991,28.9850128 259.800016,30.859994 256.62,32.06 Z" id="3"></path>
            </g>
        </g>
    </g>
</svg>