<?xml version="1.0" encoding="UTF-8"?>
<svg width="23px" height="32px" viewBox="0 0 23 32" version="1.1" xmlns="http://www.w3.org/2000/svg" xmlns:xlink="http://www.w3.org/1999/xlink">
    <!-- Generator: sketchtool 61.2 (101010) - https://sketch.com -->
    <title>BB190645-6DD1-4987-8122-F92F51CCDA15</title>
    <desc>Created with sketchtool.</desc>
    <g id="Color-Change" stroke="none" stroke-width="1" fill="none" fill-rule="evenodd">
        <g id="1.1-SafeJob-3" transform="translate(-179.000000, -1232.000000)">
            <g id="::-How-seekify-work-::" transform="translate(150.000000, 825.000000)">
                <g id=":-Tab-closed-:-Copy" transform="translate(1.000000, 384.000000)">
                    <g id="icon-3" transform="translate(20.000000, 20.000000)">
                        <rect id="Rectangle" fill="#D8D8D8" opacity="0" x="0" y="0" width="38" height="38"></rect>
                        <g id="Group" transform="translate(8.000000, 3.000000)" fill-rule="nonzero">
                            <path d="M11.3544,31.0375 L11.3544,31.0375 C5.3416,31.0375 0.4673,26.1632 0.4673,20.1505 L0.4673,2.8034 C0.4673,1.6988 1.3627,0.8034 2.4673,0.8034 L20.2414,0.8034 C21.346,0.8034 22.2414,1.6988 22.2414,2.8034 L22.2414,20.1505 C22.2414,26.1632 17.3671,31.0375 11.3544,31.0375 Z" id="Path" fill="#B1E2F8"></path>
                            <path d="M11.628,13.0473 L13.0916,16.0129 C13.1941,16.2205 13.3922,16.3644 13.6213,16.3977 L16.894,16.8733 C17.471,16.9571 17.7014,17.6663 17.2839,18.0733 L14.9157,20.3817 C14.7499,20.5433 14.6742,20.7762 14.7134,21.0044 L15.2725,24.2639 C15.3711,24.8386 14.7679,25.2769 14.2517,25.0055 L11.3245,23.4666 C11.1195,23.3589 10.8747,23.3589 10.6698,23.4666 L7.7426,25.0055 C7.2265,25.2768 6.6233,24.8386 6.7219,24.2639 L7.281,21.0044 C7.3201,20.7762 7.2445,20.5433 7.0787,20.3817 L4.7105,18.0733 C4.293,17.6663 4.5234,16.9572 5.1004,16.8733 L8.3731,16.3977 C8.6022,16.3644 8.8003,16.2205 8.9028,16.0129 L10.3664,13.0473 C10.6243,12.5245 11.3699,12.5245 11.628,13.0473 Z" id="Path" fill="#437CBF"></path>
                        </g>
                    </g>
                </g>
            </g>
        </g>
    </g>
</svg>