<?xml version="1.0" encoding="UTF-8"?>
<svg width="31px" height="26px" viewBox="0 0 31 26" version="1.1" xmlns="http://www.w3.org/2000/svg" xmlns:xlink="http://www.w3.org/1999/xlink">
    <!-- Generator: sketchtool 61.2 (101010) - https://sketch.com -->
    <title>B2404F5D-EB19-4FF2-9BB2-A1310134ACB4</title>
    <desc>Created with sketchtool.</desc>
    <g id="Color-Change" stroke="none" stroke-width="1" fill="none" fill-rule="evenodd">
        <g id="1.1-SafeJob-3" transform="translate(-175.000000, -1118.000000)">
            <g id="::-How-seekify-work-::" transform="translate(150.000000, 825.000000)">
                <g id=":-Tab-closed-:" transform="translate(1.000000, 267.000000)">
                    <g id="icon-2" transform="translate(20.000000, 20.000000)">
                        <rect id="Rectangle" fill="#D8D8D8" opacity="0" x="0" y="0" width="38" height="38"></rect>
                        <g id="Group-3" transform="translate(4.000000, 6.000000)" fill-rule="nonzero">
                            <path d="M22.1468,7.1172 L20.1468,7.1172 L20.1468,2.9844 C20.1468,2.4414 19.6986,2 19.1468,2 L11.8529,2 C11.3011,2 10.8529,2.4414 10.8529,2.9844 L10.8529,7.1172 L8.8529,7.1172 L8.8529,2.9844 C8.8529,1.3389 10.1986,-4.61852778e-14 11.8529,-4.61852778e-14 L19.1468,-4.61852778e-14 C20.8011,-4.61852778e-14 22.1468,1.3389 22.1468,2.9844 L22.1468,7.1172 Z" id="Path" fill="#235E2F"></path>
                            <path d="M29,25.8002 L2,25.8002 C0.8954,25.8002 0,24.9048 0,23.8002 L0,7.2305 C0,6.1259 0.8954,5.2305 2,5.2305 L29,5.2305 C30.1046,5.2305 31,6.1259 31,7.2305 L31,23.8002 C31,24.9048 30.1046,25.8002 29,25.8002 Z" id="Path" fill="#AAD37D"></path>
                        </g>
                    </g>
                </g>
            </g>
        </g>
    </g>
</svg>