<?xml version="1.0" encoding="UTF-8"?>
<svg width="30px" height="30px" viewBox="0 0 30 30" version="1.1" xmlns="http://www.w3.org/2000/svg" xmlns:xlink="http://www.w3.org/1999/xlink">
    <!-- Generator: sketchtool 61.2 (101010) - https://sketch.com -->
    <title>86E96A75-66E0-4EE2-B862-81E47AE7F3C3</title>
    <desc>Created with sketchtool.</desc>
    <g id="Color-Change" stroke="none" stroke-width="1" fill="none" fill-rule="evenodd">
        <g id="1.1-SafeJob-3" transform="translate(-174.000000, -925.000000)">
            <g id="::-How-seekify-work-::" transform="translate(150.000000, 825.000000)">
                <g id=":-Tab-Open-:" transform="translate(0.000000, 76.000000)">
                    <g id="icon-1" transform="translate(20.000000, 20.000000)">
                        <rect id="Rectangle" fill="#D8D8D8" opacity="0" x="0" y="0" width="38" height="38"></rect>
                        <g id="Group-2" transform="translate(4.000000, 4.000000)" fill="#E34E8B" fill-rule="nonzero">
                            <path d="M28,30 L2,30 C0.8954,30 0,29.1046 0,28 L0,2 C0,0.8954 0.8954,0 2,0 L28,0 C29.1046,0 30,0.8954 30,2 L30,28 C30,29.1046 29.1046,30 28,30 Z" id="Path" opacity="0.2"></path>
                            <g id="Group" opacity="0.8" transform="translate(5.645200, 5.184900)">
                                <rect id="Rectangle" x="0.3548" y="0.8151" width="14" height="2"></rect>
                            </g>
                            <g id="Group" opacity="0.8" transform="translate(5.645200, 9.184900)">
                                <rect id="Rectangle" x="0.3548" y="0.8151" width="10.5" height="2"></rect>
                            </g>
                            <g id="Group" opacity="0.8" transform="translate(5.645200, 21.184900)">
                                <rect id="Rectangle" x="0.3548" y="0.8151" width="14" height="2"></rect>
                            </g>
                        </g>
                    </g>
                </g>
            </g>
        </g>
    </g>
</svg>