<?xml version="1.0" encoding="UTF-8"?>
<svg width="15px" height="21px" viewBox="0 0 15 21" version="1.1" xmlns="http://www.w3.org/2000/svg" xmlns:xlink="http://www.w3.org/1999/xlink">
    <!-- Generator: Sketch 61.2 (89653) - https://sketch.com -->
    <title>assesment</title>
    <desc>Created with Sketch.</desc>
    <g id="Page-1" stroke="none" stroke-width="1" fill="none" fill-rule="evenodd">
        <g id="15.1-Profile-Menu" transform="translate(-1199.000000, -152.000000)">
            <g id="Group-7" transform="translate(1170.000000, 63.000000)">
                <g id="Payment-History-Copy-2" transform="translate(16.000000, 79.000000)">
                    <g id="assesment" transform="translate(8.000000, 8.000000)">
                        <rect id="Rectangle-Copy-6" fill="#0098D6" opacity="0" x="0" y="0" width="24" height="24"></rect>
                        <g id="exam-(1)" transform="translate(5.000000, 2.000000)" fill="#0098D6" fill-rule="nonzero">
                            <path d="M14.3028125,5.68434189e-14 C14.6359375,5.68434189e-14 14.9059375,0.27 14.9059375,0.603125 L14.9059375,0.603125 L14.9059375,19.876875 C14.9059375,20.21 14.6359375,20.48 14.3028125,20.48 L14.3028125,20.48 L0.603125,20.48 C0.27,20.48 -2.01794137e-12,20.21 -2.01794137e-12,19.876875 L-2.01794137e-12,19.876875 L-2.01794137e-12,4.40421876 C-2.01794137e-12,4.24421876 0.06359376,4.09078124 0.17671876,3.97781248 L0.17671876,3.97781248 L3.97781248,0.17671876 C4.09093752,0.06359376 4.24421876,5.68434189e-14 4.40421876,5.68434189e-14 L4.40421876,5.68434189e-14 Z M13.6996875,1.20625 L5.00734376,1.20625 L5.00734376,4.40406248 C5.00734376,4.73718752 4.73734376,5.00718752 4.40421876,5.00718752 L4.40421876,5.00718752 L1.20625,5.00718752 L1.20625,19.27375 L13.6996875,19.27375 L13.6996875,1.20625 Z M8.67109376,15.1421875 C9.00421876,15.1421875 9.27421876,15.4121875 9.27421876,15.7453125 C9.27421876,16.0784375 9.00406248,16.3484375 8.67109376,16.3484375 L8.67109376,16.3484375 L3.633125,16.3484375 C3.3,16.3484375 3.03,16.0784375 3.03,15.7453125 C3.03,15.4121875 3.3,15.1421875 3.633125,15.1421875 L3.633125,15.1421875 Z M11.2728125,13.3015625 C11.6059375,13.3015625 11.8759375,13.5715625 11.8759375,13.9046875 C11.8759375,14.2378125 11.6059375,14.5078125 11.2728125,14.5078125 L11.2728125,14.5078125 L3.633125,14.5078125 C3.3,14.5078125 3.03,14.2378125 3.03,13.9046875 C3.03,13.5715625 3.3,13.3015625 3.633125,13.3015625 L3.633125,13.3015625 Z M5.71734376,6.35484376 C5.95296876,6.35484376 6.16718752,6.49218752 6.26546876,6.70656248 L6.26546876,6.70656248 L8.34953124,11.2496875 C8.48843752,11.5525 8.355625,11.9104688 8.05281248,12.049375 C7.97125,12.0867188 7.88578124,12.104375 7.80171876,12.104375 C7.573125,12.104375 7.35453124,11.9739062 7.253125,11.7526562 L7.253125,11.7526562 L6.6575,10.4542188 L4.77703124,10.4542188 L4.18140624,11.7526562 C4.08,11.9739062 3.86140624,12.104375 3.63281248,12.104375 C3.54875,12.104375 3.46328124,12.0867188 3.38171876,12.049375 C3.07906248,11.9104688 2.94609376,11.5525 3.085,11.2496875 L3.085,11.2496875 L5.16906248,6.70656248 C5.26734376,6.49218752 5.48156248,6.35484376 5.71734376,6.35484376 Z M10.2442188,6.37640624 C10.5773438,6.37640624 10.8473438,6.64640624 10.8473438,6.97953124 L10.8473438,6.97953124 L10.8473438,7.405 L11.2728125,7.405 C11.6059375,7.405 11.8759375,7.67515624 11.8759375,8.008125 C11.8759375,8.34125 11.6059375,8.61125 11.2728125,8.61125 L11.2728125,8.61125 L10.8473438,8.61125 L10.8473438,9.036875 C10.8473438,9.36984376 10.5773438,9.64 10.2442188,9.64 C9.91109376,9.64 9.64109376,9.36984376 9.64109376,9.036875 L9.64109376,9.036875 L9.64109376,8.61125 L9.215625,8.61125 C8.8825,8.61125 8.6125,8.34125 8.6125,8.008125 C8.6125,7.67515624 8.8825,7.405 9.215625,7.405 L9.215625,7.405 L9.64109376,7.405 L9.64109376,6.97953124 C9.64109376,6.64640624 9.91109376,6.37640624 10.2442188,6.37640624 Z M5.71718752,8.40468752 L5.33046876,9.24796876 L6.10406248,9.24796876 L5.71718752,8.40468752 Z M3.80109376,2.05921876 L2.059375,3.80093752 L3.80109376,3.80093752 L3.80109376,2.05921876 Z" id="Combined-Shape"></path>
                        </g>
                    </g>
                </g>
            </g>
        </g>
    </g>
</svg>