<?xml version="1.0" encoding="UTF-8"?>
<svg width="506px" height="607px" viewBox="0 0 506 607" version="1.1" xmlns="http://www.w3.org/2000/svg" xmlns:xlink="http://www.w3.org/1999/xlink">
    <!-- Generator: sketchtool 61.2 (101010) - https://sketch.com -->
    <title>485D11B7-6B0C-4A65-A533-D32EAC71C6ED</title>
    <desc>Created with sketchtool.</desc>
    <defs>
        <rect id="path-1" x="0" y="59.44" width="438.72" height="506.88" rx="7.68"></rect>
        <filter x="-11.3%" y="-7.4%" width="122.6%" height="119.5%" filterUnits="objectBoundingBox" id="filter-2">
            <feOffset dx="0" dy="12" in="SourceAlpha" result="shadowOffsetOuter1"></feOffset>
            <feGaussianBlur stdDeviation="14.5" in="shadowOffsetOuter1" result="shadowBlurOuter1"></feGaussianBlur>
            <feColorMatrix values="0 0 0 0 0   0 0 0 0 0   0 0 0 0 0  0 0 0 0.0582113199 0" type="matrix" in="shadowBlurOuter1"></feColorMatrix>
        </filter>
    </defs>
    <g id="Color-Change" stroke="none" stroke-width="1" fill="none" fill-rule="evenodd">
        <g id="1.1-SafeJob-2" transform="translate(-805.000000, -841.000000)">
            <g id="::-How-seekify-work-::" transform="translate(150.000000, 825.000000)">
                <g id=":-Left-:" transform="translate(684.000000, 16.000000)">
                    <rect id="Rectangle" fill="#0096D0" opacity="0.097123" x="155.16" y="0" width="321" height="453" rx="7.68"></rect>
                    <g id="5cf8fb204a09be44ddde1154_quote-bullet" transform="translate(364.000000, 491.000000)" fill="#64CA00">
                        <path d="M3.6,1.8 C3.6,2.794116 2.794116,3.6 1.8,3.6 C0.8058876,3.6 0,2.794116 0,1.8 C0,0.8058876 0.8058876,0 1.8,0 C2.794116,0 3.6,0.8058876 3.6,1.8 Z M15.6,1.8 C15.6,2.794116 14.79408,3.6 13.8,3.6 C12.80592,3.6 12,2.794116 12,1.8 C12,0.8058876 12.80592,0 13.8,0 C14.79408,0 15.6,0.8058876 15.6,1.8 Z M25.8,3.6 C26.79408,3.6 27.6,2.794116 27.6,1.8 C27.6,0.8058876 26.79408,0 25.8,0 C24.80592,0 24,0.8058876 24,1.8 C24,2.794116 24.80592,3.6 25.8,3.6 Z M39.6,1.8 C39.6,2.794116 38.79408,3.6 37.8,3.6 C36.80592,3.6 36,2.794116 36,1.8 C36,0.8058876 36.80592,0 37.8,0 C38.79408,0 39.6,0.8058876 39.6,1.8 Z M49.8,3.6 C50.79408,3.6 51.6,2.794116 51.6,1.8 C51.6,0.8058876 50.79408,0 49.8,0 C48.80592,0 48,0.8058876 48,1.8 C48,2.794116 48.80592,3.6 49.8,3.6 Z M63.6,1.8 C63.6,2.794116 62.79408,3.6 61.8,3.6 C60.80592,3.6 60,2.794116 60,1.8 C60,0.8058876 60.80592,0 61.8,0 C62.79408,0 63.6,0.8058876 63.6,1.8 Z M73.8,3.6 C74.79408,3.6 75.6,2.794116 75.6,1.8 C75.6,0.8058876 74.79408,0 73.8,0 C72.80592,0 72,0.8058876 72,1.8 C72,2.794116 72.80592,3.6 73.8,3.6 Z M87.6,1.8 C87.6,2.794116 86.79408,3.6 85.8,3.6 C84.80592,3.6 84,2.794116 84,1.8 C84,0.8058876 84.80592,0 85.8,0 C86.79408,0 87.6,0.8058876 87.6,1.8 Z M97.8,3.6 C98.79408,3.6 99.6,2.794116 99.6,1.8 C99.6,0.8058876 98.79408,0 97.8,0 C96.80592,0 96,0.8058876 96,1.8 C96,2.794116 96.80592,3.6 97.8,3.6 Z M111.6,1.8 C111.6,2.794116 110.79408,3.6 109.8,3.6 C108.80592,3.6 108,2.794116 108,1.8 C108,0.8058876 108.80592,0 109.8,0 C110.79408,0 111.6,0.8058876 111.6,1.8 Z M1.8,15.6 C2.794116,15.6 3.6,14.79408 3.6,13.8 C3.6,12.80592 2.794116,12 1.8,12 C0.8058876,12 0,12.80592 0,13.8 C0,14.79408 0.8058876,15.6 1.8,15.6 Z M13.8,15.6 C14.79408,15.6 15.6,14.79408 15.6,13.8 C15.6,12.80592 14.79408,12 13.8,12 C12.80592,12 12,12.80592 12,13.8 C12,14.79408 12.80592,15.6 13.8,15.6 Z M27.6,13.8 C27.6,14.79408 26.79408,15.6 25.8,15.6 C24.80592,15.6 24,14.79408 24,13.8 C24,12.80592 24.80592,12 25.8,12 C26.79408,12 27.6,12.80592 27.6,13.8 Z M37.8,15.6 C38.79408,15.6 39.6,14.79408 39.6,13.8 C39.6,12.80592 38.79408,12 37.8,12 C36.80592,12 36,12.80592 36,13.8 C36,14.79408 36.80592,15.6 37.8,15.6 Z M51.6,13.8 C51.6,14.79408 50.79408,15.6 49.8,15.6 C48.80592,15.6 48,14.79408 48,13.8 C48,12.80592 48.80592,12 49.8,12 C50.79408,12 51.6,12.80592 51.6,13.8 Z M61.8,15.6 C62.79408,15.6 63.6,14.79408 63.6,13.8 C63.6,12.80592 62.79408,12 61.8,12 C60.80592,12 60,12.80592 60,13.8 C60,14.79408 60.80592,15.6 61.8,15.6 Z M75.6,13.8 C75.6,14.79408 74.79408,15.6 73.8,15.6 C72.80592,15.6 72,14.79408 72,13.8 C72,12.80592 72.80592,12 73.8,12 C74.79408,12 75.6,12.80592 75.6,13.8 Z M85.8,15.6 C86.79408,15.6 87.6,14.79408 87.6,13.8 C87.6,12.80592 86.79408,12 85.8,12 C84.80592,12 84,12.80592 84,13.8 C84,14.79408 84.80592,15.6 85.8,15.6 Z M99.6,13.8 C99.6,14.79408 98.79408,15.6 97.8,15.6 C96.80592,15.6 96,14.79408 96,13.8 C96,12.80592 96.80592,12 97.8,12 C98.79408,12 99.6,12.80592 99.6,13.8 Z M109.8,15.6 C110.79408,15.6 111.6,14.79408 111.6,13.8 C111.6,12.80592 110.79408,12 109.8,12 C108.80592,12 108,12.80592 108,13.8 C108,14.79408 108.80592,15.6 109.8,15.6 Z M3.6,25.8 C3.6,26.79408 2.794116,27.6 1.8,27.6 C0.8058876,27.6 0,26.79408 0,25.8 C0,24.80592 0.8058876,24 1.8,24 C2.794116,24 3.6,24.80592 3.6,25.8 Z M15.6,25.8 C15.6,26.79408 14.79408,27.6 13.8,27.6 C12.80592,27.6 12,26.79408 12,25.8 C12,24.80592 12.80592,24 13.8,24 C14.79408,24 15.6,24.80592 15.6,25.8 Z M25.8,27.6 C26.79408,27.6 27.6,26.79408 27.6,25.8 C27.6,24.80592 26.79408,24 25.8,24 C24.80592,24 24,24.80592 24,25.8 C24,26.79408 24.80592,27.6 25.8,27.6 Z M39.6,25.8 C39.6,26.79408 38.79408,27.6 37.8,27.6 C36.80592,27.6 36,26.79408 36,25.8 C36,24.80592 36.80592,24 37.8,24 C38.79408,24 39.6,24.80592 39.6,25.8 Z M49.8,27.6 C50.79408,27.6 51.6,26.79408 51.6,25.8 C51.6,24.80592 50.79408,24 49.8,24 C48.80592,24 48,24.80592 48,25.8 C48,26.79408 48.80592,27.6 49.8,27.6 Z M63.6,25.8 C63.6,26.79408 62.79408,27.6 61.8,27.6 C60.80592,27.6 60,26.79408 60,25.8 C60,24.80592 60.80592,24 61.8,24 C62.79408,24 63.6,24.80592 63.6,25.8 Z M73.8,27.6 C74.79408,27.6 75.6,26.79408 75.6,25.8 C75.6,24.80592 74.79408,24 73.8,24 C72.80592,24 72,24.80592 72,25.8 C72,26.79408 72.80592,27.6 73.8,27.6 Z M87.6,25.8 C87.6,26.79408 86.79408,27.6 85.8,27.6 C84.80592,27.6 84,26.79408 84,25.8 C84,24.80592 84.80592,24 85.8,24 C86.79408,24 87.6,24.80592 87.6,25.8 Z M97.8,27.6 C98.79408,27.6 99.6,26.79408 99.6,25.8 C99.6,24.80592 98.79408,24 97.8,24 C96.80592,24 96,24.80592 96,25.8 C96,26.79408 96.80592,27.6 97.8,27.6 Z M111.6,25.8 C111.6,26.79408 110.79408,27.6 109.8,27.6 C108.80592,27.6 108,26.79408 108,25.8 C108,24.80592 108.80592,24 109.8,24 C110.79408,24 111.6,24.80592 111.6,25.8 Z M1.8,39.6 C2.794116,39.6 3.6,38.79408 3.6,37.8 C3.6,36.80592 2.794116,36 1.8,36 C0.8058876,36 0,36.80592 0,37.8 C0,38.79408 0.8058876,39.6 1.8,39.6 Z M13.8,39.6 C14.79408,39.6 15.6,38.79408 15.6,37.8 C15.6,36.80592 14.79408,36 13.8,36 C12.80592,36 12,36.80592 12,37.8 C12,38.79408 12.80592,39.6 13.8,39.6 Z M27.6,37.8 C27.6,38.79408 26.79408,39.6 25.8,39.6 C24.80592,39.6 24,38.79408 24,37.8 C24,36.80592 24.80592,36 25.8,36 C26.79408,36 27.6,36.80592 27.6,37.8 Z M37.8,39.6 C38.79408,39.6 39.6,38.79408 39.6,37.8 C39.6,36.80592 38.79408,36 37.8,36 C36.80592,36 36,36.80592 36,37.8 C36,38.79408 36.80592,39.6 37.8,39.6 Z M51.6,37.8 C51.6,38.79408 50.79408,39.6 49.8,39.6 C48.80592,39.6 48,38.79408 48,37.8 C48,36.80592 48.80592,36 49.8,36 C50.79408,36 51.6,36.80592 51.6,37.8 Z M61.8,39.6 C62.79408,39.6 63.6,38.79408 63.6,37.8 C63.6,36.80592 62.79408,36 61.8,36 C60.80592,36 60,36.80592 60,37.8 C60,38.79408 60.80592,39.6 61.8,39.6 Z M75.6,37.8 C75.6,38.79408 74.79408,39.6 73.8,39.6 C72.80592,39.6 72,38.79408 72,37.8 C72,36.80592 72.80592,36 73.8,36 C74.79408,36 75.6,36.80592 75.6,37.8 Z M85.8,39.6 C86.79408,39.6 87.6,38.79408 87.6,37.8 C87.6,36.80592 86.79408,36 85.8,36 C84.80592,36 84,36.80592 84,37.8 C84,38.79408 84.80592,39.6 85.8,39.6 Z M99.6,37.8 C99.6,38.79408 98.79408,39.6 97.8,39.6 C96.80592,39.6 96,38.79408 96,37.8 C96,36.80592 96.80592,36 97.8,36 C98.79408,36 99.6,36.80592 99.6,37.8 Z M109.8,39.6 C110.79408,39.6 111.6,38.79408 111.6,37.8 C111.6,36.80592 110.79408,36 109.8,36 C108.80592,36 108,36.80592 108,37.8 C108,38.79408 108.80592,39.6 109.8,39.6 Z M3.6,49.8 C3.6,50.79408 2.794116,51.6 1.8,51.6 C0.8058876,51.6 0,50.79408 0,49.8 C0,48.80592 0.8058876,48 1.8,48 C2.794116,48 3.6,48.80592 3.6,49.8 Z M15.6,49.8 C15.6,50.79408 14.79408,51.6 13.8,51.6 C12.80592,51.6 12,50.79408 12,49.8 C12,48.80592 12.80592,48 13.8,48 C14.79408,48 15.6,48.80592 15.6,49.8 Z M25.8,51.6 C26.79408,51.6 27.6,50.79408 27.6,49.8 C27.6,48.80592 26.79408,48 25.8,48 C24.80592,48 24,48.80592 24,49.8 C24,50.79408 24.80592,51.6 25.8,51.6 Z M39.6,49.8 C39.6,50.79408 38.79408,51.6 37.8,51.6 C36.80592,51.6 36,50.79408 36,49.8 C36,48.80592 36.80592,48 37.8,48 C38.79408,48 39.6,48.80592 39.6,49.8 Z M49.8,51.6 C50.79408,51.6 51.6,50.79408 51.6,49.8 C51.6,48.80592 50.79408,48 49.8,48 C48.80592,48 48,48.80592 48,49.8 C48,50.79408 48.80592,51.6 49.8,51.6 Z M63.6,49.8 C63.6,50.79408 62.79408,51.6 61.8,51.6 C60.80592,51.6 60,50.79408 60,49.8 C60,48.80592 60.80592,48 61.8,48 C62.79408,48 63.6,48.80592 63.6,49.8 Z M73.8,51.6 C74.79408,51.6 75.6,50.79408 75.6,49.8 C75.6,48.80592 74.79408,48 73.8,48 C72.80592,48 72,48.80592 72,49.8 C72,50.79408 72.80592,51.6 73.8,51.6 Z M87.6,49.8 C87.6,50.79408 86.79408,51.6 85.8,51.6 C84.80592,51.6 84,50.79408 84,49.8 C84,48.80592 84.80592,48 85.8,48 C86.79408,48 87.6,48.80592 87.6,49.8 Z M97.8,51.6 C98.79408,51.6 99.6,50.79408 99.6,49.8 C99.6,48.80592 98.79408,48 97.8,48 C96.80592,48 96,48.80592 96,49.8 C96,50.79408 96.80592,51.6 97.8,51.6 Z M111.6,49.8 C111.6,50.79408 110.79408,51.6 109.8,51.6 C108.80592,51.6 108,50.79408 108,49.8 C108,48.80592 108.80592,48 109.8,48 C110.79408,48 111.6,48.80592 111.6,49.8 Z M1.8,63.6 C2.794116,63.6 3.6,62.79408 3.6,61.8 C3.6,60.80592 2.794116,60 1.8,60 C0.8058876,60 0,60.80592 0,61.8 C0,62.79408 0.8058876,63.6 1.8,63.6 Z M13.8,63.6 C14.79408,63.6 15.6,62.79408 15.6,61.8 C15.6,60.80592 14.79408,60 13.8,60 C12.80592,60 12,60.80592 12,61.8 C12,62.79408 12.80592,63.6 13.8,63.6 Z M27.6,61.8 C27.6,62.79408 26.79408,63.6 25.8,63.6 C24.80592,63.6 24,62.79408 24,61.8 C24,60.80592 24.80592,60 25.8,60 C26.79408,60 27.6,60.80592 27.6,61.8 Z M37.8,63.6 C38.79408,63.6 39.6,62.79408 39.6,61.8 C39.6,60.80592 38.79408,60 37.8,60 C36.80592,60 36,60.80592 36,61.8 C36,62.79408 36.80592,63.6 37.8,63.6 Z M51.6,61.8 C51.6,62.79408 50.79408,63.6 49.8,63.6 C48.80592,63.6 48,62.79408 48,61.8 C48,60.80592 48.80592,60 49.8,60 C50.79408,60 51.6,60.80592 51.6,61.8 Z M61.8,63.6 C62.79408,63.6 63.6,62.79408 63.6,61.8 C63.6,60.80592 62.79408,60 61.8,60 C60.80592,60 60,60.80592 60,61.8 C60,62.79408 60.80592,63.6 61.8,63.6 Z M75.6,61.8 C75.6,62.79408 74.79408,63.6 73.8,63.6 C72.80592,63.6 72,62.79408 72,61.8 C72,60.80592 72.80592,60 73.8,60 C74.79408,60 75.6,60.80592 75.6,61.8 Z M85.8,63.6 C86.79408,63.6 87.6,62.79408 87.6,61.8 C87.6,60.80592 86.79408,60 85.8,60 C84.80592,60 84,60.80592 84,61.8 C84,62.79408 84.80592,63.6 85.8,63.6 Z M99.6,61.8 C99.6,62.79408 98.79408,63.6 97.8,63.6 C96.80592,63.6 96,62.79408 96,61.8 C96,60.80592 96.80592,60 97.8,60 C98.79408,60 99.6,60.80592 99.6,61.8 Z M109.8,63.6 C110.79408,63.6 111.6,62.79408 111.6,61.8 C111.6,60.80592 110.79408,60 109.8,60 C108.80592,60 108,60.80592 108,61.8 C108,62.79408 108.80592,63.6 109.8,63.6 Z M3.6,73.8 C3.6,74.79408 2.794116,75.6 1.8,75.6 C0.8058876,75.6 0,74.79408 0,73.8 C0,72.80592 0.8058876,72 1.8,72 C2.794116,72 3.6,72.80592 3.6,73.8 Z M15.6,73.8 C15.6,74.79408 14.79408,75.6 13.8,75.6 C12.80592,75.6 12,74.79408 12,73.8 C12,72.80592 12.80592,72 13.8,72 C14.79408,72 15.6,72.80592 15.6,73.8 Z M25.8,75.6 C26.79408,75.6 27.6,74.79408 27.6,73.8 C27.6,72.80592 26.79408,72 25.8,72 C24.80592,72 24,72.80592 24,73.8 C24,74.79408 24.80592,75.6 25.8,75.6 Z M39.6,73.8 C39.6,74.79408 38.79408,75.6 37.8,75.6 C36.80592,75.6 36,74.79408 36,73.8 C36,72.80592 36.80592,72 37.8,72 C38.79408,72 39.6,72.80592 39.6,73.8 Z M49.8,75.6 C50.79408,75.6 51.6,74.79408 51.6,73.8 C51.6,72.80592 50.79408,72 49.8,72 C48.80592,72 48,72.80592 48,73.8 C48,74.79408 48.80592,75.6 49.8,75.6 Z M63.6,73.8 C63.6,74.79408 62.79408,75.6 61.8,75.6 C60.80592,75.6 60,74.79408 60,73.8 C60,72.80592 60.80592,72 61.8,72 C62.79408,72 63.6,72.80592 63.6,73.8 Z M73.8,75.6 C74.79408,75.6 75.6,74.79408 75.6,73.8 C75.6,72.80592 74.79408,72 73.8,72 C72.80592,72 72,72.80592 72,73.8 C72,74.79408 72.80592,75.6 73.8,75.6 Z M87.6,73.8 C87.6,74.79408 86.79408,75.6 85.8,75.6 C84.80592,75.6 84,74.79408 84,73.8 C84,72.80592 84.80592,72 85.8,72 C86.79408,72 87.6,72.80592 87.6,73.8 Z M97.8,75.6 C98.79408,75.6 99.6,74.79408 99.6,73.8 C99.6,72.80592 98.79408,72 97.8,72 C96.80592,72 96,72.80592 96,73.8 C96,74.79408 96.80592,75.6 97.8,75.6 Z M111.6,73.8 C111.6,74.79408 110.79408,75.6 109.8,75.6 C108.80592,75.6 108,74.79408 108,73.8 C108,72.80592 108.80592,72 109.8,72 C110.79408,72 111.6,72.80592 111.6,73.8 Z M1.8,87.6 C2.794116,87.6 3.6,86.79408 3.6,85.8 C3.6,84.80592 2.794116,84 1.8,84 C0.8058876,84 0,84.80592 0,85.8 C0,86.79408 0.8058876,87.6 1.8,87.6 Z M13.8,87.6 C14.79408,87.6 15.6,86.79408 15.6,85.8 C15.6,84.80592 14.79408,84 13.8,84 C12.80592,84 12,84.80592 12,85.8 C12,86.79408 12.80592,87.6 13.8,87.6 Z M27.6,85.8 C27.6,86.79408 26.79408,87.6 25.8,87.6 C24.80592,87.6 24,86.79408 24,85.8 C24,84.80592 24.80592,84 25.8,84 C26.79408,84 27.6,84.80592 27.6,85.8 Z M37.8,87.6 C38.79408,87.6 39.6,86.79408 39.6,85.8 C39.6,84.80592 38.79408,84 37.8,84 C36.80592,84 36,84.80592 36,85.8 C36,86.79408 36.80592,87.6 37.8,87.6 Z M51.6,85.8 C51.6,86.79408 50.79408,87.6 49.8,87.6 C48.80592,87.6 48,86.79408 48,85.8 C48,84.80592 48.80592,84 49.8,84 C50.79408,84 51.6,84.80592 51.6,85.8 Z M61.8,87.6 C62.79408,87.6 63.6,86.79408 63.6,85.8 C63.6,84.80592 62.79408,84 61.8,84 C60.80592,84 60,84.80592 60,85.8 C60,86.79408 60.80592,87.6 61.8,87.6 Z M75.6,85.8 C75.6,86.79408 74.79408,87.6 73.8,87.6 C72.80592,87.6 72,86.79408 72,85.8 C72,84.80592 72.80592,84 73.8,84 C74.79408,84 75.6,84.80592 75.6,85.8 Z M85.8,87.6 C86.79408,87.6 87.6,86.79408 87.6,85.8 C87.6,84.80592 86.79408,84 85.8,84 C84.80592,84 84,84.80592 84,85.8 C84,86.79408 84.80592,87.6 85.8,87.6 Z M99.6,85.8 C99.6,86.79408 98.79408,87.6 97.8,87.6 C96.80592,87.6 96,86.79408 96,85.8 C96,84.80592 96.80592,84 97.8,84 C98.79408,84 99.6,84.80592 99.6,85.8 Z M109.8,87.6 C110.79408,87.6 111.6,86.79408 111.6,85.8 C111.6,84.80592 110.79408,84 109.8,84 C108.80592,84 108,84.80592 108,85.8 C108,86.79408 108.80592,87.6 109.8,87.6 Z M3.6,97.8 C3.6,98.79408 2.794116,99.6 1.8,99.6 C0.8058876,99.6 0,98.79408 0,97.8 C0,96.80592 0.8058876,96 1.8,96 C2.794116,96 3.6,96.80592 3.6,97.8 Z M15.6,97.8 C15.6,98.79408 14.79408,99.6 13.8,99.6 C12.80592,99.6 12,98.79408 12,97.8 C12,96.80592 12.80592,96 13.8,96 C14.79408,96 15.6,96.80592 15.6,97.8 Z M25.8,99.6 C26.79408,99.6 27.6,98.79408 27.6,97.8 C27.6,96.80592 26.79408,96 25.8,96 C24.80592,96 24,96.80592 24,97.8 C24,98.79408 24.80592,99.6 25.8,99.6 Z M39.6,97.8 C39.6,98.79408 38.79408,99.6 37.8,99.6 C36.80592,99.6 36,98.79408 36,97.8 C36,96.80592 36.80592,96 37.8,96 C38.79408,96 39.6,96.80592 39.6,97.8 Z M49.8,99.6 C50.79408,99.6 51.6,98.79408 51.6,97.8 C51.6,96.80592 50.79408,96 49.8,96 C48.80592,96 48,96.80592 48,97.8 C48,98.79408 48.80592,99.6 49.8,99.6 Z M63.6,97.8 C63.6,98.79408 62.79408,99.6 61.8,99.6 C60.80592,99.6 60,98.79408 60,97.8 C60,96.80592 60.80592,96 61.8,96 C62.79408,96 63.6,96.80592 63.6,97.8 Z M73.8,99.6 C74.79408,99.6 75.6,98.79408 75.6,97.8 C75.6,96.80592 74.79408,96 73.8,96 C72.80592,96 72,96.80592 72,97.8 C72,98.79408 72.80592,99.6 73.8,99.6 Z M87.6,97.8 C87.6,98.79408 86.79408,99.6 85.8,99.6 C84.80592,99.6 84,98.79408 84,97.8 C84,96.80592 84.80592,96 85.8,96 C86.79408,96 87.6,96.80592 87.6,97.8 Z M97.8,99.6 C98.79408,99.6 99.6,98.79408 99.6,97.8 C99.6,96.80592 98.79408,96 97.8,96 C96.80592,96 96,96.80592 96,97.8 C96,98.79408 96.80592,99.6 97.8,99.6 Z M111.6,97.8 C111.6,98.79408 110.79408,99.6 109.8,99.6 C108.80592,99.6 108,98.79408 108,97.8 C108,96.80592 108.80592,96 109.8,96 C110.79408,96 111.6,96.80592 111.6,97.8 Z M3.6,109.8 C3.6,110.79408 2.794116,111.6 1.8,111.6 C0.8058876,111.6 0,110.79408 0,109.8 C0,108.80592 0.8058876,108 1.8,108 C2.794116,108 3.6,108.80592 3.6,109.8 Z M15.6,109.8 C15.6,110.79408 14.79408,111.6 13.8,111.6 C12.80592,111.6 12,110.79408 12,109.8 C12,108.80592 12.80592,108 13.8,108 C14.79408,108 15.6,108.80592 15.6,109.8 Z M25.8,111.6 C26.79408,111.6 27.6,110.79408 27.6,109.8 C27.6,108.80592 26.79408,108 25.8,108 C24.80592,108 24,108.80592 24,109.8 C24,110.79408 24.80592,111.6 25.8,111.6 Z M39.6,109.8 C39.6,110.79408 38.79408,111.6 37.8,111.6 C36.80592,111.6 36,110.79408 36,109.8 C36,108.80592 36.80592,108 37.8,108 C38.79408,108 39.6,108.80592 39.6,109.8 Z M49.8,111.6 C50.79408,111.6 51.6,110.79408 51.6,109.8 C51.6,108.80592 50.79408,108 49.8,108 C48.80592,108 48,108.80592 48,109.8 C48,110.79408 48.80592,111.6 49.8,111.6 Z M63.6,109.8 C63.6,110.79408 62.79408,111.6 61.8,111.6 C60.80592,111.6 60,110.79408 60,109.8 C60,108.80592 60.80592,108 61.8,108 C62.79408,108 63.6,108.80592 63.6,109.8 Z M73.8,111.6 C74.79408,111.6 75.6,110.79408 75.6,109.8 C75.6,108.80592 74.79408,108 73.8,108 C72.80592,108 72,108.80592 72,109.8 C72,110.79408 72.80592,111.6 73.8,111.6 Z M87.6,109.8 C87.6,110.79408 86.79408,111.6 85.8,111.6 C84.80592,111.6 84,110.79408 84,109.8 C84,108.80592 84.80592,108 85.8,108 C86.79408,108 87.6,108.80592 87.6,109.8 Z M97.8,111.6 C98.79408,111.6 99.6,110.79408 99.6,109.8 C99.6,108.80592 98.79408,108 97.8,108 C96.80592,108 96,108.80592 96,109.8 C96,110.79408 96.80592,111.6 97.8,111.6 Z M111.6,109.8 C111.6,110.79408 110.79408,111.6 109.8,111.6 C108.80592,111.6 108,110.79408 108,109.8 C108,108.80592 108.80592,108 109.8,108 C110.79408,108 111.6,108.80592 111.6,109.8 Z" id="Shape"></path>
                    </g>
                    <g id="Rectangle-Copy">
                        <use fill="black" fill-opacity="1" filter="url(#filter-2)" xlink:href="#path-1"></use>
                        <use fill="#FFFFFF" fill-rule="evenodd" xlink:href="#path-1"></use>
                    </g>
                    <g id="Group-2" transform="translate(33.600000, 95.920000)">
                        <g id="Group" transform="translate(249.600000, 0.000000)">
                            <rect id="Rectangle" fill="#3B95CB" x="0" y="0" width="129.6" height="40.32" rx="3.84"></rect>
                            <g id="timer" transform="translate(12.480000, 10.560000)" fill="#FFFFFF">
                                <g id="time-and-date" fill-rule="nonzero">
                                    <polygon id="Path" points="9.24730946 7.37278891 8.01850392 7.37278891 8.01912484 11.3136063 10.6555172 13.9506197 11.5243208 13.0818161 9.24793038 10.8048047"></polygon>
                                    <path d="M17.2345011,5.63522612 L14.0568861,2.45761109 L12.90849,3.60600717 C11.8150012,2.97617004 10.5724023,2.58286002 9.24593456,2.48865721 L9.24682159,1.22880554 L11.0904734,1.22880554 L11.0904734,0 L6.1752956,0 L6.1752956,1.22880554 L8.0180604,1.22880554 L8.01717337,2.48879027 C6.69177003,2.58334789 5.45005817,2.97656921 4.35732335,3.60600717 L3.20892726,2.45761109 L0.0313122325,5.63522612 L1.17970832,6.7836222 C0.453317746,8.04476007 0.0313122325,9.50228683 0.0313122325,11.0592055 C0.0313122325,15.8022104 3.88990179,19.6608 8.63290669,19.6608 C13.3759116,19.6608 17.2345011,15.8022104 17.2345011,11.0592055 C17.2345011,9.50228683 16.8124956,8.04471571 16.0861051,6.7836222 C16.0861051,6.7836222 17.2345011,5.63518177 17.2345011,5.63522612 Z M8.63290669,18.4320388 C4.56732819,18.4320388 1.26011778,15.1248284 1.26011778,11.0592499 C1.26011778,6.9936714 4.56732819,3.68646098 8.63290669,3.68646098 C12.6984852,3.68646098 16.0056956,6.9936714 16.0056956,11.0592499 C16.0056956,15.1248284 12.6984852,18.4320388 8.63290669,18.4320388 Z" id="Shape"></path>
                                </g>
                                <text id="00-:-00-:-00" font-family="Muli-Regular, Muli" font-size="15.36" font-weight="normal">
                                    <tspan x="24.96" y="15">00 : 00 : 00</tspan>
                                </text>
                            </g>
                        </g>
                        <text id="Question-1-of-4" opacity="0.5" font-family="Muli-Regular, Muli" font-size="13.44" font-weight="normal" fill="#282232">
                            <tspan x="0" y="28.4">Question 1 of 4</tspan>
                        </text>
                        <rect id="Rectangle" fill="#E3F0F8" x="0" y="63.36" width="308.16" height="11.52" rx="5.76"></rect>
                        <rect id="Rectangle-Copy-2" fill="#E3F0F8" x="0" y="93.12" width="249.6" height="11.52" rx="5.76"></rect>
                        <rect id="Rectangle-Copy-3" fill="#E3F0F8" x="0" y="120" width="183.36" height="11.52" rx="5.76"></rect>
                        <g id="Group-4" transform="translate(0.000000, 169.920000)">
                            <text id="Choose-option-1" font-family="Muli-Regular, Muli" font-size="13.44" font-weight="normal" fill="#282232">
                                <tspan x="30.72" y="14">Choose option 1</tspan>
                            </text>
                            <g id="24px-(50)">
                                <path d="M8.64,5.04 C6.6528,5.04 5.04,6.6528 5.04,8.64 C5.04,10.6272 6.6528,12.24 8.64,12.24 C10.6272,12.24 12.24,10.6272 12.24,8.64 C12.24,6.6528 10.6272,5.04 8.64,5.04 Z M8.64,1.44 C4.6656,1.44 1.44,4.6656 1.44,8.64 C1.44,12.6144 4.6656,15.84 8.64,15.84 C12.6144,15.84 15.84,12.6144 15.84,8.64 C15.84,4.6656 12.6144,1.44 8.64,1.44 Z M8.64,14.4 C5.4576,14.4 2.88,11.8224 2.88,8.64 C2.88,5.4576 5.4576,2.88 8.64,2.88 C11.8224,2.88 14.4,5.4576 14.4,8.64 C14.4,11.8224 11.8224,14.4 8.64,14.4 Z" id="Shape" fill="#7FC600" fill-rule="nonzero"></path>
                                <polygon id="Path" points="0 0 17.28 0 17.28 17.28 0 17.28"></polygon>
                            </g>
                        </g>
                        <g id="Group-5" transform="translate(0.000000, 210.240000)">
                            <text id="Choose-option-2" font-family="Muli-Regular, Muli" font-size="13.44" font-weight="normal" fill="#00263C">
                                <tspan x="30.72" y="14">Choose option 2</tspan>
                            </text>
                            <g id="24px-(51)">
                                <path d="M8.64,1.44 C4.6656,1.44 1.44,4.6656 1.44,8.64 C1.44,12.6144 4.6656,15.84 8.64,15.84 C12.6144,15.84 15.84,12.6144 15.84,8.64 C15.84,4.6656 12.6144,1.44 8.64,1.44 Z M8.64,14.4 C5.4576,14.4 2.88,11.8224 2.88,8.64 C2.88,5.4576 5.4576,2.88 8.64,2.88 C11.8224,2.88 14.4,5.4576 14.4,8.64 C14.4,11.8224 11.8224,14.4 8.64,14.4 Z" id="Shape" fill="#8B8497" fill-rule="nonzero"></path>
                                <polygon id="Path" points="0 0 17.28 0 17.28 17.28 0 17.28"></polygon>
                            </g>
                        </g>
                        <g id="Group-6" transform="translate(0.000000, 250.560000)">
                            <g id="24px-(51)-copy">
                                <path d="M8.64,1.44 C4.6656,1.44 1.44,4.6656 1.44,8.64 C1.44,12.6144 4.6656,15.84 8.64,15.84 C12.6144,15.84 15.84,12.6144 15.84,8.64 C15.84,4.6656 12.6144,1.44 8.64,1.44 Z M8.64,14.4 C5.4576,14.4 2.88,11.8224 2.88,8.64 C2.88,5.4576 5.4576,2.88 8.64,2.88 C11.8224,2.88 14.4,5.4576 14.4,8.64 C14.4,11.8224 11.8224,14.4 8.64,14.4 Z" id="Shape" fill="#8B8497" fill-rule="nonzero"></path>
                                <polygon id="Path" points="0 0 17.28 0 17.28 17.28 0 17.28"></polygon>
                            </g>
                            <text id="Choose-option-3" font-family="Muli-Regular, Muli" font-size="13.44" font-weight="normal" fill="#00263C">
                                <tspan x="30.72" y="14">Choose option 3</tspan>
                            </text>
                        </g>
                        <g id="Group-7" transform="translate(0.000000, 290.880000)">
                            <g id="24px-(51)-copy-2">
                                <path d="M8.64,1.44 C4.6656,1.44 1.44,4.6656 1.44,8.64 C1.44,12.6144 4.6656,15.84 8.64,15.84 C12.6144,15.84 15.84,12.6144 15.84,8.64 C15.84,4.6656 12.6144,1.44 8.64,1.44 Z M8.64,14.4 C5.4576,14.4 2.88,11.8224 2.88,8.64 C2.88,5.4576 5.4576,2.88 8.64,2.88 C11.8224,2.88 14.4,5.4576 14.4,8.64 C14.4,11.8224 11.8224,14.4 8.64,14.4 Z" id="Shape" fill="#8B8497" fill-rule="nonzero"></path>
                                <polygon id="Path" points="0 0 17.28 0 17.28 17.28 0 17.28"></polygon>
                            </g>
                            <text id="Choose-option-4" font-family="Muli-Regular, Muli" font-size="13.44" font-weight="normal" fill="#00263C">
                                <tspan x="30.72" y="14">Choose option 4</tspan>
                            </text>
                        </g>
                    </g>
                    <g id="CTA" transform="translate(32.640000, 461.680000)">
                        <rect id="Rectangle" fill="#7FC600" opacity="0.212169829" x="0" y="0" width="153.6" height="57.6" rx="3.84"></rect>
                        <text id="Next" font-family="Muli-Bold, Muli" font-size="15.36" font-weight="bold" fill="#FFFFFF">
                            <tspan x="15.36" y="34.2">Next</tspan>
                        </text>
                        <g id="right-arrow" transform="translate(115.200000, 22.080000)" fill="#FFFFFF" fill-rule="nonzero">
                            <polygon id="Path" points="16.589088 0.024 15.570912 1.042224 20.101776 5.573136 0 5.573136 0 7.013136 20.101776 7.013136 15.570912 11.544 16.589088 12.562224 22.858224 6.293088"></polygon>
                        </g>
                    </g>
                </g>
            </g>
        </g>
    </g>
</svg>