<?xml version="1.0" encoding="UTF-8"?>
<svg width="16px" height="13px" viewBox="0 0 16 13" version="1.1" xmlns="http://www.w3.org/2000/svg" xmlns:xlink="http://www.w3.org/1999/xlink">
    <!-- Generator: sketchtool 60 (101010) - https://sketch.com -->
    <title>A2B9B339-B7FC-47E9-BC9A-E6215404C22F</title>
    <desc>Created with sketchtool.</desc>
    <g id="Page-1" stroke="none" stroke-width="1" fill="none" fill-rule="evenodd" opacity="0.5">
        <g id="7.1-Lession-List" transform="translate(-154.000000, -107.000000)">
            <g id="::-Header-::">
                <g id="back" transform="translate(151.000000, 101.000000)">
                    <g id="right-arrow-(2)" transform="translate(12.000000, 12.000000) scale(-1, 1) translate(-12.000000, -12.000000) ">
                        <rect id="Rectangle" fill="#D8D8D8" opacity="0" x="0" y="0" width="24" height="24"></rect>
                        <path d="M14.4016,6.17650467 C14.14592,5.93298467 13.74112,5.94258467 13.49664,6.19826467 C13.2528,6.45426467 13.26272,6.85938467 13.5184,7.10322467 L18.42752,11.7598647 L5.64,11.7598647 C5.28672,11.7598647 5,12.0465847 5,12.3998647 C5,12.7531447 5.28672,13.0398647 5.64,13.0398647 L18.40544,13.0398647 L13.5184,17.6965047 C13.2624,17.9403447 13.2528,18.3454647 13.49664,18.6014647 C13.6224,18.7333047 13.79136,18.7998647 13.96,18.7998647 C14.11872,18.7998647 14.27744,18.7413047 14.4016,18.6232247 L19.984,13.3032247 C20.22656,13.0606647 20.36,12.7400247 20.36,12.3998647 C20.36,12.0597047 20.22656,11.7390647 19.9728,11.4853047 L14.4016,6.17650467 Z" id="Path" fill="#FFFFFF" fill-rule="nonzero"></path>
                    </g>
                </g>
            </g>
        </g>
    </g>
</svg>