<?xml version="1.0" encoding="UTF-8"?> <svg xmlns="http://www.w3.org/2000/svg" xmlns:xlink="http://www.w3.org/1999/xlink" width="55" height="55" viewBox="0 0 55 55"><defs><path id="a" d="M0 .085h54.915v54.678H0z"></path></defs><g fill="none" fill-rule="evenodd"><g transform="translate(0 .032)"><mask id="b" fill="#fff"><use xlink:href="#a"></use></mask><path fill="#004697" d="M39.22 22.704h-7.022v-6.966c0-8.645-7.039-15.653-15.72-15.653h-.757C7.038.085 0 7.093 0 15.738v39.025h39.169c8.696 0 15.746-7.02 15.746-15.678v-.754c0-8.63-7.027-15.627-15.695-15.627" mask="url(#b)"></path></g><path fill="#59FFB9" d="M10.829 32.553c0-1.538-.384-2.485-1.632-2.485-1.248 0-1.631.947-1.631 2.485 0 1.538.383 2.485 1.631 2.485s1.632-.947 1.632-2.485m2.06-.009c0 2.807-1.231 3.988-3.133 3.988-1.178 0-1.71-.361-2.095-.943v.822H5.628v-9.558h-.771V25.36h2.47c.185 0 .334.149.334.333v3.716c.402-.496 1.056-.86 2.112-.86 1.885 0 3.115 1.19 3.115 3.996M25.253 36.515h.085l-.084-.002v.002z"></path><path fill="#59FFB9" d="M26.927 35.02H25.55c-.952-.115-.955-.845-.955-1.555v-3.31h1.981V28.66h-1.98v-2.293h-2.034v7.385c0 .748.002 2.72 2.69 2.76.029.001.056.003.085.003h1.658V35.02h-.07zM32.156 35.02H30.78c-.951-.115-.954-.845-.954-1.555v-3.31h1.98V28.66h-1.98v-2.293h-2.034v7.385c0 .748.002 2.72 2.691 2.76.028.001.055.003.084.003h1.658V35.02h-.069zM36.545 29.92c-1.056 0-1.544.608-1.536 2.016h3.072c.009-1.408-.48-2.016-1.536-2.016m-3.647 2.624c0-2.58 1.213-4.031 3.708-4.031 2.225 0 3.56 1.147 3.56 4.04 0 .131 0 .266-.002.387a.429.429 0 0 1-.43.421h-4.707c-.009 1.164.89 1.677 2.286 1.677.855 0 1.256-.198 1.762-.363v1.512c-.419.173-.81.38-2.05.38-2.452 0-4.127-1-4.127-4.023M17.704 29.92c-1.056 0-1.544.608-1.536 2.016h3.072c.009-1.408-.48-2.016-1.536-2.016m-3.648 2.624c0-2.58 1.213-4.031 3.71-4.031 2.224 0 3.56 1.147 3.56 4.04 0 .131-.002.266-.003.387a.429.429 0 0 1-.43.421h-4.707c-.01 1.164.89 1.677 2.286 1.677.855 0 1.256-.198 1.762-.363v1.512c-.42.173-.81.38-2.05.38-2.452 0-4.128-1-4.128-4.023M45.984 28.521c-1.08.002-1.734.592-2.1 1.382v-.91a.334.334 0 0 0-.334-.333h-2.518v1.495h.907v6.256h1.934v-3.554c0-.53.09-1.581.771-2.137.297-.244.725-.4 1.327-.4h.602v-1.799h-.589z"></path><path fill="#FFF" d="M5.573 40.213c0-.626.463-1.078 1.091-1.078.629 0 1.091.452 1.091 1.078 0 .625-.462 1.077-1.09 1.077-.629 0-1.092-.452-1.092-1.077zm2.123 9.818H5.67l-.002-7.75h2.027v7.75zM27.186 40.213c0-.626.463-1.078 1.09-1.078.63 0 1.092.452 1.092 1.078 0 .625-.463 1.077-1.091 1.077-.628 0-1.091-.452-1.091-1.077zm2.122 9.818h-2.024l-.003-7.75h2.027v7.75zM17.23 50.031h-2.383a.334.334 0 0 1-.335-.333V45.6c0-.678 0-1.92-1.222-1.92-1.448 0-1.54 1.755-1.54 2.693v3.658H9.809v-6.256h-.771v-1.494h2.35c.185 0 .335.149.335.333v.718c.236-.46.765-1.182 2.258-1.182 2.565 0 2.565 2.146 2.565 3.198v3.189h.684v1.494zM23.524 46.164c0-1.546-.384-2.502-1.632-2.502-1.248 0-1.632.956-1.632 2.502 0 1.547.384 2.494 1.632 2.494 1.248 0 1.632-.947 1.632-2.494zm1.937 3.867h-2.037l.007-.822c-.383.582-.92.944-2.097.944-1.903 0-3.133-1.182-3.133-3.989 0-2.806 1.23-3.996 3.115-3.996 1.056 0 1.71.365 2.112.86v-4.049h2.033v11.052zM36.27 46.173c0-1.538-.384-2.485-1.632-2.485-1.247 0-1.631.947-1.631 2.485 0 1.538.384 2.485 1.631 2.485 1.248 0 1.632-.947 1.632-2.485zm1.937 3.858h-1.876v-.93c-.393.591-1.082 1.052-2.269 1.052-1.902 0-3.115-1.173-3.115-3.98 0-2.797 1.213-3.98 3.124-3.98 1.196 0 1.877.461 2.252 1.043v-.955h1.884v7.75zM9.993 21.4H8.618c-.953-.115-.956-.845-.956-1.555v-3.31h1.981V15.04h-1.98v-2.294H5.628v7.386c0 .748.002 2.72 2.69 2.76v.003H10.063V21.4h-.07zM18.812 22.895h-2.406a.334.334 0 0 1-.334-.333v-4.099c0-.677 0-1.92-1.222-1.92-1.449 0-1.449 1.755-1.449 2.694v3.658h-2.033v-9.558h-.771v-1.494h2.47c.184 0 .334.149.334.333v3.794c.297-.435.873-.956 2.138-.956 2.566 0 2.566 2.146 2.566 3.198V21.4h.707v1.495zM23.25 16.3c-1.056 0-1.545.608-1.537 2.016h3.072c.009-1.408-.48-2.016-1.536-2.016m-3.647 2.624c0-2.58 1.213-4.032 3.708-4.032 2.226 0 3.56 1.147 3.56 4.04 0 .132 0 .267-.002.388a.429.429 0 0 1-.43.42H21.73c-.009 1.165.89 1.678 2.286 1.678.856 0 1.256-.199 1.762-.364v1.512c-.419.174-.81.38-2.05.38-2.452 0-4.127-.998-4.127-4.022"></path></g></svg> 