<?xml version="1.0" encoding="UTF-8"?>
<svg width="15px" height="17px" viewBox="0 0 15 17" version="1.1" xmlns="http://www.w3.org/2000/svg" xmlns:xlink="http://www.w3.org/1999/xlink">
    <!-- Generator: Sketch 61.2 (89653) - https://sketch.com -->
    <title>calendar</title>
    <desc>Created with Sketch.</desc>
    <g id="Color-Change" stroke="none" stroke-width="1" fill="none" fill-rule="evenodd">
        <g id="add.svg" transform="translate(-98.000000, -45.000000)" fill="#8B8497" fill-rule="nonzero">
            <g id="calendar" transform="translate(98.000000, 45.000000)">
                <path d="M0.535714286,1.03021978 L3.46153846,1.03021978 L3.46153846,0.535714286 C3.46153846,0.247252747 3.70879121,0 3.99725275,0 C4.28571429,0 4.53296703,0.247252747 4.53296703,0.535714286 L4.53296703,1.03021978 L10.467033,1.03021978 L10.467033,0.535714286 C10.467033,0.247252747 10.7142857,0 11.0027473,0 C11.2912088,0 11.5384615,0.247252747 11.5384615,0.535714286 L11.5384615,1.03021978 L14.4642857,1.03021978 C14.793956,1.03021978 15,1.27747253 15,1.56593407 L15,11.4972527 C15,14.010989 12.9807692,16.0302198 10.467033,16.0302198 L0.535714286,16.0302198 C0.206043956,16.0302198 0,15.782967 0,15.4945055 L0,1.56593407 C0,1.23626374 0.247252747,1.03021978 0.535714286,1.03021978 Z M11.5384615,2.06043956 L11.5384615,2.55494505 C11.5384615,2.84340659 11.2912088,3.09065934 11.0027473,3.09065934 C10.7142857,3.09065934 10.467033,2.84340659 10.467033,2.55494505 L10.467033,2.06043956 L4.53296703,2.06043956 L4.53296703,2.55494505 C4.53296703,2.84340659 4.28571429,3.09065934 3.99725275,3.09065934 C3.70879121,3.09065934 3.46153846,2.84340659 3.46153846,2.55494505 L3.46153846,2.06043956 L1.03021978,2.06043956 L1.03021978,3.79120879 L13.9697802,3.79120879 L13.9697802,2.06043956 L11.5384615,2.06043956 Z M13.9697802,4.82142857 L1.03021978,4.82142857 L1.03021978,15 L10.467033,15 C12.4038462,15 13.9697802,13.4340659 13.9697802,11.4972527 L13.9697802,4.82142857 Z" id="Shape"></path>
                <path d="M3.99725275,8.69505495 C3.70879121,8.69505495 3.50274725,8.4478022 3.50274725,8.15934066 C3.50274725,7.87087912 3.70879121,7.62362637 3.99725275,7.62362637 L9.56043956,7.62362637 C9.8489011,7.62362637 10.0549451,7.87087912 10.0549451,8.15934066 C10.0549451,8.4478022 9.8489011,8.69505495 9.56043956,8.69505495 L3.99725275,8.69505495 Z" id="Path"></path>
                <path d="M3.99725275,12.1565934 C3.70879121,12.1565934 3.50274725,11.9505495 3.50274725,11.6620879 C3.50274725,11.3736264 3.70879121,11.1263736 3.99725275,11.1263736 L11.0027472,11.1263736 C11.2912088,11.1263736 11.4972527,11.3736264 11.4972527,11.6620879 C11.4972527,11.9505495 11.2912088,12.1565934 11.0027472,12.1565934 L3.99725275,12.1565934 Z" id="Path"></path>
            </g>
        </g>
    </g>
</svg>