<?xml version="1.0" encoding="UTF-8"?>
<svg width="16px" height="16px" viewBox="0 0 16 16" version="1.1" xmlns="http://www.w3.org/2000/svg" xmlns:xlink="http://www.w3.org/1999/xlink">
    <!-- Generator: sketchtool 63.1 (101010) - https://sketch.com -->
    <title>25E3D435-8878-42DE-876E-E1D15FE70075</title>
    <desc>Created with sketchtool.</desc>
    <g id="Page-2" stroke="none" stroke-width="1" fill="none" fill-rule="evenodd">
        <g id="SafeJob-:-04-Icons-Illustrations" transform="translate(-932.000000, -1830.000000)" fill="#FFFFFF" fill-rule="nonzero">
            <g id="tooltip" transform="translate(395.000000, 1814.000000)">
                <g id="close-(4)" transform="translate(537.000000, 16.000000)">
                    <path d="M9.03296,7.67552 L15.06944,1.63904 C15.44448,1.26432 15.44448,0.65632 15.06944,0.2816 C14.6944,-0.09344 14.08704,-0.09344 13.712,0.2816 L7.67552,6.31808 L1.63872,0.2816 C1.26368,-0.09344 0.65632,-0.09344 0.28128,0.2816 C-0.09376,0.65632 -0.09376,1.26432 0.28128,1.63904 L6.31808,7.67552 L0.28128,13.712 C-0.09376,14.08672 -0.09376,14.69472 0.28128,15.06944 C0.4688,15.25664 0.71456,15.3504 0.96,15.3504 C1.20544,15.3504 1.4512,15.25664 1.63872,15.06912 L7.67552,9.03264 L13.712,15.06912 C13.89952,15.25664 14.14528,15.3504 14.39072,15.3504 C14.63616,15.3504 14.88192,15.25664 15.06944,15.06912 C15.44448,14.6944 15.44448,14.0864 15.06944,13.71168 L9.03296,7.67552 Z" id="Path"></path>
                </g>
            </g>
        </g>
    </g>
</svg>