<?xml version="1.0" encoding="UTF-8"?>
<!DOCTYPE svg PUBLIC "-//W3C//DTD SVG 1.1//EN" "http://www.w3.org/Graphics/SVG/1.1/DTD/svg11.dtd">
<!-- Creator: CorelDRAW X8 -->
<svg xmlns="http://www.w3.org/2000/svg" xml:space="preserve" width="0.621783in" height="0.421988in" version="1.1" style="shape-rendering:geometricPrecision; text-rendering:geometricPrecision; image-rendering:optimizeQuality; fill-rule:evenodd; clip-rule:evenodd"
viewBox="0 0 95 64"
 xmlns:xlink="http://www.w3.org/1999/xlink">
 <defs>
  <style type="text/css">
   <![CDATA[
    .fil0 {fill:#FEFEFE;fill-rule:nonzero}
   ]]>
  </style>
 </defs>
 <g id="Layer_x0020_1">
  <metadata id="CorelCorpID_0Corel-Layer"/>
  <g id="_2991931260928">
   <path class="fil0" d="M92 64c-1,0 -37,0 -38,0 -2,0 -3,-1 -3,-2 0,-12 10,-22 22,-22 12,0 22,10 22,22 0,1 -1,2 -3,2z"/>
   <path class="fil0" d="M41 64c-2,0 -37,0 -38,0 -2,0 -3,-1 -3,-2 0,-12 10,-22 22,-22 12,0 22,10 22,22 0,1 -1,2 -3,2z"/>
   <path class="fil0" d="M84 23c0,-6 -5,-10 -11,-10 -6,0 -11,4 -11,10 0,6 5,11 11,11 6,0 11,-5 11,-11z"/>
   <path class="fil0" d="M33 23c0,-6 -5,-10 -11,-10 -6,0 -11,4 -11,10 0,6 5,11 11,11 6,0 11,-5 11,-11z"/>
   <path class="fil0" d="M52 52l-9 0c-3,-6 -8,-11 -15,-13 4,-7 11,-12 19,-12 9,0 16,5 20,12 -7,2 -12,7 -15,13z"/>
   <path class="fil0" d="M58 11c0,-6 -5,-11 -11,-11 -6,0 -10,5 -10,11 0,6 4,11 10,11 6,0 11,-5 11,-11z"/>
  </g>
 </g>
</svg>
