<?xml version="1.0" encoding="UTF-8"?>
<svg width="12px" height="8px" viewBox="0 0 12 8" version="1.1" xmlns="http://www.w3.org/2000/svg" xmlns:xlink="http://www.w3.org/1999/xlink">
    <!-- Generator: Sketch 61.2 (89653) - https://sketch.com -->
    <title>contact-mail</title>
    <desc>Created with Sketch.</desc>
    <g id="Color-Change" stroke="none" stroke-width="1" fill="none" fill-rule="evenodd">
        <g id="add.svg" transform="translate(-140.000000, -50.000000)" fill-rule="nonzero">
            <g id="contact-mail" transform="translate(137.000000, 45.000000)">
                <rect id="Rectangle" fill="#D8D8D8" opacity="0" x="0" y="0" width="18" height="18"></rect>
                <path d="M3.87804875,5 C3.39160973,5 3,5.39644422 3,5.8888884 L3,12.1111116 C3,12.6035558 3.39160973,13 3.87804875,13 L14.1219512,13 C14.6083902,13 15,12.6035558 15,12.1111116 L15,5.8888884 C15,5.39644422 14.6083902,5 14.1219512,5 L3.87804875,5 Z M4.49543412,6.47685844 C4.59096583,6.46796955 4.67306339,6.50391028 4.733239,6.56017691 L8.58841462,10.1666682 C8.82856096,10.3915274 9.1617073,10.3915422 9.40243901,10.1666682 L13.266761,6.56017691 C13.3793122,6.45472512 13.576478,6.46244363 13.6806439,6.57638431 C13.7848098,6.69032499 13.7771854,6.88992488 13.6646341,6.99537667 L11.4786585,9.03703924 L13.6600683,11.0000011 C13.7903122,11.0978529 13.8119122,11.3131861 13.7037659,11.4355416 C13.5956195,11.5579119 13.3818293,11.5600156 13.2713415,11.4398379 L11.0487805,9.43983901 L9.80031218,10.601868 C9.34599511,11.0262678 8.64465364,11.0270826 8.19055608,10.601868 L6.95121949,9.43983901 L4.72865851,11.4398379 C4.61817071,11.5600304 4.40438046,11.5579267 4.29623412,11.4355416 C4.18808778,11.3131861 4.20968778,11.0978529 4.33993168,11.0000011 L6.52134144,9.03703924 L4.33536583,6.99537667 C4.24985851,6.92035449 4.21393168,6.79238419 4.24769266,6.68305092 C4.281439,6.57373246 4.38295607,6.48924362 4.49543412,6.47685844 Z" id="Shape" fill="#0098D6"></path>
            </g>
        </g>
    </g>
</svg>