<?xml version="1.0" encoding="UTF-8"?>
<svg width="10px" height="10px" viewBox="0 0 10 10" version="1.1" xmlns="http://www.w3.org/2000/svg" xmlns:xlink="http://www.w3.org/1999/xlink">
    <!-- Generator: Sketch 61.2 (89653) - https://sketch.com -->
    <title>contact-phone</title>
    <desc>Created with Sketch.</desc>
    <g id="Color-Change" stroke="none" stroke-width="1" fill="none" fill-rule="evenodd">
        <g id="add.svg" transform="translate(-183.000000, -49.000000)" fill-rule="nonzero">
            <g id="contact-phone" transform="translate(179.000000, 45.000000)">
                <rect id="Rectangle" fill="#D8D8D8" opacity="0" x="0" y="0" width="18" height="18"></rect>
                <g id="download-(20)" transform="translate(4.000000, 4.000000)" fill="#0098D6">
                    <path d="M0.036036036,1.26126126 C0.036036036,1.26126126 1.11711712,0 1.65765766,0.036036036 C2.1981982,0.108108108 2.91891892,1.2972973 3.13513514,1.98198198 C3.35135135,2.66666667 2.88288288,3.13513514 2.7027027,3.38738739 C2.55855856,3.6036036 2.41441441,3.78378378 2.41441441,3.78378378 C2.84684685,5.08108108 4.61261261,6.84684685 5.90990991,7.27927928 C5.90990991,7.27927928 6.09009009,7.17117117 6.34234234,6.99099099 C6.55855856,6.81081081 7.02702703,6.37837838 7.74774775,6.59459459 C8.43243243,6.77477477 9.62162162,7.53153153 9.65765766,8.03603604 C9.69369369,8.57657658 8.43243243,9.65765766 8.43243243,9.65765766 C4.18018018,9.83783784 -0.108108108,5.51351351 0.036036036,1.26126126 Z" id="Path"></path>
                </g>
            </g>
        </g>
    </g>
</svg>