<?xml version="1.0" encoding="UTF-8"?>
<svg width="18px" height="18px" viewBox="0 0 18 18" version="1.1" xmlns="http://www.w3.org/2000/svg" xmlns:xlink="http://www.w3.org/1999/xlink">
    <!-- Generator: Sketch 61.2 (89653) - https://sketch.com -->
    <title>correct2</title>
    <desc>Created with Sketch.</desc>
    <g id="Color-Change" stroke="none" stroke-width="1" fill="none" fill-rule="evenodd">
        <g id="add.svg" transform="translate(-221.000000, -47.000000)" fill="#0098D6" fill-rule="nonzero">
            <g id="correct2" transform="translate(221.000000, 47.000000)">
                <path d="M15.34896,2.6334439 C13.6507434,0.935262439 11.3928585,0 8.99121951,0 C6.58954537,0 4.33166049,0.935262439 2.6334439,2.6334439 C0.935262439,4.33166049 0,6.58958049 0,8.99121951 C0,11.3928585 0.935262439,13.6507434 2.6334439,15.34896 C4.33166049,17.0471766 6.58958049,17.982439 8.99121951,17.982439 C11.3928585,17.982439 13.6507434,17.0471766 15.34896,15.3489951 C17.0471766,13.6507434 17.982439,11.3928585 17.982439,8.99121951 C17.982439,6.58958049 17.0471766,4.33169561 15.34896,2.6334439 Z M13.2868449,6.85134439 L8.26212293,11.8761015 C8.15925073,11.9789737 8.02441756,12.0303922 7.88961951,12.0303922 C7.75478634,12.0303922 7.61995317,11.9789737 7.51708098,11.8761015 L4.69559415,9.05464976 C4.48984976,8.84894049 4.48984976,8.51538732 4.69559415,8.3096078 C4.90130341,8.10386341 5.23489171,8.10386341 5.4406361,8.3096078 L7.88961951,10.7585561 L12.5418029,6.10630244 C12.7475122,5.90055805 13.0811005,5.90055805 13.2868449,6.10630244 C13.4925893,6.31204683 13.4925893,6.6456 13.2868449,6.85134439 Z" id="Shape"></path>
            </g>
        </g>
    </g>
</svg>