<?xml version="1.0" encoding="UTF-8"?>
<svg width="24px" height="18px" viewBox="0 0 24 18" version="1.1" xmlns="http://www.w3.org/2000/svg" xmlns:xlink="http://www.w3.org/1999/xlink">
    <!-- Generator: Sketch 64 (93537) - https://sketch.com -->
    <title>youtube (1)</title>
    <desc>Created with Sketch.</desc>
    <g id="Page-1" stroke="none" stroke-width="1" fill="none" fill-rule="evenodd" opacity="0.5">
        <g id="1.1-Dashboard-Mobile-Copy" transform="translate(-84.000000, -429.000000)">
            <g id="Group" transform="translate(20.000000, 392.000000)">
                <g id="youtube-(1)" transform="translate(64.000000, 34.000000)">
                    <rect id="Rectangle" stroke="#979797" fill="#D8D8D8" opacity="0" x="1" y="0" width="24" height="24"></rect>
                    <path d="M11.7581649,3 L12.9979974,3.00473747 C14.1092551,3.01445205 15.3139637,3.03665212 16.4717646,3.07637295 C18.5787213,3.14865659 20.0794077,3.26271615 20.8728113,3.45712915 C22.1756852,3.82573606 23.1818893,4.86305987 23.5246966,6.24184622 C23.852868,8.06118918 24.0121663,9.9069721 24.000572,11.7457669 C24.0071162,13.5668023 23.847838,15.3846515 23.510653,17.2421675 C23.1818893,18.5556612 22.1756852,19.592985 20.8589402,19.9654088 C20.188893,20.1446074 18.9554827,20.2627358 17.242424,20.342766 L17.242424,20.342766 L16.5318178,20.3728006 C15.5394949,20.4107132 14.4783035,20.4350396 13.4173943,20.4485506 C13.0462976,20.4532766 12.7016417,20.4563154 12.3921588,20.4580045 L12.3921588,20.4580045 L11.3704274,20.4564793 L9.78910818,20.4363462 C8.99656192,20.4220273 8.2135812,20.4012351 7.46933906,20.3728006 C5.38459885,20.293151 3.90160346,20.1685006 3.13666136,19.9639059 C1.86129733,19.6149433 0.860979402,18.6249379 0.476460191,17.2568748 C0.148288834,15.4375319 -0.0110095044,13.591749 0.000590617732,11.7543016 C-0.00847566445,9.91944964 0.150812573,8.08763491 0.490503776,6.21655361 C0.81926753,4.90305987 1.82547163,3.86573606 3.14221667,3.49331229 C3.83749834,3.30736487 5.14177303,3.18683022 6.95495846,3.10697522 L6.95495846,3.10697522 L8.26447161,3.05874909 C9.0739526,3.03410767 9.88577492,3.01814912 10.6511163,3.00895579 L10.6511163,3.00895579 L11.7581649,3 Z M11.7663938,4.99998307 C10.5492676,5.00499093 9.11511936,5.02755276 7.73079713,5.07758327 C5.72171455,5.1501931 4.23576061,5.27114284 3.67281132,5.42159192 C3.0592887,5.59516872 2.58546772,6.08364396 2.44470413,6.63683324 C2.14077336,8.32219718 1.99210434,10.0318909 2.0005587,11.7556393 C1.98972491,13.4810621 2.13840336,15.2037928 2.42233719,16.8054626 C2.59287803,17.4042958 3.06392721,17.8704888 3.65894015,18.0333123 C4.2158799,18.1822613 5.62880287,18.3010219 7.54569531,18.3742587 L7.54569531,18.3742587 L8.28803916,18.3997095 C9.0415699,18.4227597 9.82532108,18.4387294 10.6092311,18.4487128 C10.9752772,18.4533745 11.3151111,18.4563707 11.6199139,18.4580343 L11.6199139,18.4580343 L12.6162756,18.4565315 L14.1746694,18.4366934 C14.9551333,18.4225976 15.7254179,18.4021507 16.4554615,18.3742587 L16.4554615,18.3742587 L16.7702145,18.3616343 C18.5266607,18.2877449 19.8154474,18.1741984 20.3283455,18.0371291 C20.9418681,17.8635523 21.4156891,17.3750771 21.5564469,16.8219197 C21.8580332,15.1492465 22.0066928,13.4525873 22.0005981,11.7430817 C22.0114319,10.017659 21.8627535,8.29492827 21.5705038,6.66216746 C21.4156891,6.04364396 20.9418681,5.55516872 20.3633622,5.39081741 C19.8877032,5.27466811 18.8098174,5.17941067 17.3344622,5.11214245 L17.3344622,5.11214245 L16.4031907,5.07519701 C15.4923228,5.04394774 14.5492727,5.0236847 13.6484952,5.01192598 L13.6484952,5.01192598 L12.3383403,5.00035589 Z M8.75057841,8.47936053 C8.75057841,7.71245314 9.57827995,7.2309775 10.2449254,7.61009589 L10.2449254,7.61009589 L15.9949254,10.8800959 C16.6691294,11.2635128 16.6691294,12.2352083 15.9949254,12.6186252 L15.9949254,12.6186252 L10.2449254,15.8886252 C9.57827995,16.2677436 8.75057841,15.7862679 8.75057841,15.0193605 L8.75057841,15.0193605 Z M10.7505784,10.1983605 L10.7505784,13.2993605 L13.4765784,11.7493605 L10.7505784,10.1983605 Z" id="Combined-Shape" fill="#000000" fill-rule="nonzero"></path>
                </g>
            </g>
        </g>
    </g>
</svg>