<?xml version="1.0" encoding="UTF-8"?>
<svg width="36px" height="36px" viewBox="0 0 36 36" version="1.1" xmlns="http://www.w3.org/2000/svg" xmlns:xlink="http://www.w3.org/1999/xlink">
    <!-- Generator: Sketch 61.2 (89653) - https://sketch.com -->
    <title>pdf (1)</title>
    <desc>Created with Sketch.</desc>
    <g id="Page-1" stroke="none" stroke-width="1" fill="none" fill-rule="evenodd">
        <g id="16.1-Payment-History-Copy" transform="translate(-1144.000000, -380.000000)" fill-rule="nonzero">
            <g id="pdf-(1)" transform="translate(1144.000000, 380.000000)">
                <path d="M28.9938462,22.3029231 C32.6871923,22.3029231 35.6847692,25.2981923 35.6847692,28.9938462 C35.6847692,32.6895 32.6873077,35.6847692 28.9938462,35.6847692 C25.3003846,35.6847692 22.3029231,32.6895 22.3029231,28.9938462 C22.3029231,25.3003846 25.3005,22.3029231 28.9938462,22.3029231 Z" id="Path" fill="#E2574C"></path>
                <g id="Group-4" transform="translate(26.000000, 24.000000)" fill="#FFFFFF">
                    <path d="M2.75193736,6.82144814 C2.98677102,7.05643835 3.36735811,7.0562818 3.60203523,6.82144814 L6.1776908,4.24579256 C6.41252446,4.01111545 6.41252446,3.63037181 6.1776908,3.39569474 C5.94301369,3.16086104 5.56242659,3.16086104 5.32759293,3.39569474 L3.77816046,4.94512721 L3.77816046,0.601174168 C3.77816046,0.269119384 3.50888453,6.39488462e-15 3.17698629,6.39488462e-15 C2.84493151,6.39488462e-15 2.57581212,0.269119384 2.57581212,0.601174168 L2.57581212,4.94512721 L1.02637965,3.39569474 C0.791545988,3.16086104 0.410958894,3.16086104 0.176125235,3.39569474 C-0.0585518791,3.63037181 -0.0585518791,4.01111545 0.176125235,4.24579256 L2.75193736,6.82144814 Z" id="Path"></path>
                    <path d="M5.75264187,8.37103716 L0.601174168,8.37103716 C0.26927593,8.37103716 -1.03739239e-13,8.64015655 -1.03739239e-13,8.97221133 C-1.03739239e-13,9.30410957 0.26927593,9.5733855 0.601174168,9.5733855 L5.75264187,9.5733855 C6.08454011,9.5733855 6.35381604,9.30410957 6.35381604,8.97221133 C6.35381604,8.64015655 6.08469665,8.37103716 5.75264187,8.37103716 Z" id="Path"></path>
                </g>
                <path d="M20.7228462,28.9937308 C20.7228462,24.4261154 24.4262308,20.7227308 28.9938462,20.7227308 C29.7666923,20.7227308 30.5138077,20.8375385 31.2241154,21.0361154 L31.2241154,10.0051154 L21.1801154,0 L2.23038462,0 C0.999230769,0 0.000115384615,0.998076923 0.000115384615,2.23026923 L0.000115384615,33.4543846 C0.000115384615,34.6865769 0.999230769,35.6846538 2.23038462,35.6846538 L24.1452692,35.6846538 C22.0744615,34.1814231 20.7228462,31.7493462 20.7228462,28.9937308 Z" id="Path" fill="#E2574C"></path>
                <path d="M31.1916923,10.0362692 L23.418,10.0362692 C22.1868462,10.0362692 21.1877308,9.03715385 21.1877308,7.806 L21.1877308,0.0222692308 L31.1916923,10.0362692 Z" id="Path" fill="#B53629"></path>
                <path d="M22.8582692,16.9089231 C23.2318846,16.9089231 23.4147692,16.5833077 23.4147692,16.2677308 C23.4147692,15.9409615 23.2240385,15.6253846 22.8582692,15.6253846 L20.7305769,15.6253846 C20.3146154,15.6253846 20.0826923,15.9699231 20.0826923,16.3502308 L20.0826923,21.5791154 C20.0826923,22.0452692 20.3480769,22.3039615 20.7071538,22.3039615 C21.0640385,22.3039615 21.3305769,22.0452692 21.3305769,21.5791154 L21.3305769,20.1439615 L22.6174615,20.1439615 C23.0166923,20.1439615 23.2163077,19.8171923 23.2163077,19.4927308 C23.2163077,19.1749615 23.0166923,18.8592692 22.6174615,18.8592692 L21.3305769,18.8592692 L21.3305769,16.9089231 C21.3305769,16.9089231 22.8582692,16.9089231 22.8582692,16.9089231 Z M15.6668077,15.6253846 L14.1100385,15.6253846 C13.6873846,15.6253846 13.3873846,15.9153462 13.3873846,16.3457308 L13.3873846,21.5836154 C13.3873846,22.1177308 13.8189231,22.2850385 14.1278077,22.2850385 L15.7615385,22.2850385 C17.6951538,22.2850385 18.972,21.0126923 18.972,19.0488462 C18.9709615,16.9725 17.7688846,15.6253846 15.6668077,15.6253846 Z M15.7414615,20.9937692 L14.7924231,20.9937692 L14.7924231,16.9167692 L15.6477692,16.9167692 C16.9425,16.9167692 17.5055769,17.7855 17.5055769,18.9842308 C17.5055769,20.1061154 16.9525385,20.9937692 15.7414615,20.9937692 Z M10.0386923,15.6253846 L8.49646154,15.6253846 C8.06042308,15.6253846 7.81730769,15.9130385 7.81730769,16.3502308 L7.81730769,21.5791154 C7.81730769,22.0452692 8.09607692,22.3039615 8.47073077,22.3039615 C8.84538462,22.3039615 9.12415385,22.0452692 9.12415385,21.5791154 L9.12415385,20.0524615 L10.0909615,20.0524615 C11.2841538,20.0524615 12.2688462,19.2071538 12.2688462,17.8478077 C12.2689615,16.5175385 11.3188846,15.6253846 10.0386923,15.6253846 Z M10.0129615,18.8259231 L9.12415385,18.8259231 L9.12415385,16.8531923 L10.0129615,16.8531923 C10.5616154,16.8531923 10.9106538,17.2813846 10.9106538,17.8400769 C10.9096154,18.3977308 10.5616154,18.8259231 10.0129615,18.8259231 Z" id="Shape" fill="#FFFFFF"></path>
            </g>
        </g>
    </g>
</svg>