<?xml version="1.0" encoding="UTF-8"?>
<svg width="18px" height="18px" viewBox="0 0 18 18" version="1.1" xmlns="http://www.w3.org/2000/svg" xmlns:xlink="http://www.w3.org/1999/xlink">
    <!-- Generator: sketchtool 60.1 (101010) - https://sketch.com -->
    <title>44031F3B-0A6D-41CD-9872-22A16BA0622E</title>
    <desc>Created with sketchtool.</desc>
    <g id="Asset-Artboard-Page" stroke="none" stroke-width="1" fill="none" fill-rule="evenodd">
        <g id="Icons-/-Line-/-Down-Arrow">
            <g>
                <rect id="Rectangle" fill="#D8D8D8" opacity="0" x="0" y="0" width="18" height="18"></rect>
                <path d="M3.77110122,5.25 C3.57401933,5.25 3.3740053,5.33044663 3.22446601,5.48738351 C2.925178,5.80147705 2.925178,6.32086337 3.22446601,6.63495692 L8.82506839,12.5126165 C8.96958115,12.6642782 9.17357452,12.75 9.3717036,12.75 C9.56794774,12.75 9.76356356,12.6750484 9.91833881,12.5126165 L15.511192,6.6426499 C15.8245124,6.33317215 15.8284917,5.80147705 15.5292037,5.48738351 C15.2299157,5.17328996 14.7350118,5.17328996 14.4357238,5.48738351 C14.4357238,5.48738351 14.4355144,5.48760331 14.4355144,5.48760331 L14.4355144,5.48760331 L9.38154723,10.8019167 L4.317527,5.48738351 C4.16777827,5.33022683 3.96776424,5.25 3.77089178,5.25 L3.77110122,5.25 Z" id="Path" fill="#FFFFFF"></path>
            </g>
        </g>
    </g>
</svg>