<?xml version="1.0" encoding="UTF-8"?>
<svg width="109px" height="58px" viewBox="0 0 109 58" version="1.1" xmlns="http://www.w3.org/2000/svg" xmlns:xlink="http://www.w3.org/1999/xlink">
    <!-- Generator: sketchtool 60.1 (101010) - https://sketch.com -->
    <title>61E894C7-2397-4230-A12F-5FDD17821F97</title>
    <desc>Created with sketchtool.</desc>
    <g id="Page-2" stroke="none" stroke-width="1" fill="none" fill-rule="evenodd">
        <g id="14.3-Home" transform="translate(-1055.000000, -3782.000000)" fill="#533092" fill-rule="nonzero">
            <g id="::-150-Companies-::" transform="translate(150.000000, 3613.000000)">
                <g id="Group-17" transform="translate(607.000000, 74.000000)">
                    <g id="2" transform="translate(298.000000, 95.000000)">
                        <path d="M0.00384,37.1637875 C0.00384,29.9665024 5.2891328,26.5927258 9.88324224,26.5927258 C12.5262464,26.5927258 14.5995546,27.5674125 15.9406144,28.9918157 L15.9406144,17.6476877 L21.5116186,17.6476877 L21.5116186,47.3281715 L15.9406144,47.3281715 L15.9406144,45.0512768 C14.5995584,46.6362573 12.445111,47.7341261 9.80209152,47.7341261 C5.49247104,47.7341261 0.00384,44.3190349 0.00384,37.1637875 M16.1041229,37.1224806 C16.1041229,34.0727834 13.9489331,31.6744243 10.8999667,31.6744243 C7.85025536,31.6744243 5.45116544,33.9923763 5.45116544,37.1224806 C5.45116544,40.2127603 7.85025536,42.6118579 10.8999667,42.6118579 C13.9489331,42.6118579 16.1041229,40.1721933 16.1041229,37.1224806 M29.9296678,45.33504 L29.9296678,56.6784346 L24.3601318,56.6784346 L24.3601318,26.999424 L29.9296678,26.999424 L29.9296678,29.3159014 C31.2308826,27.7309286 33.2638554,26.5927322 36.0283469,26.5927322 C40.6231872,26.5927322 45.8671731,29.9665088 45.8671731,37.1637939 C45.8671731,44.3190413 40.4604083,47.7341325 36.1094771,47.7341325 C33.3860531,47.7341325 31.2308774,46.8410765 29.9296627,45.3350426 M40.4198426,37.122487 C40.4198426,33.9923853 38.1018906,31.6744307 34.9710413,31.6744307 C31.9220608,31.6744307 29.7668851,34.0727898 29.7668851,37.122487 C29.7668851,40.1721843 31.9220608,42.6118643 34.9710413,42.6118643 C38.1018893,42.6118643 40.4198426,40.2127603 40.4198426,37.122487 M47.535991,37.1637939 C47.535991,29.9665088 52.8220083,26.5927322 57.4153946,26.5927322 C60.0581594,26.5927322 62.1324224,27.6906074 63.4734963,29.1944294 L63.4734963,26.999424 L69.043776,26.999424 L69.043776,47.0023757 C69.043776,53.1017843 64.5307866,57.0851238 59.2042035,57.0851238 C53.4726272,57.0851238 49.7317325,53.7523994 48.5522291,49.3198374 L54.5697651,49.3198374 C55.3425766,50.9473395 56.5621619,51.881705 59.2041971,51.881705 C61.6438477,51.881705 63.473495,49.8081651 63.473495,47.1653926 L63.473495,45.0512768 C62.1324211,46.6362573 59.9772467,47.7341261 57.3342426,47.7341261 C53.0246221,47.7341261 47.535991,44.3190349 47.535991,37.1637875 M63.6362739,37.1224806 C63.6362739,34.0727834 61.481815,31.6744243 58.4321178,31.6744243 C55.3831514,31.6744243 52.9840461,33.9923763 52.9840461,37.1224806 C52.9840461,40.2127603 55.3831501,42.6118579 58.4321178,42.6118579 C61.481815,42.6118579 63.6362739,40.1721933 63.6362739,37.1224806 M32.4176358,17.2935206 L33.7476838,17.2935206 L33.7476838,18.0470272 C34.1502298,17.4939392 34.7905728,17.1676672 35.5939341,17.1676672 C36.5977101,17.1676672 37.301111,17.5953792 37.6650355,18.298048 C38.1044723,17.5953792 38.8447923,17.1676672 39.7869747,17.1676672 C41.5066227,17.1676672 42.3850189,18.1843917 42.3850189,19.8040832 L42.3850189,23.5701427 L41.0165888,23.5701427 L41.0165888,19.8915635 C41.0165888,18.9378944 40.5150656,18.3349478 39.5606515,18.3349478 C38.7064512,18.3349478 38.0668378,18.9124749 38.0668378,20.0299072 L38.0668378,23.5701427 L36.711369,23.5701427 L36.711369,19.8294925 C36.711369,18.9124749 36.1961523,18.3349478 35.2928294,18.3349478 C34.4012314,18.3349478 33.7608883,18.9254234 33.7608883,20.0804928 L33.7608883,23.5701427 L32.4176358,23.5701427 L32.4176358,17.2935206 Z M43.6959322,20.4573504 C43.6959322,22.2275981 44.9514547,23.695991 46.9350643,23.695991 C48.5547354,23.695991 49.5961638,22.8542477 50.0854541,21.4611418 L48.6422413,21.4611418 C48.4034586,22.1139418 47.8136973,22.5284518 46.9475213,22.5284518 C45.8430515,22.5284518 45.1271808,21.8250522 44.9761421,20.858912 L50.1859085,20.858912 L50.1859085,20.394295 C50.1859085,18.5236083 48.8052582,17.1673933 46.9475213,17.1673933 C45.1020173,17.1673933 43.6959322,18.6118451 43.6959322,20.4573504 L43.6959322,20.4573504 Z M45.0643789,19.7292621 C45.3240063,18.9040439 46.0947448,18.3472801 46.959744,18.3600986 C47.9143974,18.3600986 48.5794304,18.8376794 48.8182131,19.7292621 L45.0643789,19.7292621 L45.0643789,19.7292621 Z M51.4560192,20.4320051 C51.4560192,22.4280717 52.9874688,23.696178 54.5817357,23.696178 C55.3950291,23.7016763 56.1666468,23.3367361 56.6782566,22.7044915 L56.6782566,23.570176 L58.0090522,23.570176 L58.0090522,14.4059162 L56.6782566,14.4059162 L56.6782566,18.1096512 C56.2136384,17.5198912 55.4356966,17.1674688 54.5946995,17.1674688 C52.937376,17.1674688 51.4560192,18.4232294 51.4560192,20.4320051 L51.4560192,20.4320051 Z M56.7535437,20.4197734 C56.7535437,21.5494234 55.9125312,22.4657088 54.7699341,22.4657088 C53.6525018,22.4657088 52.7868147,21.5741107 52.7868147,20.4197734 C52.7868147,19.2764442 53.6525018,18.3855782 54.7699341,18.3855782 C55.9125312,18.3855782 56.7535437,19.3148122 56.7535437,20.4197734 L56.7535437,20.4197734 Z M60.4818778,14.5195264 C60.1162519,14.5195265 59.7866418,14.7398132 59.6467913,15.0776358 C59.5069407,15.4154583 59.5844014,15.8042628 59.8430424,16.0626948 C60.1016835,16.3211267 60.4905505,16.3982728 60.8282598,16.258149 C61.165969,16.1180251 61.3859891,15.7882369 61.3856934,15.4226112 C61.3993793,15.1790309 61.3085336,14.941175 61.1359549,14.7687359 C60.9633761,14.5962967 60.7254469,14.5056435 60.4818778,14.5195264 L60.4818778,14.5195264 Z M59.8043597,23.5699098 L61.1605594,23.5699098 L61.1605594,17.2933018 L59.8043597,17.2933018 L59.8043597,23.5699098 Z M62.4782733,20.4320051 C62.4782733,22.4280717 64.0097293,23.6960512 65.6039808,23.6960512 C66.417286,23.7017316 67.1889261,23.3367804 67.7005005,22.7044915 L67.7005005,23.570176 L69.043776,23.570176 L69.043776,17.2933248 L67.7004941,17.2933248 L67.7004941,18.1096499 C67.2358771,17.5198899 66.4579354,17.1674675 65.6169523,17.1674675 C63.9596301,17.1674675 62.4782733,18.4232282 62.4782733,20.4320038 L62.4782733,20.4320051 Z M67.7757978,20.4197722 C67.7757978,21.5494221 66.9347853,22.4657075 65.7921715,22.4657075 C64.6747405,22.4657075 63.8090534,21.5741094 63.8090534,20.4197722 C63.8090534,19.2764429 64.6747405,18.385577 65.7921715,18.385577 C66.9347853,18.385577 67.7757978,19.3148109 67.7757978,20.4197722 L67.7757978,20.4197722 Z" id="Shape"></path>
                        <rect id="Rectangle" x="75.90208" y="14.40576" width="5.570944" height="9.16416"></rect>
                        <rect id="Rectangle" x="102.911616" y="7.4624" width="5.570944" height="9.829504"></rect>
                        <rect id="Rectangle" x="84.905216" y="7.4624" width="5.570944" height="19.537024"></rect>
                        <rect id="Rectangle" x="93.913216" y="0.022528" width="5.561344" height="23.546368"></rect>
                    </g>
                </g>
            </g>
        </g>
    </g>
</svg>