<?xml version="1.0" encoding="UTF-8"?>
<svg width="21px" height="21px" viewBox="0 0 21 21" version="1.1" xmlns="http://www.w3.org/2000/svg" xmlns:xlink="http://www.w3.org/1999/xlink">
    <!-- Generator: Sketch 61.2 (89653) - https://sketch.com -->
    <title>editicon</title>
    <desc>Created with Sketch.</desc>
    <g id="Color-Change" stroke="none" stroke-width="1" fill="none" fill-rule="evenodd">
        <g id="add.svg" transform="translate(-311.000000, -48.000000)" fill="#0098D6" fill-rule="nonzero">
            <g id="editicon" transform="translate(311.000000, 48.000000)">
                <path d="M19.14,1.32 C18.3327594,0.493519471 17.2262954,0.0275555041 16.071,0.0275555041 C14.9157046,0.0275555041 13.8092406,0.493519471 13.002,1.32 L2.574,11.748 C2.50055712,11.8230335 2.444263,11.9131041 2.409,12.012 L0.099,19.14 C-0.0287666717,19.4865102 0.062071966,19.8758186 0.33,20.13 C0.510626778,20.3196581 0.761091172,20.427 1.023,20.427 L1.32,20.361 L8.448,18.051 L8.712,17.886 L19.14,7.458 C19.9664805,6.65075945 20.4324445,5.54429536 20.4324445,4.389 C20.4324445,3.23370464 19.9664805,2.12724055 19.14,1.32 Z M3.96,12.21 L12.375,3.795 L16.665,8.085 L8.25,16.5 L3.96,12.21 Z M3.333,13.431 L7.029,17.127 L1.551,18.909 L3.333,13.431 Z M18.216,6.534 L17.589,7.161 L13.299,2.871 L13.926,2.244 C14.4925505,1.67131819 15.265434,1.35027426 16.071,1.35296578 C17.7477365,1.35296578 19.1070342,2.7122635 19.1070342,4.389 C19.1097257,5.19456595 18.7886818,5.96744949 18.216,6.534 L18.216,6.534 Z" id="Shape"></path>
            </g>
        </g>
    </g>
</svg>