<?xml version="1.0" encoding="UTF-8"?>
<svg width="27px" height="27px" viewBox="0 0 27 27" version="1.1" xmlns="http://www.w3.org/2000/svg" xmlns:xlink="http://www.w3.org/1999/xlink">
    <!-- Generator: Sketch 61.2 (89653) - https://sketch.com -->
    <title>exp</title>
    <desc>Created with Sketch.</desc>
    <g id="Color-Change" stroke="none" stroke-width="1" fill="none" fill-rule="evenodd">
        <g id="add.svg" transform="translate(-410.000000, -45.000000)" fill="#8B8497" fill-rule="nonzero">
            <g id="exp" transform="translate(410.000000, 45.000000)">
                <path d="M4.29634368,16.1285645 C4.47348096,16.2471226 4.67379072,16.3037837 4.87197504,16.3037837 C5.20634304,16.3037837 5.53464576,16.1422502 5.73459264,15.8434963 C7.40990592,13.340039 10.2104582,11.84544 13.2260429,11.84544 C16.232711,11.84544 19.0286496,13.3331962 20.7051552,15.8251968 C21.0248525,16.3003104 21.6690682,16.4263334 22.1441299,16.106688 C22.6192435,15.7870426 22.7452666,15.142775 22.4256211,14.6677133 C21.0861274,12.6767462 19.1656627,11.2076525 16.9710682,10.4217581 C18.2871821,9.34664832 19.12896,7.71177024 19.12896,5.88384 C19.12896,2.65374144 16.5011386,0.02592 13.27104,0.02592 C10.0409414,0.02592 7.41312,2.65374144 7.41312,5.88384 C7.41312,7.69865472 8.24266368,9.32326848 9.54249984,10.3986374 C7.3135872,11.1816288 5.36424768,12.6685037 4.01127552,14.6902637 C3.6928224,15.1661549 3.82045248,15.8101114 4.29634368,16.1285645 Z M13.27104,2.09952 C15.3577037,2.09952 17.05536,3.79717632 17.05536,5.88384 C17.05536,7.97050368 15.3577037,9.66816 13.27104,9.66816 C11.1843763,9.66816 9.48672,7.97050368 9.48672,5.88384 C9.48672,3.79717632 11.1843763,2.09952 13.27104,2.09952 Z M17.4056947,18.3840192 L15.8600333,19.4990458 C15.630071,19.6649338 15.5338042,19.9590221 15.621673,20.2274496 L16.2441158,22.0315853 C16.2703987,22.1119373 16.2805075,22.190423 16.2771379,22.26528 C16.2551059,22.7498285 15.6478003,23.0812934 15.202391,22.7599891 L13.6567814,21.6446515 C13.5418003,21.5617075 13.4064461,21.5202355 13.2710918,21.5202355 C13.1357376,21.5202355 13.0003834,21.5617075 12.8854022,21.6446515 L11.3397926,22.7599891 C10.8943834,23.0812934 10.2841747,22.7498285 10.2648902,22.26528 C10.2619354,22.190423 10.2723034,22.1118854 10.2985862,22.0315853 L10.9204589,20.2274496 C11.0083277,19.9590221 10.9120608,19.6649338 10.6820986,19.4990458 L9.13643712,18.3840192 C8.62218432,18.0130522 8.88646464,17.13312 9.52212672,17.13312 L11.4326381,17.13312 C11.7169286,17.13312 11.968871,17.0236858 12.056688,16.7552582 L12.6470419,14.9394586 C12.7452787,14.6393568 13.0081594,14.48928 13.2710918,14.48928 C13.5340243,14.48928 13.796905,14.6393568 13.8951418,14.9394586 L14.4854957,16.7552582 C14.5733645,17.0236858 14.825255,17.13312 15.1095456,17.13312 L17.020057,17.13312 C17.6556672,17.13312 17.9199475,18.0130522 17.4056947,18.3840192 Z M26.2703347,22.0128192 L24.7246733,23.1278458 C24.494711,23.2937338 24.3984442,23.5878221 24.486313,23.8562496 L25.1087558,25.6603853 C25.1350387,25.7407373 25.1451475,25.819223 25.1417779,25.89408 C25.1197459,26.3786285 24.5124403,26.7100934 24.067031,26.3887891 L22.5214214,25.2734515 C22.4064403,25.1905075 22.2710861,25.1490355 22.1357318,25.1490355 C22.0003776,25.1490355 21.8650234,25.1905075 21.7500422,25.2734515 L20.2044326,26.3887891 C19.7590234,26.7100934 19.1488147,26.3786285 19.1295302,25.89408 C19.1265754,25.819223 19.1369434,25.7406854 19.1632262,25.6603853 L19.7850989,23.8562496 C19.8729677,23.5878221 19.7767008,23.2937338 19.5467386,23.1278458 L18.0010771,22.0128192 C17.4868243,21.6418522 17.7511046,20.76192 18.3867667,20.76192 L20.2972781,20.76192 C20.5815686,20.76192 20.833511,20.6524858 20.921328,20.3840582 L21.5116819,18.5682586 C21.6099187,18.2681568 21.8727994,18.11808 22.1357318,18.11808 C22.3986643,18.11808 22.661545,18.2681568 22.7597818,18.5682586 L23.3501357,20.3840582 C23.4380045,20.6524858 23.689895,20.76192 23.9741856,20.76192 L25.884697,20.76192 C26.5203072,20.76192 26.7845875,21.6418522 26.2703347,22.0128192 Z M8.54105472,22.0128192 L6.99539328,23.1278458 C6.76543104,23.2937338 6.66916416,23.5878221 6.75703296,23.8562496 L7.37947584,25.6603853 C7.40575872,25.7407373 7.41586752,25.819223 7.41249792,25.89408 C7.39046592,26.3786285 6.78316032,26.7100934 6.33775104,26.3887891 L4.7920896,25.2734515 C4.67710848,25.1905075 4.54175424,25.1490355 4.4064,25.1490355 C4.27104576,25.1490355 4.13569152,25.1905075 4.0207104,25.2734515 L2.4751008,26.3887891 C2.02969152,26.7100934 1.41948288,26.3786285 1.4001984,25.89408 C1.39724352,25.819223 1.40761152,25.7406854 1.4338944,25.6603853 L2.05576704,23.8562496 C2.14363584,23.5878221 2.04736896,23.2937338 1.81740672,23.1278458 L0.27174528,22.0128192 C-0.24250752,21.6418522 0.0217728,20.76192 0.65743488,20.76192 L2.56794624,20.76192 C2.8522368,20.76192 3.1041792,20.6524858 3.19199616,20.3840582 L3.78235008,18.5682586 C3.88058688,18.2681568 4.14346752,18.11808 4.4064,18.11808 C4.66933248,18.11808 4.93221312,18.2681568 5.03044992,18.5682586 L5.62080384,20.3840582 C5.70867264,20.6524858 5.9605632,20.76192 6.24485376,20.76192 L8.15536512,20.76192 C8.7910272,20.76192 9.05530752,21.6418522 8.54105472,22.0128192 Z" id="Shape"></path>
            </g>
        </g>
    </g>
</svg>