<?xml version="1.0" encoding="UTF-8"?>
<svg width="143px" height="41px" viewBox="0 0 143 41" version="1.1" xmlns="http://www.w3.org/2000/svg" xmlns:xlink="http://www.w3.org/1999/xlink">
    <!-- Generator: sketchtool 60.1 (101010) - https://sketch.com -->
    <title>5FC8272E-1635-4765-8CAC-3D7B888580EB</title>
    <desc>Created with sketchtool.</desc>
    <g id="Page-2" stroke="none" stroke-width="1" fill="none" fill-rule="evenodd">
        <g id="14.3-Home" transform="translate(-757.000000, -3799.000000)" fill="#533092" fill-rule="nonzero">
            <g id="::-150-Companies-::" transform="translate(150.000000, 3613.000000)">
                <g id="Group-17" transform="translate(607.000000, 74.000000)">
                    <g id="4" transform="translate(0.000000, 112.000000)">
                        <g id="g20" transform="translate(52.879760, 17.878784)">
                            <path d="M16.1568,13.948 L11.7216,13.948 L7.92,9.3544 L4.1184,13.948 L0.6336,13.948 L6.1776,6.9784 L0.6336,0.1672 L5.0688,0.1672 L8.3952,4.2856 L11.7216,0.1672 L15.3648,0.1672 L10.1376,6.5032 L16.1568,13.948 C16.1568,13.7896 16.1568,13.7896 16.1568,13.948" id="path22"></path>
                        </g>
                        <g id="g24" transform="translate(84.695984, 16.436640)">
                            <path d="M8.2368,3.96 C6.336,3.96 4.9104,5.2272 4.5936,7.2864 L11.2464,7.2864 L11.2464,7.128 C11.2464,5.3856 9.9792,3.96 8.2368,3.96 M14.7312,9.3456 C14.7312,9.3456 14.5728,9.3456 14.7312,9.3456 L4.5936,9.3456 C4.752,11.7216 6.336,12.9888 8.8704,12.9888 C10.4544,12.9888 12.0384,12.5136 14.256,11.2464 L14.4144,11.2464 L14.4144,14.4144 C12.3552,15.3648 10.1376,15.9984 8.3952,15.9984 C3.96,15.9984 0.9504,12.8304 0.9504,8.3952 C0.9504,3.96 4.1184,0.792 8.3952,0.792 C12.3552,0.792 14.8896,3.4848 14.8896,7.128 C14.7312,7.92 14.7312,9.1872 14.7312,9.3456" id="path26"></path>
                        </g>
                        <g id="g28" transform="translate(117.365984, 9.608016)">
                            <path d="M2.5344,5.3856 C1.2672,5.3856 0.3168,4.4352 0.3168,3.168 C0.3168,1.9008 1.2672,0.9504 2.5344,0.9504 C3.8016,0.9504 4.752,1.9008 4.752,3.168 C4.752,4.4352 3.8016,5.3856 2.5344,5.3856 M0.792,22.176 C0.6336,22.176 0.6336,22.176 0.792,22.176 L0.792,8.3952 L4.4352,8.3952 L4.4352,22.176 L0.792,22.176 Z" id="path30"></path>
                        </g>
                        <g id="g32" transform="translate(69.316928, 16.856400)">
                            <path d="M6.336,12.8304 C5.7024,12.8304 5.0688,12.672 4.2768,12.5136 L4.2768,3.6432 C5.2272,3.3264 6.0192,3.168 6.8112,3.168 C9.3456,3.168 11.088,5.0688 11.088,7.7616 C10.9296,10.9296 9.1872,12.8304 6.336,12.8304 M7.4448,0.4752 C6.336,0.4752 5.3856,0.6336 4.2768,1.1088 L0.6336,1.1088 L0.6336,23.76 C1.7424,23.6016 3.0096,23.2848 4.4352,22.3344 L4.4352,15.5232 C5.3856,15.6816 6.0192,15.6816 6.8112,15.6816 C11.7216,15.6816 15.048,12.672 15.048,8.0784 C14.8896,3.4848 11.7216,0.4752 7.4448,0.4752" id="path34"></path>
                        </g>
                        <g id="g36" transform="translate(100.600048, 8.267952)">
                            <path d="M10.78,20.2752 C9.6712,20.9088 8.5624,21.2256 7.612,21.2256 C5.3944,21.2256 3.9688,19.6416 3.9688,16.9488 C3.9688,13.7808 5.7112,11.88 8.404,11.88 C9.196,11.88 9.8296,12.0384 10.78,12.5136 L10.78,20.2752 Z M10.78,2.376 L10.78,9.6624 C9.6712,9.3456 8.7208,9.1872 7.7704,9.1872 C3.4936,9.1872 0.1672,12.5136 0.1672,16.7904 C0.1672,21.0672 3.0184,24.2352 6.9784,24.2352 C8.404,24.2352 9.6712,23.9184 11.0968,23.1264 L11.0968,24.3936 C12.0472,24.2352 13.3144,23.76 14.4232,22.968 L14.4232,0.9504 C13.4728,0.9504 12.2056,1.4256 10.78,2.376" id="path38"></path>
                        </g>
                        <g id="g40" transform="translate(123.756544, 17.310128)">
                            <path d="M10.6216,11.2552 C9.5128,11.8888 8.5624,12.2056 7.7704,12.2056 C5.3944,12.2056 3.9688,10.6216 3.9688,7.9288 C3.9688,4.9192 5.7112,2.86 8.2456,2.86 C8.8792,2.86 9.6712,3.1768 10.78,3.652 L10.6216,11.2552 L10.6216,11.2552 Z M14.4232,0.484 C14.4232,0.3256 14.4232,0.3256 14.4232,0.484 L11.2552,0.3256 C11.0968,0.3256 11.0968,0.3256 11.0968,0.484 L11.0968,0.9592 C9.6712,0.3256 8.5624,0.0088 7.4536,0.0088 C3.3352,0.0088 0.1672,3.3352 0.1672,7.7704 C0.1672,12.2056 3.0184,15.0568 7.2952,15.0568 C8.404,15.0568 9.8296,15.0568 11.2552,13.4728 L11.2552,15.2152 C12.2056,15.0568 13.3144,14.5816 14.4232,13.7896 L14.4232,0.484 L14.4232,0.484 Z" id="path42"></path>
                        </g>
                        <g id="g44" transform="translate(38.590496, 9.551696)">
                            <path d="M4.5936,18.8584 L13.7808,18.8584 C13.6224,19.8088 13.3056,21.076 12.5136,22.3432 L2.8512,22.3432 C1.7424,22.3432 0.792,21.3928 0.6336,20.284 L0.6336,2.2264 C0.792,1.1176 1.7424,0.1672 2.8512,0.1672 L13.7808,0.1672 C13.6224,1.1176 13.3056,2.3848 12.5136,3.652 L4.5936,3.652 L4.5936,8.5624 L12.3552,8.5624 L12.3552,12.0472 L4.5936,12.0472 L4.5936,18.8584 Z" id="path46"></path>
                        </g>
                        <g id="g48" transform="translate(29.401712, 28.741856)">
                            <path d="M2.376,3.3352 C1.4256,3.3352 0.9504,2.7016 0.9504,1.7512 C0.9504,0.8008 1.584,0.1672 2.376,0.1672 C3.168,0.1672 3.8016,0.8008 3.8016,1.7512 C3.8016,2.7016 3.168,3.3352 2.376,3.3352 M2.376,0.0088 C1.4256,0.0088 0.6336,0.6424 0.6336,1.7512 C0.6336,2.7016 1.4256,3.4936 2.376,3.4936 C3.3264,3.4936 4.1184,2.86 4.1184,1.7512 C4.1184,0.6424 3.3264,0.0088 2.376,0.0088" id="path50"></path>
                        </g>
                        <g id="g52" transform="translate(30.656240, 29.016768)">
                            <path d="M0.6336,1.2672 L0.6336,0.6336 L1.1088,0.6336 C1.2672,0.6336 1.584,0.6336 1.584,0.9504 C1.584,1.2672 1.4256,1.2672 1.1088,1.2672 L0.6336,1.2672 Z M1.9008,1.1088 C1.9008,0.6336 1.584,0.4752 1.1088,0.4752 L0.3168,0.4752 L0.3168,2.5344 L0.6336,2.5344 L0.6336,1.584 L0.9504,1.584 L1.4256,2.5344 L1.7424,2.5344 L1.1088,1.584 C1.7424,1.584 1.9008,1.4256 1.9008,1.1088" id="path54"></path>
                        </g>
                        <g id="g56" transform="translate(139.161824, 16.563360)">
                            <path d="M2.0592,3.6432 C1.1088,3.6432 0.6336,3.0096 0.6336,2.0592 C0.6336,1.1088 1.2672,0.4752 2.0592,0.4752 C2.8512,0.4752 3.4848,1.1088 3.4848,2.0592 C3.4848,3.0096 2.8512,3.6432 2.0592,3.6432 M2.0592,0.3168 C1.1088,0.3168 0.3168,0.9504 0.3168,2.0592 C0.3168,3.0096 1.1088,3.8016 2.0592,3.8016 C3.0096,3.8016 3.8016,3.168 3.8016,2.0592 C3.8016,0.9504 3.0096,0.3168 2.0592,0.3168" id="path58"></path>
                        </g>
                        <g id="g60" transform="translate(140.414768, 17.455856)">
                            <path d="M0.3168,0.9592 L0.3168,0.3256 L0.792,0.3256 C0.9504,0.3256 1.2672,0.3256 1.2672,0.6424 C1.2672,0.9592 0.9504,0.9592 0.792,0.9592 L0.3168,0.9592 Z M1.584,0.6424 C1.584,0.1672 1.2672,0.0088 0.792,0.0088 L0,0.0088 L0,2.068 L0.3168,2.068 L0.3168,1.1176 L0.6336,1.1176 L1.1088,2.068 L1.4256,2.068 L0.792,1.1176 C1.4256,1.276 1.584,1.1176 1.584,0.6424" id="path62"></path>
                        </g>
                        <g id="g64" transform="translate(0.442144, 0.170544)">
                            <path d="M19.492,12.8304 L18.8584,10.9296 L13.156,3.3264 L14.1064,3.0096 L23.7688,11.4048 L29.4712,9.8208 C30.1048,9.6624 30.8968,9.6624 31.5304,9.6624 C29.788,5.8608 26.4616,2.5344 22.0264,1.1088 C13.4728,-1.9008 3.9688,2.5344 0.9592,11.088 C0.0088,13.7808 -0.1496,16.4736 0.1672,19.1664 L13.948,14.4144 L19.492,12.8304 L19.492,12.8304 Z" id="path66"></path>
                        </g>
                        <g id="g68" transform="translate(0.064448, 10.973424)">
                            <path d="M32.6304,0.3168 C32.1552,0.6336 31.3632,1.1088 30.7296,1.2672 L25.0272,2.8512 L21.2256,15.2064 L20.2752,15.5232 L21.0672,6.1776 L20.592,4.2768 L15.2064,5.8608 L0.9504,9.1872 C2.0592,14.7312 6.0192,19.4832 11.5632,21.384 C20.1168,24.3936 29.6208,19.9584 32.6304,11.4048 C33.8976,7.6032 33.8976,3.8016 32.6304,0.3168" id="path70"></path>
                        </g>
                    </g>
                </g>
            </g>
        </g>
    </g>
</svg>