<?xml version="1.0" encoding="UTF-8"?>
<svg width="14px" height="12px" viewBox="0 0 14 12" version="1.1" xmlns="http://www.w3.org/2000/svg" xmlns:xlink="http://www.w3.org/1999/xlink">
    <!-- Generator: Sketch 61.2 (89653) - https://sketch.com -->
    <title>eye_disb</title>
    <desc>Created with Sketch.</desc>
    <g id="Color-Change" stroke="none" stroke-width="1" fill="none" fill-rule="evenodd">
        <g id="add.svg" transform="translate(-467.000000, -60.000000)" fill="#0098D6" fill-rule="nonzero">
            <g id="eye_disb" transform="translate(467.000000, 60.000000)">
                <path d="M5.748289,10.149184 L6.859322,8.843158 C6.907734,8.845733 6.956478,8.847037 7.005525,8.847037 C8.537753,8.847037 9.775322,7.574956 9.775322,6 C9.775322,5.819252 9.759023,5.642493 9.727848,5.471188 L11.498996,3.389194 C12.919911,4.431674 13.828622,5.591613 13.900552,5.68198 C14.033149,5.863706 14.033149,6.136294 13.900552,6.31802 C13.767956,6.469458 10.791897,10.285699 7.005525,10.285699 C6.574972,10.285699 6.154897,10.23655 5.748289,10.149184 Z M2.505252,8.605813 C1.088239,7.564625 0.182313,6.408243 0.110497,6.31802 C-0.036832,6.12115 -0.036832,5.863706 0.110497,5.68198 C0.243094,5.515398 3.219153,1.714301 7.005525,1.714301 C7.432779,1.714301 7.849716,1.7627 8.253414,1.848814 L7.14114,3.156299 C7.096211,3.154084 7.050998,3.152963 7.005525,3.152963 C5.473297,3.152963 4.235727,4.425044 4.235727,6 C4.235727,6.17698 4.251355,6.350136 4.281271,6.518092 L2.505252,8.605813 Z M10.702806,0.308434 C11.012175,-0.055231 11.563919,-0.104366 11.935161,0.198688 C12.306404,0.501742 12.356562,1.042224 12.047194,1.405889 L3.297194,11.691566 C2.987825,12.055231 2.436081,12.104366 2.064839,11.801312 C1.693596,11.498258 1.643438,10.957776 1.952806,10.594111 L10.702806,0.308434 Z" id="EyeDisabled-Copy"></path>
            </g>
        </g>
    </g>
</svg>