<?xml version="1.0" encoding="UTF-8"?>
<svg width="22px" height="20px" viewBox="0 0 22 20" version="1.1" xmlns="http://www.w3.org/2000/svg" xmlns:xlink="http://www.w3.org/1999/xlink">
    <!-- Generator: Sketch 63.1 (92452) - https://sketch.com -->
    <title>filter (3)</title>
    <desc>Created with Sketch.</desc>
    <g id="Page-1" stroke="none" stroke-width="1" fill="none" fill-rule="evenodd">
        <g id="1.1-Jobs-Listing" transform="translate(-1267.000000, -302.000000)">
            <g id="filter-(3)" transform="translate(1266.000000, 300.000000)">
                <rect id="Rectangle" fill="#D8D8D8" opacity="0" x="0" y="0" width="24" height="24"></rect>
                <path d="M2,2 L1.89122875,2.00553673 C1.11051037,2.08593357 0.710668971,3.02401264 1.23643005,3.64572512 L9,12.826 L9,19 C9,19.3787721 9.21400238,19.7250352 9.5527864,19.8944272 L13.5527864,21.8944272 L13.6586153,21.9402197 C14.2978691,22.1752635 15,21.7042567 15,21 L15,12.825 L22.76357,3.64572512 C23.3132293,2.99575299 22.851228,2 22,2 L2,2 Z M19.845,4 L13.23643,11.8142749 L13.1532183,11.9280555 C13.0536101,12.0866169 13,12.2708616 13,12.46 L13,19.382 L11,18.382 L11,12.46 L10.990067,12.3193886 C10.9637377,12.1339964 10.8857013,11.9586953 10.76357,11.8142749 L4.154,4 L19.845,4 Z" id="Path" fill="#3B95CB" fill-rule="nonzero"></path>
            </g>
        </g>
    </g>
</svg>