<?xml version="1.0" encoding="UTF-8"?>
<svg width="19px" height="23px" viewBox="0 0 19 23" version="1.1" xmlns="http://www.w3.org/2000/svg" xmlns:xlink="http://www.w3.org/1999/xlink">
    <!-- Generator: Sketch 61.2 (89653) - https://sketch.com -->
    <title>fresher</title>
    <desc>Created with Sketch.</desc>
    <g id="Color-Change" stroke="none" stroke-width="1" fill="none" fill-rule="evenodd">
        <g id="add.svg" transform="translate(-542.000000, -54.000000)" fill="#8B8497" fill-rule="nonzero">
            <g id="fresher" transform="translate(542.000000, 54.000000)">
                <path d="M0.6593024,15.9294464 C0.8342528,16.0465408 1.0320896,16.1025024 1.2278272,16.1025024 C1.5580672,16.1025024 1.8823168,15.9429632 2.0797952,15.6478976 C3.7344256,13.1753472 6.5004032,11.6992 9.4787584,11.6992 C12.4483072,11.6992 15.209728,13.1685888 16.865536,15.629824 C17.1812864,16.099072 17.8175488,16.2235392 18.2867456,15.90784 C18.7559936,15.5921408 18.8804608,14.9558272 18.5647616,14.4866304 C17.2418048,12.5202432 15.3450496,11.0692864 13.1775488,10.2930944 C14.4774144,9.2312576 15.3088,7.6165632 15.3088,5.8112 C15.3088,2.6209792 12.7134208,0.0256 9.5232,0.0256 C6.3329792,0.0256 3.7376,2.6209792 3.7376,5.8112 C3.7376,7.6036096 4.5569024,9.2081664 5.8406912,10.2702592 C3.639296,11.043584 1.7140224,12.5121024 0.3777536,14.5089024 C0.063232,14.9789184 0.1892864,15.6149248 0.6593024,15.9294464 Z M9.5232,2.0736 C11.5841024,2.0736 13.2608,3.7502976 13.2608,5.8112 C13.2608,7.8721024 11.5841024,9.5488 9.5232,9.5488 C7.4622976,9.5488 5.7856,7.8721024 5.7856,5.8112 C5.7856,3.7502976 7.4622976,2.0736 9.5232,2.0736 Z M13.6068096,18.157056 L12.0802304,19.2583168 C11.8531072,19.4221568 11.7580288,19.7126144 11.8448128,19.977728 L12.4595712,21.7595904 C12.4855296,21.8389504 12.4955136,21.9164672 12.4921856,21.9904 C12.4704256,22.4689664 11.8706176,22.7963392 11.4307072,22.4790016 L9.9041792,21.3774336 C9.7906176,21.2955136 9.6569344,21.2545536 9.5232512,21.2545536 C9.389568,21.2545536 9.2558848,21.2955136 9.1423232,21.3774336 L7.6157952,22.4790016 C7.1758848,22.7963392 6.5732096,22.4689664 6.5541632,21.9904 C6.5512448,21.9164672 6.5614848,21.8388992 6.5874432,21.7595904 L7.2016384,19.977728 C7.2884224,19.7126144 7.193344,19.4221568 6.9662208,19.2583168 L5.4396416,18.157056 C4.9317376,17.7906688 5.1927552,16.9216 5.8205696,16.9216 L7.7074944,16.9216 C7.9882752,16.9216 8.2371072,16.8135168 8.32384,16.5484032 L8.9069056,14.7550208 C9.0039296,14.458624 9.2635648,14.3104 9.5232512,14.3104 C9.7829376,14.3104 10.0425728,14.458624 10.1395968,14.7550208 L10.7226624,16.5484032 C10.8094464,16.8135168 11.0582272,16.9216 11.339008,16.9216 L13.2259328,16.9216 C13.853696,16.9216 14.1147136,17.7906688 13.6068096,18.157056 Z" id="Shape"></path>
            </g>
        </g>
    </g>
</svg>