<?xml version="1.0" encoding="UTF-8"?>
<svg width="399px" height="268px" viewBox="0 0 399 268" version="1.1" xmlns="http://www.w3.org/2000/svg" xmlns:xlink="http://www.w3.org/1999/xlink">
    <!-- Generator: sketchtool 60 (101010) - https://sketch.com -->
    <title>A8F1ADB1-637C-4E0C-B622-D4281B116ADA</title>
    <desc>Created with sketchtool.</desc>
    <defs>
        <linearGradient x1="57.2832621%" y1="67.8111543%" x2="43.9635025%" y2="29.5034332%" id="linearGradient-1">
            <stop stop-color="#FFFFFF" stop-opacity="0" offset="0%"></stop>
            <stop stop-color="#FFCA1F" offset="100%"></stop>
        </linearGradient>
        <linearGradient x1="50.0457571%" y1="97.5144918%" x2="49.9542603%" y2="2.48133784%" id="linearGradient-2">
            <stop stop-color="#FFFFFF" offset="0%"></stop>
            <stop stop-color="#FFCA1F" offset="100%"></stop>
        </linearGradient>
        <linearGradient x1="50.0486757%" y1="97.5144918%" x2="49.9513428%" y2="2.48133784%" id="linearGradient-3">
            <stop stop-color="#FFFFFF" offset="0%"></stop>
            <stop stop-color="#FFCA1F" offset="100%"></stop>
        </linearGradient>
        <linearGradient x1="50.0837808%" y1="97.5144918%" x2="49.9162511%" y2="2.48133784%" id="linearGradient-4">
            <stop stop-color="#FFFFFF" offset="0%"></stop>
            <stop stop-color="#FFCA1F" offset="100%"></stop>
        </linearGradient>
        <linearGradient x1="50.1605082%" y1="97.5144918%" x2="49.8395528%" y2="2.48133784%" id="linearGradient-5">
            <stop stop-color="#FFFFFF" offset="0%"></stop>
            <stop stop-color="#FFCA1F" offset="100%"></stop>
        </linearGradient>
        <linearGradient x1="50.1294388%" y1="97.5144918%" x2="49.8706104%" y2="2.48133784%" id="linearGradient-6">
            <stop stop-color="#FFFFFF" offset="0%"></stop>
            <stop stop-color="#FFCA1F" offset="100%"></stop>
        </linearGradient>
        <linearGradient x1="50.273056%" y1="97.5144918%" x2="49.7270478%" y2="2.48133784%" id="linearGradient-7">
            <stop stop-color="#FFFFFF" offset="0%"></stop>
            <stop stop-color="#FFCA1F" offset="100%"></stop>
        </linearGradient>
        <linearGradient x1="50.5545422%" y1="97.5144918%" x2="49.4456686%" y2="2.48133784%" id="linearGradient-8">
            <stop stop-color="#FFFFFF" offset="0%"></stop>
            <stop stop-color="#FFCA1F" offset="100%"></stop>
        </linearGradient>
        <linearGradient x1="50.408944%" y1="97.5144918%" x2="49.5912115%" y2="2.48133784%" id="linearGradient-9">
            <stop stop-color="#FFFFFF" offset="0%"></stop>
            <stop stop-color="#FFCA1F" offset="100%"></stop>
        </linearGradient>
    </defs>
    <g id="Page-2" stroke="none" stroke-width="1" fill="none" fill-rule="evenodd">
        <g id="14.3-Home" transform="translate(-920.000000, -1670.000000)">
            <g id="growth" transform="translate(920.000000, 1671.000000)">
                <path d="M398.6,0.52 L333.83,13.85 L292.71,48.85 L246.46,105.94 L174.62,121.94 L122.41,165.31 L92.26,167.55 L66.56,188.55 L34.69,171.41 L0.769996172,203 L0.769996172,223.79 C0.765726484,232.048238 4.34001965,239.903179 10.5692132,245.324956 C16.7984068,250.746733 25.0712935,253.203361 33.25,252.06 C54.25,249.06 79.25,247.41 88.49,254.06 C105.62,266.39 196.09,273.93 234.49,241.72 C272.89,209.51 321.49,245.15 335.92,245.15 L350.7,245.15 C375.867616,245.15 396.269996,224.747616 396.269996,199.58 L396.269996,0.52" id="Path" fill="url(#linearGradient-1)" fill-rule="nonzero"></path>
                <line x1="374.95" y1="5.39" x2="374.95" y2="245.18" id="Path" stroke="url(#linearGradient-2)" stroke-width="1.03"></line>
                <line x1="332.12" y1="13.54" x2="332.12" y2="246.03" id="Path" stroke="url(#linearGradient-3)" stroke-width="1.03"></line>
                <line x1="289.29" y1="53.03" x2="289.29" y2="230.24" id="Path" stroke="url(#linearGradient-4)" stroke-width="1.03"></line>
                <line x1="246.46" y1="105.89" x2="246.46" y2="233.92" id="Path" stroke="url(#linearGradient-5)" stroke-width="1.03"></line>
                <line x1="203.62" y1="114.82" x2="203.62" y2="257.39" id="Path" stroke="url(#linearGradient-6)" stroke-width="1.03"></line>
                <line x1="117.96" y1="164.47" x2="117.96" y2="262.63" id="Path" stroke="url(#linearGradient-7)" stroke-width="1.03"></line>
                <line x1="75.13" y1="181.1" x2="75.13" y2="249.98" id="Path" stroke="url(#linearGradient-8)" stroke-width="1.03"></line>
                <line x1="32.29" y1="171.41" x2="32.29" y2="251.62" id="Path" stroke="url(#linearGradient-9)" stroke-width="1.03"></line>
                <polyline id="Path" stroke="#2C105A" stroke-width="1.47" points="0.77 203 34.69 171.41 66.56 188.49 92.26 167.5 122.41 165.26 174.62 121.89 246.46 105.89 292.71 48.8 333.83 13.85 398.6 0.52"></polyline>
                <path d="M250.81,148.38 C250.81,148.38 249.28,177.07 237.38,166.88 C225.48,156.69 227.44,156.94 227.44,156.94 L230.95,154.12 C230.95,154.12 246.11,148.38 246.46,148.38 L250.81,148.38 Z" id="Path" fill="#FFFFFF" fill-rule="nonzero"></path>
                <polygon id="Path" fill="#FFFFFF" fill-rule="nonzero" points="243.86 144.25 233.63 146.4 234.14 153.63 246.79 156.94 250.81 152.22"></polygon>
                <path d="M248.34,155.28 C248.34,155.28 244.04,154.98 241.67,154.68 C239.3,154.38 237.8,156.61 240.91,158.68 C244.02,160.75 248.01,161.53 250.41,157.93 C251.61,156.15 250.88,151.93 250.88,151.93" id="Path" stroke="#2C105A" stroke-width="1.36" fill="#FFFFFF" fill-rule="nonzero" stroke-linecap="round"></path>
                <path d="M243.43,159.74 C243.43,159.74 240.61,159.14 239.27,160.18 C237.93,161.22 237.19,163.3 240.45,164.18 C243.71,165.06 245.93,166.56 248.02,163.43 C250.11,160.3 249.52,159.27 249.52,159.27" id="Path" stroke="#2C105A" stroke-width="1.36" stroke-linecap="round"></path>
                <path d="M247.13,164.79 C247.194452,166.330734 246.456639,167.79501 245.18,168.66 C243.1,169.85 239.41,169.46 238.18,166.58 C238.18,166.58 238.47,163.91 241.67,164.58" id="Path" stroke="#2C105A" stroke-width="1.36" stroke-linecap="round"></path>
                <path d="M230.89,158.77 C230.89,158.77 237.89,156.35 238.39,148.91 C238.39,148.91 235.23,138.61 235.14,137.54 C234.98,135.85 233.04,128.45 227.38,133.01 C227.38,133.01 228.67,138.56 227.96,142.42 C227.453436,145.663808 226.09367,148.714653 224.02,151.26 C221.48,154.08 199.46,173.56 199.46,173.56 L186.76,154.08 L165.69,176.91 C165.69,176.91 177.07,191.63 180.61,197.91 C184.15,204.19 192.19,217.14 211.4,197.08 C230.61,177.02 238.81,167.65 238.81,167.65" id="Path" stroke="#2C105A" stroke-width="1.36" fill="#FFFFFF" fill-rule="nonzero" stroke-linecap="round"></path>
                <path d="M250.45,151.77 C250.45,151.77 246.15,151.47 243.78,151.17 C241.41,150.87 239.91,153.11 243.02,155.17 C246.13,157.23 250.12,158.02 252.52,154.43 C253.72,152.64 252.99,148.43 252.99,148.43 C252.99,148.43 249.76,141.71 239.69,145.21" id="Path" stroke="#2C105A" stroke-width="1.36" fill="#FFFFFF" fill-rule="nonzero" stroke-linecap="round"></path>
                <path d="M105.24,193.64 C108.47,176.96 117.13,162.72 129.12,154.26 C145.69,142.57 170.96,129.97 184.12,149.67 C200.4,174.01 201.44,230.1 201.12,252.73 C201.05,258.23 197.59,262.73 193.18,263.06 C181.84,263.91 160.18,265.46 143.6,266.14 C132.23,266.61 122.67,255.52 122.34,241.36 C122.23,236.92 121.65,227.6 120.89,218.16 C120.7,215.76 120.5,213.35 120.29,211.01 C119.52,202.29 104.57,196.86 105.09,194.14 C105.18,194 105.21,193.81 105.24,193.64 Z" id="Path" fill="#FFCA1F" fill-rule="nonzero"></path>
                <path d="M196.75,180.39 C201.81,196.8 188.75,196.98 188.75,196.98 C188.75,196.98 170.51,223.83 168.85,226.73 C167.19,229.63 151.38,250.53 126.34,245.15 C101.3,239.77 106.7,192.85 106.7,192.85 C109.421942,191.167965 112.509022,190.166379 115.7,189.93 C120.920542,189.647569 126.143801,190.43361 131.05,192.24 C133.193919,192.973012 135.282594,193.85861 137.3,194.89 L137.93,214.39 C137.93,214.39 161.02,189.77 165.68,182.84 C170.34,175.91 168.55,160.32 173.43,161.08 C178.31,161.84 176.34,170.38 176.34,170.38 C176.34,170.38 193.55,150.43 198.75,152.79 C203.95,155.15 191.56,169 191.56,169 C191.56,169 194.87,171.44 196.39,179.37" id="Path" stroke="#2C105A" stroke-width="1.47" fill="#FFFFFF" fill-rule="nonzero"></path>
                <path d="M142.92,87.08 L125.67,98.86 L122.78,106.61 L124.13,117.08 L126.13,125.76 L129.84,133.25 L132.9,140.75 L134.8,143.63 L141.8,142.04 C141.8,142.04 152,138.44 152.8,138.56 C153.6,138.68 157.47,134.09 157.47,134.09 L159.71,130.09 L161,119.77 L159.61,111.77 L155.92,103.39 L153.52,97.01 L142.92,87.08 Z" id="Path" fill="#FFFFFF" fill-rule="nonzero"></path>
                <path d="M129.5,136.91 C129.5,136.91 134.55,143.36 133.31,162.81 C152.09,164.11 156.31,150.99 156.31,150.99 L153.45,138.69 L129.5,136.91 Z" id="Path" fill="#FFFFFF" fill-rule="nonzero"></path>
                <line x1="153.37" y1="103.08" x2="165.77" y2="103.79" id="Path" stroke="#2C105A" stroke-width="1.62" stroke-linecap="round"></line>
                <path d="M115.14,83.36 C115.14,83.36 115.14,72.12 107.7,71.46 C100.26,70.8 82.21,83.06 91.45,98.54 C97.05,107.92 104.86,98.6 104.86,98.6 L115.14,83.36 Z" id="Path" fill="#2C105A" fill-rule="nonzero"></path>
                <path d="M101.73,101.3 C101.73,101.3 95.32,105.07 97,114.4 C97.0478696,114.63816 97.2570765,114.809501 97.5,114.809501 C97.7429235,114.809501 97.9521304,114.63816 98,114.4 C98.69,110.71 100.61,104.27 105.62,103.61 L101.73,101.3 Z" id="Path" fill="#2C105A" fill-rule="nonzero"></path>
                <path d="M118.08,83.25 C118.08,83.25 120.71,76.25 113.54,70.08 C113.353258,69.9205725 113.079423,69.9168421 112.888408,70.0711236 C112.697392,70.2254051 112.643428,70.4938967 112.76,70.71 C114.54,74.02 117.08,80.24 113.6,83.9 L118.08,83.25 Z" id="Path" fill="#2C105A" fill-rule="nonzero"></path>
                <path d="M133.31,162.81 C135.8,145.16 126.08,130.08 126.08,130.08" id="Path" stroke="#2C105A" stroke-width="1.09" stroke-linecap="round"></path>
                <path d="M154.48,91.86 C154.48,91.86 182.1,138.59 147.6,139.38" id="Path" stroke="#2C105A" stroke-width="1.09" fill="#FCFCFC" fill-rule="nonzero" stroke-linecap="round"></path>
                <line x1="156.34" y1="150.99" x2="153.48" y2="138.69" id="Path" stroke="#2C105A" stroke-width="1.09" stroke-linecap="round"></line>
                <path d="M148,140.26 C148,140.26 154.64,143.09 156.35,148.69 L152.75,138.56 L148,140.26 Z" id="Path" fill="#2C105A" fill-rule="nonzero"></path>
                <path d="M147.54,127.69 C148.59147,128.761858 149.915825,129.526043 151.37,129.9 C151.623278,129.923788 151.857732,129.764266 151.928587,129.51994 C151.999441,129.275614 151.886708,129.015408 151.66,128.9 C150.37762,128.580535 149.210254,127.90852 148.29,126.96 C148.082893,126.752893 147.747107,126.752893 147.54,126.96 C147.332893,127.167107 147.332893,127.502893 147.54,127.71 L147.54,127.69 Z" id="Path" fill="#2C105A" fill-rule="nonzero"></path>
                <path d="M150.78,117.22 C151.15,118.14 151.56,119.05 152.02,119.94 C152.16,120.22 152.33,120.48 152.46,120.76 C152.68,121.24 152.53,121.55 152.03,121.76 C151.655038,121.910842 151.241891,121.938852 150.85,121.84 C150.18,121.7 149.9,122.72 150.57,122.84 C151.76,123.1 153.69,122.7 153.7,121.16 C153.627209,120.610233 153.417455,120.087566 153.09,119.64 C152.609571,118.737579 152.178926,117.809522 151.8,116.86 C151.54,116.24 150.52,116.51 150.8,117.15 L150.78,117.22 Z" id="Path" fill="#2C105A" fill-rule="nonzero"></path>
                <ellipse id="Oval" stroke="#2C105A" stroke-width="1.62" stroke-linecap="round" transform="translate(140.153195, 115.339652) rotate(-11.950000) translate(-140.153195, -115.339652) " cx="140.153195" cy="115.339652" rx="8.13" ry="9.25"></ellipse>
                <ellipse id="Oval" stroke="#2C105A" stroke-width="1.62" stroke-linecap="round" transform="translate(159.610517, 108.089491) rotate(-11.950000) translate(-159.610517, -108.089491) " cx="159.610517" cy="108.089491" rx="8.13" ry="9.25"></ellipse>
                <path d="M141.71,115.61 C141.977404,115.573356 142.176686,115.344903 142.176686,115.075 C142.176686,114.805097 141.977404,114.576644 141.71,114.54 C141.442596,114.576644 141.243314,114.805097 141.243314,115.075 C141.243314,115.344903 141.442596,115.573356 141.71,115.61 L141.71,115.61 Z" id="Path" fill="#2C105A" fill-rule="nonzero"></path>
                <path d="M156.07,112.35 C156.362711,112.35 156.6,112.112711 156.6,111.82 C156.6,111.527289 156.362711,111.29 156.07,111.29 C155.777289,111.29 155.54,111.527289 155.54,111.82 C155.54,112.112711 155.777289,112.35 156.07,112.35 Z" id="Path" fill="#2C105A" fill-rule="nonzero"></path>
                <path d="M138.5,111.25 C139.334284,110.699618 140.339172,110.468813 141.33,110.6 C142.141859,110.6 142.8,109.941859 142.8,109.13 C142.8,108.318141 142.141859,107.66 141.33,107.66 C139.816409,107.519151 138.299209,107.88877 137.02,108.71 C135.43,109.71 136.9,112.27 138.5,111.25 L138.5,111.25 Z" id="Path" fill="#2C105A" fill-rule="nonzero"></path>
                <path d="M152.75,108.39 C153.762918,108.042779 154.813702,107.817851 155.88,107.72 C156.68516,107.704052 157.334052,107.05516 157.35,106.25 C157.344504,105.442049 156.687969,104.79 155.88,104.79 C154.549462,104.881146 153.235748,105.139857 151.97,105.56 C150.18,106.15 150.97,108.99 152.75,108.39 L152.75,108.39 Z" id="Path" fill="#2C105A" fill-rule="nonzero"></path>
                <path d="M148.36,112.26 C148.36,112.26 150.09,110.43 151.64,111.94" id="Path" stroke="#2C105A" stroke-width="0.98"></path>
                <line x1="119.66" y1="115.37" x2="132.05" y2="116.08" id="Path" stroke="#2C105A" stroke-width="1.62" stroke-linecap="round"></line>
                <path d="M125.54,129.44 C125.54,129.44 125.91,134.96 120.01,133.56" id="Path" stroke="#2C105A" stroke-width="1.09" stroke-linecap="round"></path>
                <path d="M127.21,137.39 C127.21,137.39 121.89,135.86 125.21,130.79" id="Path" stroke="#2C105A" stroke-width="1.09" stroke-linecap="round"></path>
                <path d="M162.5,108.32 C166.7,97.84 161,57.12 115.72,81.73 C82.79,99.61 115.6,136.53 126.42,132.29 C126.42,132.29 127.94,128.65 120.31,127.47 C116.49,126.88 115.31,124.64 115.02,122.54 C114.799808,120.516592 115.413677,118.490827 116.72,116.93 L118.72,114.46 C118.72,114.46 121.72,130.46 129.79,133.25 C129.79,133.25 123.02,115.77 126.07,109.25 C128.64,103.78 133.14,103.25 134.63,104.89 C134.837198,105.103846 135.122239,105.224559 135.42,105.224559 C135.717761,105.224559 136.002802,105.103846 136.21,104.89 C137.92,103.17 141.13,100.03 141.96,99.82 C146.96,98.56 147.62,104.23 148.45,105.76 C149.74,108.14 152.29,97.27 149.89,95.27 C147.49,93.27 158.11,93.4 162.5,108.32 Z" id="Path" fill="#2C105A" fill-rule="nonzero"></path>
                <path d="M226.421255,50.1067752 C223.342255,49.2063752 221.221255,47.3934752 219.282255,45.3252752 C218.593255,44.5519752 218.088255,43.6325752 217.804255,42.6354752 C217.527255,41.7628752 217.300255,40.8644752 217.041255,39.9954752 C217.008255,39.8855752 216.935255,39.7922752 216.836255,39.7342752 C216.737255,39.6761752 216.620255,39.6576752 216.508255,39.6823752 C216.115255,39.7694752 215.727255,39.8762752 215.345255,40.0023752 C213.606255,40.6035752 211.959255,41.4482752 210.455255,42.5112752 C208.305255,44.0665752 206.499255,46.0483752 205.149255,48.3320752 C204.776255,48.9556752 204.814255,49.2170752 205.311255,49.6869752 C206.011255,50.3700752 206.738255,51.0062752 207.456255,51.6656752 C207.623255,51.8216752 207.798255,51.9690752 207.954255,52.1355752 C208.016255,52.2141752 208.059255,52.3064752 208.078255,52.4049752 C208.098255,52.5034752 208.094255,52.6052752 208.067255,52.7022752 C208.040255,52.7992752 207.991255,52.8885752 207.923255,52.9630752 C207.855255,53.0375752 207.771255,53.0949752 207.677255,53.1307752 C207.572255,53.1765752 207.464255,53.2208752 207.355255,53.2571752 C205.550255,53.8381752 203.715255,54.3188752 201.858255,54.6970752 C201.350255,54.7947752 200.835255,54.8489752 200.319255,54.8590752 C199.501255,54.8869752 199.070255,54.4527752 199.013255,53.6022752 C198.997255,53.3733752 198.997255,53.1432752 199.005255,52.9126752 C199.068255,50.6774752 199.134255,48.4420752 199.202255,46.2065752 C199.210255,46.0922752 199.225255,45.9785752 199.245255,45.8657752 C199.251255,45.7501752 199.287255,45.6378752 199.349255,45.5396752 C199.411255,45.4414752 199.496255,45.3605752 199.598255,45.3046752 C199.700255,45.2487752 199.814255,45.2197752 199.930255,45.2203752 C200.045255,45.2209752 200.159255,45.2511752 200.259255,45.3081752 C200.554255,45.4822752 200.833255,45.6825752 201.092255,45.9066752 C201.700255,46.4302752 202.280255,46.9814752 202.884255,47.5037752 C203.488255,48.0259752 203.834255,48.0187752 204.239255,47.3268752 C204.998255,46.1063752 205.880255,44.9668752 206.872255,43.9263752 C208.366255,42.3225752 210.129255,40.9931752 212.081255,39.9993752 C213.169255,39.4797752 214.286255,39.0233752 215.426255,38.6325752 C215.696255,38.5337752 215.971255,38.4512752 216.251255,38.3853752 C216.456255,38.3519752 216.643255,38.2483752 216.780255,38.0922752 C216.917255,37.9361752 216.995255,37.7373752 217.002255,37.5301752 C217.024255,37.3017752 217.044255,37.0720752 217.047255,36.8433752 C217.089255,34.5720752 217.736255,32.4529752 218.497255,30.3228752 C219.722255,26.9370752 221.595255,23.9161752 223.693255,21.0248752 C223.987255,20.6755752 224.316255,20.3573752 224.674255,20.0752752 C224.770255,20.0115752 224.886255,19.9869752 224.999255,20.0065752 C225.112255,20.0262752 225.212255,20.0885752 225.280255,20.1806752 C225.342255,20.3349752 225.359255,20.5044752 225.327255,20.6682752 C225.265255,20.8287752 225.171255,20.9752752 225.051255,21.0987752 C222.420255,24.3075752 220.406255,27.9750752 219.112255,31.9142752 C218.542255,33.4865752 218.224255,35.1381752 218.171255,36.8075752 C218.172255,36.9796752 218.170255,37.1503752 218.171255,37.3223752 C218.166255,37.3793752 218.173255,37.4367752 218.191255,37.4908752 C218.210255,37.5448752 218.239255,37.5943752 218.279255,37.6358752 C218.318255,37.6773752 218.365255,37.7099752 218.418255,37.7315752 C218.471255,37.7531752 218.528255,37.7631752 218.585255,37.7609752 C219.155255,37.7191752 219.730255,37.6868752 220.296255,37.6083752 C222.980255,37.2112752 225.710255,37.2991752 228.359255,37.8676752 C230.655255,38.3736752 232.910255,39.0690752 234.893255,40.3797752 C235.564255,40.8171752 236.185255,41.3282752 236.743255,41.9036752 C237.343255,42.5242752 237.783255,43.2825752 238.023255,44.1129752 C238.320255,45.0523752 238.269255,46.0689752 237.878255,46.9768752 C236.885255,49.2705752 235.161255,50.6887752 232.692255,51.0149752 C230.868255,51.3134752 229.000255,51.1151752 227.284255,50.4409752 L226.444255,50.0890752 L226.421255,50.1067752 Z M226.730255,48.9805752 L227.659255,49.3698752 C229.214255,49.9675752 230.903255,50.1367752 232.550255,49.8597752 C233.407255,49.7473752 234.224255,49.4214752 234.925255,48.9119752 C235.626255,48.4023752 236.189255,47.7255752 236.561255,46.9435752 C236.812255,46.4909752 236.950255,45.9854752 236.965255,45.4693752 C236.980255,44.9533752 236.872255,44.4417752 236.648255,43.9774752 C236.360255,43.3525752 235.940255,42.7976752 235.418255,42.3504752 C234.793255,41.7620752 234.079255,41.2770752 233.301255,40.9136752 C231.466255,40.1174752 229.633255,39.3259752 227.638255,38.9926752 C224.636255,38.5281752 221.576255,38.5800752 218.587255,39.1460752 C218.475255,39.1727752 218.376255,39.2392752 218.309255,39.3331752 C218.242255,39.4271752 218.212255,39.5420752 218.223255,39.6564752 C218.429255,41.2490752 218.966255,42.7795752 219.799255,44.1496752 C219.891255,44.2950752 219.998255,44.4302752 220.118255,44.5527752 C221.904255,46.4125752 223.818255,48.1075752 226.729255,48.9725752 L226.730255,48.9805752 Z" id="Shape" fill="#001632" fill-rule="nonzero" transform="translate(218.606993, 37.430170) scale(-1, -1) translate(-218.606993, -37.430170) "></path>
                <path d="M118.47,118.5 C118.47,118.5 115.65,120.27 117.16,123.07" id="Path" stroke="#2C105A" stroke-width="1.09" stroke-linecap="round"></path>
                <circle id="Oval" fill="#2C105A" fill-rule="nonzero" cx="295.3" cy="68.74" r="2.52"></circle>
            </g>
        </g>
    </g>
</svg>