<?xml version="1.0" encoding="UTF-8"?>
<svg width="579px" height="415px" viewBox="0 0 579 415" version="1.1" xmlns="http://www.w3.org/2000/svg" xmlns:xlink="http://www.w3.org/1999/xlink">
    <!-- Generator: sketchtool 61.2 (101010) - https://sketch.com -->
    <title>DDB4B5BE-6282-4E7C-8449-12B89869128D</title>
    <desc>Created with sketchtool.</desc>
    <g id="Color-Change" stroke="none" stroke-width="1" fill="none" fill-rule="evenodd">
        <g id="1.1-SafeJob-2" transform="translate(-779.000000, -1634.000000)">
            <g id="growth" transform="translate(779.000000, 1635.000000)">
                <path d="M390.068352,245.647488 C390.068352,245.647488 403.443712,297.487488 407.795712,312.335488 C412.148352,327.183488 413.043712,335.055488 420.468352,355.599488 C427.892352,376.143488 433.588352,411.151488 433.588352,411.151488 C433.268352,410.831488 368.563712,410.319488 368.563712,410.319488 C368.563712,410.319488 356.723712,363.023488 349.363712,336.463488 C340.019712,302.927488 333.875712,270.863488 330.355712,253.455488 C330.355712,253.391488 330.292352,253.263488 330.292352,253.199488 C328.947712,247.055488 320.052352,247.375488 319.155712,253.647488 C316.148352,274.831488 314.420352,328.783488 312.500352,350.671488 C310.195712,377.551488 307.508352,411.407488 307.508352,411.407488 L251.443712,411.087488 C251.443712,411.087488 250.163712,345.935488 251.443712,297.551488 C252.723712,249.167488 257.332352,204.751488 258.355712,201.295488 L260.212352,178.191488 L359.283712,205.327488 L387.315712,231.375488 L390.068352,245.647488 Z" id="Fill-1" fill="#307CC5"></path>
                <line x1="207.732096" y1="381.455296" x2="257.524096" y2="347.983296" id="Stroke-3" stroke="#8CD962" stroke-width="0.64"></line>
                <polygon id="Fill-5" fill="#8CD962" opacity="0.178571429" points="421.62048 228.75136 540.21248 228.75136 540.21248 171.53536 421.62048 171.53536"></polygon>
                <path d="M442.228352,239.503424 L446.323712,243.215424 C446.323712,243.215424 441.972352,246.351424 447.155712,252.239424 C452.340352,258.127424 460.403712,269.071424 460.403712,269.071424 C460.403712,269.071424 469.619712,267.279424 460.595712,253.519424 C460.595712,253.519424 462.260352,249.615424 465.268352,255.119424 C468.083712,260.367424 473.268352,272.079424 468.083712,278.351424 C467.572352,278.991424 467.699712,279.951424 468.403712,280.399424 C470.643712,281.871424 475.443712,283.663424 480.052352,276.175424 C480.052352,276.175424 487.092352,262.607424 476.212352,246.031424 L455.475712,221.071424" id="Fill-7" fill="#FE9B71"></path>
                <path d="M474.35584,281.615296 C474.35584,281.615296 486.51584,273.679296 475.82848,255.695296 L471.92384,247.311296" id="Fill-9" fill="#FE9B71"></path>
                <polygon id="Fill-11" fill="#8CD962" opacity="0.178571429" points="164.72384 143.37536 268.53184 143.37536 268.53184 93.26336 164.72384 93.26336"></polygon>
                <path d="M289.523968,54.927488 L233.971968,80.591488 C233.971968,80.591488 214.451968,89.295488 211.828608,103.311488 C208.691968,120.143488 219.315968,126.223488 219.315968,126.223488 L266.483968,153.487488 L256.115968,191.055488 C253.811968,200.335488 258.291968,201.359488 258.291968,201.359488 C258.291968,192.079488 266.868608,192.655488 266.868608,192.655488 C266.868608,192.655488 356.659968,222.095488 371.379968,225.999488 C386.099968,229.903488 386.099968,235.791488 386.099968,235.791488 L390.003968,245.583488 C393.459968,243.151488 391.988608,237.711488 391.988608,237.711488 L373.811968,188.175488 L419.251968,245.711488 C448.179968,248.143488 456.884608,221.327488 456.884608,221.327488 C456.884608,221.327488 392.436608,158.735488 376.179968,140.943488 C359.924608,123.087488 346.164608,121.935488 346.164608,121.935488 L330.739968,119.183488 L297.459968,113.231488 L269.171968,108.175488 L293.876608,95.823488" id="Fill-13" fill="#9ED671"></path>
                <path d="M375.15584,191.75936 L362.86848,155.85536 C362.86848,155.85536 361.20384,151.82336 364.78848,151.56736 C369.97184,151.18336 403.70048,226.51136 403.70048,226.51136 L375.15584,191.75936 Z" id="Fill-15" fill="#006029"></path>
                <path d="M266.548352,154.127488 C266.548352,154.127488 268.083712,148.751488 270.323712,142.607488 C272.052352,137.807488 268.595712,132.623488 263.475712,132.431488 C251.252352,131.983488 231.475712,129.551488 217.523712,119.567488 C217.523712,119.567488 212.915712,115.983488 211.700352,111.439488 C210.420352,106.639488 209.907712,119.759488 217.460352,125.327488 L266.548352,154.127488 Z" id="Fill-17" fill="#006029"></path>
                <path d="M252.340224,264.39936 C252.340224,264.39936 283.892224,273.10336 292.275584,274.06336 C292.275584,274.06336 285.555584,292.75136 284.532224,302.73536 C283.572224,312.39936 282.292224,319.11936 282.292224,319.11936 C282.292224,319.11936 259.764224,316.55936 254.579584,312.65536 C249.459584,308.81536 241.395584,301.71136 241.395584,301.71136 L252.340224,264.39936 Z" id="Fill-19" fill="#A5E3FB"></path>
                <line x1="222.580224" y1="233.551232" x2="386.164224" y2="126.543232" id="Stroke-21" stroke="#8CD962" stroke-width="0.64"></line>
                <line x1="119.348352" y1="109.51936" x2="294.003712" y2="0.27136" id="Stroke-23" stroke="#8CD962" stroke-width="0.64"></line>
                <line x1="172.788352" y1="290.191232" x2="247.603712" y2="239.311232" id="Stroke-25" stroke="#8CD962" stroke-width="0.64"></line>
                <line x1="0.180224" y1="344.07936" x2="74.932224" y2="293.19936" id="Stroke-27" stroke="#8CD962" stroke-width="0.64"></line>
                <line x1="386.420224" y1="310.351232" x2="436.275584" y2="276.879232" id="Stroke-29" stroke="#8CD962" stroke-width="0.64"></line>
                <polyline id="Stroke-31" stroke="#8CD962" stroke-width="0.64" points="464.180224 117.51936 505.204224 90.06336 505.204224 138.12736 578.420224 86.09536"></polyline>
                <path d="M240.180224,413.071232 C240.180224,413.071232 212.084224,403.727232 218.548224,394.063232 C225.012224,384.399232 251.508224,404.751232 251.508224,404.751232 L251.508224,406.607232 L251.508224,412.495232 L240.180224,413.071232 Z" id="Fill-33" fill="#9ED671"></path>
                <path d="M440.563968,54.991232 C440.563968,54.991232 471.155968,30.927232 501.299968,29.391232 C501.299968,29.391232 511.028608,47.247232 520.371968,61.071232 C520.371968,61.071232 490.868608,66.767232 461.939968,91.279232 L440.563968,54.991232 Z" id="Fill-35" fill="#8CD962" opacity="0.178571429"></path>
                <line x1="507.443968" y1="359.183424" x2="483.059968" y2="383.631424" id="Stroke-37" stroke="#8CD962" stroke-width="0.64"></line>
                <line x1="506.292096" y1="367.43936" x2="481.908096" y2="391.88736" id="Stroke-39" stroke="#8CD962" stroke-width="0.64"></line>
                <path d="M330.803968,119.247488 C329.843968,123.663488 322.035968,127.119488 312.628608,127.119488 C302.515968,127.119488 294.323968,123.151488 294.323968,118.223488 C294.323968,116.367488 295.475968,114.639488 297.523968,113.231488 L330.803968,119.247488 Z" id="Fill-41" fill="#006029"></path>
                <path d="M399.412096,219.407488 C402.292096,219.471488 410.484096,219.343488 418.676096,213.839488 C427.380096,207.951488 430.516096,199.695488 431.412096,197.071488" id="Stroke-43" stroke="#FFFFFF" stroke-width="0.64"></path>
                <path d="M417.268352,408.39936 C417.268352,410.12736 415.283712,411.21536 413.812352,410.25536 C408.180352,406.67136 398.003712,395.59936 407.028352,391.43936 C413.875712,388.17536 417.395712,402.06336 417.268352,408.39936" id="Fill-45" fill="#9ED671"></path>
                <path d="M415.220224,408.39936 C415.220224,408.39936 419.764224,378.70336 429.044224,383.31136 C441.332224,389.39136 416.308224,410.31936 416.308224,410.31936 L415.220224,408.39936 Z" id="Fill-47" fill="#9ED671"></path>
                <path d="M289.873984,54.704704 C291.985344,54.499904 294.590784,63.545024 295.694784,74.908224 C296.798144,86.271424 295.982144,95.649344 293.870784,95.854144 C291.760064,96.059584 289.154624,87.013824 288.050624,75.650624 C286.947264,64.287424 287.763264,54.909504 289.873984,54.704704" id="Fill-49" fill="#F4624D"></path>
                <path d="M336.628352,86.287488 C336.628352,96.911488 327.988352,105.551488 317.363712,105.551488 C306.739712,105.551488 298.099712,96.911488 298.099712,86.287488 C298.099712,82.319488 299.315712,78.607488 301.363712,75.535488 C304.819712,70.351488 310.708352,66.959488 317.363712,66.959488 C326.899712,66.959488 334.835712,73.935488 336.372352,83.023488 C336.563712,84.175488 336.628352,85.263488 336.628352,86.287488" id="Fill-51" fill="#FE9B71"></path>
                <path d="M336.372096,83.151232 C333.748096,83.535232 330.932096,83.791232 328.052096,83.791232 C316.788096,83.791232 306.868096,80.527232 301.364096,75.599232 C304.820096,70.415232 310.708096,67.023232 317.364096,67.023232 C326.900096,67.023232 334.836096,73.999232 336.372096,83.151232" id="Fill-53" fill="#F4624D"></path>
                <path d="M306.868352,81.807488 C307.539712,81.807488 308.083712,82.352128 308.083712,83.023488 C308.083712,83.694848 307.539712,84.239488 306.868352,84.239488 C306.196352,84.239488 305.652352,83.694848 305.652352,83.023488 C305.652352,82.352128 306.196352,81.807488 306.868352,81.807488" id="Fill-55" fill="#2C105A"></path>
                <path d="M320.180224,80.783424 C320.851584,80.783424 321.395584,81.328064 321.395584,81.999424 C321.395584,82.670784 320.851584,83.215424 320.180224,83.215424 C319.508224,83.215424 318.964224,82.670784 318.964224,81.999424 C318.964224,81.328064 319.508224,80.783424 320.180224,80.783424" id="Fill-57" fill="#2C105A"></path>
                <path d="M307.763968,90.63936 C307.763968,90.63936 313.843968,93.13536 319.603968,89.29536" id="Stroke-59" stroke="#E33E26" stroke-width="1.28"></path>
                <path d="M348.91584,66.063424 C348.91584,66.063424 350.19584,64.847424 349.17184,62.607424 C347.50848,59.151424 338.99584,54.543424 338.99584,54.543424 C320.82048,45.839424 302.45184,49.231424 302.45184,49.231424 L289.14048,55.119424 C289.14048,55.119424 286.38848,60.879424 288.37184,78.031424 C288.37184,78.031424 295.02848,73.039424 297.20384,72.271424 C299.31584,71.439424 299.06048,73.871424 306.86848,72.271424 C314.61184,70.671424 344.05184,73.615424 344.05184,73.615424 C344.05184,73.615424 346.93184,70.863424 342.38848,67.087424 C337.84384,63.311424 316.40384,58.959424 316.40384,58.959424" id="Fill-61" fill="#FE9B71"></path>
                <path d="M318.643968,53.327488 C318.643968,53.327488 338.548608,55.759488 349.428608,66.255488 C350.963968,67.791488 350.195968,70.671488 348.531968,70.607488 L344.499968,70.415488 L313.779968,63.887488" id="Fill-63" fill="#FE9B71"></path>
                <path d="M343.988352,73.615296 C343.988352,73.615296 346.868352,70.863296 342.323712,67.087296 C337.779712,63.311296 316.339712,58.959296 316.339712,58.959296" id="Stroke-65" stroke="#501DA0" stroke-width="0.64"></path>
                <path d="M318.643968,53.327488 C318.643968,53.327488 338.548608,55.759488 349.428608,66.255488 C350.963968,67.791488 350.195968,70.671488 348.531968,70.607488 L344.499968,70.415488" id="Stroke-67" stroke="#501DA0" stroke-width="0.64"></path>
                <path d="M474.35584,281.615296 C474.35584,281.615296 485.36384,272.015296 476.72384,254.927296 L471.92384,247.375296" id="Stroke-69" stroke="#501DA0" stroke-width="0.64"></path>
                <path d="M265.39584,272.143424 C267.16352,272.143424 268.59584,273.289664 268.59584,274.703424 C268.59584,276.117184 267.16352,277.263424 265.39584,277.263424 C263.6288,277.263424 262.19584,276.117184 262.19584,274.703424 C262.19584,273.289664 263.6288,272.143424 265.39584,272.143424" id="Fill-71" fill="#FFF7DE"></path>
                <path d="M256.43584,283.59936 C256.43584,283.59936 258.42048,288.91136 266.80384,284.23936 C275.18848,279.56736 290.93184,275.40736 290.93184,275.40736" id="Stroke-73" stroke="#FFF7DE" stroke-width="0.64"></path>
                <path d="M259.95584,68.23936 C258.48384,70.67136 256.62848,77.39136 258.22848,84.17536 C261.49184,98.12736 272.82048,105.10336 274.10048,105.99936" id="Stroke-75" stroke="#FFFFFF" stroke-width="0.64"></path>
            </g>
        </g>
    </g>
</svg>