<?xml version="1.0" encoding="UTF-8"?>
<svg width="198px" height="116px" viewBox="0 0 198 116" version="1.1" xmlns="http://www.w3.org/2000/svg" xmlns:xlink="http://www.w3.org/1999/xlink">
    <!-- Generator: sketchtool 60.1 (101010) - https://sketch.com -->
    <title>61352DF7-727A-4D63-910E-C95848011A55</title>
    <desc>Created with sketchtool.</desc>
    <defs>
        <linearGradient x1="99.8258024%" y1="100%" x2="0%" y2="100%" id="linearGradient-1">
            <stop stop-color="#FFCA1F" offset="0%"></stop>
            <stop stop-color="#F5B54F" offset="51.208826%"></stop>
            <stop stop-color="#F62E61" offset="100%"></stop>
        </linearGradient>
        <linearGradient x1="99.8258024%" y1="100%" x2="0%" y2="100%" id="linearGradient-2">
            <stop stop-color="#FFCA1F" offset="0%"></stop>
            <stop stop-color="#F5B54F" offset="51.208826%"></stop>
            <stop stop-color="#F62E61" offset="100%"></stop>
        </linearGradient>
        <linearGradient x1="100%" y1="100%" x2="0%" y2="100%" id="linearGradient-3">
            <stop stop-color="#76FF1F" offset="0%"></stop>
            <stop stop-color="#FCC52C" offset="37.4419341%"></stop>
            <stop stop-color="#F5B54F" offset="65.0733742%"></stop>
            <stop stop-color="#F62E61" offset="100%"></stop>
        </linearGradient>
        <linearGradient x1="100%" y1="100%" x2="0%" y2="100%" id="linearGradient-4">
            <stop stop-color="#76FF1F" offset="0%"></stop>
            <stop stop-color="#FCC52C" offset="37.4419341%"></stop>
            <stop stop-color="#F5B54F" offset="65.0733742%"></stop>
            <stop stop-color="#F62E61" offset="100%"></stop>
        </linearGradient>
        <polygon id="path-5" points="0 0.0218801649 12.0219592 0.0218801649 12.0219592 12.0298933 0 12.0298933"></polygon>
        <polygon id="path-7" points="0 0.0218801649 12.0219592 0.0218801649 12.0219592 12.0298933 0 12.0298933"></polygon>
        <polygon id="path-9" points="0 0.0218801649 12.0219592 0.0218801649 12.0219592 12.0298933 0 12.0298933"></polygon>
        <polygon id="path-11" points="0 0.0218801649 12.0219592 0.0218801649 12.0219592 12.0298933 0 12.0298933"></polygon>
    </defs>
    <g id="Page-2" stroke="none" stroke-width="1" fill="none" fill-rule="evenodd">
        <g id="14.3-Home" transform="translate(-566.000000, -2703.000000)">
            <g id="::-Career-AI-Visor-::" transform="translate(0.000000, 2047.000000)">
                <g id="Group-8-Copy" transform="translate(567.000000, 656.000000)">
                    <rect id="Rectangle" fill="#EFF0F5" x="20" y="0" width="177" height="97" rx="4"></rect>
                    <rect id="Rectangle-Copy-4" stroke="#DADADA" stroke-width="0.5" fill="#FFFFFF" x="0" y="18" width="177" height="97" rx="4"></rect>
                    <g id="Group-5" transform="translate(26.000000, 37.000000)">
                        <rect id="Rectangle" fill="#E6E0F1" opacity="0.5" x="0" y="0" width="130" height="6" rx="3"></rect>
                        <rect id="Rectangle-Copy-2" fill="url(#linearGradient-1)" x="0" y="0" width="50" height="6" rx="3"></rect>
                        <rect id="Rectangle-Copy-6" fill="#E6E0F1" opacity="0.5" x="0" y="19" width="130" height="6" rx="3"></rect>
                        <rect id="Rectangle-Copy-5" fill="url(#linearGradient-2)" x="0" y="19" width="75" height="6" rx="3"></rect>
                        <rect id="Rectangle-Copy-8" fill="#E6E0F1" opacity="0.5" x="0" y="38" width="130" height="6" rx="3"></rect>
                        <rect id="Rectangle-Copy-7" fill="url(#linearGradient-3)" x="0" y="38" width="98" height="6" rx="3"></rect>
                        <rect id="Rectangle-Copy-10" fill="#E6E0F1" opacity="0.5" x="0" y="57" width="130" height="6" rx="3"></rect>
                        <rect id="Rectangle-Copy-9" fill="url(#linearGradient-4)" x="0" y="57" width="127" height="6" rx="3"></rect>
                    </g>
                    <g id="Group-3" transform="translate(8.000000, 34.000000)">
                        <mask id="mask-6" fill="white">
                            <use xlink:href="#path-5"></use>
                        </mask>
                        <g id="Clip-2"></g>
                        <path d="M12.0219592,6.01147782 C12.0223932,9.32975286 9.36928576,11.9810078 6.09800237,12.0292453 C2.7680552,12.0782771 -0.0193785782,9.33820163 -2.16927817e-05,6.03010845 C0.0198270559,2.6687952 2.66591802,0.0173236025 6.042666,0.0218670983 C9.36899642,0.0262778614 12.0215252,2.68338198 12.0219592,6.01147782" id="Fill-1" fill="#F2EFF7" mask="url(#mask-6)"></path>
                        <path d="M10.8894806,6.11120227 C10.8918677,6.05769335 10.8942547,6.00411222 10.8966418,5.9506033 C10.7654982,5.89189513 10.6376097,5.79130415 10.5026324,5.78076123 C8.11839456,5.59481593 6.45222744,3.93835025 6.25106348,1.55918922 C6.23999621,1.42819707 6.11232472,1.21228389 6.01915709,1.20116328 C5.7682989,1.17133982 5.78016186,1.39909573 5.76714154,1.5824414 C5.60337483,3.89820051 3.88975588,5.60990819 1.57590012,5.77108485 C1.39527933,5.7836497 1.17487422,5.76610224 1.17766849,6.02245401 C1.18044403,6.27801144 1.40092147,6.25454262 1.58125292,6.26717968 C3.50500539,6.40221568 5.09167621,7.65732837 5.59917939,9.47085465 C5.69856785,9.82606432 5.70030389,10.2076313 5.78066821,10.5695567 C5.8047558,10.6782354 5.94248187,10.7617122 6.02819898,10.8568151 C6.10472954,10.7659004 6.18748091,10.6793185 6.25424623,10.5817604 C6.27703179,10.548543 6.25685029,10.4876685 6.26133507,10.4398643 C6.42929721,8.62893768 7.33232883,7.32428771 9.00558478,6.60484189 C9.46932523,6.405393 10.0059071,6.37708599 10.5067555,6.26031956 C10.6387671,6.22955735 10.7621708,6.16189492 10.8894806,6.11120227" id="Path" fill="#FFFFFF" mask="url(#mask-6)"></path>
                    </g>
                    <g id="Group-3-Copy" transform="translate(8.000000, 54.000000)">
                        <mask id="mask-8" fill="white">
                            <use xlink:href="#path-7"></use>
                        </mask>
                        <g id="Clip-2"></g>
                        <path d="M12.0219592,6.01147782 C12.0223932,9.32975286 9.36928576,11.9810078 6.09800237,12.0292453 C2.7680552,12.0782771 -0.0193785782,9.33820163 -2.16927817e-05,6.03010845 C0.0198270559,2.6687952 2.66591802,0.0173236025 6.042666,0.0218670983 C9.36899642,0.0262778614 12.0215252,2.68338198 12.0219592,6.01147782" id="Fill-1" fill="#F2EFF7" mask="url(#mask-8)"></path>
                        <path d="M10.8894806,6.11120227 C10.8918677,6.05769335 10.8942547,6.00411222 10.8966418,5.9506033 C10.7654982,5.89189513 10.6376097,5.79130415 10.5026324,5.78076123 C8.11839456,5.59481593 6.45222744,3.93835025 6.25106348,1.55918922 C6.23999621,1.42819707 6.11232472,1.21228389 6.01915709,1.20116328 C5.7682989,1.17133982 5.78016186,1.39909573 5.76714154,1.5824414 C5.60337483,3.89820051 3.88975588,5.60990819 1.57590012,5.77108485 C1.39527933,5.7836497 1.17487422,5.76610224 1.17766849,6.02245401 C1.18044403,6.27801144 1.40092147,6.25454262 1.58125292,6.26717968 C3.50500539,6.40221568 5.09167621,7.65732837 5.59917939,9.47085465 C5.69856785,9.82606432 5.70030389,10.2076313 5.78066821,10.5695567 C5.8047558,10.6782354 5.94248187,10.7617122 6.02819898,10.8568151 C6.10472954,10.7659004 6.18748091,10.6793185 6.25424623,10.5817604 C6.27703179,10.548543 6.25685029,10.4876685 6.26133507,10.4398643 C6.42929721,8.62893768 7.33232883,7.32428771 9.00558478,6.60484189 C9.46932523,6.405393 10.0059071,6.37708599 10.5067555,6.26031956 C10.6387671,6.22955735 10.7621708,6.16189492 10.8894806,6.11120227" id="Path" fill="#FFFFFF" mask="url(#mask-8)"></path>
                    </g>
                    <g id="Group-3-Copy-2" transform="translate(8.000000, 72.000000)">
                        <mask id="mask-10" fill="white">
                            <use xlink:href="#path-9"></use>
                        </mask>
                        <g id="Clip-2"></g>
                        <path d="M12.0219592,6.01147782 C12.0223932,9.32975286 9.36928576,11.9810078 6.09800237,12.0292453 C2.7680552,12.0782771 -0.0193785782,9.33820163 -2.16927817e-05,6.03010845 C0.0198270559,2.6687952 2.66591802,0.0173236025 6.042666,0.0218670983 C9.36899642,0.0262778614 12.0215252,2.68338198 12.0219592,6.01147782" id="Fill-1" fill="#F2EFF7" mask="url(#mask-10)"></path>
                        <path d="M10.8894806,6.11120227 C10.8918677,6.05769335 10.8942547,6.00411222 10.8966418,5.9506033 C10.7654982,5.89189513 10.6376097,5.79130415 10.5026324,5.78076123 C8.11839456,5.59481593 6.45222744,3.93835025 6.25106348,1.55918922 C6.23999621,1.42819707 6.11232472,1.21228389 6.01915709,1.20116328 C5.7682989,1.17133982 5.78016186,1.39909573 5.76714154,1.5824414 C5.60337483,3.89820051 3.88975588,5.60990819 1.57590012,5.77108485 C1.39527933,5.7836497 1.17487422,5.76610224 1.17766849,6.02245401 C1.18044403,6.27801144 1.40092147,6.25454262 1.58125292,6.26717968 C3.50500539,6.40221568 5.09167621,7.65732837 5.59917939,9.47085465 C5.69856785,9.82606432 5.70030389,10.2076313 5.78066821,10.5695567 C5.8047558,10.6782354 5.94248187,10.7617122 6.02819898,10.8568151 C6.10472954,10.7659004 6.18748091,10.6793185 6.25424623,10.5817604 C6.27703179,10.548543 6.25685029,10.4876685 6.26133507,10.4398643 C6.42929721,8.62893768 7.33232883,7.32428771 9.00558478,6.60484189 C9.46932523,6.405393 10.0059071,6.37708599 10.5067555,6.26031956 C10.6387671,6.22955735 10.7621708,6.16189492 10.8894806,6.11120227" id="Path" fill="#FFFFFF" mask="url(#mask-10)"></path>
                    </g>
                    <g id="Group-3-Copy-3" transform="translate(8.000000, 91.000000)">
                        <mask id="mask-12" fill="white">
                            <use xlink:href="#path-11"></use>
                        </mask>
                        <g id="Clip-2"></g>
                        <path d="M12.0219592,6.01147782 C12.0223932,9.32975286 9.36928576,11.9810078 6.09800237,12.0292453 C2.7680552,12.0782771 -0.0193785782,9.33820163 -2.16927817e-05,6.03010845 C0.0198270559,2.6687952 2.66591802,0.0173236025 6.042666,0.0218670983 C9.36899642,0.0262778614 12.0215252,2.68338198 12.0219592,6.01147782" id="Fill-1" fill="#F2EFF7" mask="url(#mask-12)"></path>
                        <path d="M10.8894806,6.11120227 C10.8918677,6.05769335 10.8942547,6.00411222 10.8966418,5.9506033 C10.7654982,5.89189513 10.6376097,5.79130415 10.5026324,5.78076123 C8.11839456,5.59481593 6.45222744,3.93835025 6.25106348,1.55918922 C6.23999621,1.42819707 6.11232472,1.21228389 6.01915709,1.20116328 C5.7682989,1.17133982 5.78016186,1.39909573 5.76714154,1.5824414 C5.60337483,3.89820051 3.88975588,5.60990819 1.57590012,5.77108485 C1.39527933,5.7836497 1.17487422,5.76610224 1.17766849,6.02245401 C1.18044403,6.27801144 1.40092147,6.25454262 1.58125292,6.26717968 C3.50500539,6.40221568 5.09167621,7.65732837 5.59917939,9.47085465 C5.69856785,9.82606432 5.70030389,10.2076313 5.78066821,10.5695567 C5.8047558,10.6782354 5.94248187,10.7617122 6.02819898,10.8568151 C6.10472954,10.7659004 6.18748091,10.6793185 6.25424623,10.5817604 C6.27703179,10.548543 6.25685029,10.4876685 6.26133507,10.4398643 C6.42929721,8.62893768 7.33232883,7.32428771 9.00558478,6.60484189 C9.46932523,6.405393 10.0059071,6.37708599 10.5067555,6.26031956 C10.6387671,6.22955735 10.7621708,6.16189492 10.8894806,6.11120227" id="Path" fill="#FFFFFF" mask="url(#mask-12)"></path>
                    </g>
                </g>
            </g>
        </g>
    </g>
</svg>