<?xml version="1.0" encoding="UTF-8"?>
<svg width="200px" height="116px" viewBox="0 0 200 116" version="1.1" xmlns="http://www.w3.org/2000/svg" xmlns:xlink="http://www.w3.org/1999/xlink">
    <!-- Generator: sketchtool 60.1 (101010) - https://sketch.com -->
    <title>85A6B700-0B7E-4C34-9948-A74F95D17ED3</title>
    <desc>Created with sketchtool.</desc>
    <defs>
        <path d="M2.16,0 L45,0 C46.1929351,-2.19138615e-16 47.16,0.96706494 47.16,2.16 L47.16,29.88 L47.16,29.88 L0,29.88 L0,2.16 C-1.4609241e-16,0.96706494 0.96706494,-6.69039804e-16 2.16,0 Z" id="path-1"></path>
        <polygon id="path-3" points="0 0.0683755153 37.5686225 0.0683755153 37.5686225 37.5934165 0 37.5934165"></polygon>
        <path d="M2.16,0 L45,0 C46.1929351,-2.19138615e-16 47.16,0.96706494 47.16,2.16 L47.16,29.88 L47.16,29.88 L0,29.88 L0,2.16 C-1.4609241e-16,0.96706494 0.96706494,-6.69039804e-16 2.16,0 Z" id="path-5"></path>
        <path d="M2.16,0 L45,0 C46.1929351,-2.19138615e-16 47.16,0.96706494 47.16,2.16 L47.16,29.88 L47.16,29.88 L0,29.88 L0,2.16 C-1.4609241e-16,0.96706494 0.96706494,-6.69039804e-16 2.16,0 Z" id="path-7"></path>
    </defs>
    <g id="Page-2" stroke="none" stroke-width="1" fill="none" fill-rule="evenodd">
        <g id="14.3-Home" transform="translate(-173.000000, -2703.000000)">
            <g id="::-Career-AI-Visor-::" transform="translate(0.000000, 2047.000000)">
                <g id="Group-8" transform="translate(174.000000, 656.000000)">
                    <rect id="Rectangle" fill="#EFF0F5" x="22" y="0" width="177" height="97" rx="4"></rect>
                    <rect id="Rectangle-Copy-4" stroke="#DADADA" stroke-width="0.5" fill="#FFFFFF" x="0" y="18" width="177" height="97" rx="4"></rect>
                    <g id=":-Course-1-:-Copy" transform="translate(14.000000, 31.000000)">
                        <rect id="Rectangle" fill="#F5F5F5" x="0" y="0" width="47.16" height="72.54" rx="2.16"></rect>
                        <g id="Image">
                            <mask id="mask-2" fill="white">
                                <use xlink:href="#path-1"></use>
                            </mask>
                            <use id="Mask" fill="#533092" xlink:href="#path-1"></use>
                        </g>
                        <g id="Group" transform="translate(22.680000, 61.380000)" fill="#533092">
                            <rect id="Rectangle" x="0" y="0" width="21.6" height="7.2" rx="0.72"></rect>
                        </g>
                    </g>
                    <g id="Group-3" transform="translate(2.000000, 0.000000)">
                        <mask id="mask-4" fill="white">
                            <use xlink:href="#path-3"></use>
                        </mask>
                        <g id="Clip-2"></g>
                        <path d="M37.5686225,18.7858682 C37.5699788,29.1554777 29.279018,37.4406494 19.0562574,37.5913915 C8.65017251,37.7446158 -0.0605580568,29.1818801 -6.77899428e-05,18.8440889 C0.0619595497,8.339985 8.3309938,0.0541362578 18.8833313,0.0683346821 C29.2781138,0.0821183169 37.5672663,8.38556868 37.5686225,18.7858682" id="Fill-1" fill="#FFCA1F" mask="url(#mask-4)"></path>
                        <path d="M34.0296269,19.0975071 C34.0370864,18.9302917 34.044546,18.7628507 34.0520056,18.5956353 C33.6421819,18.4121723 33.2425304,18.0978255 32.8207262,18.0648788 C25.369983,17.4837998 20.1632108,12.3073445 19.5345734,4.8724663 C19.4999881,4.46311585 19.1010148,3.78838717 18.8098659,3.75363526 C18.0259341,3.66043695 18.0630058,4.37217416 18.0223173,4.94512939 C17.5105463,12.1818766 12.1554871,17.5309631 4.92468787,18.0346402 C4.3602479,18.0739053 3.67148195,18.0190695 3.68021402,18.8201688 C3.68888759,19.6187858 4.37787959,19.5454457 4.94141537,19.5849365 C10.9531418,20.006924 15.9114881,23.9291512 17.4974356,29.5964208 C17.8080245,30.706451 17.8134497,31.8988478 18.0645881,33.0298646 C18.1398619,33.3694855 18.5702558,33.6303505 18.8381218,33.9275471 C19.0772798,33.6434389 19.3358778,33.3728704 19.5445195,33.0680014 C19.6157243,32.964197 19.5526572,32.7739641 19.5666721,32.624576 C20.0915538,26.9654302 22.9135276,22.8883991 28.1424524,20.6401309 C29.5916413,20.0168531 31.2684598,19.9283937 32.8336109,19.5634986 C33.2461471,19.4673667 33.6317837,19.2559216 34.0296269,19.0975071" id="Path" fill="#FFFFFF" mask="url(#mask-4)"></path>
                    </g>
                    <g id=":-Course-1-:-Copy-2" transform="translate(68.000000, 31.000000)">
                        <rect id="Rectangle" fill="#F5F5F5" x="0" y="0" width="47.16" height="72.54" rx="2.16"></rect>
                        <g id="Image">
                            <mask id="mask-6" fill="white">
                                <use xlink:href="#path-5"></use>
                            </mask>
                            <use id="Mask" fill="#533092" xlink:href="#path-5"></use>
                        </g>
                        <g id="Group" transform="translate(22.680000, 61.380000)" fill="#533092">
                            <rect id="Rectangle" x="0" y="0" width="21.6" height="7.2" rx="0.72"></rect>
                        </g>
                    </g>
                    <g id=":-Course-1-:-Copy-3" transform="translate(122.000000, 31.000000)">
                        <rect id="Rectangle" fill="#F5F5F5" x="0" y="0" width="47.16" height="72.54" rx="2.16"></rect>
                        <g id="Image">
                            <mask id="mask-8" fill="white">
                                <use xlink:href="#path-7"></use>
                            </mask>
                            <use id="Mask" fill="#533092" xlink:href="#path-7"></use>
                        </g>
                        <g id="Group" transform="translate(22.680000, 61.380000)" fill="#533092">
                            <rect id="Rectangle" x="0" y="0" width="21.6" height="7.2" rx="0.72"></rect>
                        </g>
                    </g>
                </g>
            </g>
        </g>
    </g>
</svg>