<?xml version="1.0" encoding="UTF-8"?>
<svg width="13px" height="13px" viewBox="0 0 13 13" version="1.1" xmlns="http://www.w3.org/2000/svg" xmlns:xlink="http://www.w3.org/1999/xlink">
    <!-- Generator: sketchtool 63.1 (101010) - https://sketch.com -->
    <title>DEF4C391-CEF5-4970-B92B-9BE880F7C3F9</title>
    <desc>Created with sketchtool.</desc>
    <defs>
        <polygon id="path-1" points="1.33333333 1.33333333 14.6666667 1.33333333 14.6666667 14.6666667 1.33333333 14.6666667"></polygon>
    </defs>
    <g id="Page-4" stroke="none" stroke-width="1" fill="none" fill-rule="evenodd" opacity="0.5">
        <g id="1.4-OTP" transform="translate(-90.000000, -384.000000)">
            <g id="Hisotory" transform="translate(88.000000, 382.000000)">
                <rect id="Rectangle-Copy-6" fill="#D8D8D8" opacity="0" x="0" y="0" width="16" height="16"></rect>
                <mask id="mask-2" fill="white">
                    <use xlink:href="#path-1"></use>
                </mask>
                <use id="Clip-2" fill="#FFFFFF" opacity="0" xlink:href="#path-1"></use>
                <g id="icon" mask="url(#mask-2)" fill="#282232" fill-rule="nonzero">
                    <g transform="translate(2.000000, 2.000000)" id="Combined-Shape">
                        <path d="M4.00852548,0.443039215 C5.60784989,-0.189217377 7.36710674,-0.136529328 8.91312034,0.548415314 C10.5124448,1.23335996 11.578661,2.49787314 12.2183908,4.07851462 C12.8581206,5.6591561 12.8048097,7.39786173 12.1117692,8.92581516 C11.4187286,10.4537686 10.1925799,11.6129057 8.59325546,12.2451623 C7.84690407,12.5086025 7.10055268,12.6666667 6.30089047,12.6666667 C4.75487687,12.6666667 3.26217408,12.1397862 2.08933618,11.1387132 C1.34298479,10.5064566 0.703255022,9.6107598 0.330079326,8.66237492 C0.223457698,8.39893467 0.383390139,8.08280637 0.649944208,7.97743027 C0.916498277,7.87205417 1.23636316,8.03011832 1.34298479,8.29355857 C1.66284967,9.08387931 2.19595781,9.76882395 2.83568757,10.3483925 C4.32839036,11.6655937 6.4075121,11.981722 8.27339058,11.2967774 C9.60616092,10.7698969 10.6190664,9.821512 11.2054853,8.50431077 C11.7919043,7.18710953 11.8452151,5.7645322 11.312107,4.44733097 C10.7789988,3.13012973 9.76609336,2.12905679 8.48663383,1.54948825 C7.15386349,0.969919709 5.71447152,0.917231659 4.38170117,1.44411215 C3.52872815,1.76024045 2.83568757,2.28712094 2.24926862,2.97206558 L2.24926862,2.97206558 L3.15555246,2.76131339 C3.42210652,2.65593729 3.74197141,2.81400144 3.74197141,3.13012973 C3.84859303,3.39356998 3.63534978,3.70969828 3.36879571,3.76238632 L3.36879571,3.76238632 L1.18305235,4.28926682 L1.18305235,4.28926682 L1.07643072,4.28926682 C0.80987665,4.28926682 0.596633395,4.13120267 0.543322581,3.86776242 L0.543322581,3.86776242 L0.0102144429,1.7075524 C-0.0430963708,1.44411215 0.11683607,1.18067191 0.383390139,1.07529581 C0.703255022,1.02260776 0.969809091,1.18067191 1.0231199,1.4968002 L1.0231199,1.4968002 L1.28967397,2.44518509 C1.98271455,1.54948825 2.9423092,0.86454361 4.00852548,0.443039215 Z M6.55793297,3.33333333 C6.89269275,3.33333333 7.11586594,3.55151515 7.11586594,3.87878788 L7.11586594,3.87878788 L7.11586594,6.87878788 L9.12442464,8.35151515 C9.34759783,8.51515152 9.40339113,8.8969697 9.23601123,9.11515152 C9.12442464,9.27878788 8.95704475,9.33333333 8.78966486,9.33333333 C8.67807826,9.33333333 8.56649167,9.27878788 8.45490507,9.22424242 L8.45490507,9.22424242 L6.22317319,7.58787879 C6.0557933,7.47878788 6,7.31515152 6,7.15151515 L6,7.15151515 L6,3.87878788 C6,3.55151515 6.22317319,3.33333333 6.55793297,3.33333333 Z"></path>
                    </g>
                </g>
            </g>
        </g>
    </g>
</svg>