<?xml version="1.0" encoding="UTF-8"?>
<svg width="1041px" height="760px" viewBox="0 0 1041 760" version="1.1" xmlns="http://www.w3.org/2000/svg" xmlns:xlink="http://www.w3.org/1999/xlink">
    <!-- Generator: sketchtool 61.2 (101010) - https://sketch.com -->
    <title>BA75D901-D1A9-4644-9A53-64D094A7389F</title>
    <desc>Created with sketchtool.</desc>
    <defs>
        <polygon id="path-1" points="0.3831 0.2347 34.7471 0.2347 34.7471 34.5632 0.3831 34.5632"></polygon>
        <polygon id="path-3" points="0.0448 0.2347 34.4087 0.2347 34.4087 34.5632 0.0448 34.5632"></polygon>
        <polygon id="path-5" points="0.6926 0.2347 35.0566 0.2347 35.0566 34.5632 0.6926 34.5632"></polygon>
        <polygon id="path-7" points="0.9406 0.2347 35.3044 0.2347 35.3044 34.5632 0.9406 34.5632"></polygon>
        <polygon id="path-9" points="0.3735 0.2347 34.7374 0.2347 34.7374 34.5632 0.3735 34.5632"></polygon>
    </defs>
    <g id="Color-Change" stroke="none" stroke-width="1" fill="none" fill-rule="evenodd">
        <g id="Illustration" transform="translate(-1583.000000, -395.000000)">
            <g id="Color-corrected" transform="translate(230.000000, 331.000000)">
                <g id="Group-2" transform="translate(1353.000000, 64.000000)">
                    <line x1="343.2487" y1="759.1541" x2="1036.7534" y2="759.1541" id="Path" stroke="#2482EA"></line>
                    <line x1="307.7313" y1="260.1347" x2="203.9584" y2="260.1347" id="Path" stroke="#2482EA"></line>
                    <line x1="307.7313" y1="296.8209" x2="203.9584" y2="296.8209" id="Path" stroke="#2482EA"></line>
                    <line x1="307.7313" y1="329.103" x2="203.9584" y2="329.103" id="Path" stroke="#2482EA"></line>
                    <path d="M790.7898,440.3832 C790.7898,440.3832 806.3174,524.4116 719.7695,527.4483 C633.2214,530.485 534.0915,538.8362 534.0915,538.8362 C534.0915,538.8362 552.9238,675.1393 555.9604,688.0456 L480.0412,695.6375 C480.0412,695.6375 441.9741,588.5375 432.3598,552.5016 C423.5966,519.656 422.4904,452.2883 490.0583,441.6596 C557.6264,431.0309 624.5737,429.895 624.5737,429.895" id="Path" fill="#2482EA" fill-rule="nonzero"></path>
                    <path d="M465.0552,449.7262 C466.7832,453.9457 476.3733,478.5139 464.25,505.2944 C453.9749,527.992 434.7664,537.5589 429.6204,539.9242" id="Path" stroke="#FFFFFF" opacity="0.2"></path>
                    <g id="Group" transform="translate(453.000000, 251.000000)" fill-rule="nonzero">
                        <polygon id="Path" fill="#AFE2F9" points="18.1606 0.5193 52.6492 199.0194 153.0803 194.0989 119.5422 0.997"></polygon>
                        <path d="M0.3706,7.2039 L35.7822,207.723 L53.1594,199.0782 L18.4804,1.3587 C18.4805,1.3586 6.7212,-3.3802 0.3706,7.2039 Z" id="Path" fill="#4E77D4"></path>
                        <path d="M153.0803,194.0989 L143.9343,201.5913 L35.9529,208.218603 C35.8167,208.2195 35.7864,208.0279 35.9163,207.9868 L53.1595,199.0782 L153.0803,194.0989 Z" id="Path" fill="#4456C1"></path>
                    </g>
                    <path d="M588.3748,344.5449 L584.9495,320.1404 C584.9495,320.1404 588.0354,309.9712 570.2488,301.561 C548.5423,291.2973 559.6865,275.9891 559.6865,275.9891 L590.0874,291.0263 C590.0874,291.0263 603.2656,306.27 598.9714,332.4257 L599.5383,347.9465 L588.3748,344.5449 Z" id="Path" fill="#FE9B71" fill-rule="nonzero"></path>
                    <polygon id="Path" fill="#165D0A" fill-rule="nonzero" points="598.9727 332.1983 658.5427 340.9599 654.9272 361.978 599.5396 347.719"></polygon>
                    <polygon id="Path" fill="#FE9B71" fill-rule="nonzero" points="471.4219 402.6171 460.5408 379.7935 457.887 351.6622 493.4492 317.4268 516.8035 360.1547"></polygon>
                    <g id="Group" transform="translate(451.000000, 290.000000)" fill="#FE9B71" fill-rule="nonzero">
                        <path d="M32.5347,29.7756 C7.8211,21.3505 19.0545,0.0069 19.0545,0.0069 C19.0545,0.0069 46.5767,7.8704 61.1802,9.5554 C75.7837,11.2404 115.1009,39.3241 115.1009,39.3241 C115.1009,39.3241 103.1004,75.9612 99.8756,103.3748 L85.7777,99.7754 C80.0787,116.8727 49.4835,102.7749 38.3851,112.3734 C27.287,121.9719 31.4278,134.0518 20.388,132.1703 C18.004,131.764 10.4896,121.9719 11.6893,109.9738 C12.8893,97.9757 39.2169,71.4532 39.2169,71.4532 C39.2169,71.4532 44.7186,66.2411 51.3785,66.2411" id="Path"></path>
                        <path d="M47.2136,21.8762 L12.7199,39.7304 C12.7199,39.7304 -5.837,49.9712 7.2433,69.9203" id="Path"></path>
                        <path d="M13.189,104.8745 C3.7881,96.9424 -0.5937,90.7291 0.875,81.9158 C2.4275,72.6021 17.5439,60.9929 21.0691,58.3488 C24.5945,55.7048 36.6106,45.103 36.6106,45.103 C36.6106,45.103 42.981,38.4431 47.3245,40.7596" id="Path"></path>
                    </g>
                    <path d="M384.2107,757.3142 C384.2107,757.3142 380.0388,750.4988 381.7974,741.9178 C383.899,731.6621 392.9683,725.8822 397.4982,723.1328 C422.3955,708.0227 441.9358,724.5404 462.0845,709.5124 C466.5576,706.176 478.6331,695.6373 478.6331,695.6373 L478.6331,695.6373 L554.377,687.5564 C554.377,687.5564 562.0923,741.8835 562.521,757.3142 L384.2107,757.3142 Z" id="Path" fill="#3060A5" fill-rule="nonzero"></path>
                    <path d="M455.9199,714.2345 C455.9199,714.2345 453.5205,644.136 427.9685,654.9064 C403.6635,665.1512 455.9199,714.2345 455.9199,714.2345 Z" id="Path" stroke="#2C105A"></path>
                    <path d="M454.8015,713.0691 C454.8015,713.0691 399.6681,672.2339 392.1318,695.5266 C382.9756,723.8264 454.8015,713.0691 454.8015,713.0691 Z" id="Path" stroke="#2C105A"></path>
                    <path d="M925.7146,415.9314 C925.7146,415.9314 957.8323,515.8611 903.8611,572.7897 C903.8611,572.7897 875.7664,603.1023 839.5391,604.5811 C803.3118,606.0597 645.6607,603.8417 645.6607,603.8417 C645.6607,603.8417 631.3011,606.3723 627.9168,593.491 C624.1736,579.2434 624.9595,549.131 624.9595,549.131 L791.3035,539.7058 C791.3035,539.7058 880.6092,544.6951 875.4339,448.5817 C875.4339,448.5817 872.8629,401.4052 865.5931,359.9543 C865.5931,359.9543 846.0001,293.743 889.5404,251.5139 L927.2599,262.3528 C927.2598,262.3528 893.3516,326.0616 925.7146,415.9314 Z" id="Path" fill="#2482EA" fill-rule="nonzero"></path>
                    <path d="M1040.2744,756.1923 L1010.9875,756.7665 C1009.0117,756.8053 1007.0441,756.505 1005.1699,755.8788 L665.6928,603.1582 C627.5011,606.2632 629.7624,593.22 629.7624,593.22" id="Path" stroke="#2482EA" stroke-width="5"></path>
                    <path d="M632.9937,754.6351 L677.2664,754.6351 C798.3157,750.7768 884.1734,616.3299 917.4881,548.9115" id="Path" stroke="#2482EA" stroke-width="5"></path>
                    <circle id="Oval" fill="#F8E3A9" fill-rule="nonzero" opacity="0.8" cx="682.4563" cy="152.7455" r="111.4314"></circle>
                    <path d="M717.4524,153.3333 C717.4524,153.3333 719.4194,173.3986 702.5022,186.3813 C685.5847,199.3646 657.408,199.7117 644.668,173.7919 C633.2586,150.5796 646.6353,128.154 646.6353,128.154 C657.429,113.3926 676.8267,107.851 693.2725,114.5602 C708.5574,120.7963 718.3672,136.4206 717.4524,153.3333 Z" id="Path" fill="#FE9B71" fill-rule="nonzero"></path>
                    <path d="M721.7034,149.5124 C727.8867,131.162 723.4854,108.396 723.4854,108.396 C706.9756,105.4388 652.2779,93.6357 652.2779,93.6357 C650.0841,98.4226 653.076,105.8028 653.076,105.8028 C642.5047,107.5981 635.9224,112.784 635.9224,112.784 C635.9224,112.784 641.1082,131.1345 656.2674,130.7355 C671.4263,130.3366 711.4505,129.4397 710.6527,154.3719 L713.8883,155.1492 C714.714,154.1725 715.8966,152.964 717.5021,151.8136 C719.0591,150.6982 720.5376,149.9786 721.7034,149.5124 Z" id="Path" fill="#2C105A" fill-rule="nonzero"></path>
                    <path d="M712.092,155.1747 C712.092,155.1747 718.0439,147.9464 725.5271,148.9668 C733.01,149.9872 734.1541,165.8099 726.3311,170.4017 C720.7154,173.6978 712.0455,173.2928 712.0455,173.2928" id="Path" fill="#FE9B71" fill-rule="nonzero"></path>
                    <path d="M666.8796,142.9016 L663.3706,166.8888 C663.3706,166.8888 662.6956,169.7577 666.0708,169.5889 C669.446,169.4201 676.365,168.5763 676.365,168.5763" id="Path" stroke="#F4624D" stroke-width="2"></path>
                    <path d="M677.3076,142.6437 C677.3076,142.6437 688.0661,139.2629 695.5102,143.2492" id="Path" stroke="#F4624D" stroke-width="2"></path>
                    <path d="M647.6646,142.68 C647.6646,142.68 659.6558,138.9699 667.0999,142.9561" id="Path" stroke="#F4624D" stroke-width="2"></path>
                    <path d="M682.3201,177.4816 C668.7805,197.9626 659.7137,177.7238 659.7137,177.7238 L682.3201,177.4816 Z" id="Path" fill="#E33E26" fill-rule="nonzero"></path>
                    <path d="M718.4976,156.1133 C718.4976,156.1133 723.2708,152.0004 724.896,156.8421 C726.7673,162.4164 720.6003,168.7934 717.8054,166.3704 C715.8674,164.6903 717.1455,161.2216 719.949,161.4781" id="Path" stroke="#F4624D" stroke-width="2"></path>
                    <path d="M683.0737,240.4779 C683.1377,240.6559 682.9914,240.8353 682.8032,240.8179 L678.751,240.4444 L669.1812,225.0731 L682.6377,219.5111" id="Path" fill="#AAD87C" fill-rule="nonzero"></path>
                    <path d="M606.7034,427.7457 C606.7034,427.7457 611.1802,415.9009 635.3804,423.1994 C657.4126,429.8441 658.7232,445.1136 658.7232,445.1136" id="Path" stroke="#FFFFFF"></path>
                    <path d="M750.2627,460.8528 C781.2227,455.2793 861.1616,452.2895 861.1616,452.2895 L860.5559,437.5928 C860.5559,437.5928 765.9507,435.421 754.0491,443.0501 L750.2627,460.8528 Z" id="Path" fill="#165D0A" fill-rule="nonzero"></path>
                    <path d="M862.324,452.6407 C862.324,452.6407 877.8513,536.6691 791.3035,539.7058 C704.7556,542.7427 605.6255,551.0937 605.6255,551.0937 C605.6255,551.0937 624.4578,675.1394 627.4946,688.0456 L551.5754,695.6375 C551.5754,695.6375 513.5083,600.795 503.8938,564.7591 C495.1306,531.9135 494.0244,464.5458 561.5925,453.9171 C629.1606,443.2884 650.853,444.0476 650.853,444.0476" id="Path" fill="#AFE2F9" fill-rule="nonzero"></path>
                    <path d="M922.7039,46.5906 C922.7039,46.5906 950.7596,44.6477 948.1626,72.0603 C948.1626,72.0603 944.7429,89.6966 933.1314,80.7939 C923.1548,73.1446 940.805,49.504 967.8997,59.6888" id="Path" stroke="#FFCA1E"></path>
                    <circle id="Oval" fill="#FFA300" fill-rule="nonzero" cx="164.7833" cy="65.368" r="6.5513"></circle>
                    <line x1="101.0665" y1="2.7128" x2="132.2408" y2="33.8872" id="Path" stroke="#2482EA"></line>
                    <line x1="150.8695" y1="0.812" x2="154.6711" y2="27.4242" id="Path" stroke="#2482EA"></line>
                    <path d="M390.3988,140.9218 L205.4906,140.9218 C192.3718,140.9218 181.7369,130.2869 181.7369,117.1681 L181.7369,111.7373 C181.7369,98.6185 192.3718,87.9836 205.4906,87.9836 L390.3988,87.9836 C403.5176,87.9836 414.1523,98.6185 414.1523,111.7373 L414.1523,117.1681 C414.1523,130.2869 403.5176,140.9218 390.3988,140.9218 Z" id="Path" fill="#DFD5EF" fill-rule="nonzero" opacity="0.2"></path>
                    <circle id="Oval" fill="#4E77D4" fill-rule="nonzero" cx="297.4302" cy="260.1323" r="10.9533"></circle>
                    <circle id="Oval" fill="#4E77D4" fill-rule="nonzero" cx="273.5497" cy="295.952" r="10.9533"></circle>
                    <circle id="Oval" fill="#4E77D4" fill-rule="nonzero" cx="282.8317" cy="330.0516" r="10.9533"></circle>
                    <path d="M67.4292,756.5547 L67.4291,756.5547 C30.7167,756.5547 0.9555,726.7935 0.9555,690.0811 L0.9555,667.4018 L133.9029,667.4018 L133.9029,690.0811 C133.9029,726.7935 104.1416,756.5547 67.4292,756.5547 Z" id="Path" fill="#83B2EA" fill-rule="nonzero"></path>
                    <line x1="1.0271" y1="691.9058" x2="133.9745" y2="691.9058" id="Path" stroke="#2482EA" fill="#6539AC" fill-rule="nonzero"></line>
                    <path d="M76.2815,623.6777 C76.2815,623.6777 27.1205,605.0971 35.2495,519.9364 C43.3784,434.7756 74.2242,440.3167 74.2242,440.3167 L72.825,501.3558 L65.0831,513.3558 L75.1476,517.6137 C75.1476,517.6138 76.2815,609.745 76.2815,623.6777 Z" id="Path" fill="#AAD87C" fill-rule="nonzero"></path>
                    <path d="M76.0605,644.906 C76.0605,644.906 67.723,537.5192 151.098,505.1697 L149.764,522.1781 L162.437,516.8422 C162.437,516.8422 153.766,629.5651 76.394,658.913 L76.0605,644.906 Z" id="Path" fill="#AAD87C" fill-rule="nonzero"></path>
                    <path d="M72.3921,620.5605 C72.3921,620.5605 38.7086,537.8526 59.052,475.1546" id="Path" stroke="#243436" opacity="0.2"></path>
                    <path d="M58.1101,572.8372 C58.1101,572.8372 46.1548,559.1285 44.4014,553.7088" id="Path" stroke="#243436" opacity="0.2"></path>
                    <path d="M54.6031,552.4335 C54.6031,552.4335 61.6169,541.9129 62.8922,537.609" id="Path" stroke="#243436" opacity="0.2"></path>
                    <path d="M142.5991,531.6293 C142.5991,531.6293 89.9737,601.029 76.0605,644.906" id="Path" stroke="#243436" opacity="0.2"></path>
                    <path d="M88.0626,616.8165 C88.0626,616.8165 97.2721,609.9094 110.7573,611.2251" id="Path" stroke="#243436" opacity="0.2"></path>
                    <path d="M102.4723,591.1616 C102.4723,591.1616 101.4856,580.9654 93.9207,573.4006" id="Path" stroke="#243436" opacity="0.2"></path>
                    <path d="M15.5105,667.6951 C15.5105,667.6951 -5.4268,651.726 8.2357,637.5312 C21.8982,623.3365 40.1537,635.8043 41.9482,642.8543 C44.4323,652.6131 37.1574,666.9854 37.1574,666.9854 L15.5105,667.6951 Z" id="Path" fill="#9EEFDC" fill-rule="nonzero" opacity="0.2"></path>
                    <line x1="8.2357" y1="637.5311" x2="3.9773" y2="629.9015" id="Path" stroke="#87C5CC" opacity="0.2"></line>
                    <line x1="16.2202" y1="632.7405" x2="13.9136" y2="625.9979" id="Path" stroke="#87C5CC" opacity="0.2"></line>
                    <line x1="25.4469" y1="630.9661" x2="26.5115" y2="623.5138" id="Path" stroke="#87C5CC" opacity="0.2"></line>
                    <path d="M762.5901,443.3618 C784.6448,438.7591 860.5559,437.5928 860.5559,437.5928 C835.8911,299.9356 728.6741,224.6975 728.6741,224.6975 L675.6116,234.8075 L683.4837,364.7065 L567.6258,329.0976 C567.6258,329.0976 558.4625,319.7527 550.098,400.2604 C550.098,400.2604 548.5296,409.1476 556.3714,411.2387 C564.213,413.3298 684.9744,458.2887 722.6146,463.5164 C760.2545,468.7442 766.005,447.8331 762.3456,418.0348 C758.6862,388.2365 745.6168,296.7505 745.6168,296.7505" id="Path" fill="#AAD87C" fill-rule="nonzero"></path>
                    <path d="M798.752,442.1857 C798.752,442.1857 779.0372,441.0254 762.1604,443.6616 C761.6416,428.4704 760.7214,412.7051 759.3118,396.4148 C756.4058,362.8331 751.8157,331.5953 746.2986,302.9496 C746.2139,302.2194 746.6978,301.5355 747.4141,301.3706 C748.0699,301.2199 748.8213,301.4887 749.1067,302.3054 L798.752,442.1857 Z" id="Path" fill="#165D0A" fill-rule="nonzero"></path>
                    <polyline id="Path" fill="#E24D8A" fill-rule="nonzero" points="679.5195 253.4336 683.6211 365.8153 655.4226 356.1895 673.5039 250.9727"></polyline>
                    <path d="M681.8813,220.0421 L680.7546,218.6286 C680.7546,218.6286 675.6569,219.5276 683.2585,240.5976 C683.302,240.7178 683.4526,240.7643 683.5527,240.6848 L693.4643,232.8002 L681.8813,220.0421 Z" id="Path" fill="#165D0A" fill-rule="nonzero"></path>
                    <path d="M683.2585,240.5977 L679.5798,253.2444 L694.0263,245.1736 L698.1047,249.6013 C699.4343,251.0447 701.6399,251.2498 703.2126,250.0762 L733.1672,227.7253 C733.1672,227.7253 726.5651,221.5948 723.0283,221.5948 C719.4915,221.5948 694.498,231.0263 694.498,231.0263 L683.2585,240.5977 Z" id="Path" fill="#165D0A" fill-rule="nonzero"></path>
                    <path d="M680.7546,218.6287 L701.9047,242.2193 C702.6252,243.0229 703.8273,243.174 704.7243,242.5734 L728.1545,224.7616 C729.1904,224.068 729.4292,222.6457 728.6762,221.652 L722.8823,214.0038 C722.8823,214.0038 717.9988,205.3861 703.9231,210.5567 C693.3933,214.4247 680.7546,218.6287 680.7546,218.6287 Z" id="Path" fill="#AAD87C" fill-rule="nonzero"></path>
                    <line x1="602.7783" y1="377.3079" x2="608.9319" y2="392.1785" id="Path" stroke="#FFFFFF"></line>
                    <ellipse id="Oval" stroke="#FFFFFF" transform="translate(575.343880, 398.237640) rotate(-36.869898) translate(-575.343880, -398.237640) " cx="575.34388" cy="398.23764" rx="5.4206" ry="6.4698"></ellipse>
                    <path d="M593.1099,337.3519 C593.1099,337.3519 585.8526,339.9835 576.5848,392.0757" id="Path" stroke="#FFFFFF"></path>
                    <path d="M669.1812,225.0731 C669.1812,225.0731 667.1729,225.3103 667.3135,227.7721 C667.4373,229.9376 667.8057,242.5761 667.9253,244.2711 C667.9375,244.4447 670.4624,242.5574 670.6167,242.4769 L677.6348,238.097 L669.1812,225.0731 Z" id="Path" fill="#165D0A" fill-rule="nonzero"></path>
                    <path d="M672.4268,239.7081 C672.4268,239.7081 679.2229,234.4886 689.440505,239.6612 C689.440505,239.6612 689.461,243.7624 686.9605,247.5789 C683.9546,252.1668 677.7603,254.9388 675.0186,253.6612 C672.8328,252.6426 670.0117,242.5436 672.4268,239.7081 Z" id="Path" fill="#E24D8A" fill-rule="nonzero"></path>
                    <path d="M655.6819,356.3489 L671.4736,254.2507 C671.4736,254.2507 666.8413,239.1567 677.3271,237.1465" id="Path" stroke="#FFFFFF"></path>
                    <line x1="632.7129" y1="367.6367" x2="628.8679" y2="378.6904" id="Path" stroke="#FFFFFF"></line>
                    <line x1="628.7581" y1="421.692" x2="641.7344" y2="416.4054" id="Path" stroke="#FFFFFF"></line>
                    <line x1="653.3132" y1="394.0037" x2="665.5942" y2="399.6718" id="Path" stroke="#FFFFFF"></line>
                    <line x1="683.4685" y1="434.5584" x2="696.6941" y2="430.3074" id="Path" stroke="#FFFFFF"></line>
                    <path d="M683.6211,365.8153 C683.6211,365.8153 701.5796,369.9142 702.5242,374.1653 C703.469,378.4164 691.188,379.361 694.022,363.3015" id="Path" stroke="#FFFFFF"></path>
                    <line x1="691.217" y1="406.0321" x2="690.7927" y2="392.8812" id="Path" stroke="#FFFFFF"></line>
                    <line x1="719.6401" y1="420.4558" x2="730.2458" y2="426.8192" id="Path" stroke="#FFFFFF"></line>
                    <line x1="721.3369" y1="395.8507" x2="734.0637" y2="394.1538" id="Path" stroke="#FFFFFF"></line>
                    <line x1="716.6704" y1="362.3369" x2="709.4587" y2="353.8524" id="Path" stroke="#FFFFFF"></line>
                    <line x1="698.853" y1="333.4896" x2="709.0344" y2="327.1262" id="Path" stroke="#FFFFFF"></line>
                    <line x1="727.7004" y1="311.0057" x2="734.9121" y2="318.2175" id="Path" stroke="#FFFFFF"></line>
                    <line x1="696.9106" y1="288.4797" x2="704.2202" y2="297.7385" id="Path" stroke="#FFFFFF"></line>
                    <line x1="708.1187" y1="272.3986" x2="716.8901" y2="264.1144" id="Path" stroke="#FFFFFF"></line>
                    <line x1="738.1428" y1="272.3948" x2="752.0247" y2="273.2114" id="Path" stroke="#FFFFFF"></line>
                    <line x1="734.8765" y1="241.3647" x2="746.717" y2="240.5482" id="Path" stroke="#FFFFFF"></line>
                    <line x1="770.4734" y1="327.9248" x2="777.1428" y2="317.9205" id="Path" stroke="#FFFFFF"></line>
                    <line x1="776.0312" y1="295.6886" x2="786.4062" y2="299.7644" id="Path" stroke="#FFFFFF"></line>
                    <line x1="773.8081" y1="373.5002" x2="784.1831" y2="366.0895" id="Path" stroke="#FFFFFF"></line>
                    <line x1="802.3391" y1="343.1166" x2="813.4551" y2="345.7103" id="Path" stroke="#FFFFFF"></line>
                    <line x1="806.8357" y1="376.0095" x2="811.552" y2="385.4417" id="Path" stroke="#FFFFFF"></line>
                    <line x1="830.4792" y1="397.5477" x2="833.2402" y2="386.5968" id="Path" stroke="#FFFFFF"></line>
                    <line x1="804.0647" y1="412.9034" x2="794.4309" y2="422.9078" id="Path" stroke="#FFFFFF"></line>
                    <line x1="837.064" y1="420.6266" x2="843.4365" y2="430.0826" id="Path" stroke="#FFFFFF"></line>
                    <path d="M455.7446,757.3142 C455.7446,757.3142 451.5727,750.4988 453.3313,741.9178 C455.4329,731.6621 464.5022,725.8822 469.0322,723.1328 C493.9297,708.0227 513.4697,724.5404 533.6186,709.5124 C538.0915,706.176 550.1669,695.6373 550.1669,695.6373 L550.1669,695.6373 L625.9108,687.5564 C625.9108,687.5564 633.6261,741.8835 634.0548,757.3142 L455.7446,757.3142 Z" id="Path" fill="#2482EA" fill-rule="nonzero"></path>
                    <path d="M527.4783,714.2418 C527.4783,714.2418 525.2285,648.5165 501.2708,658.615 C478.4819,668.2207 527.4783,714.2418 527.4783,714.2418 Z" id="Path" stroke="#FFFFFF"></path>
                    <path d="M527.0718,715.1913 C527.0718,715.1913 477.136,674.638 469.1035,696.1409 C459.3445,722.2661 527.0718,715.1913 527.0718,715.1913 Z" id="Path" stroke="#FFFFFF"></path>
                    <path d="M538.7507,462.4754 C540.4787,466.6949 550.0688,491.2631 537.9455,518.0436 C527.6704,540.7412 508.4619,550.3081 503.3159,552.6734" id="Path" stroke="#4E77D4" opacity="0.6"></path>
                    <circle id="Oval" fill="#2C105A" fill-rule="nonzero" cx="650.875" cy="153.7245" r="3.3429"></circle>
                    <circle id="Oval" fill="#2C105A" fill-rule="nonzero" cx="679.5244" cy="154.0541" r="3.9001"></circle>
                    <g id="Group" transform="translate(451.000000, 290.000000)" stroke="#FFFFFF">
                        <path d="M12.8032,105.2191 C17.9944,92.3303 39.2168,71.453 39.2168,71.453 C39.2168,71.453 44.7185,66.2409 51.3784,66.2409" id="Path"></path>
                        <path d="M32.5347,29.7756 C7.8211,21.3505 19.0545,0.0069 19.0545,0.0069" id="Path"></path>
                        <path d="M47.2136,21.8762 L12.7199,39.7304 C12.7199,39.7304 -5.837,49.9712 7.2433,69.9203" id="Path"></path>
                        <path d="M47.3245,40.7595 C42.981,38.443 36.6106,45.1029 36.6106,45.1029 C36.6106,45.1029 24.5945,55.7047 21.0691,58.3487 C17.544,60.9927 2.4275,72.6019 0.875,81.9157 C-0.5938,90.7291 3.7881,96.9424 13.189,104.8744" id="Path"></path>
                    </g>
                    <path d="M326.0591,358.0622 L188.3075,358.0622 C187.2029,358.0622 186.3075,357.1668 186.3075,356.0622 L186.3075,231.8108 C186.3075,230.7062 187.2029,229.8108 188.3075,229.8108 L326.0591,229.8108 C327.1637,229.8108 328.0591,230.7062 328.0591,231.8108 L328.0591,356.0622 C328.0591,357.1668 327.1637,358.0622 326.0591,358.0622 Z" id="Path" stroke="#2482EA" stroke-width="2"></path>
                    <line x1="4.7822" y1="757.4084" x2="139.7996" y2="757.4084" id="Path" stroke="#2482EA"></line>
                    <line x1="278.5852" y1="757.4084" x2="316.6895" y2="757.4084" id="Path" stroke="#2482EA"></line>
                    <line x1="250.6705" y1="757.4084" x2="265.8705" y2="757.4084" id="Path" stroke="#2482EA"></line>
                    <line x1="76.2815" y1="623.6777" x2="76.2815" y2="666.443" id="Path" stroke="#243436" opacity="0.2"></line>
                    <g id="Group" transform="translate(185.000000, 168.000000)">
                        <g id="Group-3_10_" transform="translate(35.000000, 0.153354)">
                            <g id="Fill-1_10_-Clipped">
                                <mask id="mask-2" fill="white">
                                    <use xlink:href="#path-1"></use>
                                </mask>
                                <g id="path-1_10_"></g>
                                <path d="M31.5099,17.6429 C31.5167,17.4899 31.5236,17.3367 31.5304,17.1837 C31.1555,17.0159 30.7899,16.7283 30.4042,16.6982 C23.589,16.1666 18.8263,11.4311 18.2514,4.6296 C18.2198,4.2551 17.8548,3.6378 17.5884,3.6061 C16.8714,3.5208 16.9053,4.1719 16.8681,4.6961 C16.4,11.3164 11.5018,16.2098 4.8878,16.6706 C4.3716,16.7065 3.7414,16.6564 3.74942272,17.3892 C3.7574,18.1198 4.3877,18.0527 4.9031,18.0888 C10.402,18.4748 14.9374,22.063 16.3881,27.2475 C16.6722,28.2629 16.6772,29.3538 16.9069,30.3884 C16.9757,30.6991 17.3694,30.9378 17.6144,31.2096 C17.8332,30.9497 18.0697,30.7022 18.2605,30.4233 C18.3257,30.3283 18.2679,30.1543 18.2808,30.0177 C18.7609,24.8406 21.3422,21.1109 26.125,19.0541 C27.4506,18.4839 28.9844,18.403 30.416,18.0692 C30.7932,17.9812 31.146,17.7878 31.5099,17.6429" id="Fill-1_10_" fill="#FFA300" mask="url(#mask-2)"></path>
                            </g>
                        </g>
                        <g id="Group-3_4_" transform="translate(0.000000, 0.153354)">
                            <g id="Fill-1_4_-Clipped">
                                <mask id="mask-4" fill="white">
                                    <use xlink:href="#path-3"></use>
                                </mask>
                                <g id="path-1_9_"></g>
                                <path d="M31.1716,17.6429 C31.1783,17.4899 31.1851,17.3367 31.192,17.1837 C30.8171,17.0159 30.4516,16.7283 30.0658,16.6982 C23.2506,16.1666 18.488,11.4311 17.913,4.6296 C17.8814,4.2551 17.5164,3.6378 17.2502,3.6061 C16.5332,3.5208 16.567,4.1719 16.5299,4.6961 C16.0618,11.3164 11.1634,16.2098 4.5494,16.6706 C4.0332,16.7065 3.4032,16.6564 3.41102644,17.3892 C3.419,18.1198 4.0493,18.0527 4.5648,18.0888 C10.0637,18.4748 14.5991,22.063 16.0498,27.2475 C16.3339,28.2629 16.3387,29.3538 16.5685,30.3884 C16.6373,30.6991 17.031,30.9378 17.2761,31.2096 C17.4949,30.9497 17.7313,30.7022 17.9222,30.4233 C17.9873,30.3283 17.9296,30.1543 17.9425,30.0177 C18.4226,24.8406 21.0038,21.1109 25.7867,19.0541 C27.1123,18.4839 28.6461,18.403 30.0777,18.0692 C30.455,17.9812 30.8076,17.7878 31.1716,17.6429" id="Fill-1_4_" fill="#FFA300" mask="url(#mask-4)"></path>
                            </g>
                        </g>
                        <g id="Group-3_3_" transform="translate(71.000000, 0.153354)">
                            <g id="Fill-1_3_-Clipped">
                                <mask id="mask-6" fill="white">
                                    <use xlink:href="#path-5"></use>
                                </mask>
                                <g id="path-1_8_"></g>
                                <path d="M31.8195,17.6429 C31.8263,17.4899 31.8332,17.3367 31.84,17.1837 C31.4651,17.0159 31.0995,16.7283 30.7138,16.6982 C23.8986,16.1666 19.1359,11.4311 18.561,4.6296 C18.5294,4.2551 18.1644,3.6378 17.898,3.6061 C17.181,3.5208 17.2149,4.1719 17.1777,4.6961 C16.7096,11.3164 11.8114,16.2098 5.1974,16.6706 C4.6812,16.7065 4.0512,16.6564 4.05902644,17.3892 C4.067,18.1198 4.6973,18.0527 5.2127,18.0888 C10.7116,18.4748 15.247,22.063 16.6977,27.2475 C16.9818,28.2629 16.9868,29.3538 17.2165,30.3884 C17.2853,30.6991 17.679,30.9378 17.924,31.2096 C18.1428,30.9497 18.3793,30.7022 18.5701,30.4233 C18.6353,30.3283 18.5775,30.1543 18.5904,30.0177 C19.0705,24.8406 21.6518,21.1109 26.4346,19.0541 C27.7602,18.4839 29.294,18.403 30.7256,18.0692 C31.1028,17.9812 31.4556,17.7878 31.8195,17.6429" id="Fill-1_3_" fill="#FFA300" mask="url(#mask-6)"></path>
                            </g>
                        </g>
                        <g id="Group-3_2_" transform="translate(108.000000, 0.153354)">
                            <g id="Fill-1_2_-Clipped">
                                <mask id="mask-8" fill="white">
                                    <use xlink:href="#path-7"></use>
                                </mask>
                                <g id="path-1_7_"></g>
                                <path d="M32.0674,17.6429 C32.0741,17.4899 32.0809,17.3367 32.0878,17.1837 C31.7129,17.0159 31.3474,16.7283 30.9616,16.6982 C24.1464,16.1666 19.3838,11.4311 18.8088,4.6296 C18.7772,4.2551 18.4122,3.6378 18.146,3.6061 C17.429,3.5208 17.4628,4.1719 17.4257,4.6961 C16.9576,11.3164 12.0592,16.2098 5.4452,16.6706 C4.929,16.7065 4.299,16.6564 4.30682644,17.3892 C4.3148,18.1198 4.9451,18.0527 5.4606,18.0888 C10.9595,18.4748 15.4949,22.063 16.9456,27.2475 C17.2297,28.2629 17.2345,29.3538 17.4643,30.3884 C17.5331,30.6991 17.9268,30.9378 18.1719,31.2096 C18.3907,30.9497 18.6271,30.7022 18.818,30.4233 C18.8831,30.3283 18.8254,30.1543 18.8383,30.0177 C19.3184,24.8406 21.8996,21.1109 26.6825,19.0541 C28.0081,18.4839 29.5419,18.403 30.9735,18.0692 C31.3507,17.9812 31.7034,17.7878 32.0674,17.6429" id="Fill-1_2_" fill="#FFA300" mask="url(#mask-8)"></path>
                            </g>
                        </g>
                        <g id="Group-3_1_" transform="translate(143.000000, 0.153354)">
                            <g id="Fill-1_1_-Clipped">
                                <mask id="mask-10" fill="white">
                                    <use xlink:href="#path-9"></use>
                                </mask>
                                <g id="path-1_6_"></g>
                                <path d="M17.5771,3.6036 C16.8544,3.5152 16.8988,4.1788 16.8544,4.6949 C16.3974,11.3165 11.4864,16.2128 4.8794,16.6699 C4.3633,16.6994 3.729,16.6551 3.7438,17.3925 C3.7438,18.1152 4.3781,18.0562 4.8942,18.0857 C10.3951,18.4692 14.9226,22.0675 16.3826,27.2439 C16.6628,28.2615 16.6628,29.3528 16.8987,30.3851 C16.9723,30.6949 17.3559,30.9308 17.6066,31.211 C17.6509,31.152 17.7097,31.0931 17.7688,31.034 L17.7688,3.7069 C17.7098,3.6478 17.6362,3.6036 17.5771,3.6036 Z" id="Fill-1_1_" fill="#FFA300" mask="url(#mask-10)"></path>
                            </g>
                        </g>
                    </g>
                </g>
            </g>
        </g>
    </g>
</svg>