<?xml version="1.0" encoding="UTF-8"?>
<svg width="60px" height="56px" viewBox="0 0 60 56" version="1.1" xmlns="http://www.w3.org/2000/svg" xmlns:xlink="http://www.w3.org/1999/xlink">
    <!-- Generator: sketchtool 61.2 (101010) - https://sketch.com -->
    <title>588AD3FE-73B3-49BC-A8A3-7B7083BB751C</title>
    <desc>Created with sketchtool.</desc>
    <defs>
        <linearGradient x1="50%" y1="73.8584176%" x2="50%" y2="0%" id="linearGradient-1">
            <stop stop-color="#0098D6" stop-opacity="0" offset="0%"></stop>
            <stop stop-color="#0098D6" offset="100%"></stop>
        </linearGradient>
    </defs>
    <g id="Color-Change" stroke="none" stroke-width="1" fill="none" fill-rule="evenodd">
        <g id="1.2-SafeJob" transform="translate(-755.000000, -2859.000000)">
            <g id="::-Pay-now-::" transform="translate(150.000000, 2834.000000)">
                <g id="1" transform="translate(585.000000, 0.000000)">
                    <g id="Improve-Fitment" transform="translate(20.000000, 25.000000)">
                        <circle id="Oval" fill="url(#linearGradient-1)" opacity="0.219098772" cx="30" cy="30" r="30"></circle>
                        <g id="scores-(1)" transform="translate(14.000000, 16.000000)" fill-rule="nonzero">
                            <circle id="Oval" fill="#00D800" cx="16.357632" cy="19.6608" r="10.2912"></circle>
                            <path d="M6.8334336,8.293632 L0.844032,8.293632 L8.3694336,0.7681536 L8.3694336,6.757632 C8.3694336,7.6059648 7.6817664,8.293632 6.8334336,8.293632 Z" id="Path" fill="#A4FF90"></path>
                            <path d="M31.872768,18.510336 C31.670784,18.510336 31.47264,18.5918208 31.329792,18.734592 C31.186944,18.878208 31.104768,19.075584 31.104768,19.277568 C31.104768,19.48032 31.186944,19.677696 31.329792,19.821312 C31.47264,19.96416 31.670784,20.046336 31.872768,20.046336 C32.074752,20.046336 32.272896,19.9642368 32.415744,19.821312 C32.558592,19.677696 32.640768,19.48032 32.640768,19.277568 C32.640768,19.075584 32.558592,18.878208 32.415744,18.734592 C32.272896,18.591744 32.074752,18.510336 31.872768,18.510336 Z" id="Path" fill="#009ADC"></path>
                            <path d="M32.640768,2.304 C32.640768,1.0335744 31.6071936,0 30.336768,0 L8.3694336,0 C8.16576,0 7.9703808,0.0809472 7.8263808,0.2249472 L0.3009792,7.7505792 C0.1569792,7.894656 0.076032,8.0899584 0.076032,8.293632 L0.076032,37.0176 C0.076032,38.2880256 1.1096064,39.3216 2.380032,39.3216 L30.336768,39.3216 C31.6071936,39.3216 32.640768,38.2880256 32.640768,37.0176 L32.640768,22.7328 C32.640768,22.3087104 32.2969344,21.9648 31.872768,21.9648 C31.4486016,21.9648 31.104768,22.3087104 31.104768,22.7328 L31.104768,37.0176 C31.104768,37.4410752 30.7602432,37.7856 30.336768,37.7856 L2.380032,37.7856 C1.9565568,37.7856 1.612032,37.4410752 1.612032,37.0176 L1.612032,9.061632 L6.8334336,9.061632 C8.1038592,9.061632 9.1374336,8.0280576 9.1374336,6.757632 L9.1374336,1.536 L30.336768,1.536 C30.7602432,1.536 31.104768,1.8805248 31.104768,2.304 L31.104768,16.2816 C31.104768,16.7056896 31.4486016,17.0496 31.872768,17.0496 C32.2969344,17.0496 32.640768,16.7056896 32.640768,16.2816 L32.640768,2.304 Z M6.8334336,7.525632 L2.6980608,7.525632 L7.6014336,2.6221056 L7.6014336,6.757632 C7.6014336,7.1811072 7.2569088,7.525632 6.8334336,7.525632 Z" id="Shape" fill="#0098D6"></path>
                            <path d="M9.60768,12.9428736 L9.6185088,12.9320448 C9.6186624,12.9318912 9.6235776,12.9270528 9.6237312,12.9268992 C9.9235584,12.627072 9.9212544,12.1433088 9.621504,11.8434048 C9.3217536,11.5433472 8.8332288,11.5455744 8.533248,11.8451712 L8.5152768,11.8631424 C8.2171392,12.1648128 8.2199808,12.6510336 8.5216512,12.949248 C8.6713344,13.0972416 8.8664832,13.1710464 9.0614784,13.1710464 C9.2594688,13.1710464 9.4574592,13.0949376 9.60768,12.9428736 Z" id="Path" fill="#009ADC"></path>
                            <path d="M7.7346816,13.9871232 C7.3638912,13.7806848 6.8963328,13.9140096 6.690048,14.2845696 C5.5436544,16.343808 5.0835456,18.7712256 5.3945088,21.1198464 C5.7157632,23.5462656 6.80256,25.7458176 8.537472,27.4808064 C10.6263552,29.5696128 13.4035968,30.72 16.357632,30.72 C19.3116672,30.72 22.088832,29.5696128 24.1776384,27.4808064 C26.2664448,25.392 27.416832,22.6148352 27.416832,19.6608 C27.416832,16.7067648 26.2664448,13.9296 24.1776384,11.8407936 C20.6138112,8.2769664 15.0943488,7.5704064 10.7553792,10.1227008 C10.3897344,10.3377408 10.2676992,10.808448 10.4827392,11.174016 C10.697856,11.539584 11.1685632,11.6616192 11.5341312,11.4465792 C15.2698368,9.2492544 20.022528,9.8577408 23.0915328,12.9268992 C26.8046592,16.6399488 26.8046592,22.6816512 23.0915328,26.394624 C21.2928,28.1934336 18.9013248,29.184 16.357632,29.184 C13.8139392,29.184 11.4223872,28.1934336 9.6237312,26.3947008 C6.6291456,23.4001152 5.974656,18.7275264 8.0322048,15.0317568 C8.2384896,14.66112 8.1053184,14.1934848 7.7346816,13.9871232 Z" id="Path" fill="#009ADC"></path>
                            <path d="M10.549632,25.0404096 C10.954368,25.1683584 11.3855232,24.9436416 11.513088,24.539136 L12.3091968,22.0159488 L15.6003072,22.0159488 L16.3963392,24.539136 C16.499712,24.8667648 16.802304,25.0763326 17.1285504,25.0763326 C17.20512,25.0763326 17.2829952,25.0647552 17.359872,25.0404096 C17.7643776,24.9128448 17.9887872,24.4814592 17.8612224,24.0769536 L17.2095744,22.011648 C17.5957248,21.9712512 17.8967808,21.6447744 17.8967808,21.2479488 C17.8967808,20.8238592 17.5529472,20.4799488 17.1287808,20.4799488 L16.7263488,20.4799488 L14.6871552,14.0168448 C14.5863168,13.69728 14.2898688,13.479936 13.9547136,13.479936 C13.6195584,13.479936 13.3231104,13.69728 13.222272,14.0168448 L11.1830784,20.4799488 L10.7805696,20.4799488 C10.3564032,20.4799488 10.0125696,20.8238592 10.0125696,21.2479488 C10.0125696,21.6447744 10.3136256,21.9712512 10.699776,22.011648 L10.048128,24.0769536 C9.9207168,24.4814592 10.1451264,24.9128448 10.549632,25.0404096 Z M13.9547904,16.800384 L15.1156992,20.4799488 L12.7938048,20.4799488 L13.9547904,16.800384 Z" id="Shape" fill="#FFFFFF"></path>
                            <path d="M20.1713664,13.479936 C19.7472,13.479936 19.4033664,13.8238464 19.4033664,14.247936 L19.4033664,15.0928896 L18.5584896,15.0928896 C18.1343232,15.0928896 17.7904896,15.4368 17.7904896,15.8608896 C17.7904896,16.2849792 18.1343232,16.6288896 18.5584896,16.6288896 L19.4033664,16.6288896 L19.4033664,17.4738432 C19.4033664,17.8979328 19.7472,18.2418432 20.1713664,18.2418432 C20.5955328,18.2418432 20.9393664,17.8979328 20.9393664,17.4738432 L20.9393664,16.6288896 L21.78432,16.6288896 C22.2084864,16.6288896 22.55232,16.2849792 22.55232,15.8608896 C22.55232,15.4368 22.2084864,15.0928896 21.78432,15.0928896 L20.9393664,15.0928896 L20.9393664,14.247936 C20.9393664,13.8237696 20.5955328,13.479936 20.1713664,13.479936 Z" id="Path" fill="#FFFFFF"></path>
                        </g>
                    </g>
                </g>
            </g>
        </g>
    </g>
</svg>