<?xml version="1.0" encoding="UTF-8"?>
<svg width="60px" height="53px" viewBox="0 0 60 53" version="1.1" xmlns="http://www.w3.org/2000/svg" xmlns:xlink="http://www.w3.org/1999/xlink">
    <!-- Generator: sketchtool 61.2 (101010) - https://sketch.com -->
    <title>33780330-C134-4884-BA9F-484207C054CF</title>
    <desc>Created with sketchtool.</desc>
    <defs>
        <linearGradient x1="50%" y1="73.8584176%" x2="50%" y2="0%" id="linearGradient-1">
            <stop stop-color="#0098D6" stop-opacity="0" offset="0%"></stop>
            <stop stop-color="#0098D6" offset="100%"></stop>
        </linearGradient>
    </defs>
    <g id="Color-Change" stroke="none" stroke-width="1" fill="none" fill-rule="evenodd">
        <g id="1.2-SafeJob" transform="translate(-755.000000, -2979.000000)">
            <g id="::-Pay-now-::" transform="translate(150.000000, 2834.000000)">
                <g id="1-copy-4" transform="translate(585.000000, 124.000000)">
                    <g id="Improve-job" transform="translate(20.000000, 21.000000)">
                        <circle id="Oval" fill="url(#linearGradient-1)" opacity="0.219098772" cx="30" cy="30" r="30"></circle>
                        <g id="report" transform="translate(15.000000, 16.000000)" fill-rule="nonzero">
                            <g id="Group" transform="translate(16.177127, 0.504986)">
                                <path d="M8.6035538,7.66215268 L13.6844149,7.66215268 C13.6598982,6.14296675 13.4863092,5.64615264 12.2401878,4.29266534 L9.87644622,1.72067315 C8.67315851,0.414246611 8.56466538,0.040297474 6.78537767,0.040297474 L6.78311971,5.84059495 C6.78115072,6.8421135 7.6003444,7.66215268 8.6035538,7.66215268 L8.6035538,7.66215268 Z" id="Path" fill="#00E300"></path>
                                <path d="M4.75866926,22.7401644 C2.36815652,22.7401644 0.429369827,24.6803601 0.429369827,27.0722818 C0.429369827,29.4642035 2.36815652,31.4024266 4.75866926,31.4024266 C7.14692759,31.4024266 9.08571429,29.4642035 9.08571429,27.0722818 C9.08571429,24.6800783 7.14692759,22.7401644 4.75866926,22.7401644 Z" id="Path" fill="#00DD00"></path>
                            </g>
                            <path d="M12.2980509,15.2544188 L21.6958122,15.2544188 C21.9967749,15.2544188 22.2408141,15.0103796 22.2408141,14.7094169 C22.2408141,14.4081722 21.9967749,14.1641331 21.6958122,14.1641331 L12.2980509,14.1641331 C11.9968063,14.1641331 11.7527671,14.4081722 11.7527671,14.7094169 C11.7527671,15.0103796 11.9968063,15.2544188 12.2980509,15.2544188 Z" id="Path" fill="#009CE8"></path>
                            <path d="M24.3802427,11.5431076 L12.2980509,11.5431076 C11.9968063,11.5431076 11.7527671,11.7871468 11.7527671,12.0883914 C11.7527671,12.3893542 11.9968063,12.6333934 12.2980509,12.6333934 L24.3802427,12.6333934 C24.6814873,12.6333934 24.9255264,12.3893542 24.9255264,12.0883914 C24.9255264,11.7871468 24.6814873,11.5431076 24.3802427,11.5431076 Z" id="Path" fill="#009CE8"></path>
                            <path d="M9.93656358,11.0426301 C9.71253225,10.8417064 9.36789043,10.8600234 9.16668491,11.0843366 L6.608501,13.9336203 L5.50102542,12.9104032 C5.27981213,12.7060978 4.93488845,12.719906 4.73058319,12.9411194 C4.52627792,13.1623327 4.53980434,13.5072564 4.76101763,13.7115616 L6.27484933,15.1098552 C6.37601562,15.2031312 6.50818006,15.2544188 6.64485323,15.2544188 C6.6533072,15.2544188 6.66176125,15.2544188 6.67049708,15.2538551 C6.81618787,15.2470919 6.95314282,15.1822779 7.05064579,15.0735029 L9.97827004,11.8127906 C10.1791937,11.5884775 10.1608767,11.2438356 9.93656358,11.0426301 Z" id="Path" fill="#009CE8"></path>
                            <path d="M9.93656358,16.2866536 C9.71253225,16.0857299 9.36789043,16.104047 9.16668491,16.3283601 L6.65246186,19.1288923 L5.84763994,18.1983875 C5.65066145,17.9706928 5.30658319,17.9456125 5.07860669,18.142591 C4.85091197,18.3395695 4.82611354,18.6839296 5.02309196,18.9116243 L6.23257924,20.3101996 C6.3348728,20.4285558 6.48309984,20.4973151 6.63978079,20.4987241 L6.64485323,20.4987241 C6.79956163,20.4987241 6.94694325,20.4327828 7.05064579,20.3175264 L9.97827004,17.0568141 C10.1791937,16.832501 10.1608767,16.4878591 9.93656358,16.2866536 L9.93656358,16.2866536 Z" id="Path" fill="#009CE8"></path>
                            <path d="M12.2980509,20.4984423 L21.6958122,20.4984423 C21.9967749,20.4984423 22.2408141,20.2544031 22.2408141,19.9534403 C22.2408141,19.6521957 21.9967749,19.4081566 21.6958122,19.4081566 L12.2980509,19.4081566 C11.9968063,19.4081566 11.7527671,19.6521957 11.7527671,19.9534403 C11.7527671,20.2544031 11.9968063,20.4984423 12.2980509,20.4984423 Z" id="Path" fill="#009CE8"></path>
                            <path d="M24.9255264,17.3324148 C24.9255264,17.0311702 24.6812055,16.7871311 24.3802427,16.7871311 L19.6753033,16.7871311 C19.3740587,16.7871311 19.1300196,17.0311702 19.1300196,17.3324148 C19.1300196,17.6333777 19.3740587,17.8774168 19.6753033,17.8774168 L24.3802427,17.8774168 C24.6814873,17.8774168 24.9255264,17.6333777 24.9255264,17.3324148 Z" id="Path" fill="#009CE8"></path>
                            <path d="M12.2980509,17.8774168 L17.1788336,17.8774168 C17.4797965,17.8774168 17.7238356,17.6333777 17.7238356,17.3324148 C17.7238356,17.0311702 17.4797965,16.7871311 17.1788336,16.7871311 L12.2980509,16.7871311 C11.9968063,16.7871311 11.7527671,17.0311702 11.7527671,17.3324148 C11.7527671,17.6333777 11.9968063,17.8774168 12.2980509,17.8774168 Z" id="Path" fill="#009CE8"></path>
                            <path d="M30.4054168,8.19390996 C30.4059804,8.18489235 30.4068259,8.17615659 30.4068259,8.16685712 C30.4068259,8.14910375 30.4056986,8.13163209 30.4040078,8.11416043 C30.3752642,6.51550683 30.1726497,5.90005478 28.8185988,4.42877495 L26.4542935,1.8562192 C26.3193111,1.70968299 26.1984188,1.57498237 26.0871076,1.45127205 C25.0962974,0.348868921 24.7000861,0 22.9625049,0 L2.4015029,0 C1.09733076,0 0.0360704501,1.06182387 0.0360704501,2.36684151 L0.0360704501,15.3758748 C0.0360704501,15.6768376 0.280109553,15.9208767 0.581354225,15.9208767 C0.882317043,15.9208767 1.12635615,15.6768376 1.12635615,15.3758748 L1.12635615,2.36684151 C1.12635615,1.66290409 1.69841098,1.0902857 2.4015029,1.0902857 L22.4169393,1.0902857 L22.4152486,6.34417219 C22.4138395,6.97399609 22.6595694,7.56774953 23.1067867,8.01609397 C23.5548493,8.46500197 24.1491663,8.7121409 24.780681,8.7121409 L29.3185127,8.7121409 L29.3185127,8.79865364 L29.3185127,34.5692994 C29.3185127,35.2732368 28.7464579,35.8458552 28.043366,35.8458552 L2.4015029,35.8458552 C1.69841098,35.8458552 1.12635615,35.2732368 1.12635615,34.5692994 L1.12635615,17.8740352 C1.12635615,17.5730724 0.882317043,17.3290333 0.581354225,17.3290333 C0.280109553,17.3290333 0.0360704501,17.5730724 0.0360704501,17.8740352 L0.0360704501,34.5692994 C0.0360704501,35.874317 1.09733076,36.9361409 2.4015029,36.9361409 L28.043366,36.9361409 C29.34782,36.9361409 30.4087984,35.874317 30.4087984,34.5692994 L30.4087984,8.79865364 C30.4087984,8.5816673 30.4082349,8.38158906 30.4054168,8.19390996 Z M24.780681,7.6218552 C24.4408298,7.6218552 24.1204227,7.48828178 23.878638,7.24593345 C23.6374168,7.00414875 23.5049706,6.68458707 23.5055325,6.34558125 L23.5075069,1.10353033 C24.3551624,1.1553816 24.5600313,1.3833581 25.2763679,2.18028961 C25.3902153,2.30681797 25.5142074,2.4449002 25.6522897,2.59453622 L28.0160313,5.16681019 C28.9935969,6.22891585 29.2373542,6.66035227 29.2982231,7.62157342 L24.780681,7.62157342 L24.780681,7.6218552 Z" id="Shape" fill="#009BE2"></path>
                            <path d="M20.5026693,25.3507632 C20.4167202,25.3997965 20.3431703,25.4651742 20.2879373,25.5471781 C20.2329863,25.6289002 20.1898709,25.7207671 20.1532368,25.8129159 C20.1225206,25.8966105 20.0898317,25.9786145 20.0571429,26.0603366 L19.1153659,28.4522584 C19.0846497,28.5300352 19.0539335,28.6078122 19.0296986,28.6872798 C19.0091272,28.7506849 18.9989824,28.8160626 18.9989824,28.8836947 C18.9989824,29.0124775 19.0542153,29.1249158 19.1480548,29.2148102 C19.2421761,29.3049863 19.3585597,29.3540196 19.4893151,29.3540196 C19.6240157,29.3540196 19.7527985,29.3151311 19.8364932,29.2026927 C19.9162427,29.0961722 19.9835929,28.9225832 20.0306536,28.795773 L20.1735264,28.4113972 L21.4830529,28.4113972 L21.6281801,28.7895734 L21.6281801,28.791546 C21.6566419,28.859178 21.6853855,28.9265284 21.7138474,28.991906 C21.7445636,29.0572837 21.7792251,29.1311155 21.8223405,29.1860665 C21.8651742,29.2373542 21.9142074,29.2782152 21.9733855,29.3089315 C22.0387632,29.3416203 22.1123131,29.3537378 22.185863,29.3537378 C22.3208454,29.3537378 22.4434286,29.3047045 22.5392407,29.2086105 C22.6291351,29.1187163 22.6843679,29.0062779 22.6843679,28.8774951 C22.6843679,28.7405401 22.6127906,28.5565245 22.5617848,28.4316869 L21.5997182,26.054137 C21.5650568,25.9600156 21.5261683,25.8639217 21.4872798,25.7678278 C21.454591,25.6900509 21.4137299,25.6125558 21.3646967,25.542951 C21.3094638,25.4632016 21.2381683,25.3978239 21.1541918,25.3507632 C21.0541526,25.2935577 20.9397417,25.2729863 20.8253307,25.2729863 C20.7128924,25.2729863 20.6007358,25.2935577 20.5026693,25.3507632 L20.5026693,25.3507632 Z M21.1829354,27.5812133 L20.4680078,27.5812133 L20.8233582,26.5937848 L21.1829354,27.5812133 Z" id="Shape" fill="#FFFFFF"></path>
                            <path d="M16.0614951,27.5772681 C16.0614951,30.265362 18.2479844,32.4526966 20.9357965,32.4526966 C23.6221996,32.4526966 25.8081253,30.2656438 25.8081253,27.5772681 C25.8081253,24.8877651 23.6221996,22.6998669 20.9357965,22.6998669 C18.2479844,22.6998669 16.0614951,24.8877651 16.0614951,27.5772681 L16.0614951,27.5772681 Z M24.7175577,27.5772681 C24.7175577,29.6642818 23.0211194,31.3621292 20.9357965,31.3621292 C18.8490646,31.3621292 17.1517808,29.6642818 17.1517808,27.5772681 C17.1517808,25.4891272 18.8493464,23.7901527 20.9357965,23.7901527 C23.0211194,23.7901527 24.7175577,25.4891272 24.7175577,27.5772681 L24.7175577,27.5772681 Z" id="Shape" fill="#009DEF"></path>
                        </g>
                    </g>
                </g>
            </g>
        </g>
    </g>
</svg>