<?xml version="1.0" encoding="UTF-8"?>
<svg width="60px" height="54px" viewBox="0 0 60 54" version="1.1" xmlns="http://www.w3.org/2000/svg" xmlns:xlink="http://www.w3.org/1999/xlink">
    <!-- Generator: sketchtool 61.2 (101010) - https://sketch.com -->
    <title>1913FCA5-7967-4AF3-A03D-2CB70C581EA7</title>
    <desc>Created with sketchtool.</desc>
    <defs>
        <linearGradient x1="50%" y1="73.8584176%" x2="50%" y2="0%" id="linearGradient-1">
            <stop stop-color="#0098D6" stop-opacity="0" offset="0%"></stop>
            <stop stop-color="#0098D6" offset="100%"></stop>
        </linearGradient>
    </defs>
    <g id="Color-Change" stroke="none" stroke-width="1" fill="none" fill-rule="evenodd">
        <g id="1.2-SafeJob" transform="translate(-1046.000000, -2859.000000)">
            <g id="::-Pay-now-::" transform="translate(150.000000, 2834.000000)">
                <g id="1-copy-3" transform="translate(876.000000, 0.000000)">
                    <g id="Improve-your-job" transform="translate(20.000000, 25.000000)">
                        <circle id="Oval" fill="url(#linearGradient-1)" opacity="0.219098772" cx="30" cy="30" r="30"></circle>
                        <g id="scoring" transform="translate(14.000000, 20.000000)" fill-rule="nonzero">
                            <path d="M25.1241877,1.62999266 C21.6256088,1.77980721 18.7014511,4.58717827 18.4216387,8.07730198 C18.1191032,11.8501445 20.7972692,15.0509439 24.3508065,15.6013208 L24.3508065,13.5282258 C24.3508065,12.9302888 24.8351275,12.4459677 25.4330645,12.4459677 C26.0310015,12.4459677 26.5153226,12.9302888 26.5153226,13.5282258 L26.5153226,15.6013208 C29.885489,15.0792158 32.4677419,12.1743463 32.4677419,8.65806452 C32.4677419,4.67040858 29.1501559,1.45771916 25.1241877,1.62999266 L25.1241877,1.62999266 Z" id="Path" fill="#00D300"></path>
                            <path d="M31.9266129,18.3983871 C31.7128564,18.3983871 31.509933,18.4422482 31.3225987,18.5175518 C31.1360572,17.8274009 30.5103768,17.316129 29.7620968,17.316129 C29.5483403,17.316129 29.3454169,17.3599901 29.1580826,17.4352937 C28.9715411,16.7451428 28.3458606,16.233871 27.5975806,16.233871 C27.4070758,16.233871 27.2263471,16.2727118 27.0564516,16.3334831 L27.0564516,13.5282258 C27.0564516,12.6333019 26.3279884,11.9048387 25.4330645,11.9048387 C24.5381407,11.9048387 23.8096774,12.6333019 23.8096774,13.5282258 L23.8096774,25.2047757 C23.7079515,25.1001433 23.6355543,24.9656538 23.6072824,24.8124043 L22.8946726,20.8939748 C22.745915,20.0754115 22.034362,19.4806452 21.2020591,19.4806452 C20.2527052,19.4806452 19.4806452,20.2527052 19.4806452,21.2015306 L19.4806452,21.5471345 C19.4806452,21.6414621 19.4888361,21.7360541 19.5038968,21.8301175 L20.4778234,27.6712989 C20.5541839,28.1262912 20.7457457,28.5575034 21.0332205,28.9163185 L22.3712465,30.588851 C22.6013849,30.8768543 22.7274194,31.2367262 22.7274194,31.603468 L22.7274194,33.55 L31.3854839,33.55 L31.3854839,31.603468 C31.3854839,31.2367262 31.5115183,30.8763258 31.7416567,30.588851 L32.956819,29.0690394 C33.3388857,28.5910597 33.55,27.9910089 33.55,27.3795966 L33.55,20.0217742 C33.55,19.1268503 32.8215368,18.3983871 31.9266129,18.3983871 L31.9266129,18.3983871 Z M32.4677419,27.3795966 C32.4677419,27.7463383 32.3417075,28.1067387 32.1115691,28.3942135 L30.8964068,29.9140251 C30.5143401,30.3920048 30.3032258,30.9920556 30.3032258,31.603468 L30.3032258,32.4677419 L23.8096774,32.4677419 L23.8096774,31.603468 C23.8096774,30.9920556 23.5985631,30.3914764 23.2164964,29.9129682 L21.8779419,28.2404356 C21.7056684,28.0250937 21.5904671,27.7669477 21.5450207,27.4932125 L20.5710942,21.6533522 C20.5655454,21.618739 20.5629032,21.5828046 20.5629032,21.5471345 L20.5629032,21.2015306 C20.5629032,20.8490569 20.8490569,20.5629032 21.2020591,20.5629032 C21.5104074,20.5629032 21.7751591,20.7837938 21.8301175,21.0879147 L22.5424631,25.0060799 C22.7015255,25.8806586 23.4616955,26.5153226 24.3508065,26.5153226 L24.8919355,26.5153226 L24.8919355,13.5282258 C24.8919355,13.2301821 25.1344924,12.9870968 25.4330645,12.9870968 C25.7316367,12.9870968 25.9741935,13.2301821 25.9741935,13.5282258 L25.9741935,22.1862903 L27.0564516,22.1862903 L27.0564516,17.8572581 C27.0564516,17.5592143 27.2990085,17.316129 27.5975806,17.316129 C27.8961528,17.316129 28.1387097,17.5592143 28.1387097,17.8572581 L28.1387097,22.1862903 L29.2209677,22.1862903 L29.2209677,18.9395161 C29.2209677,18.6414724 29.4635246,18.3983871 29.7620968,18.3983871 C30.0606689,18.3983871 30.3032258,18.6414724 30.3032258,18.9395161 L30.3032258,22.1862903 L31.3854839,22.1862903 L31.3854839,20.0217742 C31.3854839,19.7237305 31.6280408,19.4806452 31.9266129,19.4806452 C32.225185,19.4806452 32.4677419,19.7237305 32.4677419,20.0217742 L32.4677419,27.3795966 Z" id="Shape" fill="#009ADC"></path>
                            <polygon id="Path" fill="#009ADC" points="32.3210981 3.07687868 31.5321277 2.33441164 23.2571868 11.1277584 22.0277564 9.89885648 21.2625662 10.6640467 23.27991 12.681919"></polygon>
                            <path d="M13.5282258,0 L3.78790323,0 C1.69974757,0 0,1.69921916 0,3.78790323 L0,29.7620968 C0,31.8507808 1.69974757,33.55 3.78790323,33.55 L13.5282258,33.55 C15.6163815,33.55 17.316129,31.8507808 17.316129,29.7620968 L17.316129,3.78790323 C17.316129,1.69921916 15.6163815,0 13.5282258,0 Z M16.233871,29.7620968 C16.233871,31.2539008 15.0200298,32.4677419 13.5282258,32.4677419 L3.78790323,32.4677419 C2.29609923,32.4677419 1.08225806,31.2539008 1.08225806,29.7620968 L1.08225806,3.78790323 C1.08225806,2.29609923 2.29609923,1.08225806 3.78790323,1.08225806 L13.5282258,1.08225806 C15.0200298,1.08225806 16.233871,2.29609923 16.233871,3.78790323 L16.233871,29.7620968 Z" id="Shape" fill="#009ADC"></path>
                            <g id="Group" transform="translate(4.329032, 3.246774)" fill="#26CE00">
                                <polygon id="Path" points="4.32903226 9.74032258 5.66679414 12.4124114 8.65806452 12.8404529 6.49354839 14.9206819 7.00429174 17.8572581 4.32903226 16.4708791 1.65377278 17.8572581 2.16451613 14.9206819 0 12.8404529 2.99127038 12.4124114"></polygon>
                                <polygon id="Path" points="4.32903226 20.0217742 5.49954089 22.3371618 8.11693548 22.7089237 6.22298387 24.5114541 6.67004946 27.0564516 4.32903226 25.8545005 1.98801506 27.0564516 2.43508065 24.5114541 0.541129032 22.7089237 3.15852362 22.3371618"></polygon>
                                <polygon id="Path" points="4.32903226 0 5.49954089 2.31538757 8.11693548 2.68714951 6.22298387 4.48967994 6.67004946 7.03467742 4.32903226 5.83272628 1.98801506 7.03467742 2.43508065 4.48967994 0.541129032 2.68714951 3.15852362 2.31538757"></polygon>
                            </g>
                        </g>
                    </g>
                </g>
            </g>
        </g>
    </g>
</svg>