<?xml version="1.0" encoding="UTF-8"?>
<svg width="24px" height="24px" viewBox="0 0 24 24" version="1.1" xmlns="http://www.w3.org/2000/svg" xmlns:xlink="http://www.w3.org/1999/xlink">
    <!-- Generator: sketchtool 63.1 (101010) - https://sketch.com -->
    <title>4783944E-43AA-44F6-B29B-13122AA14770</title>
    <desc>Created with sketchtool.</desc>
    <g id="Page-2" stroke="none" stroke-width="1" fill="none" fill-rule="evenodd">
        <g id="SafeJob-:-04-Icons-Illustrations" transform="translate(-411.000000, -1978.000000)" fill="#AAD87C" fill-rule="nonzero">
            <g id="tooltip-copy-2" transform="translate(395.000000, 1966.000000)">
                <g id="info-(2)" transform="translate(16.000000, 12.000000)">
                    <path d="M12.0000229,0 C5.38329566,0 0,5.38329566 0,12.0000229 C0,18.6167501 5.38329566,24.0000458 12.0000229,24.0000458 C18.6167501,24.0000458 24.0000458,18.6167501 24.0000458,12.0000229 C24.0000458,5.38329566 18.6167043,0 12.0000229,0 Z M12.7805889,19.119929 C12.2104781,19.2149704 11.0760708,19.4523448 10.5000086,19.5000486 C10.0123952,19.5404275 9.55225042,19.2613008 9.27175026,18.8606255 C8.99051761,18.459996 8.92312799,17.9472946 9.09009128,17.487333 L11.3584022,11.2500386 L8.99999428,11.2500386 C8.99797991,9.95036196 9.97284042,8.99472946 11.2196858,8.62797791 C11.8147014,8.45291139 12.9232882,8.21333944 13.4999914,8.2500558 C13.8455006,8.27203067 14.4477496,8.48880369 14.7282497,8.88947896 C15.0094824,9.29010844 15.076872,9.80280981 14.9099087,10.2627715 L12.6415978,16.5000658 L14.9992732,16.5000658 C14.999731,17.7982317 14.0612206,18.906498 12.7805889,19.119929 L12.7805889,19.119929 Z M13.4999914,7.50002575 C12.6715385,7.50002575 11.9999771,6.82837277 11.9999771,6.00001145 C11.9999771,5.17155856 12.6715385,4.49999714 13.4999914,4.49999714 C14.3284443,4.49999714 15.0000057,5.17155856 15.0000057,6.00001145 C15.0000057,6.82841855 14.3284901,7.50002575 13.4999914,7.50002575 Z" id="Shape"></path>
                </g>
            </g>
        </g>
    </g>
</svg>