<?xml version="1.0" encoding="UTF-8"?>
<svg width="20px" height="20px" viewBox="0 0 20 20" version="1.1" xmlns="http://www.w3.org/2000/svg" xmlns:xlink="http://www.w3.org/1999/xlink">
    <!-- Generator: sketchtool 64 (101010) - https://sketch.com -->
    <title>CFBE39E6-A138-4C79-91DE-6D26DD3C61A5</title>
    <desc>Created with sketchtool.</desc>
    <g id="Page-1" stroke="none" stroke-width="1" fill="none" fill-rule="evenodd">
        <g id="1.4-No-Content" transform="translate(-20.000000, -89.000000)">
            <g id="Info" transform="translate(20.000000, 86.000000)">
                <g id="Group-2">
                    <g id="info-(4)" transform="translate(0.000000, 3.000000)">
                        <rect id="Rectangle" fill="#D8D8D8" opacity="0" x="0" y="0" width="20" height="20"></rect>
                        <path d="M10,0.833333333 C15.0626102,0.833333333 19.1666667,4.93738979 19.1666667,10 C19.1666667,15.0626102 15.0626102,19.1666667 10,19.1666667 C4.93738979,19.1666667 0.833333333,15.0626102 0.833333333,10 C0.833333333,4.93738979 4.93738979,0.833333333 10,0.833333333 Z M10,2.5 C5.85786438,2.5 2.5,5.85786438 2.5,10 C2.5,14.1421356 5.85786438,17.5 10,17.5 C14.1421356,17.5 17.5,14.1421356 17.5,10 C17.5,5.85786438 14.1421356,2.5 10,2.5 Z M10,9.16666667 C10.4273632,9.16666667 10.7795893,9.48836683 10.8277269,9.90281573 L10.8333333,10 L10.8333333,13.3333333 C10.8333333,13.7935706 10.4602373,14.1666667 10,14.1666667 C9.5726368,14.1666667 9.2204107,13.8449665 9.17227311,13.4305176 L9.16666667,13.3333333 L9.16666667,10 C9.16666667,9.53976271 9.53976271,9.16666667 10,9.16666667 Z M10.0083333,5.83333333 C10.4685706,5.83333333 10.8416667,6.20642938 10.8416667,6.66666667 C10.8416667,7.09402987 10.5199665,7.44625597 10.1055176,7.49439356 L10,7.5 C9.53976271,7.5 9.16666667,7.12690396 9.16666667,6.66666667 C9.16666667,6.23930347 9.48836683,5.88707737 9.90281573,5.83893978 L10.0083333,5.83333333 Z" id="Combined-Shape" fill="#F39500" fill-rule="nonzero"></path>
                    </g>
                </g>
            </g>
        </g>
    </g>
</svg>