<?xml version="1.0" encoding="UTF-8"?>
<svg width="32px" height="32px" viewBox="0 0 32 32" version="1.1" xmlns="http://www.w3.org/2000/svg" xmlns:xlink="http://www.w3.org/1999/xlink">
    <!-- Generator: sketchtool 61.2 (101010) - https://sketch.com -->
    <title>5B282210-932D-4954-A928-EBC863898487</title>
    <desc>Created with sketchtool.</desc>
    <g id="Page-2" stroke="none" stroke-width="1" fill="none" fill-rule="evenodd">
        <g id="14.3-Home-3" transform="translate(-1256.000000, -4785.000000)" fill="#FFFFFF">
            <g id="::-Footer-::" transform="translate(0.000000, 4323.000000)">
                <g id="Group-9-Copy-2">
                    <g transform="translate(1021.000000, 462.000000)">
                        <g id="insta-copy" transform="translate(235.000000, 0.000000)">
                            <path d="M16,0 C24.837,0 32,7.163 32,16 C32,24.836 24.837,32 16,32 C7.163,32 0,24.836 0,16 C0,7.163 7.163,0 16,0 Z M22.098,8 L9.902,8 C8.852,8 8,8.849 8,9.897 L8,9.897 L8,22.102 C8,23.15 8.852,24 9.902,24 L9.902,24 L22.098,24 C23.149,24 24,23.15 24,22.102 L24,22.102 L24,9.897 C24,8.849 23.149,8 22.098,8 L22.098,8 Z M11.3248,14.7342 C11.2118,15.1432 11.1518,15.5742 11.1518,16.0182 C11.1518,18.6952 13.3348,20.8742 16.0188,20.8742 C18.7028,20.8742 20.8858,18.6952 20.8858,16.0182 C20.8858,15.5742 20.8258,15.1432 20.7128,14.7342 L20.7128,14.7342 L22.2098,14.7342 L22.2098,21.6922 C22.2098,21.9392 22.0098,22.1392 21.7618,22.1392 L21.7618,22.1392 L10.2748,22.1392 C10.0278,22.1392 9.8278,21.9392 9.8278,21.6922 L9.8278,21.6922 L9.8278,14.7342 Z M16.0187,12.9488 C17.7177,12.9488 19.0957,14.3228 19.0957,16.0178 C19.0957,17.7138 17.7177,19.0878 16.0187,19.0878 C14.3197,19.0878 12.9417,17.7138 12.9417,16.0178 C12.9417,14.3228 14.3197,12.9488 16.0187,12.9488 Z M21.7248,9.823 C21.9718,9.823 22.1728,10.023 22.1728,10.269 L22.1728,10.269 L22.1728,12.428 C22.1728,12.674 21.9718,12.874 21.7248,12.874 L21.7248,12.874 L19.5618,12.874 C19.3148,12.874 19.1138,12.674 19.1138,12.428 L19.1138,12.428 L19.1138,10.269 C19.1138,10.023 19.3148,9.823 19.5618,9.823 L19.5618,9.823 Z" id="Combined-Shape"></path>
                        </g>
                    </g>
                </g>
            </g>
        </g>
    </g>
</svg>