<?xml version="1.0" encoding="UTF-8"?>
<!DOCTYPE svg PUBLIC "-//W3C//DTD SVG 1.1//EN" "http://www.w3.org/Graphics/SVG/1.1/DTD/svg11.dtd">
<!-- Creator: CorelDRAW X8 -->
<svg xmlns="http://www.w3.org/2000/svg" xml:space="preserve" width="0.484587in" height="0.423567in" version="1.1" style="shape-rendering:geometricPrecision; text-rendering:geometricPrecision; image-rendering:optimizeQuality; fill-rule:evenodd; clip-rule:evenodd"
viewBox="0 0 11370 9938"
 xmlns:xlink="http://www.w3.org/1999/xlink">
 <defs>
  <style type="text/css">
   <![CDATA[
    .fil0 {fill:#FEFEFE}
   ]]>
  </style>
 </defs>
 <g id="Layer_x0020_1">
  <metadata id="CorelCorpID_0Corel-Layer"/>
  <path class="fil0" d="M4294 714l2812 0 1 1417 -2827 0 14 -1417zm5652 9224c767,-4 1424,-617 1424,-1377l0 -5060c0,-759 -664,-1368 -1424,-1370l0 7807zm-8505 0l0 -7807c-749,3 -1334,562 -1417,1247 -31,259 -32,5043 -1,5307 81,688 655,1248 1418,1253zm705 -7808l-4 7805 7097 0 -4 -7805 -1410 -1c0,-358 0,-706 0,-1053 0,-398 34,-616 -204,-863 -234,-243 -446,-211 -837,-211l-2135 0c-382,0 -644,-40 -871,203 -225,239 -216,438 -216,845 0,358 0,716 0,1074l-1416 6z"/>
 </g>
</svg>
