<?xml version="1.0" encoding="UTF-8"?>
<!DOCTYPE svg PUBLIC "-//W3C//DTD SVG 1.1//EN" "http://www.w3.org/Graphics/SVG/1.1/DTD/svg11.dtd">
<!-- Creator: CorelDRAW X8 -->
<svg xmlns="http://www.w3.org/2000/svg" xml:space="preserve" width="0.458374in" height="0.438508in" version="1.1" style="shape-rendering:geometricPrecision; text-rendering:geometricPrecision; image-rendering:optimizeQuality; fill-rule:evenodd; clip-rule:evenodd"
viewBox="0 0 55 52"
 xmlns:xlink="http://www.w3.org/1999/xlink">
 <defs>
  <style type="text/css">
   <![CDATA[
    .fil0 {fill:#FEFEFE}
   ]]>
  </style>
 </defs>
 <g id="Layer_x0020_1">
  <metadata id="CorelCorpID_0Corel-Layer"/>
  <path class="fil0" d="M0 52l54 0c0,0 0,0 0,-1 0,-1 -1,-3 -3,-4 -3,-2 -9,-2 -12,-1 -1,1 -2,2 -3,3 0,0 0,0 0,0l-1 0c0,-1 0,-1 -1,-1 -2,-3 -10,-3 -13,-1 -1,0 -2,2 -3,2l0 0c0,0 -1,-1 -1,-1 -1,-1 -3,-2 -4,-2 -2,-1 -3,-1 -4,-1 -3,0 -7,2 -8,4 -1,1 -1,2 -1,3l0 0zm13 -38c0,1 1,3 2,4 1,1 2,1 3,1l1 0c1,0 1,0 1,0 1,-1 2,-1 3,-2 1,-3 1,-5 -1,-7 0,0 0,0 -1,0 -2,-2 -5,-1 -7,1 0,1 -1,2 -1,3zm8 24c0,2 0,3 2,4 0,0 0,0 0,0 0,1 1,1 2,2 2,0 4,0 6,-2 3,-2 2,-6 -1,-8 -1,-2 -4,-2 -5,-1 -1,0 -2,1 -2,1 -1,1 -2,2 -2,4zm18 0c0,1 0,2 0,3 1,0 1,0 1,1 3,4 10,2 10,-4 0,-1 0,-3 -1,-4 -2,-1 -3,-1 -5,-1 -3,0 -5,2 -5,5zm-30 6c2,0 3,0 5,-2 2,-2 2,-7 -2,-9 -1,-1 -3,-1 -5,0 -1,1 -2,2 -3,3 -1,2 0,4 1,6 0,0 0,0 0,0 1,1 3,2 4,2zm12 -37c1,0 1,1 2,1l0 -6 29 0c1,0 1,0 1,0l0 22 -17 0c0,0 0,1 -1,1l-3 1c0,0 0,0 0,0l19 0c1,0 2,0 3,0 0,0 1,-1 1,-2l0 -22c0,-1 -1,-2 -2,-2l-30 0c-1,0 -1,0 -2,1 0,0 0,1 0,2 0,1 0,3 0,4zm-3 16l-3 -3c0,0 -2,1 -2,1 -1,0 -2,1 -2,1 -2,3 -2,5 -2,8 3,0 5,1 6,3l1 1c1,1 1,3 1,4l2 0c0,-1 0,-2 1,-2 0,-1 0,-1 0,-2 0,0 0,0 0,0 0,0 1,0 1,-1 0,0 1,-1 1,-1 1,-1 2,-1 3,-1l0 -5c0,0 4,-2 4,-2 1,0 1,0 1,-1 2,0 3,-1 5,-2 1,0 2,-1 2,-2 1,-1 0,-4 -1,-4 -2,0 -2,1 -3,1 -3,2 -6,3 -9,4 -3,0 -2,-1 -5,2 0,1 0,1 -1,1z"/>
 </g>
</svg>
