<?xml version="1.0" encoding="UTF-8"?>
<svg width="14px" height="10px" viewBox="0 0 14 10" version="1.1" xmlns="http://www.w3.org/2000/svg" xmlns:xlink="http://www.w3.org/1999/xlink">
    <!-- Generator: Sketch 61.2 (89653) - https://sketch.com -->
    <title>left-arrow</title>
    <desc>Created with Sketch.</desc>
    <g id="Color-Change" stroke="none" stroke-width="1" fill="none" fill-rule="evenodd" opacity="0.5">
        <g id="icons" transform="translate(-829.000000, -546.000000)" fill="#0098D6" fill-rule="nonzero">
            <g id="back-arrow" transform="translate(814.000000, 529.000000)">
                <g id="left-arrow" transform="translate(15.000000, 17.000000)">
                    <path d="M4.6174208,0.4132864 C4.7992832,0.231424 5.0855936,0.231424 5.267456,0.4132864 C5.4431744,0.5890048 5.4431744,0.8814592 5.267456,1.056768 L1.9714048,4.3528192 L12.8479232,4.3528192 C13.1014656,4.3528192 13.3095424,4.5543424 13.3095424,4.8078848 C13.3095424,5.0614272 13.1014656,5.269504 12.8479232,5.269504 L1.9714048,5.269504 L5.267456,8.5594112 C5.4431744,8.7412736 5.4431744,9.0341376 5.267456,9.2094464 C5.0855936,9.3913088 4.7992832,9.3913088 4.6174208,9.2094464 L0.5410816,5.1331072 C0.3653632,4.9573888 0.3653632,4.6649344 0.5410816,4.4896256 L4.6174208,0.4132864 Z" id="arrow"></path>
                </g>
            </g>
        </g>
    </g>
</svg>