<?xml version="1.0" encoding="UTF-8"?>
<svg width="13px" height="10px" viewBox="0 0 13 10" version="1.1" xmlns="http://www.w3.org/2000/svg" xmlns:xlink="http://www.w3.org/1999/xlink">
    <!-- Generator: sketchtool 60.1 (101010) - https://sketch.com -->
    <title>BFE8B726-038B-471B-A058-026DC578F52A</title>
    <desc>Created with sketchtool.</desc>
    <g id="Final" stroke="none" stroke-width="1" fill="none" fill-rule="evenodd" opacity="0.5">
        <g id="5.2-Dashboad-Micro-CV-Expand" transform="translate(-1194.000000, -1009.000000)">
            <g id="::-Training-1-::" transform="translate(150.000000, 441.000000)">
                <g id="Group-10" transform="translate(1028.000000, 551.000000)">
                    <g id="back-arrow">
                        <g id="left-arrow-copy" transform="translate(10.000000, 10.000000)">
                            <rect id="Rectangle" fill="#D8D8D8" opacity="0" x="0" y="0" width="24" height="24"></rect>
                            <path d="M10.208128,7.1363968 C10.3899904,6.9545344 10.6763008,6.9545344 10.8581632,7.1363968 C11.0338816,7.3121152 11.0338816,7.6045696 10.8581632,7.7798784 L7.562112,11.0759296 L18.4386304,11.0759296 C18.6921728,11.0759296 18.9002496,11.2774528 18.9002496,11.5309952 C18.9002496,11.7845376 18.6921728,11.9926144 18.4386304,11.9926144 L7.562112,11.9926144 L10.8581632,15.2825216 C11.0338816,15.464384 11.0338816,15.757248 10.8581632,15.9325568 C10.6763008,16.1144192 10.3899904,16.1144192 10.208128,15.9325568 L6.1317888,11.8562176 C5.9560704,11.6804992 5.9560704,11.3880448 6.1317888,11.212736 L10.208128,7.1363968 Z" id="arrow" fill="#282232" fill-rule="nonzero"></path>
                        </g>
                    </g>
                </g>
            </g>
        </g>
    </g>
</svg>