<?xml version="1.0" encoding="UTF-8"?>
<svg width="32px" height="32px" viewBox="0 0 32 32" version="1.1" xmlns="http://www.w3.org/2000/svg" xmlns:xlink="http://www.w3.org/1999/xlink">
    <!-- Generator: sketchtool 61.2 (101010) - https://sketch.com -->
    <title>F34D0FF4-69A3-47CE-9DDE-3F3DF837947E</title>
    <desc>Created with sketchtool.</desc>
    <g id="Page-2" stroke="none" stroke-width="1" fill="none" fill-rule="evenodd">
        <g id="14.3-Home-3" transform="translate(-1209.000000, -4785.000000)" fill="#FFFFFF">
            <g id="::-Footer-::" transform="translate(0.000000, 4323.000000)">
                <g id="Group-9-Copy-2">
                    <g transform="translate(1021.000000, 462.000000)">
                        <g id="linkedin-copy" transform="translate(188.000000, 0.000000)">
                            <path d="M24,23.985 L20.685,23.985 L20.685,18.797 C20.685,17.56 20.663,15.969 18.962,15.969 C17.237,15.969 16.974,17.317 16.974,18.709 L16.974,23.985 L13.662,23.985 L13.662,13.317 L16.84,13.317 L16.84,14.776 L16.886,14.776 C17.328,13.937 18.41,13.052 20.023,13.052 C23.38,13.052 24,15.261 24,18.134 L24,23.985 Z M9.924,11.86 C8.859,11.86 8,10.998 8,9.937 C8,8.876 8.859,8.014 9.924,8.014 C10.984,8.014 11.845,8.876 11.845,9.937 C11.845,10.998 10.984,11.86 9.924,11.86 L9.924,11.86 Z M11.582,23.985 L8.263,23.985 L8.263,13.317 L11.582,13.317 L11.582,23.985 Z M16,5.32907052e-15 C7.163,5.32907052e-15 0,7.163 0,16 C0,24.836 7.163,32 16,32 C24.837,32 32,24.836 32,16 C32,7.163 24.837,5.32907052e-15 16,5.32907052e-15 L16,5.32907052e-15 Z" id="Fill-209"></path>
                        </g>
                    </g>
                </g>
            </g>
        </g>
    </g>
</svg>