<?xml version="1.0" encoding="UTF-8"?>
<svg width="19px" height="20px" viewBox="0 0 19 20" version="1.1" xmlns="http://www.w3.org/2000/svg" xmlns:xlink="http://www.w3.org/1999/xlink">
    <!-- Generator: Sketch 63.1 (92452) - https://sketch.com -->
    <title>live-streaming</title>
    <desc>Created with Sketch.</desc>
    <g id="Page-1" stroke="none" stroke-width="1" fill="none" fill-rule="evenodd">
        <g id="15.1-Profile-Menu" transform="translate(-1220.000000, -182.000000)" fill="#2097d6" fill-rule="nonzero">
            <g id="Group-7" transform="translate(1170.000000, 63.000000)">
                <g id="Payment-History-Copy" transform="translate(16.000000, 119.000000)">
                    <g id="live-streaming" transform="translate(34.000000, 0.000000)">
                        <path d="M16.8448779,9.04708375 L1.89402223,9.04708375 C0.849599609,9.04708375 1.07469589e-15,9.89668336 1.07469589e-15,10.9411059 L1.07469589e-15,17.4661255 C1.07469589e-15,18.5104004 0.849599609,19.36 1.89402223,19.36 L16.8448779,19.36 C17.8893005,19.36 18.7389002,18.5104004 18.7389002,17.4661255 L18.7389002,10.9411059 C18.7389002,9.89668336 17.8893005,9.04708375 16.8448779,9.04708375 Z M17.6045252,17.4661255 C17.6045252,17.8848694 17.2637695,18.225625 16.8448779,18.225625 L1.89402223,18.225625 C1.47513062,18.225625 1.134375,17.8848694 1.134375,17.4661255 L1.134375,10.9411059 C1.134375,10.5222144 1.47513062,10.1814587 1.89402223,10.1814587 L16.8448779,10.1814587 C17.2637695,10.1814587 17.6045252,10.5222144 17.6045252,10.9411059 L17.6045252,17.4661255 Z" id="Shape"></path>
                        <path d="M9.37100098,6.07422363 C9.82164918,6.07422363 10.2722973,5.90303344 10.6154163,5.56050539 C10.9481958,5.22846437 11.1313501,4.78682617 11.1313501,4.31697633 C11.1313501,3.84712648 10.9481958,3.40548828 10.6154163,3.07344727 C9.92917848,2.38853883 8.81267578,2.38853883 8.12643797,3.07344727 C7.79365844,3.40548828 7.61050414,3.84712648 7.61050414,4.31697633 C7.61050414,4.78682617 7.79365844,5.22846437 8.12643797,5.56050539 C8.46955688,5.90303344 8.92020508,6.07422363 9.37100098,6.07422363 L9.37100098,6.07422363 Z M8.92773805,3.87622437 C9.05003785,3.75421996 9.21044555,3.69336547 9.37100098,3.69336547 C9.53140867,3.69336547 9.69181641,3.75436766 9.81396852,3.87622437 C9.93198484,3.99394531 9.99697508,4.1505127 9.99697508,4.31697633 C9.99697508,4.48343992 9.93198484,4.63985961 9.81411621,4.75772828 C9.5696643,5.00158937 9.17218992,5.00144164 8.92773805,4.75772828 C8.80972168,4.63985961 8.74487914,4.48343992 8.74487914,4.31697633 C8.74487914,4.1505127 8.80986938,3.99409301 8.92773805,3.87622437 L8.92773805,3.87622437 Z" id="Shape"></path>
                        <path d="M11.4434509,6.79724 C11.5542297,6.90831422 11.6995715,6.96385133 11.8449133,6.96385133 C11.9899597,6.96385133 12.1348584,6.90860961 12.2456372,6.79812621 C12.9095715,6.13537352 13.2752893,5.25431273 13.2752893,4.31697633 C13.2752893,3.37963988 12.9095715,2.49843141 12.2456372,1.83582641 C12.0239319,1.61456422 11.6647131,1.61485961 11.4434509,1.83656492 C11.2221887,2.05827027 11.2226318,2.41748902 11.4443371,2.63875121 C11.8935083,3.08703613 12.1409143,3.68302613 12.1409143,4.31697633 C12.1409143,4.95077883 11.8935083,5.54691649 11.4443371,5.99520141 C11.2226318,6.21646363 11.2221887,6.57553469 11.4434509,6.79724 L11.4434509,6.79724 Z" id="Path"></path>
                        <path d="M6.49326293,6.79812621 C6.60404176,6.90860961 6.74894043,6.96385133 6.8939868,6.96385133 C7.03932859,6.96385133 7.18467039,6.90831422 7.29544922,6.79724 C7.51671141,6.57553469 7.51626832,6.21646363 7.29456297,5.99520141 C6.84539184,5.54676879 6.59798586,4.95077883 6.59798586,4.31682859 C6.59798586,3.68302613 6.84539184,3.08703613 7.29456297,2.63860352 C7.51626832,2.41734133 7.51671141,2.05827027 7.29544922,1.83656492 C7.07418703,1.61471191 6.71496828,1.61441649 6.49326293,1.83567871 C5.82932859,2.49843141 5.46375855,3.37949219 5.46361086,4.31682859 C5.46361086,5.25416504 5.82932859,6.13537352 6.49326293,6.79812621 Z" id="Path"></path>
                        <path d="M4.93039551,15.9559888 L3.40785156,15.9559888 L3.40785156,11.8839075 C3.40785156,11.570625 3.15394652,11.31672 2.84066406,11.31672 C2.5273816,11.31672 2.27347656,11.570625 2.27347656,11.8839075 L2.27347656,16.5231763 C2.27347656,16.8364587 2.5273816,17.0903638 2.84066406,17.0903638 L4.93039551,17.0903638 C5.24353027,17.0903638 5.49758301,16.8364587 5.49758301,16.5231763 C5.49758301,16.2100415 5.24353027,15.9559888 4.93039551,15.9559888 L4.93039551,15.9559888 Z" id="Path"></path>
                        <path d="M6.68764281,11.31672 C6.37436035,11.31672 6.12045531,11.570625 6.12045531,11.8839075 L6.12045531,16.5231763 C6.12045531,16.8364587 6.37436035,17.0903638 6.68764281,17.0903638 C7.00077758,17.0903638 7.25483031,16.8364587 7.25483031,16.5231763 L7.25483031,11.8839075 C7.25483031,11.570625 7.00077758,11.31672 6.68764281,11.31672 L6.68764281,11.31672 Z" id="Path"></path>
                        <path d="M11.6478748,11.3409436 C11.3481812,11.2504004 11.0315015,11.4201135 10.9409582,11.7199548 L10.0833826,14.5607666 L9.22565918,11.7199548 C9.13511598,11.4199658 8.81858398,11.2504004 8.51874266,11.3409436 C8.21890137,11.4314868 8.04918824,11.7480188 8.13973145,12.0478601 L9.54041871,16.6871289 C9.54056641,16.687572 9.5407141,16.6880152 9.5408618,16.6884582 C9.69521363,17.182384 10.4555994,17.2123682 10.6259033,16.6884582 C10.626051,16.6880152 10.6261987,16.6877197 10.6263464,16.6871289 L12.0270337,12.0478601 C12.1175769,11.7478711 11.9477161,11.4314868 11.6478748,11.3409436 L11.6478748,11.3409436 Z" id="Path"></path>
                        <path d="M15.8982361,12.451095 C16.2115186,12.451095 16.4654236,12.1971899 16.4654236,11.8839075 C16.4654236,11.570625 16.2115186,11.31672 15.8982361,11.31672 L13.339541,11.31672 C13.0262586,11.31672 12.7723535,11.570625 12.7723535,11.8839075 L12.7723535,16.5231763 C12.7723535,16.8364587 13.0262586,17.0903638 13.339541,17.0903638 L15.8218726,17.0903638 C16.135155,17.0903638 16.3890601,16.8364587 16.3890601,16.5231763 C16.3890601,16.2100415 16.135155,15.9559888 15.8218726,15.9559888 L13.9067285,15.9559888 L13.9067285,14.4786426 L15.5162707,14.4786426 C15.8295532,14.4786426 16.0834582,14.2247375 16.0834582,13.9114551 C16.0834582,13.5981726 15.8295532,13.3442676 15.5162707,13.3442676 L13.9067285,13.3442676 L13.9067285,12.451095 L15.8982361,12.451095 Z" id="Path"></path>
                        <path d="M14.1169129,4.31697633 C14.1169129,5.58162719 13.6234302,6.77080078 12.7273035,7.66515504 C12.5055981,7.88641723 12.505155,8.24563598 12.7264172,8.46734133 C12.8373438,8.57826781 12.9825379,8.63380492 13.1278796,8.63380492 C13.272926,8.63380492 13.4178247,8.57856324 13.5286035,8.46807984 C14.6394934,7.35940551 15.2512879,5.88516113 15.2512879,4.31697633 C15.2512879,2.74893922 14.6394934,1.27454711 13.5286035,0.165872812 C13.3068982,-0.0553894137 12.9478271,-0.0550939847 12.7264172,0.166611328 C12.505155,0.388316641 12.5055981,0.747535391 12.7273035,0.968797617 C13.6234302,1.86315187 14.1169129,3.05217773 14.1169129,4.31697633 Z" id="Path"></path>
                        <path d="M5.61102051,8.63380492 C5.7563623,8.63380492 5.9017041,8.57826781 6.01248289,8.46734133 C6.23374512,8.24563598 6.23344969,7.88641723 6.01159668,7.66515504 C5.11546996,6.77080078 4.6219873,5.58162719 4.6219873,4.31682859 C4.6219873,3.05217773 5.11546996,1.86300414 6.01159668,0.968649921 C6.23330199,0.747387695 6.23374512,0.388168945 6.01248289,0.166611328 C5.79107301,-0.0552417181 5.43200195,-0.0555371094 5.21029664,0.165725079 C4.09940672,1.27454711 3.4876123,2.74879149 3.4876123,4.31682859 C3.4876123,5.88501344 4.09940672,7.35925781 5.21029664,8.46807984 C5.32107543,8.57856324 5.46597414,8.63380492 5.61102051,8.63380492 Z" id="Path"></path>
                    </g>
                </g>
            </g>
        </g>
    </g>
</svg>