<?xml version="1.0" encoding="UTF-8"?>
<svg width="10px" height="12px" viewBox="0 0 10 12" version="1.1" xmlns="http://www.w3.org/2000/svg" xmlns:xlink="http://www.w3.org/1999/xlink">
    <!-- Generator: Sketch 61.2 (89653) - https://sketch.com -->
    <title>location</title>
    <desc>Created with Sketch.</desc>
    <g id="Color-Change" stroke="none" stroke-width="1" fill="none" fill-rule="evenodd">
        <g id="add.svg" transform="translate(-695.000000, -57.000000)" fill-rule="nonzero">
            <g id="location" transform="translate(691.000000, 54.000000)">
                <rect id="Rectangle" fill="#D8D8D8" opacity="0" x="0" y="0" width="18" height="18"></rect>
                <path d="M9,3 C6.25,3 4,5.03591416 4,7.54165467 C4,8.53351029 4.36111111,9.47316299 5,10.2562069 L8.77777778,14.9022674 C8.86111111,15.0066733 9.05555556,15.0327747 9.16666667,14.9544704 C9.19444444,14.9283689 9.19444444,14.9283689 9.22222222,14.9022674 L13,10.2562069 C13.6388889,9.47316299 14,8.53351029 14,7.54165467 C14,5.03591416 11.75,3 9,3 Z M8.61111111,9.3165542 C7.55555556,9.10774249 6.86111111,8.1680898 7.08333333,7.17623418 C7.30555556,6.18437857 8.30555556,5.53184197 9.36111111,5.74065368 C10.1388889,5.89726247 10.75,6.4453932 10.8888889,7.17623418 C11.0833333,8.1680898 10.3888889,9.13384396 9.36111111,9.3165542 C9.11111111,9.36875713 8.86111111,9.36875713 8.61111111,9.3165542 Z" id="Shape" fill="#0098D6"></path>
            </g>
        </g>
    </g>
</svg>