<?xml version="1.0" encoding="UTF-8"?>
<svg width="157px" height="66px" viewBox="0 0 157 66" version="1.1" xmlns="http://www.w3.org/2000/svg" xmlns:xlink="http://www.w3.org/1999/xlink">
    <!-- Generator: Sketch 61.2 (89653) - https://sketch.com -->
    <title>logo</title>
    <desc>Created with Sketch.</desc>
    <defs>
        <polygon id="path-1" points="0.1568 0.0471 3.45005 0.0471 3.45005 4.75 0.1568 4.75"></polygon>
        <polygon id="path-3" points="0.0652 0.2309 21.06125 0.2309 21.06125 32.6764 0.0652 32.6764"></polygon>
        <polygon id="path-5" points="0.231373472 0.03625 14.9436187 0.03625 14.9436187 21.772975 0.231373472 21.772975"></polygon>
    </defs>
    <g id="Color-Change" stroke="none" stroke-width="1" fill="none" fill-rule="evenodd">
        <g id="1.2-SafeJob" transform="translate(-64.000000, -11.000000)">
            <g id="::-Header-::">
                <g id="logo" transform="translate(64.000000, 11.000000)">
                    <path d="M83.73995,61.343475 L84.72745,61.343475 C84.8907,61.343475 85.02795,61.328225 85.1427,61.298725 C85.25645,61.268975 85.3502,61.224225 85.4217,61.165725 C85.4932,61.108225 85.54645,61.035975 85.5792,60.950975 C85.6122,60.865725 85.6292,60.766725 85.6292,60.654725 C85.6292,60.519725 85.6037,60.409975 85.5547,60.327225 C85.5047,60.243975 85.43745,60.178975 85.35345,60.132225 C85.26945,60.085225 85.1717,60.054475 85.05995,60.038725 C84.9492,60.023475 84.83195,60.015225 84.70945,60.015225 L83.73995,60.015225 L83.73995,61.343475 Z M82.85645,59.201975 L84.67145,59.201975 C84.8342,59.201975 84.99295,59.210725 85.1472,59.228475 C85.30245,59.245475 85.4482,59.276225 85.5867,59.319975 C85.72495,59.363475 85.8517,59.421475 85.9677,59.491475 C86.0827,59.562975 86.18195,59.650975 86.26595,59.758725 C86.34895,59.865225 86.4137,59.991475 86.4607,60.137475 C86.5072,60.282475 86.5307,60.451725 86.5307,60.641975 C86.5307,61.145475 86.3787,61.523475 86.07295,61.775725 C85.7687,62.027475 85.3152,62.154725 84.71295,62.154725 L83.73995,62.154725 L83.73995,63.935225 L82.85645,63.935225 L82.85645,59.201975 Z" id="Fill-1" fill="#FFFFFF"></path>
                    <path d="M88.759725,63.2927 C88.872725,63.2927 88.974725,63.26995 89.067475,63.22545 C89.160225,63.1817 89.238725,63.1147 89.305975,63.02545 C89.371725,62.9357 89.423975,62.82395 89.460225,62.6897 C89.496225,62.55595 89.514725,62.3997 89.514725,62.2207 C89.514725,62.04395 89.496225,61.8887 89.460225,61.75445 C89.423975,61.62045 89.371725,61.5072 89.305975,61.41695 C89.238725,61.3267 89.160225,61.2592 89.067475,61.21445 C88.974725,61.16995 88.872725,61.14745 88.759725,61.14745 C88.647975,61.14745 88.544725,61.16995 88.452225,61.21445 C88.360725,61.2592 88.280975,61.3267 88.213725,61.41695 C88.147975,61.5072 88.096725,61.62045 88.059475,61.75445 C88.023225,61.8887 88.004975,62.04395 88.004975,62.2207 C88.004975,62.3997 88.023225,62.55595 88.059475,62.6897 C88.096725,62.82395 88.147975,62.9357 88.213725,63.02545 C88.280975,63.1147 88.360725,63.1817 88.452225,63.22545 C88.544725,63.26995 88.647975,63.2927 88.759725,63.2927 M88.759725,60.43045 C89.008975,60.43045 89.233475,60.4707 89.433475,60.55145 C89.632475,60.6322 89.804225,60.74945 89.944475,60.9027 C90.086225,61.05495 90.194475,61.24345 90.270225,61.46595 C90.346975,61.68845 90.383975,61.93945 90.383975,62.2207 C90.383975,62.5027 90.345725,62.7562 90.267975,62.9782 C90.189475,63.2007 90.079475,63.3882 89.937975,63.54045 C89.797475,63.6937 89.626475,63.80945 89.427225,63.8907 C89.226975,63.97045 89.005475,64.0097 88.759725,64.0097 C88.519225,64.0097 88.297725,63.97045 88.098725,63.8917 C87.898725,63.81295 87.728225,63.69695 87.585725,63.54595 C87.443225,63.39345 87.333475,63.20595 87.255725,62.9837 C87.177225,62.7612 87.138725,62.5067 87.138725,62.2207 C87.138725,61.93945 87.177225,61.68845 87.253725,61.46595 C87.330225,61.24345 87.439975,61.05495 87.582475,60.9027 C87.725225,60.74945 87.896475,60.6322 88.095475,60.55145 C88.295725,60.4707 88.517225,60.43045 88.759725,60.43045" id="Fill-3" fill="#FFFFFF"></path>
                    <polygon id="Fill-5" fill="#FFFFFF" points="95.4548 60.51095 94.43205 63.9352 93.67755 63.9352 93.10655 61.98645 92.5363 63.9352 91.77505 63.9352 90.7438 60.51095 91.6783 60.51095 92.15955 62.4922 92.73955 60.51095 93.47505 60.51095 94.06155 62.4922 94.5418 60.51095"></polygon>
                    <path d="M98.211625,61.77755 C98.157125,61.5648 98.068875,61.40755 97.944375,61.30305 C97.821125,61.1998 97.671875,61.1473 97.497375,61.1473 C97.329375,61.1473 97.181125,61.1998 97.054625,61.30305 C96.927875,61.40755 96.837625,61.5648 96.783125,61.77755 L98.211625,61.77755 Z M97.560375,64.0098 C97.310125,64.0098 97.082125,63.9703 96.875625,63.89055 C96.668125,63.80955 96.490375,63.6938 96.342375,63.54055 C96.193625,63.38805 96.078625,63.20055 95.997625,62.9783 C95.916625,62.75605 95.876125,62.50255 95.876125,62.22055 C95.876125,61.9438 95.915625,61.6948 95.994625,61.4733 C96.073125,61.2518 96.183875,61.0648 96.326625,60.9103 C96.469125,60.7568 96.639375,60.6378 96.837625,60.5548 C97.036625,60.47155 97.256875,60.4303 97.497375,60.4303 C97.746625,60.4303 97.970875,60.47055 98.171125,60.55155 C98.370125,60.6323 98.541625,60.74955 98.682125,60.9028 C98.823625,61.0548 98.932375,61.2433 99.007875,61.46605 C99.084375,61.68855 99.121625,61.9393 99.121625,62.22055 L99.121625,62.49205 L96.765125,62.49205 C96.785125,62.6263 96.819375,62.74405 96.867125,62.84455 C96.914875,62.94305 96.973625,63.02655 97.041875,63.09355 C97.111125,63.15955 97.189625,63.2093 97.278125,63.24355 C97.366375,63.2763 97.459875,63.2928 97.560375,63.2928 C97.634625,63.2928 97.709125,63.28055 97.784625,63.25505 C97.859125,63.23055 97.926125,63.1933 97.987125,63.1443 C98.047625,63.0953 98.096625,63.0358 98.134875,62.96555 C98.173375,62.8943 98.193625,62.81255 98.195875,62.71905 L99.087625,62.71905 C99.056875,62.92755 98.996125,63.11155 98.906625,63.2713 C98.817125,63.4308 98.705625,63.5658 98.571125,63.67455 C98.437125,63.78405 98.284125,63.8673 98.111625,63.9248 C97.938875,63.98105 97.755125,64.0098 97.560375,64.0098 L97.560375,64.0098 Z" id="Fill-7" fill="#FFFFFF"></path>
                    <path d="M101.80075,61.349825 C101.705,61.321075 101.618,61.297575 101.53775,61.281825 C101.457,61.264575 101.3845,61.256325 101.31725,61.256325 C101.2055,61.256325 101.1015,61.285825 101.00575,61.343575 C100.91,61.401825 100.815,61.492575 100.72175,61.615075 L100.72175,63.935325 L99.8805,63.935325 L99.8805,60.511075 L100.72175,60.511075 L100.72175,60.708075 C100.93025,60.522825 101.15775,60.430325 101.405,60.430325 C101.44,60.430325 101.49225,60.434825 101.56125,60.443825 C101.62925,60.453325 101.70925,60.465575 101.80075,60.480075 L101.80075,61.349825 Z" id="Fill-9" fill="#FFFFFF"></path>
                    <path d="M104.3735,61.77755 C104.319,61.5648 104.23075,61.40755 104.10625,61.30305 C103.983,61.1998 103.83375,61.1473 103.65925,61.1473 C103.49125,61.1473 103.343,61.1998 103.21625,61.30305 C103.08975,61.40755 102.99925,61.5648 102.94475,61.77755 L104.3735,61.77755 Z M103.72225,64.0098 C103.472,64.0098 103.244,63.9703 103.0375,63.89055 C102.82975,63.80955 102.652,63.6938 102.50425,63.54055 C102.35525,63.38805 102.24025,63.20055 102.1595,62.9783 C102.0785,62.75605 102.038,62.50255 102.038,62.22055 C102.038,61.9438 102.07725,61.6948 102.15625,61.4733 C102.23475,61.2518 102.34575,61.0648 102.48825,60.9103 C102.63075,60.7568 102.80125,60.6378 102.99925,60.5548 C103.19825,60.47155 103.41875,60.4303 103.65925,60.4303 C103.90825,60.4303 104.13275,60.47055 104.333,60.55155 C104.532,60.6323 104.70325,60.74955 104.84375,60.9028 C104.9855,61.0548 105.094,61.2433 105.1695,61.46605 C105.24625,61.68855 105.2835,61.9393 105.2835,62.22055 L105.2835,62.49205 L102.92675,62.49205 C102.947,62.6263 102.98125,62.74405 103.02875,62.84455 C103.07675,62.94305 103.1355,63.02655 103.2035,63.09355 C103.273,63.15955 103.3515,63.2093 103.44,63.24355 C103.52825,63.2763 103.62175,63.2928 103.72225,63.2928 C103.7965,63.2928 103.871,63.28055 103.9465,63.25505 C104.021,63.23055 104.088,63.1933 104.14875,63.1443 C104.2095,63.0953 104.2585,63.0358 104.29675,62.96555 C104.335,62.8943 104.3555,62.81255 104.3575,62.71905 L105.24925,62.71905 C105.2185,62.92755 105.158,63.11155 105.06825,63.2713 C104.979,63.4308 104.86725,63.5658 104.733,63.67455 C104.599,63.78405 104.44575,63.8673 104.27325,63.9248 C104.10075,63.98105 103.91675,64.0098 103.72225,64.0098 L103.72225,64.0098 Z" id="Fill-11" fill="#FFFFFF"></path>
                    <path d="M108.056125,63.75435 C107.833625,63.92485 107.581625,64.0096 107.298375,64.0096 C107.062875,64.0096 106.856625,63.96835 106.676625,63.88435 C106.496875,63.80035 106.345625,63.68085 106.222125,63.5266 C106.099875,63.37335 106.007375,63.1866 105.945375,62.9696 C105.882625,62.7526 105.852125,62.51135 105.852125,62.24485 C105.852125,61.9641 105.889125,61.7116 105.965875,61.48735 C106.041125,61.26235 106.145375,61.0721 106.277625,60.9156 C106.409625,60.75835 106.564875,60.63785 106.744875,60.55485 C106.924875,60.4716 107.118375,60.43035 107.327125,60.43035 C107.598625,60.43035 107.842375,60.4921 108.056125,60.6141 L108.056125,59.30735 L108.898125,59.30735 L108.898125,63.93535 L108.056125,63.93535 L108.056125,63.75435 Z M108.056125,61.45335 C107.844125,61.2496 107.613375,61.14735 107.364375,61.14735 C107.166125,61.14735 107.009625,61.2381 106.892875,61.4201 C106.776875,61.6021 106.718125,61.8766 106.718125,62.24485 C106.718125,62.5941 106.772375,62.8561 106.882125,63.0306 C106.991625,63.20535 107.144875,63.2926 107.342125,63.2926 C107.592125,63.2926 107.829625,63.14435 108.056125,62.8476 L108.056125,61.45335 Z" id="Fill-13" fill="#FFFFFF"></path>
                    <path d="M112.587375,62.9963 C112.794875,63.1948 113.024625,63.2928 113.276125,63.2928 C113.474125,63.2928 113.630625,63.20055 113.745375,63.0168 C113.861625,62.83255 113.918875,62.5593 113.918875,62.1953 C113.918875,61.84805 113.864625,61.5863 113.755125,61.41055 C113.646375,61.23505 113.494125,61.1473 113.298625,61.1473 C113.050375,61.1473 112.814125,61.29655 112.587375,61.5968 L112.587375,62.9963 Z M112.587375,60.68255 C112.698875,60.59955 112.818375,60.5368 112.943875,60.4938 C113.070625,60.45155 113.203625,60.4303 113.345125,60.4303 C113.576125,60.4303 113.780375,60.4728 113.959375,60.5568 C114.138125,60.6408 114.289375,60.76005 114.411875,60.91555 C114.534125,61.07005 114.626625,61.2563 114.690625,61.4733 C114.754375,61.6903 114.785125,61.9308 114.785125,62.1953 C114.785125,62.4698 114.748125,62.71905 114.673625,62.94255 C114.599125,63.16555 114.494875,63.35605 114.362875,63.5138 C114.230625,63.6723 114.075125,63.7948 113.895375,63.8808 C113.715625,63.9673 113.520625,64.0098 113.311375,64.0098 C113.167375,64.0098 113.037625,63.99705 112.922625,63.96955 C112.806625,63.94255 112.695125,63.89705 112.587375,63.83205 L112.587375,63.9353 L111.742125,63.9353 L111.742125,59.3073 L112.587375,59.3073 L112.587375,60.68255 Z" id="Fill-15" fill="#FFFFFF"></path>
                    <g id="Group-19" transform="translate(115.000000, 60.463750)">
                        <mask id="mask-2" fill="white">
                            <use xlink:href="#path-1"></use>
                        </mask>
                        <g id="Clip-18"></g>
                        <path d="M0.87105,3.9581 C1.07105,3.9581 1.24655,3.7516 1.3978,3.33735 L0.1568,0.0471 L1.07105,0.0471 L1.8003,2.20285 L2.5333,0.0471 L3.45005,0.0471 L2.1898,3.3811 C2.1133,3.5821 2.0388,3.7676 1.9673,3.9346 C1.89505,4.1016 1.8138,4.2466 1.72355,4.36685 C1.63305,4.4871 1.52855,4.58085 1.40855,4.64885 C1.2893,4.7156 1.14255,4.7501 0.9678,4.7501 C0.88905,4.7501 0.80705,4.7436 0.7228,4.7321 C0.6388,4.71935 0.54955,4.6976 0.45605,4.66935 L0.45605,3.84835 C0.56855,3.8921 0.65605,3.92185 0.72005,3.9356 C0.7838,3.9506 0.8338,3.9581 0.87105,3.9581" id="Fill-17" fill="#FFFFFF" mask="url(#mask-2)"></path>
                    </g>
                    <path d="M122.7651,64.009725 C122.4266,64.009725 122.1306,63.965975 121.87835,63.877975 C121.6251,63.789475 121.4146,63.665975 121.2441,63.508475 C121.0726,63.349975 120.9441,63.161225 120.8556,62.942475 C120.7671,62.723225 120.7181,62.482475 120.7106,62.220725 L121.5676,62.220725 C121.58285,62.388725 121.6231,62.534725 121.6911,62.657975 C121.75835,62.781725 121.84435,62.884475 121.9486,62.965475 C122.05185,63.046225 122.1711,63.106225 122.30535,63.144225 C122.43935,63.182475 122.58235,63.201975 122.7341,63.201975 C122.87785,63.201975 123.00885,63.187975 123.1271,63.158475 C123.2451,63.129475 123.34735,63.088975 123.43135,63.035725 C123.5156,62.982475 123.58035,62.917725 123.6261,62.840975 C123.6721,62.763725 123.69435,62.676975 123.69435,62.581475 C123.69435,62.484475 123.6721,62.401225 123.62735,62.332475 C123.5826,62.264225 123.5101,62.202475 123.41135,62.147975 C123.31135,62.093975 123.18035,62.044975 123.0186,62.000475 C122.8556,61.955725 122.6566,61.909975 122.4191,61.861975 C122.14885,61.801225 121.91585,61.730975 121.7211,61.650975 C121.5251,61.571225 121.36435,61.476475 121.23885,61.366975 C121.1131,61.258225 121.02035,61.132725 120.95985,60.990225 C120.89935,60.847475 120.8696,60.683475 120.8696,60.498225 C120.8696,60.299225 120.91085,60.115975 120.9941,59.947975 C121.0771,59.781225 121.1951,59.636225 121.34835,59.514975 C121.50035,59.393475 121.68385,59.298725 121.89535,59.229725 C122.10735,59.161225 122.34335,59.126475 122.6036,59.126475 C122.87385,59.126475 123.1206,59.163725 123.3441,59.236725 C123.56785,59.311475 123.76035,59.416725 123.92235,59.555225 C124.08485,59.693475 124.2116,59.862725 124.30435,60.064225 C124.39685,60.264225 124.4461,60.492225 124.4521,60.745225 L123.6036,60.745225 C123.5421,60.206725 123.2166,59.937725 122.6276,59.937725 C122.3416,59.937725 122.12235,59.986225 121.96985,60.082225 C121.8191,60.178975 121.74235,60.311975 121.74235,60.479975 C121.74235,60.548225 121.75935,60.608225 121.7921,60.658975 C121.8251,60.710225 121.87835,60.756725 121.95185,60.799225 C122.0241,60.842225 122.11785,60.881475 122.2316,60.916475 C122.34685,60.951725 122.4851,60.985725 122.64685,61.019975 C122.7886,61.048725 122.93335,61.080475 123.0826,61.116725 C123.23035,61.151725 123.3761,61.194475 123.51885,61.244225 C123.66135,61.294475 123.79535,61.354975 123.9211,61.426725 C124.0466,61.497975 124.15735,61.585225 124.2531,61.687475 C124.34885,61.787975 124.4236,61.908475 124.4786,62.046975 C124.5341,62.185475 124.56185,62.347225 124.56185,62.532725 C124.56185,62.750975 124.51735,62.949975 124.42785,63.130475 C124.33835,63.311725 124.21385,63.466975 124.05535,63.596725 C123.8956,63.726475 123.7061,63.827475 123.48585,63.901225 C123.2656,63.973725 123.02485,64.009725 122.7651,64.009725" id="Fill-20" fill="#FFFFFF"></path>
                    <path d="M127.417675,63.757525 C127.138925,63.925775 126.817425,64.009775 126.451425,64.009775 C126.278925,64.009775 126.118175,63.985275 125.971175,63.935275 C125.823175,63.885275 125.695425,63.814275 125.586925,63.721025 C125.479425,63.628525 125.394175,63.518025 125.331425,63.389275 C125.268675,63.260525 125.237675,63.117775 125.237675,62.962275 C125.237675,62.135275 125.920425,61.721275 127.283675,61.721275 L127.417675,61.721275 C127.415675,61.627525 127.408175,61.545775 127.396425,61.474525 C127.383675,61.404275 127.356175,61.344775 127.313675,61.295775 C127.270925,61.246775 127.209175,61.209275 127.128175,61.184775 C127.046425,61.160275 126.937675,61.147525 126.800425,61.147525 C126.394675,61.147525 126.183925,61.327525 126.167175,61.687525 L125.315675,61.687525 C125.363425,60.849525 125.870425,60.430275 126.834425,60.430275 C127.054925,60.430275 127.252675,60.450275 127.428175,60.489775 C127.603925,60.529025 127.752925,60.598525 127.876675,60.698275 C127.998925,60.798525 128.093675,60.934775 128.159675,61.107025 C128.226675,61.279775 128.259675,61.498025 128.259675,61.761775 L128.259675,63.935275 L127.417675,63.935275 L127.417675,63.757525 Z M127.417675,62.409775 L127.171925,62.409775 C126.454425,62.409775 126.095925,62.584525 126.095925,62.934525 C126.095925,63.050775 126.142425,63.138775 126.237175,63.200525 C126.332175,63.262775 126.457675,63.292775 126.612925,63.292775 C126.691925,63.292775 126.770675,63.285025 126.847425,63.269025 C126.923675,63.253775 126.998175,63.230775 127.068675,63.200525 C127.138925,63.170775 127.203925,63.132775 127.263425,63.086775 C127.322925,63.041025 127.374175,62.987775 127.417675,62.928775 L127.417675,62.409775 Z" id="Fill-22" fill="#FFFFFF"></path>
                    <path d="M130.1533,61.2219 L130.1533,63.9354 L129.30805,63.9354 L129.30805,61.2219 L128.84305,61.2219 L128.84305,60.5109 L129.30805,60.5109 L129.30805,60.36515 C129.30805,59.60415 129.64855,59.22315 130.33005,59.22315 C130.4298,59.22315 130.5268,59.2304 130.62055,59.24565 C130.71405,59.2594 130.8038,59.27865 130.8888,59.3009 L130.8888,60.05315 C130.7728,60.0319 130.67805,60.01815 130.6048,60.0109 C130.5323,60.00365 130.46855,59.9999 130.4153,59.9999 C130.32155,59.9999 130.2543,60.0279 130.21405,60.08215 C130.17355,60.1374 130.1533,60.2334 130.1533,60.37065 L130.1533,60.5109 L130.74505,60.5109 L130.74505,61.2219 L130.1533,61.2219 Z" id="Fill-24" fill="#FFFFFF"></path>
                    <path d="M133.35495,61.77755 C133.30045,61.5648 133.2122,61.40755 133.0877,61.30305 C132.96445,61.1998 132.81545,61.1473 132.6407,61.1473 C132.4727,61.1473 132.32445,61.1998 132.19795,61.30305 C132.0712,61.40755 131.98095,61.5648 131.92645,61.77755 L133.35495,61.77755 Z M132.7037,64.0098 C132.45345,64.0098 132.2257,63.9703 132.01895,63.89055 C131.81145,63.80955 131.6337,63.6938 131.4857,63.54055 C131.33695,63.38805 131.22195,63.20055 131.14095,62.9783 C131.05995,62.75605 131.01945,62.50255 131.01945,62.22055 C131.01945,61.9438 131.0587,61.6948 131.13795,61.4733 C131.21645,61.2518 131.3272,61.0648 131.46995,60.9103 C131.61245,60.7568 131.7827,60.6378 131.98095,60.5548 C132.17995,60.47155 132.4002,60.4303 132.6407,60.4303 C132.88995,60.4303 133.1142,60.47055 133.31445,60.55155 C133.51345,60.6323 133.68495,60.74955 133.82545,60.9028 C133.96695,61.0548 134.0757,61.2433 134.1512,61.46605 C134.2277,61.68855 134.26495,61.9393 134.26495,62.22055 L134.26495,62.49205 L131.90845,62.49205 C131.9287,62.6263 131.9627,62.74405 132.01045,62.84455 C132.0582,62.94305 132.11695,63.02655 132.1852,63.09355 C132.25445,63.15955 132.33295,63.2093 132.42145,63.24355 C132.50995,63.2763 132.60345,63.2928 132.7037,63.2928 C132.77795,63.2928 132.85245,63.28055 132.92795,63.25505 C133.0027,63.23055 133.0697,63.1933 133.13045,63.1443 C133.19095,63.0953 133.23995,63.0358 133.2782,62.96555 C133.3167,62.8943 133.33695,62.81255 133.3392,62.71905 L134.23095,62.71905 C134.2002,62.92755 134.13945,63.11155 134.04995,63.2713 C133.9607,63.4308 133.84895,63.5658 133.71445,63.67455 C133.58045,63.78405 133.42745,63.8673 133.25495,63.9248 C133.0822,63.98105 132.89845,64.0098 132.7037,64.0098 L132.7037,64.0098 Z" id="Fill-26" fill="#FFFFFF"></path>
                    <path d="M137.037575,63.75435 C136.815075,63.92485 136.563075,64.0096 136.279825,64.0096 C136.044575,64.0096 135.838325,63.96835 135.658075,63.88435 C135.478575,63.80035 135.327325,63.68085 135.203825,63.5266 C135.081325,63.37335 134.988825,63.1866 134.927075,62.9696 C134.864325,62.7526 134.833575,62.51135 134.833575,62.24485 C134.833575,61.9641 134.870825,61.7116 134.947325,61.48735 C135.022575,61.26235 135.127075,61.0721 135.259075,60.9156 C135.391075,60.75835 135.546325,60.63785 135.726575,60.55485 C135.906325,60.4716 136.100075,60.43035 136.308575,60.43035 C136.580325,60.43035 136.823825,60.4921 137.037575,60.6141 L137.037575,59.30735 L137.879575,59.30735 L137.879575,63.93535 L137.037575,63.93535 L137.037575,63.75435 Z M137.037575,61.45335 C136.825825,61.2496 136.594825,61.14735 136.345825,61.14735 C136.147825,61.14735 135.991325,61.2381 135.874325,61.4201 C135.758575,61.6021 135.699825,61.8766 135.699825,62.24485 C135.699825,62.5941 135.754075,62.8561 135.863825,63.0306 C135.973325,63.20535 136.126325,63.2926 136.323575,63.2926 C136.573825,63.2926 136.811325,63.14435 137.037575,62.8476 L137.037575,61.45335 Z" id="Fill-28" fill="#FFFFFF"></path>
                    <path d="M140.86105,63.726525 C140.6163,63.915275 140.3478,64.009775 140.0563,64.009775 C139.2473,64.009775 138.84405,63.575525 138.84405,62.706775 L138.84405,60.511025 L139.6978,60.511025 L139.6978,62.678525 C139.6978,62.891025 139.7328,63.042275 139.8023,63.132775 C139.8723,63.223025 139.98505,63.267775 140.1403,63.267775 C140.3978,63.267775 140.63855,63.130525 140.86105,62.856275 L140.86105,60.511025 L141.70305,60.511025 L141.70305,63.935275 L140.86105,63.935275 L140.86105,63.726525 Z" id="Fill-30" fill="#FFFFFF"></path>
                    <path d="M144.097875,64.009725 C143.857375,64.009725 143.636875,63.970475 143.436625,63.891475 C143.237875,63.812975 143.066625,63.696975 142.923875,63.545975 C142.781125,63.393475 142.670375,63.205975 142.591875,62.983725 C142.512875,62.761225 142.473625,62.506725 142.473625,62.220725 C142.473625,61.939475 142.511875,61.688475 142.588625,61.465975 C142.665125,61.243475 142.774875,61.054975 142.917375,60.902725 C143.060125,60.749475 143.231375,60.632225 143.430625,60.551475 C143.630625,60.470725 143.853125,60.430475 144.097875,60.430475 C144.287375,60.430475 144.462875,60.457725 144.624625,60.514475 C144.787625,60.570725 144.931375,60.653475 145.056875,60.763475 C145.182625,60.874225 145.286625,61.009225 145.368875,61.170975 C145.450875,61.331725 145.506125,61.517975 145.535875,61.730975 L144.650375,61.730975 C144.645875,61.635225 144.629125,61.551225 144.600375,61.477475 C144.570625,61.405225 144.531875,61.344725 144.483125,61.295975 C144.434375,61.246725 144.376875,61.209225 144.309875,61.184725 C144.243875,61.160475 144.172625,61.147475 144.097875,61.147475 C143.986375,61.147475 143.882875,61.169975 143.791375,61.214475 C143.698625,61.259225 143.617875,61.326725 143.550875,61.416975 C143.483875,61.507225 143.431625,61.620225 143.395375,61.754475 C143.358125,61.888725 143.340125,62.043975 143.340125,62.220725 C143.340125,62.399725 143.358125,62.555975 143.395375,62.689725 C143.431625,62.823975 143.483875,62.935725 143.550875,63.025225 C143.617875,63.114725 143.698625,63.181475 143.791375,63.225475 C143.882875,63.269975 143.986375,63.292725 144.097875,63.292725 C144.169125,63.292725 144.236375,63.280475 144.301125,63.257475 C144.364875,63.232725 144.422625,63.197475 144.473625,63.149975 C144.524625,63.101725 144.566125,63.042225 144.597125,62.969725 C144.627875,62.898475 144.645875,62.814475 144.650375,62.718975 L145.535875,62.718975 C145.506125,62.933725 145.449625,63.120725 145.365625,63.281725 C145.281375,63.443725 145.175875,63.577725 145.050625,63.686225 C144.925125,63.793975 144.781125,63.874725 144.620625,63.928975 C144.458625,63.983225 144.285125,64.009725 144.097875,64.009725" id="Fill-32" fill="#FFFFFF"></path>
                    <path d="M148.126675,63.757525 C147.847925,63.925775 147.526425,64.009775 147.160175,64.009775 C146.987675,64.009775 146.826925,63.985275 146.679925,63.935275 C146.532175,63.885275 146.404425,63.814275 146.295925,63.721025 C146.188175,63.628525 146.103175,63.518025 146.040425,63.389275 C145.977675,63.260525 145.946675,63.117775 145.946675,62.962275 C145.946675,62.135275 146.629175,61.721275 147.992675,61.721275 L148.126675,61.721275 C148.124425,61.627525 148.117175,61.545775 148.105175,61.474525 C148.092425,61.404275 148.064925,61.344775 148.022425,61.295775 C147.979675,61.246775 147.918175,61.209275 147.837175,61.184775 C147.755175,61.160275 147.646675,61.147525 147.509425,61.147525 C147.103675,61.147525 146.892925,61.327525 146.875925,61.687525 L146.024425,61.687525 C146.072175,60.849525 146.579175,60.430275 147.543425,60.430275 C147.763925,60.430275 147.961675,60.450275 148.137175,60.489775 C148.312675,60.529025 148.461925,60.598525 148.585425,60.698275 C148.707925,60.798525 148.802425,60.934775 148.868675,61.107025 C148.935425,61.279775 148.968675,61.498025 148.968675,61.761775 L148.968675,63.935275 L148.126675,63.935275 L148.126675,63.757525 Z M148.126675,62.409775 L147.880925,62.409775 C147.163425,62.409775 146.804675,62.584525 146.804675,62.934525 C146.804675,63.050775 146.851425,63.138775 146.946175,63.200525 C147.040925,63.262775 147.166675,63.292775 147.321925,63.292775 C147.400675,63.292775 147.479675,63.285025 147.556175,63.269025 C147.632675,63.253775 147.707175,63.230775 147.777675,63.200525 C147.847925,63.170775 147.912925,63.132775 147.972175,63.086775 C148.031925,63.041025 148.082925,62.987775 148.126675,62.928775 L148.126675,62.409775 Z" id="Fill-34" fill="#FFFFFF"></path>
                    <path d="M151.42625,63.907425 C151.31975,63.933925 151.222,63.953425 151.1325,63.965175 C151.043,63.976675 150.959,63.982175 150.88025,63.982175 C150.68125,63.982175 150.52275,63.958675 150.4045,63.911925 C150.2875,63.865175 150.198,63.795675 150.13625,63.703175 C150.0755,63.610675 150.03525,63.494675 150.017,63.357175 C149.99775,63.218675 149.98825,63.058425 149.98825,62.875425 L149.98825,61.221925 L149.60175,61.221925 L149.60175,60.510925 L149.98825,60.510925 L149.98825,59.725175 L150.83975,59.725175 L150.83975,60.510925 L151.35075,60.510925 L151.35075,61.221925 L150.83975,61.221925 L150.83975,62.899675 C150.83975,62.979175 150.843,63.042175 150.8505,63.089925 C150.858,63.138175 150.86875,63.175175 150.8825,63.200675 C150.89525,63.226675 150.91225,63.244675 150.9335,63.252175 C150.95375,63.260425 150.977,63.264925 151.00175,63.264925 C151.05375,63.264925 151.1155,63.260425 151.188,63.252175 C151.25925,63.244675 151.339,63.232675 151.42625,63.217925 L151.42625,63.907425 Z" id="Fill-36" fill="#FFFFFF"></path>
                    <path d="M154.063925,61.77755 C154.009425,61.5648 153.921175,61.40755 153.796675,61.30305 C153.673425,61.1998 153.524175,61.1473 153.349675,61.1473 C153.181425,61.1473 153.033425,61.1998 152.906675,61.30305 C152.780175,61.40755 152.689675,61.5648 152.635425,61.77755 L154.063925,61.77755 Z M153.412425,64.0098 C153.162425,64.0098 152.934425,63.9703 152.727925,63.89055 C152.520425,63.80955 152.342675,63.6938 152.194675,63.54055 C152.045925,63.38805 151.930925,63.20055 151.849925,62.9783 C151.768925,62.75605 151.728425,62.50255 151.728425,62.22055 C151.728425,61.9438 151.767675,61.6948 151.846675,61.4733 C151.925175,61.2518 152.036175,61.0648 152.178675,60.9103 C152.321175,60.7568 152.491675,60.6378 152.689675,60.5548 C152.888925,60.47155 153.109175,60.4303 153.349675,60.4303 C153.598925,60.4303 153.823175,60.47055 154.023425,60.55155 C154.222425,60.6323 154.393675,60.74955 154.534425,60.9028 C154.675925,61.0548 154.784425,61.2433 154.859925,61.46605 C154.936675,61.68855 154.973925,61.9393 154.973925,62.22055 L154.973925,62.49205 L152.617425,62.49205 C152.637425,62.6263 152.671425,62.74405 152.719425,62.84455 C152.767175,62.94305 152.825925,63.02655 152.893925,63.09355 C152.963425,63.15955 153.041925,63.2093 153.130425,63.24355 C153.218675,63.2763 153.312175,63.2928 153.412425,63.2928 C153.486925,63.2928 153.561425,63.28055 153.636925,63.25505 C153.711425,63.23055 153.778425,63.1933 153.839175,63.1443 C153.899925,63.0953 153.948925,63.0358 153.987175,62.96555 C154.025425,62.8943 154.045925,62.81255 154.047925,62.71905 L154.939675,62.71905 C154.908925,62.92755 154.848425,63.11155 154.758675,63.2713 C154.669425,63.4308 154.557675,63.5658 154.423425,63.67455 C154.289425,63.78405 154.136425,63.8673 153.963675,63.9248 C153.791175,63.98105 153.607425,64.0098 153.412425,64.0098 L153.412425,64.0098 Z" id="Fill-38" fill="#FFFFFF"></path>
                    <path d="M14.1738,49.38985 C11.83855,49.38985 9.79705,49.08885 8.0563,48.47885 C6.30855,47.8696 4.8543,47.01785 3.6793,45.93085 C2.4968,44.83635 1.6083,43.5366 0.9988,42.0236 C0.3893,40.51085 0.0513,38.8511 5e-05,37.04435 L5.9118,37.04435 C6.0148,38.20535 6.2938,39.21085 6.7638,40.06285 C7.22655,40.9151 7.8213,41.62735 8.54105,42.1856 C9.2533,42.7436 10.0758,43.1546 11.0013,43.4191 C11.9268,43.68335 12.91055,43.8156 13.96105,43.8156 C14.9523,43.8156 15.85555,43.72035 16.6708,43.5146 C17.48605,43.3166 18.1908,43.0376 18.77105,42.6701 C19.35105,42.30285 19.7993,41.85485 20.11505,41.3261 C20.43105,40.7901 20.5853,40.19535 20.5853,39.5341 C20.5853,38.8661 20.43105,38.29285 20.12255,37.8156 C19.81405,37.34535 19.31455,36.9196 18.63155,36.54535 C17.9413,36.17085 17.03805,35.83285 15.9218,35.52435 C14.79805,35.2161 13.4248,34.89985 11.7873,34.56985 C9.9218,34.1511 8.31355,33.66635 6.96955,33.1156 C5.6183,32.56485 4.5093,31.9111 3.64255,31.15485 C2.77605,30.4056 2.13705,29.53885 1.71855,28.55485 C1.2998,27.57085 1.0943,26.4401 1.0943,25.1621 C1.0943,23.7891 1.38055,22.5256 1.95355,21.36535 C2.5263,20.21235 3.34155,19.21335 4.39905,18.37635 C5.4493,17.53935 6.71255,16.8856 8.1738,16.4081 C9.6353,15.9381 11.26555,15.69585 13.05755,15.69585 C14.92305,15.69585 16.62655,15.9526 18.1688,16.45935 C19.71105,16.9736 21.04055,17.7006 22.1568,18.65535 C23.2803,19.6101 24.15405,20.77785 24.7933,22.16585 C25.4323,23.54635 25.7698,25.1181 25.81405,26.86585 L19.96105,26.86585 C19.53505,23.1501 17.2878,21.2916 13.22655,21.2916 C11.25105,21.2916 9.73805,21.6296 8.6878,22.2906 C7.64505,22.9586 7.11655,23.87685 7.11655,25.03735 C7.11655,25.50735 7.2338,25.91835 7.46155,26.27085 C7.68905,26.6236 8.0563,26.94685 8.56305,27.24035 C9.06255,27.53435 9.7088,27.8061 10.49455,28.0481 C11.2878,28.29035 12.2423,28.52535 13.35855,28.7606 C14.3353,28.95885 15.3343,29.17935 16.3623,29.42885 C17.38305,29.67135 18.3893,29.9651 19.37355,30.3101 C20.3573,30.65535 21.2828,31.07385 22.1493,31.5661 C23.01605,32.05785 23.7798,32.66035 24.44055,33.3651 C25.10155,34.0631 25.6158,34.8931 25.99755,35.8476 C26.37955,36.8021 26.57055,37.9186 26.57055,39.1966 C26.57055,40.7021 26.26205,42.0751 25.64505,43.32335 C25.0283,44.5721 24.1688,45.64435 23.0748,46.54035 C21.97305,47.43635 20.6658,48.13385 19.1458,48.6406 C17.62555,49.1401 15.96555,49.38985 14.1738,49.38985" id="Fill-40" fill="#FFFFFF"></path>
                    <path d="M46.274875,47.649125 C44.350875,48.809625 42.132875,49.389875 39.606625,49.389875 C38.416875,49.389875 37.307875,49.220875 36.294625,48.875375 C35.273625,48.530625 34.392375,48.038625 33.643375,47.399875 C32.901625,46.760625 32.314125,45.996875 31.880875,45.108125 C31.447375,44.219375 31.234625,43.235375 31.234625,42.163625 C31.234625,36.457125 35.941875,33.600125 45.349625,33.600125 L46.274875,33.600125 C46.260125,32.954375 46.208875,32.388625 46.128125,31.896625 C46.040125,31.411625 45.849125,31.000625 45.555125,30.662625 C45.261625,30.324875 44.835625,30.067875 44.277375,29.899125 C43.712125,29.730125 42.962875,29.642125 42.015375,29.642125 C39.217375,29.642125 37.763375,30.883125 37.645875,33.365125 L31.770625,33.365125 C32.101375,27.585875 35.596875,24.692125 42.250375,24.692125 C43.770875,24.692125 45.136625,24.831625 46.348375,25.103375 C47.560125,25.375125 48.588375,25.852375 49.440125,26.542625 C50.284875,27.233125 50.938375,28.173125 51.393625,29.362625 C51.856625,30.552625 52.083875,32.057875 52.083875,33.879375 L52.083875,48.875375 L46.274875,48.875375 L46.274875,47.649125 Z M46.274875,38.351625 L44.578375,38.351625 C39.628875,38.351625 37.153875,39.556125 37.153875,41.972625 C37.153875,42.772875 37.476875,43.382375 38.130375,43.808625 C38.784125,44.234625 39.650625,44.440125 40.722875,44.440125 C41.266375,44.440125 41.809875,44.388375 42.338625,44.278375 C42.867375,44.175625 43.381625,44.013875 43.866125,43.808625 C44.350875,43.602625 44.798875,43.338625 45.210125,43.022625 C45.621375,42.706375 45.973875,42.339875 46.274875,41.928375 L46.274875,38.351625 Z" id="Fill-42" fill="#FFFFFF"></path>
                    <path d="M65.149375,30.155725 L65.149375,48.875475 L59.318125,48.875475 L59.318125,30.155725 L56.108875,30.155725 L56.108875,25.250225 L59.318125,25.250225 L59.318125,24.244225 C59.318125,18.993225 61.668375,16.363975 66.368375,16.363975 C67.058875,16.363975 67.727125,16.415725 68.373375,16.517975 C69.019375,16.613975 69.636375,16.745975 70.223875,16.900225 L70.223875,22.092475 C69.423625,21.945475 68.769625,21.849725 68.263125,21.798475 C67.763625,21.747225 67.323125,21.725225 66.955875,21.725225 C66.309625,21.725225 65.846875,21.915975 65.567625,22.290725 C65.288875,22.672725 65.149375,23.333225 65.149375,24.280725 L65.149375,25.250225 L69.232375,25.250225 L69.232375,30.155725 L65.149375,30.155725 Z" id="Fill-44" fill="#FFFFFF"></path>
                    <path d="M87.2402,33.989475 C86.8657,32.520725 86.25595,31.433725 85.3967,30.714225 C84.54495,30.001975 83.5167,29.641975 82.31245,29.641975 C81.15195,29.641975 80.1312,30.001975 79.2572,30.714225 C78.38345,31.433725 77.7592,32.520725 77.3847,33.989475 L87.2402,33.989475 Z M82.7457,49.389975 C81.01995,49.389975 79.44845,49.118475 78.0237,48.567475 C76.59145,48.008975 75.36495,47.208475 74.3442,46.150975 C73.31595,45.100725 72.52295,43.808475 71.9647,42.273725 C71.4067,40.738725 71.1277,38.990725 71.1277,37.044475 C71.1277,35.134975 71.39945,33.416725 71.94295,31.889225 C72.4862,30.361475 73.2502,29.068975 74.2342,28.004475 C75.2182,26.946975 76.3932,26.123975 77.7592,25.551475 C79.13245,24.978725 80.65245,24.692225 82.31245,24.692225 C84.03095,24.692225 85.58045,24.970975 86.9612,25.529225 C88.3347,26.087725 89.5167,26.895225 90.4862,27.952975 C91.4632,29.002975 92.2122,30.302725 92.73345,31.837975 C93.2622,33.372725 93.5192,35.105725 93.5192,37.044475 L93.5192,38.917475 L77.2597,38.917475 C77.3992,39.842975 77.63445,40.657725 77.96495,41.347975 C78.29545,42.031225 78.6992,42.603975 79.16945,43.066475 C79.64645,43.521975 80.1902,43.867475 80.7997,44.101975 C81.4092,44.329725 82.0557,44.440225 82.7457,44.440225 C83.2597,44.440225 83.77395,44.359225 84.29545,44.182725 C84.80945,44.013975 85.2722,43.757225 85.69095,43.419225 C86.10945,43.081475 86.44695,42.670225 86.7117,42.185475 C86.97595,41.692975 87.11545,41.127725 87.1302,40.481725 L93.2842,40.481725 C93.0712,41.921225 92.6527,43.191725 92.03595,44.293225 C91.4192,45.394725 90.6477,46.327225 89.7227,47.076475 C88.7972,47.832725 87.7397,48.405475 86.54995,48.802475 C85.3602,49.191725 84.08945,49.389975 82.7457,49.389975 L82.7457,49.389975 Z" id="Fill-46" fill="#FFFFFF"></path>
                    <path d="M104.30025,48.7507 C104.30025,50.5132 104.15325,51.95295 103.852,53.06895 C103.551,54.1777 103.11775,55.0442 102.5525,55.6687 C101.9795,56.29295 101.2965,56.71895 100.496,56.9392 C99.68825,57.1597 98.78475,57.26945 97.78625,57.26945 C97.16925,57.26945 96.5595,57.2402 95.9575,57.1887 C95.3555,57.13045 94.753,57.06395 94.1435,56.9907 L94.1435,51.50495 C95.01,51.7907 95.67075,51.9747 96.1265,52.0557 C96.58925,52.13595 96.9635,52.1727 97.2645,52.1727 C97.51425,52.1727 97.7125,52.1217 97.86725,52.02595 C98.0285,51.9232 98.1535,51.73245 98.24875,51.4607 C98.337,51.1887 98.403,50.82895 98.43975,50.37395 C98.4765,49.92595 98.49125,49.3387 98.49125,48.62595 L98.49125,23.8037 C100.652,23.31245 102.58975,22.67845 104.30025,21.86095 L104.30025,48.7507 Z" id="Fill-48" fill="#FFFFFF"></path>
                    <path d="M120.030975,44.44015 C120.809225,44.44015 121.514475,44.2859 122.153225,43.97715 C122.792225,43.67615 123.335725,43.2139 123.798475,42.5969 C124.253975,41.97965 124.613725,41.2089 124.863475,40.2834 C125.112975,39.3579 125.237725,38.2784 125.237725,37.0444 C125.237725,35.8254 125.112975,34.75315 124.863475,33.82815 C124.613725,32.9029 124.253975,32.1244 123.798475,31.4999 C123.335725,30.8759 122.792225,30.41315 122.153225,30.1044 C121.514475,29.79615 120.809225,29.64215 120.030975,29.64215 C119.259975,29.64215 118.547475,29.79615 117.908725,30.1044 C117.276975,30.41315 116.725975,30.8759 116.263475,31.4999 C115.807975,32.1244 115.455475,32.9029 115.198475,33.82815 C114.948975,34.75315 114.824225,35.8254 114.824225,37.0444 C114.824225,38.2784 114.948975,39.3579 115.198475,40.2834 C115.455475,41.2089 115.807975,41.97965 116.263475,42.5969 C116.725975,43.2139 117.276975,43.67615 117.908725,43.97715 C118.547475,44.2859 119.259975,44.44015 120.030975,44.44015 M120.030975,24.69215 C121.749475,24.69215 123.298975,24.9714 124.679975,25.52915 C126.052975,26.08765 127.235225,26.89515 128.204725,27.95315 C129.181475,29.0029 129.930725,30.30265 130.451975,31.8379 C130.980725,33.37265 131.237725,35.10565 131.237725,37.0444 C131.237725,38.99065 130.973475,40.73865 130.437225,42.27365 C129.893725,43.80865 129.137475,45.1009 128.160725,46.1514 C127.191225,47.2084 126.008975,48.0089 124.635725,48.5674 C123.254975,49.1184 121.727475,49.39015 120.030975,49.39015 C118.371225,49.39015 116.843725,49.1184 115.470475,48.5744 C114.089725,48.03115 112.914725,47.2309 111.930725,46.1879 C110.946475,45.1374 110.190225,43.84515 109.653975,42.31015 C109.110475,40.77515 108.846475,39.02015 108.846475,37.0444 C108.846475,35.10565 109.110475,33.37265 109.639475,31.8379 C110.168225,30.30265 110.924475,29.0029 111.908725,27.95315 C112.892725,26.89515 114.075225,26.08765 115.448225,25.52915 C116.828975,24.9714 118.356725,24.69215 120.030975,24.69215" id="Fill-50" fill="#FFFFFF"></path>
                    <g id="Group-54" transform="translate(135.750000, 16.713750)">
                        <mask id="mask-4" fill="white">
                            <use xlink:href="#path-3"></use>
                        </mask>
                        <g id="Clip-53"></g>
                        <path d="M5.8962,25.68465 C7.32845,27.05065 8.91445,27.7264 10.6477,27.7264 C12.01395,27.7264 13.0932,27.0949 13.88645,25.8244 C14.6867,24.5539 15.08345,22.66615 15.08345,20.15515 C15.08345,17.76065 14.7087,15.95415 13.9527,14.74215 C13.2032,13.53015 12.1532,12.9284 10.8017,12.9284 C9.0907,12.9284 7.46045,13.95665 5.8962,16.0274 L5.8962,25.68465 Z M5.8962,9.71915 C6.6672,9.14615 7.4897,8.7129 8.35645,8.41915 C9.2302,8.1254 10.14845,7.9784 11.1252,7.9784 C12.7187,7.9784 14.12895,8.2724 15.36245,8.85215 C16.59645,9.43265 17.6392,10.25515 18.4837,11.3274 C19.3282,12.3924 19.96695,13.67715 20.4077,15.17565 C20.84845,16.67365 21.06145,18.33315 21.06145,20.15515 C21.06145,22.0494 20.8042,23.7679 20.2902,25.3099 C19.7762,26.8524 19.05645,28.16715 18.1457,29.25365 C17.23495,30.3479 16.16295,31.1929 14.92195,31.78765 C13.6807,32.3824 12.33695,32.6764 10.88995,32.6764 C9.89845,32.6764 9.0027,32.5879 8.20945,32.3969 C7.40895,32.21315 6.63795,31.89765 5.8962,31.44965 L5.8962,32.1619 L0.0652,32.1619 L0.0652,0.2309 L5.8962,0.2309 L5.8962,9.71915 Z" id="Fill-52" fill="#FFFFFF" mask="url(#mask-4)"></path>
                    </g>
                    <g id="Group-57" transform="translate(97.250000, 0.213750)">
                        <mask id="mask-6" fill="white">
                            <use xlink:href="#path-5"></use>
                        </mask>
                        <g id="Clip-56"></g>
                        <path d="M14.726025,0.036225 C10.288275,5.453725 -2.917725,2.953225 0.923025,20.851225 C5.703525,8.655975 9.351025,9.597975 13.217775,3.105725 C11.721775,7.781225 4.563275,11.288475 1.502025,21.772975 C11.364275,19.532475 16.041275,13.966975 14.726025,0.036225" id="Fill-55" fill="#FFFFFF" mask="url(#mask-6)"></path>
                    </g>
                </g>
            </g>
        </g>
    </g>
</svg>