<?xml version="1.0" encoding="UTF-8"?>
<svg width="20px" height="20px" viewBox="0 0 20 20" version="1.1" xmlns="http://www.w3.org/2000/svg" xmlns:xlink="http://www.w3.org/1999/xlink">
    <!-- Generator: sketchtool 63.1 (101010) - https://sketch.com -->
    <title>9E4EE32E-79C0-4BFD-A630-545453DC6ADB</title>
    <desc>Created with sketchtool.</desc>
    <defs>
        <polygon id="path-1" points="0 0 20 0 20 20 0 20"></polygon>
    </defs>
    <g id="Page-2" stroke="none" stroke-width="1" fill="none" fill-rule="evenodd">
        <g id="1.1-Admin-Industries" transform="translate(-30.000000, -766.000000)">
            <g id="::-Bottom-Area-::">
                <g id="::-Left-Panel-::">
                    <g id="logout" transform="translate(28.000000, 764.000000)">
                        <g>
                            <rect id="Rectangle-Copy-6" fill="#D8D8D8" fill-rule="nonzero" opacity="0" x="0" y="0" width="24" height="24"></rect>
                            <g id="Clip-2" opacity="0" transform="translate(2.000000, 2.000000)" fill="#FFFFFF" fill-rule="nonzero">
                                <polygon id="path-1" points="0 0 20 0 20 20 0 20"></polygon>
                            </g>
                            <g id="icon-Clipped" transform="translate(2.000000, 2.000000)">
                                <mask id="mask-2" fill="white">
                                    <use xlink:href="#path-1"></use>
                                </mask>
                                <g id="path-1"></g>
                                <g id="icon" mask="url(#mask-2)" fill="#0098D6" fill-rule="nonzero">
                                    <g id="Path">
                                        <path d="M9.30612245,20 C10.7939099,20 12,18.7988127 12,17.3170732 L12,14.6219512 C12,14.2178404 11.6710663,13.8902439 11.2653061,13.8902439 C10.8595459,13.8902439 10.5306122,14.2178404 10.5306122,14.6219512 L10.5306122,17.3170732 C10.5306122,17.9905912 9.98238949,18.5365854 9.30612245,18.5365854 L2.69387755,18.5365854 C2.01761051,18.5365854 1.46938776,17.9905912 1.46938776,17.3170732 L1.46938776,2.68292683 C1.46938776,2.00940884 2.01761051,1.46341463 2.69387755,1.46341463 L9.30612245,1.46341463 C9.98238949,1.46341463 10.5306122,2.00940884 10.5306122,2.68292683 L10.5306122,5.41463415 C10.5306122,5.81874494 10.8595459,6.14634146 11.2653061,6.14634146 C11.6710663,6.14634146 12,5.81874494 12,5.41463415 L12,2.68292683 C12,1.20118726 10.7939099,0 9.30612245,0 L2.69387755,0 C1.20609006,0 0,1.20118726 0,2.68292683 L0,17.3170732 C0,18.7988127 1.20609006,20 2.69387755,20 L9.30612245,20 Z"></path>
                                        <path d="M19.7601397,9.40734829 L14.8880619,4.19966972 C14.6138245,3.92653059 14.1864737,3.93459007 13.9214215,4.21789977 C13.6563692,4.50120946 13.6488291,4.95799723 13.9043662,5.25112482 L17.6280257,9.233759 L6.69601109,9.233759 C6.31161477,9.23375902 6,9.5668386 6,9.97771308 C6,10.3885876 6.31161477,10.7216671 6.69601109,10.7216672 L17.6280257,10.7216672 L13.8950861,14.7117409 C13.7088769,14.8972043 13.6322266,15.1765193 13.6952051,15.4401105 C13.7581835,15.7037018 13.9507463,15.9095287 14.1973508,15.9768453 C14.4439553,16.0441618 14.7052703,15.9622317 14.8787818,15.763196 L19.7508596,10.5555174 C19.9087712,10.414165 20,10.2053122 20,9.98515262 C20,9.76499308 19.9087712,9.55614024 19.7508596,9.41478783 L19.7601397,9.40734829 Z"></path>
                                    </g>
                                </g>
                            </g>
                        </g>
                    </g>
                </g>
            </g>
        </g>
    </g>
</svg>