<?xml version="1.0" encoding="UTF-8"?>
<svg width="164px" height="45px" viewBox="0 0 164 45" version="1.1" xmlns="http://www.w3.org/2000/svg" xmlns:xlink="http://www.w3.org/1999/xlink">
    <!-- Generator: sketchtool 60.1 (101010) - https://sketch.com -->
    <title>55C8F864-DD13-40D3-9285-64ED97F5CB89</title>
    <desc>Created with sketchtool.</desc>
    <defs>
        <polygon id="path-1" points="0.12618 0.07938 81.18162 0.07938 81.18162 21.02958 0.12618 21.02958"></polygon>
        <polygon id="path-3" points="0 0.00666 41.54562 0.00666 41.54562 44.0892 0 44.0892"></polygon>
        <polygon id="path-5" points="0 0.00666 41.54562 0.00666 41.54562 44.0892 0 44.0892"></polygon>
    </defs>
    <g id="Page-2" stroke="none" stroke-width="1" fill="none" fill-rule="evenodd">
        <g id="14.3-Home" transform="translate(-1027.000000, -3687.000000)">
            <g id="::-150-Companies-::" transform="translate(150.000000, 3613.000000)">
                <g id="Group-17" transform="translate(607.000000, 74.000000)">
                    <g id="1" transform="translate(270.000000, 0.000000)">
                        <path d="M63.59022,16.8606 C61.48494,16.8606 60.44346,18.51732 59.96556,19.58598 C59.69862,20.18268 59.62392,20.65446 59.40738,20.65446 C59.10228,20.65446 59.3208,20.24442 59.07114,19.33506 C58.74264,18.1386 57.75246,16.8606 55.64862,16.8606 C53.43678,16.8606 52.4898,18.72936 52.0407,19.75626 C51.73362,20.45826 51.73326,20.65446 51.4971,20.65446 C51.15492,20.65446 51.43842,20.09682 51.59232,19.44126 C51.89562,18.15048 51.66504,17.16408 51.66504,17.16408 L48.15882,17.16408 L48.15882,30.34836 L52.94466,30.34836 L52.94466,23.78862 C52.94466,22.49478 53.48592,20.853 54.41364,20.853 C55.48554,20.853 55.7001,21.67614 55.7001,23.20056 L55.7001,30.35124 L60.5052,30.35124 L60.5052,23.78862 C60.5052,22.63698 60.97518,20.853 61.9812,20.853 C63.06804,20.853 63.26046,22.0095 63.26046,23.20056 L63.26046,30.34836 L67.97916,30.34836 L67.97916,22.59522 C67.97916,19.15452 66.76632,16.8606 63.59022,16.8606 M144.82296,16.8606 C142.71768,16.8606 141.67602,18.51732 141.19812,19.58598 C140.93118,20.18268 140.85666,20.65446 140.63994,20.65446 C140.33484,20.65446 140.53914,20.13354 140.30388,19.33506 C139.95324,18.1449 139.08078,16.8606 136.88136,16.8606 C134.66952,16.8606 133.72236,18.72936 133.27344,19.75626 C132.96636,20.45826 132.966,20.65446 132.72984,20.65446 C132.38766,20.65446 132.67098,20.09682 132.82506,19.44126 C133.12836,18.15048 132.89778,17.16408 132.89778,17.16408 L129.39138,17.16408 L129.39138,30.34836 L134.1774,30.34836 L134.1774,23.78862 C134.1774,22.49478 134.71866,20.853 135.64638,20.853 C136.7181,20.853 136.93266,21.67614 136.93266,23.20056 L136.93266,30.35124 L141.73776,30.35124 L141.73776,23.78862 C141.73776,22.63698 142.20792,20.853 143.21394,20.853 C144.30078,20.853 144.4932,22.0095 144.4932,23.20056 L144.4932,30.34836 L149.2119,30.34836 L149.2119,22.59522 C149.2119,19.15452 147.99906,16.8606 144.82296,16.8606 M74.98584,27.26694 C73.8414,27.53118 73.24812,27.17874 73.24812,26.42022 C73.24812,25.38108 74.3229,24.96492 75.85704,24.96492 C76.5333,24.96492 77.16924,25.02342 77.16924,25.02342 C77.16924,25.4682 76.20372,26.98596 74.98584,27.26694 L74.98584,27.26694 Z M76.15098,16.86348 C72.48492,16.86348 69.8544,18.21132 69.8544,18.21132 L69.8544,22.17312 C69.8544,22.17312 72.75942,20.5029 75.11598,20.5029 C76.99698,20.5029 77.2281,21.51738 77.14242,22.35942 C77.14242,22.35942 76.60008,22.21578 74.94444,22.21578 C71.04384,22.21578 69.07464,23.9886 69.07464,26.83134 C69.07464,29.52774 71.28774,30.6549 73.15218,30.6549 C75.87288,30.6549 77.0688,28.82664 77.43636,27.95922 C77.69142,27.35748 77.73786,26.95194 77.967,26.95194 C78.228,26.95194 78.14016,27.24282 78.12756,27.84168 C78.10542,28.89054 78.15474,29.68344 78.32106,30.35124 L81.92826,30.35124 L81.92826,23.86278 C81.92826,19.8117 80.49492,16.86348 76.15098,16.86348 L76.15098,16.86348 Z M89.81154,30.35124 L94.59756,30.35124 L94.59756,13.17294 L89.81154,13.17294 L89.81154,30.35124 Z M99.86544,23.7591 C99.86544,22.57362 100.96668,21.49506 102.98862,21.49506 C105.19164,21.49506 106.96356,22.5558 107.361,22.79664 L107.361,18.21132 C107.361,18.21132 105.96114,16.86348 102.52044,16.86348 C98.89344,16.86348 95.87304,18.98586 95.87304,23.5539 C95.87304,28.12194 98.61408,30.6549 102.51072,30.6549 C105.55434,30.6549 107.36874,28.98252 107.36874,28.98252 L107.36874,24.62724 C106.79472,24.94854 105.19524,26.05842 103.01058,26.05842 C100.69722,26.05842 99.86544,24.99426 99.86544,23.7591 M117.0558,16.86348 C114.28524,16.86348 113.23152,19.48896 113.01876,19.9449 C112.80582,20.40066 112.7007,20.66292 112.52646,20.65734 C112.22406,20.64744 112.43484,20.09772 112.55274,19.74168 C112.77558,19.0692 113.24772,17.30466 113.24772,15.13602 C113.24772,13.66506 113.04882,13.17294 113.04882,13.17294 L108.91728,13.17294 L108.91728,30.35124 L113.7033,30.35124 L113.7033,23.79168 C113.7033,22.72302 114.12972,20.85588 115.33536,20.85588 C116.334,20.85588 116.64666,21.59586 116.64666,23.0859 L116.64666,30.35124 L121.43268,30.35124 L121.43268,23.37264 C121.43268,19.98828 120.87162,16.86348 117.0558,16.86348 M122.98806,17.18208 L122.98806,30.35124 L127.77408,30.35124 L127.77408,17.18208 C127.77408,17.18208 126.96966,17.6526 125.38602,17.6526 C123.80256,17.6526 122.98806,17.18208 122.98806,17.18208 M125.36694,13.03938 C123.74892,13.03938 122.43726,13.89546 122.43726,14.95152 C122.43726,16.0074 123.74892,16.86348 125.36694,16.86348 C126.98478,16.86348 128.29662,16.0074 128.29662,14.95152 C128.29662,13.89546 126.98478,13.03938 125.36694,13.03938 M83.47698,17.18208 L83.47698,30.35124 L88.26282,30.35124 L88.26282,17.18208 C88.26282,17.18208 87.4584,17.6526 85.87476,17.6526 C84.2913,17.6526 83.47698,17.18208 83.47698,17.18208" id="Shape" fill="#533092" fill-rule="nonzero"></path>
                        <g id="Group" transform="translate(82.800000, 12.960000)">
                            <g id="Clipped">
                                <mask id="mask-2" fill="white">
                                    <use xlink:href="#path-1"></use>
                                </mask>
                                <g id="a"></g>
                                <path d="M3.05568,0.07938 C1.43784,0.07938 0.12618,0.93546 0.12618,1.99152 C0.12618,3.0474 1.43784,3.90348 3.05568,3.90348 C4.6737,3.90348 5.98536,3.0474 5.98536,1.99152 C5.98536,0.93546 4.6737,0.07938 3.05568,0.07938 M74.60694,14.55804 C73.50912,14.55804 72.70164,13.1661 72.70164,11.2266 C72.70164,9.34308 73.53108,7.89588 74.56896,7.89588 C75.90096,7.89588 76.4685,9.11718 76.4685,11.2266 C76.4685,13.42098 75.94524,14.55804 74.60694,14.55804 L74.60694,14.55804 Z M75.92058,3.9006 C73.46034,3.9006 72.33282,5.74542 71.84268,6.79626 C71.51868,7.4907 71.53524,7.69446 71.2989,7.69446 C70.95672,7.69446 71.2404,7.13682 71.39448,6.48126 C71.6976,5.19048 71.46702,4.20408 71.46702,4.20408 L67.96062,4.20408 L67.96062,21.02958 L72.74664,21.02958 L72.74664,15.6951 C73.31292,16.65576 74.36196,17.6823 75.97926,17.6823 C79.43994,17.6823 81.1818,14.75424 81.1818,10.79802 C81.1818,6.31404 79.09668,3.9006 75.92058,3.9006 L75.92058,3.9006 Z" id="Shape" fill="#533092" fill-rule="nonzero" mask="url(#mask-2)"></path>
                            </g>
                        </g>
                        <path d="M31.25106,20.84292 C31.5729,20.80458 31.88124,20.80278 32.16456,20.84292 C32.32854,20.4669 32.3568,19.81854 32.2092,19.11258 C31.98996,18.06318 31.69332,17.42814 31.08006,17.52696 C30.46698,17.62578 30.4443,18.3861 30.66354,19.4355 C30.78684,20.02572 31.00644,20.53026 31.25106,20.84292 M25.98696,21.67326 C26.42562,21.86586 26.69526,21.99348 26.80074,21.88188 C26.8686,21.8124 26.84844,21.67974 26.74368,21.50856 C26.52714,21.15504 26.08164,20.79666 25.60914,20.59524 C24.64272,20.17926 23.49018,20.31768 22.60098,20.9565 C22.30758,21.1716 22.0293,21.4695 22.06908,21.6504 C22.08204,21.7089 22.12596,21.753 22.22892,21.7674 C22.47102,21.79512 23.31666,21.36744 24.29082,21.30786 C24.97842,21.26574 25.54812,21.48084 25.98696,21.67326 M25.10442,22.1769 C24.53292,22.26708 24.21774,22.45554 24.01542,22.63068 C23.8428,22.78152 23.73606,22.94838 23.7369544,23.06574 C23.73732,23.12154 23.76162,23.15376 23.7807,23.16996 C23.8064213,23.193237 23.8399718,23.205963 23.87466,23.2056076 C24.00372,23.2056076 24.2928,23.0895 24.2928,23.0895 C25.08804,22.80492 25.61256,22.83948 26.1324,22.8987 C26.41968,22.93092 26.5554,22.94874 26.6184,22.85028 C26.63712,22.82202 26.65962,22.76082 26.6022,22.66758 C26.46828,22.4505 25.89138,22.08348 25.10442,22.1769 M29.47356,24.0255 C29.86146,24.21612 30.2886,24.14124 30.42774,23.85828 C30.5667,23.5755 30.36492,23.19156 29.97684,23.00076 C29.58894,22.81032 29.1618,22.88502 29.02266,23.16798 C28.8837,23.45094 29.08548,23.8347 29.47356,24.0255 M31.96782,21.84588 C31.65264,21.84048 31.39128,22.18662 31.3839,22.6188 C31.37652,23.05116 31.62618,23.40576 31.94136,23.41116 C32.25654,23.41656 32.51808,23.07042 32.52528,22.63824 C32.53266,22.20588 32.283,21.8511 31.96782,21.84588" id="Shape" fill="#533092" fill-rule="nonzero"></path>
                        <g id="Clipped">
                            <mask id="mask-4" fill="white">
                                <use xlink:href="#path-3"></use>
                            </mask>
                            <g id="c"></g>
                            <path d="M10.79658,29.6397 C10.71828,29.54142 10.5894,29.5713 10.46466,29.60046 C10.37754,29.6208 10.2789,29.64366 10.17072,29.64186 C9.93888,29.63736 9.7425,29.53836 9.63234,29.36898 C9.4887,29.14848 9.49698,28.81962 9.65556,28.44342 C9.6768,28.39248 9.702,28.33614 9.72954,28.27476 C9.98226,27.70758 10.40526,26.75826 9.93024,25.85376 C9.57276,25.173 8.98974,24.74892 8.28864,24.66 C7.61544,24.57468 6.92262,24.82416 6.48072,25.31178 C5.7834,26.0811 5.67432,27.12798 5.80914,27.49788 C5.85864,27.63324 5.93586,27.67068 5.99202,27.67842 C6.11082,27.69426 6.28614,27.60804 6.39612,27.3123 C6.40404,27.29106 6.41448,27.25812 6.42744,27.21618 C6.4764,27.05994 6.56766,26.76888 6.71706,26.5356 C6.89616434,26.2549125 7.18082169,26.0582413 7.50672,25.99002 C7.83957823,25.9177534 8.18751464,25.9827076 8.47188,26.1702 C8.9604,26.4897 9.1485,27.0882 8.93988,27.65934 C8.83224,27.95472 8.6571,28.51938 8.69562,28.9836 C8.77374,29.92266 9.35154,30.29994 9.87048,30.34008 C10.37502,30.35898 10.72782,30.07584 10.8171,29.86866 C10.86966,29.74626 10.8252,29.67174 10.79658,29.6397" id="Path" fill="#533092" fill-rule="nonzero" mask="url(#mask-4)"></path>
                        </g>
                        <g id="Clipped">
                            <mask id="mask-6" fill="white">
                                <use xlink:href="#path-5"></use>
                            </mask>
                            <g id="c"></g>
                            <path d="M15.59412,12.38958 C17.23986,10.48752 19.26612,8.83404 21.08106,7.90542 C21.14388,7.87338 21.21048,7.9416 21.17646,8.00316 C21.03228,8.26434 20.7549,8.82306 20.66688,9.24696 C20.6532,9.31302 20.72502,9.3627 20.78082,9.32472 C21.90996,8.55504 23.8743,7.73028 25.59726,7.62426 C25.67124,7.61976 25.70706,7.71462 25.6482,7.7598 C25.38612,7.96086 25.09956,8.23896 24.89022,8.5203 C24.8736966,8.54235372 24.8709467,8.57181423 24.8831031,8.59654498 C24.8952596,8.62127573 24.9202657,8.63709273 24.94782,8.63748 C26.1576,8.64612 27.8631,9.06948 28.97478,9.693 C29.05002,9.73512 28.99638,9.88074 28.91232,9.86148 C27.2304,9.4761 24.4773,9.1836 21.61746,9.8811 C19.06434,10.50372 17.11566,11.46528 15.69402,12.4992 C15.6222,12.55158 15.53598,12.45672 15.59412,12.38958 L15.59412,12.38958 Z M30.57876,31.6179 C30.6296555,31.5948557 30.6604139,31.5421476 30.65544,31.4865 C30.6521694,31.4538505 30.6360382,31.4238454 30.6106078,31.4031094 C30.5851775,31.3823734 30.5525396,31.3726118 30.5199,31.37598 C30.5199,31.37598 27.00738,31.89582 23.68926,30.68118 C24.0507,29.5065 25.01172,29.93058 26.46432,30.04794 C29.0826,30.204 31.42908,29.8215 33.16338,29.32362 C34.6662,28.89252 36.6399,28.0422 38.17296,26.83206 C38.6901,27.96804 38.87262,29.21796 38.87262,29.21796 C38.87262,29.21796 39.27294,29.1465 39.60738,29.35224 C39.92346,29.54682 40.1553,29.9511 39.9969,30.99654 C39.67452,32.94972 38.84436,34.5348 37.44918,35.99316 C36.59976,36.90738 35.56872,37.70226 34.389,38.28024 C33.7477105,38.617037 33.0792354,38.8993115 32.39064,39.12408 C27.13068,40.842 21.7467,38.95344 20.01114,34.89768 C19.8703314,34.5879321 19.7539957,34.267633 19.6632,33.93972 C18.92358,31.26708 19.55142,28.06056 21.51414,26.04222 L21.51414,26.04114 C21.6351,25.91262 21.75858,25.76124 21.75858,25.5708 C21.75858,25.4115 21.65742,25.24338 21.56958,25.12422 C20.88288,24.12828 18.50436,22.43106 18.98172,19.1466 C19.32462,16.78698 21.38814,15.12522 23.31216,15.22368 C23.4747,15.23196 23.6376,15.24204 23.79978,15.25158 C24.63354,15.30108 25.36092,15.408 26.04726,15.43662 C27.19602,15.4863 28.22904,15.31926 29.4525,14.29992 C29.86524,13.95594 30.19608,13.65768 30.75606,13.563 C30.81492,13.55292 30.96126,13.50036 31.25394,13.51422 C31.55256,13.53006 31.83696,13.61214 32.09238,13.78224 C33.07338,14.43492 33.21234,16.01568 33.26328,17.17218 C33.29226,17.83224 33.37218,19.42938 33.39936,19.88784 C33.46182,20.93616 33.7374,21.08394 34.29486,21.26754 C34.60842,21.37086 34.89948,21.44772 35.32842,21.56814 C36.62676,21.93264 37.39662,22.30254 37.88172,22.77756 C38.17116,23.07438 38.3058,23.38992 38.34738,23.6907 C38.50038,24.8076 37.48014,26.1873 34.77942,27.441 C31.82706,28.81116 28.24542,29.1582 25.77078,28.88262 C25.58106,28.86156 24.90606,28.78506 24.90372,28.7847 C22.92426,28.51812 21.79512,31.07628 22.98312,32.82894 C23.74884,33.95844 25.83432,34.69356 27.92088,34.69392 C32.7051,34.69464 36.38232,32.65146 37.75014,30.8871 C37.79118,30.83436 37.79514,30.8286 37.85958,30.73104 C37.9269,30.6297 37.87146,30.57372 37.78758,30.63114 C36.66996,31.39578 31.7061,34.43166 26.39646,33.51834 C26.39646,33.51834 25.75134,33.41232 25.16238,33.18318 C24.69438,33.0012 23.71482,32.55048 23.59584,31.54554 C27.88074,32.8707 30.57876,31.6179 30.57876,31.6179 L30.57876,31.6179 Z M7.0434,21.43476 C5.55318,21.72456 4.23972,22.56912 3.43656,23.7357 C2.9565,23.33538 2.06226,22.5603 1.90422,22.25826 C0.62208,19.82358 3.30372,15.08958 5.17698,12.4164 C9.80658,5.80968 17.0577,0.80892 20.41434,1.7163 C20.9601,1.87074 22.7673,3.96612 22.7673,3.96612 C22.7673,3.96612 19.4121,5.82786 16.30044,8.42292 C12.1077,11.65122 8.9406,16.34328 7.0434,21.43476 Z M9.54738,32.60736 C9.32027136,32.6455712 9.08999924,32.6617265 8.85978,32.6556 C6.6177,32.59548 4.19562,30.57678 3.95496,28.18296 C3.68892,25.53696 5.0409,23.50062 7.43472,23.01768 C7.72092,22.96008 8.0667,22.92678 8.43966,22.94622 C9.78084,23.01966 11.75742,24.04944 12.20886,26.97138 C12.60882,29.55906 11.9736,32.19354 9.54738,32.60736 L9.54738,32.60736 Z M39.92112,27.92196 C39.90186,27.8541 39.77676,27.39672 39.60486,26.84556 C39.43296,26.29422 39.25494,25.90632 39.25494,25.90632 C39.94452,24.87384 39.95676,23.95062 39.86514,23.42754 C39.76722,22.77936 39.4974,22.22694 38.95344,21.65598 C38.40948,21.08502 37.29708,20.5002 35.7336,20.06118 C35.55486,20.01096 34.96518,19.84914 34.91334,19.83348 C34.90938,19.79964 34.87014,17.89956 34.83468,17.08398 C34.80876,16.4943 34.75818,15.57378 34.47252,14.66694 C34.13214,13.43988 33.53904,12.366 32.79888,11.67894 C34.8417,9.56142 36.117,7.22862 36.11394,5.2272 C36.108,1.3788 31.38156,0.2142 25.55694,2.6262 C25.55082,2.62872 24.33168,3.14568 24.32286,3.15018 C24.31728,3.14478 22.09176,0.96102 22.05828,0.93186 C15.41736,-4.86054 -5.34582,18.21834 1.29258,23.82354 L2.74338,25.05258 C2.367,26.02746 2.21922,27.14436 2.34,28.3455 C2.49498,29.8881 3.29076,31.3668 4.58046,32.50926 C5.80482,33.59412 7.41456,34.28064 8.9766,34.27938 C11.55996,40.23252 17.46252,43.88454 24.38316,44.0901 C31.8069,44.3106 38.03868,40.82706 40.64994,34.56972 C40.82076,34.13052 41.54562,32.15178 41.54562,30.40506 C41.54562,28.64952 40.5531,27.92196 39.92112,27.92196 L39.92112,27.92196 Z" id="Shape" fill="#533092" fill-rule="nonzero" mask="url(#mask-6)"></path>
                        </g>
                    </g>
                </g>
            </g>
        </g>
    </g>
</svg>