<?xml version="1.0" encoding="UTF-8"?>
<svg width="16px" height="12px" viewBox="0 0 16 12" version="1.1" xmlns="http://www.w3.org/2000/svg" xmlns:xlink="http://www.w3.org/1999/xlink">
    <!-- Generator: Sketch 61.2 (89653) - https://sketch.com -->
    <title>mail</title>
    <desc>Created with Sketch.</desc>
    <g id="Color-Change" stroke="none" stroke-width="1" fill="none" fill-rule="evenodd">
        <g id="add.svg" transform="translate(-790.000000, -60.000000)" fill-rule="nonzero">
            <g id="mail" transform="translate(786.000000, 54.000000)">
                <rect id="Rectangle" fill="#D8D8D8" opacity="0" x="0" y="0" width="24" height="24"></rect>
                <path d="M5.17073167,6.66666667 C4.5221463,6.66666667 4,7.19525897 4,7.85185119 L4,16.1481488 C4,16.804741 4.5221463,17.3333333 5.17073167,17.3333333 L18.8292683,17.3333333 C19.4778537,17.3333333 20,16.804741 20,16.1481488 L20,7.85185119 C20,7.19525897 19.4778537,6.66666667 18.8292683,6.66666667 L5.17073167,6.66666667 Z M5.99391216,8.63581125 C6.12128777,8.62395941 6.23075119,8.67188037 6.31098533,8.74690255 L11.4512195,13.5555577 C11.7714146,13.8553698 12.2156097,13.8553896 12.5365853,13.5555577 L17.6890146,8.74690255 C17.8390829,8.60630016 18.1019707,8.61659151 18.2408585,8.76851241 C18.3797463,8.92043332 18.3695805,9.1865665 18.2195122,9.32716889 L15.304878,12.0493857 L18.2134244,14.6666681 C18.3870829,14.7971372 18.4158829,15.0842482 18.2716878,15.2473888 C18.1274927,15.4105492 17.842439,15.4133542 17.6951219,15.2531172 L14.7317073,12.586452 L13.0670829,14.135824 C12.4613268,14.7016904 11.5262049,14.7027768 10.9207414,14.135824 L9.26829266,12.586452 L6.30487802,15.2531172 C6.15756094,15.4133739 5.87250728,15.410569 5.72831216,15.2473888 C5.58411704,15.0842482 5.61291704,14.7971372 5.78657558,14.6666681 L8.69512192,12.0493857 L5.78048777,9.32716889 C5.66647801,9.22713932 5.61857557,9.05651225 5.66359021,8.91073456 C5.70858533,8.76497661 5.84394143,8.65232482 5.99391216,8.63581125 Z" id="Shape" fill="#0098D6"></path>
            </g>
        </g>
    </g>
</svg>