<?xml version="1.0" encoding="UTF-8"?>
<svg width="422px" height="420px" viewBox="0 0 422 420" version="1.1" xmlns="http://www.w3.org/2000/svg" xmlns:xlink="http://www.w3.org/1999/xlink">
    <!-- Generator: Sketch 61.2 (89653) - https://sketch.com -->
    <title>Mask</title>
    <desc>Created with Sketch.</desc>
    <g id="Color-Change" stroke="none" stroke-width="1" fill="none" fill-rule="evenodd" opacity="0.0849609375">
        <g id="add.svg" transform="translate(-48.000000, -155.000000)" fill="#0098D6" fill-rule="nonzero">
            <g id="Mask" transform="translate(48.000000, 155.000000)">
                <path d="M422,296.943811 C417.41604,291.994476 413.740903,285.291473 408.111017,282.358525 C308.603086,230.542957 267.0697,128.232971 302.026036,21.530232 C303.9526,15.652309 302.402342,3.960126 298.583357,1.771469 C288.301943,-4.124845 284.637305,5.951062 280.715034,13.651785 C231.164777,110.912102 125.794768,153.567683 22.95541,118.069188 C14.928266,115.297538 5.736189,110.491775 1.15405,121.642402 C-3.410912,132.759742 6.533583,135.789602 14.085924,139.647121 C94.652309,180.809715 140.113613,264.281466 128.752433,352.118931 C126.527849,369.319984 119.601859,385.875878 116.432887,403.018476 C115.482129,408.1675 119.895863,414.31009 121.848191,420 C126.819468,417.468504 131.979792,415.238799 136.65009,412.243522 C138.247447,411.221769 138.493,408.21558 139.560404,406.226777 C180.030931,330.901464 242.942708,290.993551 328.369325,290.556363 C352.044514,290.436786 375.73025,299.059459 399.491801,303.197895 C405.753182,304.292446 412.319435,303.623713 418.744796,303.765888 C419.829422,301.492904 420.914049,299.219921 422,296.943811 Z" id="path-1"></path>
            </g>
        </g>
    </g>
</svg>