<?xml version="1.0" encoding="UTF-8"?>
<svg width="198px" height="198px" viewBox="0 0 198 198" version="1.1" xmlns="http://www.w3.org/2000/svg" xmlns:xlink="http://www.w3.org/1999/xlink">
    <!-- Generator: Sketch 61.2 (89653) - https://sketch.com -->
    <title>Group 4</title>
    <desc>Created with Sketch.</desc>
    <g id="Page-2" stroke="none" stroke-width="1" fill="none" fill-rule="evenodd">
        <g id="Idea-3.12" transform="translate(-621.000000, -325.000000)">
            <g id="Group-4" transform="translate(621.000000, 325.000000)">
                <path d="M197.7,99.7 L99.7,197.7 C99.3,198.1 98.7,198.1 98.3,197.7 L0.3,99.7 C-0.1,99.3 -0.1,98.7 0.3,98.3 L98.3,0.3 C98.7,-0.1 99.3,-0.1 99.7,0.3 L197.7,98.3 C198.1,98.65 198.1,99.3 197.7,99.7 Z" id="Path" fill="#FFFFFF" fill-rule="nonzero" opacity="0.6"></path>
                <circle id="Oval" fill="#E24D8A" fill-rule="nonzero" opacity="0.1" cx="49.7" cy="109.3" r="12.35"></circle>
                <path d="M77.25,37.9 L156.9,37.55 C157.45,37.55 157.9,38 157.9,38.55 L157.9,110.8 C157.9,110.8 158.55,137.4 143.6,137.9 C127.5,138.45 63.75,137.9 63.75,137.9 C63.75,137.9 77.65,139 77.3,110.05 C76.95,82.75 76.35,45.5 76.2,38.9 C76.25,38.35 76.7,37.9 77.25,37.9 Z" id="Path" stroke="#AAD87C" fill="#FFFFFF" fill-rule="nonzero"></path>
                <path d="M63.8,137.85 C63.8,137.85 51,139.2 49.95,110.5 C49.95,109.95 50.4,109.45 50.95,109.45 L77.35,109.45 C77.35,109.45 78.7,137.5 63.8,137.85 Z" id="Path" fill="#165D0A" fill-rule="nonzero"></path>
                <path d="M169.25,29.65 L182.05,17.85 C182.3,17.65 182.7,17.7 182.85,18 L186.55,24.95 C186.7,25.25 186.55,25.55 186.25,25.65 L169.75,30.5 C169.25,30.65 168.9,30 169.25,29.65 Z" id="Path" fill="#AFE2F9" fill-rule="nonzero"></path>
                <path d="M170,40 L181.15,38.2 C181.45,38.15 181.75,38.4 181.75,38.7 L181.4,44.05 C181.4,44.4 181.05,44.6 180.75,44.5 L169.9,41 C169.45,40.8 169.5,40.1 170,40 Z" id="Path" fill="#AFE2F9" fill-rule="nonzero"></path>
                <path d="M160,25.75 L160.25,14.45 C160.25,14.15 160.55,13.9 160.85,14 L166.05,15.3 C166.35,15.4 166.5,15.75 166.35,16 L160.9,26 C160.7,26.5 160,26.3 160,25.75 Z" id="Path" fill="#AFE2F9" fill-rule="nonzero"></path>
                <circle id="Oval" fill="#E24D8A" fill-rule="nonzero" opacity="0.8" cx="89.95" cy="58.2" r="2.15"></circle>
                <line x1="103.05" y1="58.45" x2="145.3" y2="58.45" id="Path" stroke="#E24D8A" stroke-width="1.5" opacity="0.8"></line>
                <line x1="103.05" y1="66.95" x2="115.3" y2="66.95" id="Path" stroke="#FFFFFF" stroke-width="2" stroke-linecap="round" stroke-linejoin="round"></line>
                <line x1="103.05" y1="82.95" x2="129.8" y2="82.95" id="Path" stroke="#E24D8A" stroke-width="1.5" opacity="0.8"></line>
                <line x1="103.05" y1="97.95" x2="129.8" y2="97.95" id="Path" stroke="#E24D8A" stroke-width="1.5" opacity="0.8"></line>
                <line x1="103.05" y1="112.95" x2="129.8" y2="112.95" id="Path" stroke="#E24D8A" stroke-width="1.5" opacity="0.8"></line>
                <path d="M94,88.1 L85.85,88.1 C85.3,88.1 84.85,87.65 84.85,87.1 L84.85,78.95 C84.85,78.4 85.3,77.95 85.85,77.95 L94,77.95 C94.55,77.95 95,78.4 95,78.95 L95,87.1 C95,87.65 94.55,88.1 94,88.1 Z" id="Path" fill="#E24D8A" fill-rule="nonzero" opacity="0.8"></path>
                <path d="M94,103.1 L85.85,103.1 C85.3,103.1 84.85,102.65 84.85,102.1 L84.85,93.95 C84.85,93.4 85.3,92.95 85.85,92.95 L94,92.95 C94.55,92.95 95,93.4 95,93.95 L95,102.1 C95,102.65 94.55,103.1 94,103.1 Z" id="Path" fill="#E24D8A" fill-rule="nonzero" opacity="0.2"></path>
                <path d="M94,118.1 L85.85,118.1 C85.3,118.1 84.85,117.65 84.85,117.1 L84.85,108.95 C84.85,108.4 85.3,107.95 85.85,107.95 L94,107.95 C94.55,107.95 95,108.4 95,108.95 L95,117.1 C95,117.65 94.55,118.1 94,118.1 Z" id="Path" fill="#E24D8A" fill-rule="nonzero" opacity="0.2"></path>
            </g>
        </g>
    </g>
</svg>