<?xml version="1.0" encoding="UTF-8"?>
<!DOCTYPE svg PUBLIC "-//W3C//DTD SVG 1.1//EN" "http://www.w3.org/Graphics/SVG/1.1/DTD/svg11.dtd">
<!-- Creator: CorelDRAW X8 -->
<svg xmlns="http://www.w3.org/2000/svg" xml:space="preserve" width="10.4157in" height="6.36886in" version="1.1" style="shape-rendering:geometricPrecision; text-rendering:geometricPrecision; image-rendering:optimizeQuality; fill-rule:evenodd; clip-rule:evenodd"
viewBox="0 0 10409 6365"
 xmlns:xlink="http://www.w3.org/1999/xlink">
 <defs>
  <style type="text/css">
   <![CDATA[
    .str6 {stroke:#6CC9F3;stroke-width:13.8807;stroke-opacity:0.349020}
    .str7 {stroke:#AAB3ED;stroke-width:13.8807;stroke-opacity:0.349020}
    .str8 {stroke:#6CC9F3;stroke-width:13.8807;stroke-linejoin:round;stroke-opacity:0.349020}
    .str9 {stroke:#BFE4FA;stroke-width:27.7614;stroke-linecap:round;stroke-linejoin:round;stroke-opacity:0.349020}
    .str17 {stroke:#0096DB;stroke-width:10.4105}
    .str14 {stroke:#055E8D;stroke-width:10.4105}
    .str20 {stroke:#28364B;stroke-width:10.4105}
    .str13 {stroke:#2B79E8;stroke-width:10.4105}
    .str23 {stroke:#6D211C;stroke-width:10.4105}
    .str21 {stroke:#A5624B;stroke-width:10.4105}
    .str25 {stroke:#AA260C;stroke-width:10.4105}
    .str18 {stroke:#B52767;stroke-width:10.4105}
    .str10 {stroke:#F6A793;stroke-width:10.4105}
    .str24 {stroke:#EDEDF6;stroke-width:13.8807}
    .str15 {stroke:#F6958A;stroke-width:6.94034}
    .str11 {stroke:#F6A793;stroke-width:6.94034}
    .str16 {stroke:#0096DB;stroke-width:10.4105;stroke-linejoin:round}
    .str22 {stroke:#6D211C;stroke-width:10.4105;stroke-linejoin:round}
    .str3 {stroke:#0096DB;stroke-width:13.8807;stroke-linejoin:round}
    .str4 {stroke:#0096DB;stroke-width:13.8807;stroke-linejoin:round}
    .str5 {stroke:#6CC9F3;stroke-width:13.8807;stroke-linejoin:round}
    .str1 {stroke:#6CC9F3;stroke-width:13.8807;stroke-linejoin:round}
    .str0 {stroke:#C4C8EF;stroke-width:13.8807;stroke-linejoin:round}
    .str19 {stroke:#E88772;stroke-width:6.94034;stroke-linejoin:round}
    .str2 {stroke:#6CC9F3;stroke-width:13.8807;stroke-linecap:round;stroke-linejoin:round}
    .str12 {stroke:#212136;stroke-width:6.94034;stroke-linecap:round;stroke-linejoin:round}
    .fil2 {fill:none;fill-rule:nonzero}
    .fil5 {fill:none;fill-rule:nonzero}
    .fil10 {fill:#0096DB;fill-rule:nonzero}
    .fil9 {fill:#011D3B;fill-rule:nonzero}
    .fil21 {fill:#0278B1;fill-rule:nonzero}
    .fil8 {fill:#212136;fill-rule:nonzero}
    .fil15 {fill:#28364B;fill-rule:nonzero}
    .fil19 {fill:#2D0F05;fill-rule:nonzero}
    .fil22 {fill:#491A1A;fill-rule:nonzero}
    .fil1 {fill:#6CC9F3;fill-rule:nonzero}
    .fil20 {fill:#6D211C;fill-rule:nonzero}
    .fil17 {fill:#994F36;fill-rule:nonzero}
    .fil24 {fill:#B8C3E8;fill-rule:nonzero}
    .fil0 {fill:#BFE4FA;fill-rule:nonzero}
    .fil23 {fill:#CCD1ED;fill-rule:nonzero}
    .fil13 {fill:#DBDDEF;fill-rule:nonzero}
    .fil11 {fill:#EB5B9C;fill-rule:nonzero}
    .fil16 {fill:#EDEDF6;fill-rule:nonzero}
    .fil14 {fill:#F2F4F9;fill-rule:nonzero}
    .fil12 {fill:#F6958A;fill-rule:nonzero}
    .fil7 {fill:#F9BAAF;fill-rule:nonzero}
    .fil6 {fill:#FFCAC1;fill-rule:nonzero}
    .fil18 {fill:#FFE1CC;fill-rule:nonzero}
    .fil3 {fill:white;fill-rule:nonzero}
    .fil4 {fill:#BFE4FA;fill-rule:nonzero;fill-opacity:0.349020}
   ]]>
  </style>
 </defs>
 <g id="Layer_x0020_1">
  <metadata id="CorelCorpID_0Corel-Layer"/>
  <g id="_3027904575728">
   <g>
    <g>
     <path class="fil0" d="M1588 2291c33,44 72,85 116,121 44,36 92,66 141,90l79 -131c46,22 95,36 144,44l-7 152c111,15 225,4 332,-33l-37 -148c46,-17 91,-41 132,-71l103 113c44,-33 84,-72 121,-117 36,-44 66,-91 90,-141l-131 -78c21,-47 36,-95 44,-144l152 7c15,-112 4,-226 -33,-332l-148 37c-18,-47 -41,-91 -71,-133l113 -102c-34,-44 -72,-85 -117,-121 -44,-36 -92,-66 -141,-90l-79 130c-46,-21 -95,-35 -144,-43l7 -153c-111,-15 -225,-3 -331,34l37 148c-47,17 -92,41 -133,71l-103 -113c-43,33 -84,72 -120,116 -37,45 -67,92 -91,142l131 78c-21,47 -35,95 -43,144l-153 -7c-15,112 -4,226 33,332l148 -37c18,46 41,91 71,132l-112 103zm303 -652l0 0c120,-147 338,-169 485,-48 148,121 169,338 49,485 -121,148 -338,170 -486,49 -147,-121 -169,-338 -48,-486zm91 75l0 0c79,-97 222,-111 319,-32 97,80 112,223 32,320 -79,97 -222,111 -319,32 -97,-80 -112,-223 -32,-320z"/>
     <path class="fil0" d="M5338 1031c11,68 30,136 57,203 28,67 62,129 103,185l165 -98c39,51 84,96 134,134l-99 165c114,83 247,139 387,161l48 -186c62,8 126,9 189,1l47 186c68,-11 136,-30 203,-57 67,-28 129,-62 185,-103l-98 -165c51,-39 96,-84 134,-134l165 99c83,-114 139,-247 161,-387l-186 -48c9,-62 9,-126 1,-189l186 -47c-11,-68 -29,-136 -57,-203 -27,-67 -62,-129 -103,-185l-165 98c-39,-51 -84,-96 -134,-134l99 -165c-114,-83 -247,-139 -387,-161l-48 186c-62,-9 -125,-9 -189,-1l-47 -186c-68,11 -136,29 -203,57 -67,27 -129,62 -185,103l98 165c-51,39 -96,84 -134,134l-165 -99c-83,114 -139,247 -161,387l186 48c-8,62 -9,125 0,189l-187 47zm726 -542l0 0c222,-91 476,15 567,237 91,222 -15,475 -237,567 -222,91 -475,-15 -567,-237 -91,-222 15,-476 237,-567zm56 137l0 0c146,-60 313,10 374,156 60,146 -10,313 -156,373 -146,61 -313,-9 -373,-155 -60,-146 9,-313 155,-374z"/>
     <path class="fil0" d="M7870 1740c27,34 57,66 92,95 35,29 72,52 111,71l62 -103c37,17 75,28 113,34l-5 120c88,12 177,3 261,-26l-29 -116c36,-14 72,-33 104,-56l81 89c34,-27 66,-57 95,-92 28,-35 52,-72 71,-111l-103 -62c17,-37 28,-75 34,-113l120 5c12,-88 3,-177 -26,-261l-116 29c-14,-36 -33,-72 -56,-104l88 -81c-26,-34 -56,-66 -91,-95 -35,-29 -73,-52 -111,-71l-62 103c-37,-17 -75,-28 -114,-34l6 -120c-88,-12 -177,-3 -261,26l29 116c-37,14 -72,33 -104,56l-81 -88c-34,26 -66,56 -95,91 -29,35 -52,73 -71,111l103 62c-17,37 -28,75 -34,114l-120 -6c-12,88 -3,177 26,261l116 -29c14,36 33,72 56,104l-89 81zm239 -513l0 0c95,-116 266,-133 382,-38 116,95 133,266 38,382 -95,116 -266,133 -382,38 -116,-95 -133,-266 -38,-382zm72 59l0 0c62,-76 175,-88 251,-25 76,62 88,175 25,251 -62,77 -175,88 -251,25 -77,-62 -88,-175 -25,-251z"/>
     <path class="fil0" d="M2983 896c12,-26 21,-54 27,-83 6,-29 8,-58 7,-87l-79 -4c-1,-27 -7,-52 -15,-77l72 -34c-20,-55 -53,-104 -96,-144l-59 53c-20,-17 -41,-32 -65,-44l27 -75c-26,-12 -54,-21 -83,-27 -29,-6 -59,-8 -87,-7l-4 79c-27,2 -53,7 -77,15l-34 -71c-55,20 -105,53 -144,95l53 60c-18,19 -32,41 -44,64l-75 -26c-12,26 -21,53 -27,83 -6,29 -8,58 -7,86l79 5c2,26 7,52 15,77l-72 33c21,55 53,105 96,145l59 -53c20,17 41,32 65,43l-27 75c26,12 54,21 83,27 30,6 59,8 87,7l5 -79c26,-1 52,-6 76,-15l34 72c55,-20 105,-53 145,-96l-53 -59c17,-19 32,-41 43,-65l75 27zm-373 19l0 0c-98,-19 -160,-114 -141,-211 20,-97 114,-160 212,-141 97,20 160,115 140,212 -20,97 -114,160 -211,140z"/>
     <path class="fil0" d="M9256 2336c17,-19 31,-41 44,-65 12,-24 21,-49 27,-74l-68 -23c5,-23 7,-47 6,-70l70 -12c-4,-53 -20,-104 -48,-149l-64 32c-13,-20 -28,-38 -46,-54l41 -58c-19,-17 -41,-32 -65,-44 -24,-12 -49,-21 -74,-27l-23 67c-23,-5 -47,-6 -70,-5l-12 -71c-53,4 -104,21 -149,48l32 65c-20,12 -38,28 -54,46l-58 -42c-17,20 -32,42 -44,66 -12,24 -21,48 -27,73l67 23c-5,24 -6,47 -5,71l-71 12c5,52 21,103 49,149l64 -32c12,19 28,38 46,53l-42 59c20,17 42,31 66,44 24,12 48,21 74,27l22 -68c24,5 47,7 71,6l12 70c52,-4 104,-21 149,-48l-32 -64c19,-13 38,-28 54,-46l58 41zm-329 -74l0 0c-80,-40 -112,-138 -71,-217 41,-80 138,-112 218,-71 80,41 111,138 71,218 -41,79 -139,111 -218,70z"/>
     <path class="fil1" d="M127 3624l-53 0c-9,0 -17,-7 -17,-17l0 -53c0,-9 8,-17 17,-17l53 0c9,0 17,8 17,17l0 53c0,10 -8,17 -17,17z"/>
     <path class="fil0" d="M10392 2878l-53 0c-10,0 -17,-8 -17,-17l0 -53c0,-9 7,-17 17,-17l53 0c9,0 17,8 17,17l0 53c0,9 -8,17 -17,17z"/>
     <path class="fil0" d="M5164 220l-53 0c-10,0 -17,-8 -17,-18l0 -52c0,-10 7,-18 17,-18l53 0c9,0 17,8 17,18l0 52c0,10 -8,18 -17,18z"/>
     <path class="fil0" d="M8556 2418l-52 0c-10,0 -18,-8 -18,-18l0 -52c0,-10 8,-17 18,-17l52 0c10,0 18,7 18,17l0 52c0,10 -8,18 -18,18z"/>
     <path class="fil0" d="M3525 944l-52 0c-10,0 -18,-8 -18,-17l0 -53c0,-9 8,-17 18,-17l52 0c10,0 18,8 18,17l0 53c0,9 -8,17 -18,17z"/>
    </g>
    <path class="fil2 str0" d="M2640 2640c0,40 -32,73 -72,73 -40,0 -72,-33 -72,-73 0,-39 32,-72 72,-72 40,0 72,33 72,72"/>
    <path class="fil2 str1" d="M1676 963c0,40 -32,72 -72,72 -40,0 -72,-32 -72,-72 0,-40 32,-72 72,-72 40,0 72,32 72,72"/>
    <path class="fil2 str1" d="M9820 1765c0,40 -32,72 -72,72 -40,0 -72,-32 -72,-72 0,-40 32,-72 72,-72 40,0 72,32 72,72"/>
    <path class="fil2 str1" d="M2148 887c0,20 -16,37 -37,37 -21,0 -37,-17 -37,-37 0,-21 16,-38 37,-38 21,0 37,17 37,38"/>
    <path class="fil2 str1" d="M324 2702c0,21 -17,38 -37,38 -21,0 -38,-17 -38,-38 0,-20 17,-37 38,-37 20,0 37,17 37,37"/>
    <path class="fil2 str1" d="M3778 749c0,21 -16,38 -37,38 -21,0 -38,-17 -38,-38 0,-20 17,-37 38,-37 21,0 37,17 37,37"/>
    <path class="fil2 str1" d="M9141 1280c0,20 -17,37 -37,37 -21,0 -38,-17 -38,-37 0,-21 17,-38 38,-38 20,0 37,17 37,38"/>
    <path class="fil2 str1" d="M8374 3694c0,21 -16,37 -37,37 -21,0 -37,-16 -37,-37 0,-21 16,-37 37,-37 21,0 37,16 37,37"/>
    <line class="fil2 str1" x1="964" y1="1586" x2="1157" y2= "1586" />
    <line class="fil2 str1" x1="692" y1="1491" x2="1061" y2= "1491" />
    <line class="fil2 str1" x1="4240" y1="335" x2="4511" y2= "335" />
    <line class="fil2 str1" x1="4494" y1="431" x2="4687" y2= "431" />
    <line class="fil2 str1" x1="9812" y1="2442" x2="10057" y2= "2442" />
    <line class="fil2 str1" x1="10131" y1="2442" x2="10251" y2= "2442" />
    <line class="fil2 str0" x1="4153" y1="1104" x2="4346" y2= "1104" />
    <g>
     <line class="fil2 str2" x1="1045" y1="2118" x2="1045" y2= "2196" />
     <line class="fil2 str2" x1="1084" y1="2157" x2="1006" y2= "2157" />
    </g>
    <g>
     <line class="fil2 str2" x1="7492" y1="885" x2="7492" y2= "963" />
     <line class="fil2 str2" x1="7530" y1="924" x2="7453" y2= "924" />
    </g>
    <g>
     <line class="fil2 str2" x1="4858" y1="820" x2="4858" y2= "898" />
     <line class="fil2 str2" x1="4897" y1="859" x2="4820" y2= "859" />
    </g>
    <g>
     <line class="fil2 str2" x1="10251" y1="4174" x2="10251" y2= "4252" />
     <line class="fil2 str2" x1="10290" y1="4213" x2="10212" y2= "4213" />
    </g>
   </g>
   <g>
    <polygon class="fil3 str3" points="2805,4327 2805,1101 7643,1101 7643,4327 "/>
    <polygon class="fil2 str4" points="7486,4170 2962,4170 2962,1258 7486,1258 "/>
    <g>
     <g>
      <path class="fil3 str5" d="M4558 2715c0,-368 298,-666 666,-666 368,0 667,298 667,666 0,147 -48,283 -128,393l0 0c-95,143 -342,305 -342,402l0 110c0,23 -18,41 -41,41l-107 0 -98 0 -107 0c-22,0 -40,-18 -40,-41l0 -110c0,-97 -247,-259 -342,-402 -81,-110 -128,-246 -128,-393z"/>
     </g>
     <g>
      <path class="fil1" d="M5300 3649c-1,-16 -13,-284 9,-518 -27,3 -55,5 -85,5 -30,0 -58,-2 -84,-5 21,234 9,502 9,518l-12 0c0,-4 12,-281 -10,-520 -197,-27 -286,-139 -302,-245 -9,-62 12,-123 51,-146 23,-14 51,-17 81,-8 47,13 92,54 120,108 32,63 51,168 62,281 26,3 55,5 85,5 31,0 59,-2 86,-5 11,-113 30,-218 62,-281 28,-54 72,-95 120,-108 29,-9 58,-6 81,8 38,23 59,84 50,146 -16,106 -104,218 -302,245 -22,239 -10,516 -9,520l-12 0zm224 -912l0 0c-9,0 -19,1 -29,4 -44,13 -86,51 -113,103 -31,60 -49,162 -60,273 189,-27 274,-134 289,-235 9,-56 -10,-114 -44,-134 -13,-7 -27,-11 -43,-11zm-600 0l0 0c-15,0 -30,4 -42,11 -34,20 -53,78 -45,134 15,101 100,208 289,235 -10,-111 -29,-213 -60,-273 -26,-52 -68,-90 -112,-103 -11,-3 -21,-4 -30,-4z"/>
     </g>
     <g>
      <path class="fil0" d="M5780 2754c-22,0 -39,-18 -39,-39 0,-237 -160,-443 -389,-501 -21,-5 -33,-26 -28,-47 5,-20 26,-32 46,-27 264,67 448,303 448,575 0,21 -17,39 -38,39z"/>
     </g>
     <g>
      <path class="fil0" d="M5211 2159c0,21 17,38 39,38 21,0 38,-17 38,-38 0,-21 -17,-38 -38,-38 -22,0 -39,17 -39,38z"/>
     </g>
     <g>
      <path class="fil3 str5" d="M5436 3557l-424 0 0 202c0,33 10,65 27,93 34,53 92,85 154,85l62 0c63,0 121,-32 154,-85 18,-28 27,-60 27,-93l0 -202z"/>
     </g>
     <g>
      <g>
       <path class="fil3 str5" d="M5419 3877c-1,0 -2,0 -3,0l-402 -34c-15,-2 -25,-14 -23,-29 2,-15 16,-25 30,-24l402 35c14,1 25,14 23,28 -2,14 -14,24 -27,24z"/>
      </g>
     </g>
     <g>
      <g>
       <path class="fil3 str5" d="M5436 3697c-1,0 -2,0 -3,0l-424 -37c-15,-1 -25,-14 -23,-28 2,-15 15,-26 30,-24l424 36c14,1 24,14 22,29 -1,13 -13,23 -26,24z"/>
      </g>
     </g>
     <g>
      <g>
       <path class="fil3 str5" d="M5436 3790c-1,0 -2,0 -3,-1l-424 -36c-15,-1 -25,-14 -23,-29 2,-14 15,-25 30,-24l424 37c14,1 24,14 22,28 -1,14 -13,24 -26,25z"/>
      </g>
     </g>
     <g>
      <line class="fil2 str1" x1="5225" y1="1717" x2="5225" y2= "1946" />
      <line class="fil2 str1" x1="5935" y1="2012" x2="5772" y2= "2174" />
      <line class="fil2 str1" x1="4515" y1="2010" x2="4678" y2= "2172" />
      <line class="fil2 str1" x1="4841" y1="1793" x2="4929" y2= "2005" />
      <line class="fil2 str1" x1="5609" y1="1794" x2="5521" y2= "2006" />
      <line class="fil2 str1" x1="6152" y1="2337" x2="5940" y2= "2425" />
      <line class="fil2 str1" x1="4297" y1="2335" x2="4510" y2= "2423" />
     </g>
    </g>
    <g>
     <g>
      <g>
       <polygon class="fil4" points="3508,2211 3213,2211 3213,1974 3508,1974 "/>
       <line class="fil5 str6" x1="3644" y1="1974" x2="3847" y2= "1974" />
       <line class="fil5 str6" x1="3644" y1="2211" x2="4056" y2= "2211" />
       <line class="fil5 str6" x1="3644" y1="2135" x2="4056" y2= "2135" />
       <line class="fil5 str6" x1="3644" y1="2061" x2="4056" y2= "2061" />
      </g>
      <g>
       <polygon class="fil4" points="3508,2684 3213,2684 3213,2447 3508,2447 "/>
       <line class="fil5 str6" x1="3644" y1="2447" x2="3847" y2= "2447" />
       <line class="fil5 str6" x1="3644" y1="2684" x2="4056" y2= "2684" />
       <line class="fil5 str6" x1="3644" y1="2608" x2="4056" y2= "2608" />
       <line class="fil5 str6" x1="3644" y1="2533" x2="4056" y2= "2533" />
      </g>
      <g>
       <polygon class="fil4" points="3508,3157 3213,3157 3213,2919 3508,2919 "/>
       <line class="fil5 str6" x1="3644" y1="2919" x2="3847" y2= "2919" />
       <line class="fil5 str6" x1="3644" y1="3157" x2="4056" y2= "3157" />
       <line class="fil5 str6" x1="3644" y1="3080" x2="4056" y2= "3080" />
       <line class="fil5 str6" x1="3644" y1="3006" x2="4056" y2= "3006" />
      </g>
      <g>
       <polygon class="fil4" points="3508,3629 3213,3629 3213,3392 3508,3392 "/>
       <line class="fil5 str7" x1="3644" y1="3392" x2="3847" y2= "3392" />
       <line class="fil5 str7" x1="3644" y1="3629" x2="4056" y2= "3629" />
       <line class="fil5 str7" x1="3644" y1="3553" x2="4056" y2= "3553" />
       <line class="fil5 str7" x1="3644" y1="3478" x2="4056" y2= "3478" />
      </g>
     </g>
     <g>
      <g>
       <polygon class="fil4" points="6688,2211 6393,2211 6393,1974 6688,1974 "/>
       <line class="fil5 str6" x1="6823" y1="1974" x2="7027" y2= "1974" />
       <line class="fil5 str6" x1="6823" y1="2211" x2="7235" y2= "2211" />
       <line class="fil5 str6" x1="6823" y1="2135" x2="7235" y2= "2135" />
       <line class="fil5 str6" x1="6823" y1="2061" x2="7235" y2= "2061" />
      </g>
      <g>
       <polygon class="fil4" points="6688,2684 6393,2684 6393,2447 6688,2447 "/>
       <line class="fil5 str6" x1="6823" y1="2447" x2="7027" y2= "2447" />
       <line class="fil5 str6" x1="6823" y1="2684" x2="7235" y2= "2684" />
       <line class="fil5 str6" x1="6823" y1="2608" x2="7235" y2= "2608" />
       <line class="fil5 str6" x1="6823" y1="2533" x2="7235" y2= "2533" />
      </g>
      <g>
       <polygon class="fil4" points="6688,3157 6393,3157 6393,2919 6688,2919 "/>
       <line class="fil5 str6" x1="6823" y1="2919" x2="7027" y2= "2919" />
       <line class="fil5 str7" x1="6823" y1="3157" x2="7235" y2= "3157" />
       <line class="fil5 str7" x1="6823" y1="3080" x2="7235" y2= "3080" />
       <line class="fil5 str7" x1="6823" y1="3006" x2="7235" y2= "3006" />
      </g>
      <g>
       <polygon class="fil4" points="6688,3629 6393,3629 6393,3392 6688,3392 "/>
       <line class="fil5 str6" x1="6823" y1="3392" x2="7027" y2= "3392" />
       <line class="fil5 str6" x1="6823" y1="3629" x2="7235" y2= "3629" />
       <line class="fil5 str6" x1="6823" y1="3553" x2="7235" y2= "3553" />
       <line class="fil5 str6" x1="6823" y1="3478" x2="7235" y2= "3478" />
      </g>
     </g>
    </g>
    <g>
     <line class="fil5 str8" x1="7215" y1="1101" x2="7215" y2= "543" />
     <path class="fil5 str8" d="M7259 498c0,25 -20,45 -44,45 -25,0 -45,-20 -45,-45 0,-24 20,-44 45,-44 24,0 44,20 44,44"/>
     <line class="fil5 str8" x1="3234" y1="1101" x2="3234" y2= "543" />
     <path class="fil5 str8" d="M3278 498c0,25 -20,45 -44,45 -25,0 -45,-20 -45,-45 0,-24 20,-44 45,-44 24,0 44,20 44,44"/>
    </g>
    <line class="fil5 str9" x1="4569" y1="1409" x2="5880" y2= "1409" />
    <line class="fil5 str9" x1="4192" y1="1551" x2="6256" y2= "1551" />
   </g>
   <g>
    <g>
     <g>
      <g>
       <path class="fil3" d="M8819 5314l-234 -66c-91,-254 -317,-802 -110,-1596 358,443 381,1084 344,1662z"/>
       <path class="fil2 str1" d="M8585 5248c-91,-254 -317,-802 -110,-1596 358,443 381,1084 344,1662"/>
       <path class="fil2 str1" d="M8475 3652c0,0 77,1010 218,1648"/>
       <path class="fil2 str1" d="M8475 3652c0,0 -84,721 153,1635"/>
       <path class="fil2 str1" d="M8735 5292c0,0 -105,-1267 -260,-1640"/>
       <path class="fil2 str1" d="M8774 5294c0,0 15,-1192 -299,-1642"/>
      </g>
      <g>
       <path class="fil3" d="M8643 5386l-243 -16c-137,-181 -459,-568 -400,-1204 434,288 574,774 643,1220z"/>
       <path class="fil2 str1" d="M8400 5370c-137,-181 -459,-568 -400,-1204 434,288 574,774 643,1220"/>
       <path class="fil2 str1" d="M8000 4166c0,0 148,760 455,1202"/>
       <path class="fil2 str1" d="M8513 5386c0,0 -386,-1048 -513,-1220"/>
       <path class="fil2 str1" d="M8586 5386c0,0 -231,-943 -586,-1220"/>
      </g>
      <g>
       <path class="fil3" d="M8765 5294l266 -59c117,-262 401,-828 214,-1668 -426,449 -488,1119 -480,1727z"/>
       <path class="fil2 str1" d="M9031 5235c117,-262 401,-828 214,-1668 -426,449 -488,1119 -480,1727"/>
       <path class="fil2 str0" d="M9245 3567c0,0 -144,1056 -338,1718"/>
       <path class="fil2 str0" d="M9245 3567c0,0 52,759 -264,1707"/>
       <path class="fil2 str0" d="M8860 5275c0,0 190,-1324 385,-1708"/>
       <path class="fil2 str1" d="M8816 5275c0,0 52,-1250 429,-1708"/>
      </g>
      <g>
       <path class="fil3" d="M8882 5553l221 0c143,-210 476,-655 493,-1435 -423,316 -602,896 -714,1435z"/>
       <path class="fil2 str0" d="M9103 5553c143,-210 476,-655 493,-1435 -423,316 -602,896 -714,1435"/>
       <path class="fil2 str0" d="M9596 4118c0,0 -217,914 -542,1428"/>
       <path class="fil2 str0" d="M8999 5564c0,0 464,-1247 597,-1446"/>
       <path class="fil2 str0" d="M8934 5558c0,0 312,-1132 662,-1440"/>
      </g>
      <g>
       <path class="fil0" d="M9344 5234l0 240c0,532 -216,874 -216,874l-671 0c0,0 -216,-342 -216,-874l0 -240 1103 0z"/>
      </g>
     </g>
    </g>
    <g>
     <g>
      <g>
       <path class="fil3" d="M818 5312l-233 -84c-80,-357 -283,-1127 -39,-2261 341,615 336,1523 272,2345z"/>
       <path class="fil2 str1" d="M585 5228c-80,-357 -283,-1127 -39,-2261 341,615 336,1523 272,2345"/>
       <path class="fil2 str1" d="M546 2967c0,0 32,1431 146,2331"/>
       <path class="fil2 str1" d="M546 2967c0,0 -116,1027 81,2315"/>
       <path class="fil2 str1" d="M735 5285c0,0 -49,-1794 -189,-2318"/>
       <path class="fil2 str1" d="M774 5286c0,0 69,-1693 -228,-2319"/>
      </g>
      <g>
       <path class="fil3" d="M657 5386l-243 -20c-136,-224 -459,-703 -400,-1490 435,356 574,957 643,1510z"/>
       <path class="fil2 str1" d="M414 5366c-136,-224 -459,-703 -400,-1490 435,356 574,957 643,1510"/>
       <path class="fil2 str1" d="M14 3876c0,0 149,940 455,1488"/>
       <path class="fil2 str1" d="M528 5386c0,0 -387,-1298 -514,-1510"/>
       <path class="fil2 str1" d="M600 5386c0,0 -231,-1168 -586,-1510"/>
      </g>
      <g>
       <path class="fil3" d="M813 5293l254 -69c110,-314 379,-991 196,-2000 -406,537 -461,1340 -450,2069z"/>
       <path class="fil2 str1" d="M1067 5224c110,-314 379,-991 196,-2000 -406,537 -461,1340 -450,2069"/>
       <path class="fil2 str1" d="M1263 3224c0,0 -132,1265 -314,2059"/>
       <path class="fil2 str1" d="M1263 3224c0,0 54,911 -243,2046"/>
       <path class="fil2 str1" d="M904 5270c0,0 174,-1586 359,-2046"/>
       <path class="fil2 str1" d="M862 5270c0,0 42,-1499 401,-2046"/>
      </g>
      <g>
       <path class="fil3" d="M928 5553l221 0c143,-210 476,-655 493,-1435 -423,316 -602,896 -714,1435z"/>
       <path class="fil2 str1" d="M1149 5553c143,-210 476,-655 493,-1435 -423,316 -602,896 -714,1435"/>
       <path class="fil2 str1" d="M1642 4118c0,0 -217,914 -542,1428"/>
       <path class="fil2 str1" d="M1045 5564c0,0 463,-1247 597,-1446"/>
       <path class="fil2 str1" d="M980 5558c0,0 311,-1132 662,-1440"/>
      </g>
      <g>
       <path class="fil0" d="M1390 5234l0 240c0,532 -216,874 -216,874l-671 0c0,0 -216,-342 -216,-874l0 -240 1103 0z"/>
      </g>
     </g>
    </g>
    <g>
     <g>
      <g>
       <path class="fil3" d="M6937 5633l-187 -74c-55,-185 -196,-588 36,-1104 263,376 226,788 151,1178z"/>
       <path class="fil2 str1" d="M6750 5559c-55,-185 -196,-588 36,-1104 263,376 226,788 151,1178"/>
       <path class="fil2 str1" d="M6786 4455c0,0 -90,488 31,1142"/>
       <path class="fil2 str1" d="M6834 5601c0,0 49,-872 -48,-1146"/>
       <path class="fil2 str1" d="M6866 5608c0,0 142,-807 -80,-1153"/>
      </g>
      <g>
       <path class="fil3" d="M6729 5647l-161 34c-110,-98 -366,-302 -398,-749 317,116 464,422 559,715z"/>
       <path class="fil2 str1" d="M6568 5681c-110,-98 -366,-302 -398,-749 317,116 464,422 559,715"/>
       <path class="fil2 str1" d="M6170 4932c0,0 111,376 448,756"/>
       <path class="fil2 str1" d="M6672 5660c0,0 -372,-538 -502,-728"/>
       <path class="fil2 str1" d="M6697 5650c0,0 -258,-541 -527,-718"/>
      </g>
      <g>
       <path class="fil3" d="M6845 5600l-173 -29c-87,-128 -342,-515 -264,-925 294,220 412,657 437,954z"/>
       <path class="fil2 str1" d="M6672 5571c-87,-128 -342,-515 -264,-925 294,220 412,657 437,954"/>
       <path class="fil2 str1" d="M6408 4646c0,0 109,616 303,928"/>
       <path class="fil2 str1" d="M6752 5591c0,0 -263,-824 -344,-945"/>
       <path class="fil2 str1" d="M6804 5596c0,0 -158,-743 -396,-950"/>
      </g>
      <g>
       <path class="fil3" d="M6920 5600l173 -36c74,-167 256,-525 132,-1059 -275,284 -312,710 -305,1095z"/>
       <path class="fil2 str1" d="M7093 5564c74,-167 256,-525 132,-1059 -275,284 -312,710 -305,1095"/>
       <path class="fil2 str1" d="M7225 4505c0,0 -130,618 -227,1078"/>
       <path class="fil2 str0" d="M7225 4505c0,0 30,482 -172,1083"/>
       <path class="fil2 str1" d="M6954 5588c0,0 56,-725 271,-1083"/>
      </g>
      <g>
       <path class="fil3" d="M6983 5738l118 0c97,-111 345,-388 365,-760 -287,167 -408,475 -483,760z"/>
       <path class="fil2 str1" d="M7101 5738c97,-111 345,-388 365,-760 -287,167 -408,475 -483,760"/>
       <path class="fil2 str0" d="M7466 4978c0,0 -178,471 -398,744"/>
       <path class="fil2 str1" d="M7015 5722c0,0 267,-565 451,-744"/>
      </g>
      <g>
       <path class="fil0" d="M7318 5533l0 176c0,389 -189,639 -189,639l-585 0c0,0 -189,-250 -189,-639l0 -176 963 0z"/>
      </g>
     </g>
    </g>
   </g>
   <g>
    <g>
     <path class="fil6" d="M9582 2468l22 187c0,0 -70,76 -176,76 -106,0 -106,-71 -106,-71l20 -161 163 -171 77 140z"/>
     <g>
      <path class="fil7" d="M9290 2344c0,-7 -9,-11 -15,-10 -10,2 -18,9 -22,18 -5,8 -6,18 -6,28 0,9 0,18 4,26 8,14 27,21 41,14l-2 -76z"/>
     </g>
     <path class="fil6" d="M9298 2217c0,0 -56,213 -25,257 46,65 156,70 202,40 39,-25 70,-161 70,-197 0,-95 -196,-151 -247,-100z"/>
     <g>
      <path class="fil8" d="M9615 2377c2,-7 4,-14 7,-21 6,-17 15,-31 21,-48 13,-33 3,-73 -25,-95 -5,-4 -10,-8 -15,-12 -10,-10 -13,-25 -19,-38 -4,-10 -11,-21 -21,-26 -24,-12 -55,4 -78,-8 -5,-3 -10,-7 -14,-10 -34,-25 -72,-19 -108,-6 -17,6 -23,13 -37,24 -16,12 -37,11 -53,23 -16,12 -20,35 -21,56 0,7 1,15 4,22 4,8 12,14 21,18 21,10 44,6 67,4 21,-1 47,-16 68,-8 20,7 26,33 51,35 10,0 22,-1 28,7 7,9 4,24 9,34 5,10 14,19 20,29 13,18 32,30 25,54 -4,17 -23,43 -15,61 5,12 30,11 49,-3 20,-15 26,-44 31,-67 2,-9 4,-17 5,-25z"/>
     </g>
     <path class="fil2 str10" d="M9339 2526c0,0 73,14 124,-13 40,-21 54,-71 54,-71"/>
     <g>
      <path class="fil6" d="M9492 2372c5,-8 20,-18 29,-17 8,1 16,6 22,13 28,31 -2,91 -45,85 -16,-3 -12,-23 -12,-23l6 -58z"/>
     </g>
     <path class="fil2 str11" d="M9334 2328c0,0 -32,50 -29,64 3,14 36,16 36,16"/>
     <path class="fil3" d="M9305 2425l90 13c0,0 -17,47 -66,36 -35,-7 -24,-49 -24,-49z"/>
     <g>
      <g>
       <path class="fil8" d="M9297 2312c-1,4 -3,8 -4,12 -2,8 10,11 12,3 1,-4 2,-8 3,-12 1,-7 -8,-9 -11,-3z"/>
      </g>
     </g>
     <path class="fil2 str12" d="M9326 2291c0,0 -14,-19 -34,-4"/>
     <g>
      <g>
       <path class="fil8" d="M9401 2337c-2,3 -3,7 -4,11 -2,8 11,11 12,4 1,-5 2,-9 2,-14 1,-6 -9,-7 -10,-1z"/>
      </g>
     </g>
     <path class="fil2 str12" d="M9396 2301c0,0 22,-7 45,19"/>
    </g>
    <g>
     <g>
      <g>
       <g>
        <path class="fil6" d="M9255 5732l-43 433 4 136 -534 -3c-13,0 -23,-10 -23,-23 0,-10 6,-19 15,-22l230 -106 22 -450 329 35z"/>
        <path class="fil9" d="M8635 6293c6,-18 16,-37 26,-41l244 -105c134,54 308,13 308,13l31 183c0,6 -5,11 -11,11l-594 0c-12,0 -4,-61 -4,-61z"/>
        <g>
         <path class="fil2 str13" d="M8852 6157c14,18 25,38 34,58"/>
        </g>
        <g>
         <path class="fil2 str13" d="M8821 6176c15,19 20,31 29,49"/>
        </g>
        <g>
         <path class="fil2 str13" d="M8795 6189c10,13 19,31 27,45"/>
        </g>
       </g>
       <g>
        <line class="fil2 str13" x1="9241" y1="6315" x2="8633" y2= "6312" />
       </g>
       <g>
        <path class="fil2 str13" d="M9224 6225c0,0 -143,3 -155,89"/>
       </g>
       <g>
        <path class="fil2 str13" d="M8711 6230c0,0 39,56 47,82"/>
       </g>
      </g>
     </g>
     <path class="fil10" d="M9006 3874c-92,659 -174,2216 -174,2216l459 0c0,0 95,-973 175,-1677 202,-335 187,-697 209,-745l-669 206z"/>
     <path class="fil2 str14" d="M9228 6090c0,0 114,-1075 194,-1779"/>
     <g>
      <g>
       <g>
        <path class="fil6" d="M9993 5732l20 433 3 136 -533 -3c-13,0 -24,-10 -24,-23 0,-10 6,-19 15,-22l231 -106 -41 -450 329 35z"/>
        <path class="fil9" d="M9436 6293c5,-18 15,-37 25,-41l244 -105c135,54 309,13 309,13l31 183c0,6 -5,11 -11,11l-594 0c-12,0 -4,-61 -4,-61z"/>
        <g>
         <path class="fil2 str13" d="M9653 6157c13,18 25,38 34,58"/>
        </g>
        <g>
         <path class="fil2 str13" d="M9622 6176c14,19 20,31 28,49"/>
        </g>
        <g>
         <path class="fil2 str13" d="M9596 6189c10,13 19,31 26,45"/>
        </g>
       </g>
       <g>
        <line class="fil2 str13" x1="10042" y1="6315" x2="9433" y2= "6312" />
       </g>
       <g>
        <path class="fil2 str13" d="M10025 6225c0,0 -143,3 -155,89"/>
       </g>
       <g>
        <path class="fil2 str13" d="M9511 6230c0,0 40,56 48,82"/>
       </g>
      </g>
     </g>
     <path class="fil10" d="M9979 3813c12,150 11,335 -12,515 40,794 94,1762 94,1762l-459 0c0,0 -221,-1757 -232,-2290l609 13z"/>
     <path class="fil2 str14" d="M9900 3813c13,150 12,335 -11,515 39,794 93,1762 93,1762"/>
     <path class="fil2 str14" d="M9438 4663c0,0 -64,-551 -69,-753"/>
     <line class="fil2 str14" x1="10056" y1="5999" x2="9590" y2= "5999" />
     <line class="fil2 str14" x1="9300" y1="5998" x2="8838" y2= "5998" />
     <path class="fil2 str14" d="M9906 4132c0,0 -132,11 -205,-177"/>
     <path class="fil2 str14" d="M9389 4132c0,0 -46,-13 -50,-27 -4,-14 -17,-185 -17,-185"/>
     <path class="fil2 str14" d="M9153 3955c0,0 -10,154 -179,177"/>
    </g>
    <g>
     <g>
      <path class="fil6" d="M8531 2936c0,0 -218,-231 -231,-229 -14,2 16,45 4,44 -11,0 -80,-95 -92,-89 -18,7 47,91 47,91 0,0 -17,-15 -30,-4 -10,8 3,35 3,35 0,0 -17,-9 -26,0 -10,8 2,31 2,31 0,0 -17,-18 -27,-1 -9,15 55,147 160,287l190 -165z"/>
     </g>
     <g>
      <path class="fil1" d="M9327 2618c-109,10 -227,63 -299,157 -122,157 -276,356 -276,356l-253 -259 -238 199c0,0 330,464 493,465 147,1 395,-209 467,-323 145,-228 106,-595 106,-595z"/>
     </g>
     <g>
      <path class="fil11" d="M9597 2596c0,0 -31,44 -154,57 -93,10 -116,-35 -116,-35 0,0 -224,120 -291,616 -67,495 -73,755 -73,755l1054 0c0,0 4,-377 -27,-701 -32,-334 -102,-615 -393,-692z"/>
     </g>
     <path class="fil2 str15" d="M8319 2773c0,0 12,49 30,88"/>
     <g>
      <path class="fil12" d="M8188 2845c9,10 19,20 29,30 5,5 10,9 15,14 3,2 6,3 9,5 3,2 6,2 7,1 1,-2 0,-6 -1,-9 -1,-3 -2,-6 -3,-9 -3,-6 -6,-12 -10,-18 -6,-12 -14,-24 -22,-36l6 -3c9,12 19,24 29,36 5,6 11,12 16,16 3,3 6,5 9,6 1,1 2,1 2,1 0,0 0,-1 0,-2 -1,-14 -9,-29 -15,-43 -7,-14 -14,-28 -22,-41l6 -4c9,13 18,27 27,39 5,7 10,13 16,18 3,3 6,6 9,8 1,0 3,1 3,1 1,0 1,-1 2,-3 0,-7 -3,-15 -6,-22 -2,-8 -5,-15 -9,-23 -6,-14 -13,-29 -20,-43 8,14 16,28 23,42 7,15 15,29 16,47 0,2 -1,5 -4,7 -3,0 -6,-1 -8,-2 -4,-2 -7,-5 -10,-8 -6,-5 -11,-12 -16,-18 -11,-12 -20,-26 -29,-39l6 -4c8,14 16,28 23,42 3,7 6,14 9,22 3,7 7,14 7,24 0,2 0,5 -4,8 -3,2 -7,1 -9,0 -4,-2 -7,-4 -11,-7 -6,-5 -11,-11 -16,-17 -11,-12 -20,-25 -30,-38l6 -3c8,11 15,24 21,36 3,6 7,12 9,19 2,3 3,7 4,10 0,4 2,8 -1,12 -4,4 -9,2 -12,0 -3,-1 -6,-3 -9,-6 -5,-4 -10,-9 -15,-14 -9,-11 -18,-21 -27,-32z"/>
     </g>
     <g>
      <path class="fil1" d="M9327 2618c-216,416 -230,1440 -230,1440l-166 0c0,0 8,-664 133,-1097 53,-184 190,-329 263,-343z"/>
     </g>
     <path class="fil2 str16" d="M8973 3448c0,0 37,-402 109,-539"/>
     <polyline class="fil2 str16" points="9171,3178 9138,2861 9193,2831 9138,2796 "/>
     <path class="fil2 str16" d="M9138 2796c0,0 48,-93 90,-157"/>
     <g>
      <path class="fil1" d="M9593 2596c-130,279 -15,1462 -15,1462l502 0c0,0 -24,-434 -45,-602 -20,-168 -157,-707 -157,-707l-285 -153z"/>
     </g>
     <g>
      <path class="fil13" d="M9907 3715l-485 7 1 30 511 -8c0,-16 -12,-29 -27,-29z"/>
      <path class="fil13" d="M8832 3760l681 -10 -137 -455c-7,-23 -27,-39 -49,-38l-616 8c-13,0 -23,15 -19,29l140 466z"/>
      <path class="fil14" d="M8802 3760l680 -9 -136 -455c-7,-24 -27,-39 -50,-39l-615 9c-14,0 -23,14 -19,29l140 465z"/>
      <path class="fil1" d="M8999 3517c4,21 28,38 53,38 26,-1 43,-18 38,-39 -4,-22 -28,-39 -53,-38 -25,0 -42,18 -38,39z"/>
     </g>
     <g>
      <path class="fil6" d="M9775 3192c0,0 133,234 125,288 -6,40 -369,133 -369,133l17 229c0,0 607,-52 678,-173 96,-167 -171,-598 -171,-598l-280 121z"/>
      <g>
       <g>
        <g>
         <path class="fil6" d="M9602 3600c-50,8 -312,62 -309,75 3,13 80,10 78,17 -3,11 -60,25 -93,29 -29,5 -75,16 -75,29 0,25 160,-1 160,-1 0,0 -177,-4 -178,16 -3,30 184,28 191,34 0,0 -163,-43 -165,-21 -2,22 142,64 187,61 -37,-4 -150,-59 -151,-39 -1,20 97,49 113,50 128,10 245,-18 245,-18l-3 -232z"/>
        </g>
       </g>
      </g>
      <g>
       <path class="fil12" d="M9221 3760c21,-4 42,-6 62,-7 21,-1 42,-2 63,-1 -10,2 -20,4 -31,6 -10,1 -21,2 -31,3 -21,1 -42,1 -63,-1z"/>
      </g>
      <g>
       <path class="fil12" d="M9240 3787c46,0 90,5 136,7 -11,2 -23,3 -34,4 -12,0 -23,0 -35,-1 -22,-1 -45,-4 -67,-10z"/>
      </g>
      <g>
       <path class="fil12" d="M9269 3813c20,0 40,3 60,5 20,3 40,6 60,9 -10,2 -20,2 -30,1 -10,0 -21,-1 -31,-2 -20,-3 -40,-7 -59,-13z"/>
      </g>
     </g>
     <g>
      <path class="fil1" d="M9593 2596c141,22 318,67 389,160 110,144 404,744 295,891 -92,126 -605,221 -605,221l-138 -283 350 -131 -218 -476 -73 -382z"/>
     </g>
     <g>
      <polyline class="fil2 str17" points="9534,3585 9884,3454 9709,3071 "/>
     </g>
     <line class="fil2 str17" x1="9672" y1="3868" x2="10061" y2= "3773" />
     <line class="fil2 str17" x1="9579" y1="3568" x2="9725" y2= "3855" />
     <path class="fil2 str16" d="M9531 3192c23,-147 118,-267 118,-267"/>
     <polyline class="fil2 str16" points="9649,2925 9590,2861 9672,2831 "/>
     <path class="fil2 str16" d="M9672 2831c0,0 38,-157 65,-205"/>
    </g>
   </g>
   <g>
    <g>
     <path class="fil6" d="M8055 2992c0,0 81,185 102,323 21,139 -171,531 -171,531l-166 -97c0,0 51,-292 51,-396 0,-104 -95,-248 -95,-248l279 -113z"/>
     <g>
      <path class="fil6" d="M7829 3727c-22,64 -114,240 -104,250 9,10 42,-51 49,-41 6,9 -39,107 -27,115 17,10 57,-92 57,-92 0,0 -38,114 -22,119 12,4 46,-83 63,-114 -14,36 -30,98 -18,101 13,3 37,-55 58,-98 -11,28 -27,81 -16,84 12,4 80,-134 139,-266l-179 -58z"/>
     </g>
    </g>
    <g>
     <g>
      <path class="fil6" d="M7718 4553c-20,464 108,1627 108,1627l-144 91c0,0 442,21 455,8 12,-13 -17,-102 -17,-102 0,0 13,-1373 26,-1576 13,-203 -408,-513 -428,-48z"/>
      <path class="fil9" d="M8027 6277l105 -57 -8 -31 -137 89 -44 0 -153 -76 -166 104c-19,12 -10,42 12,42l224 -1 71 -50 20 0 0 50 193 -1 0 -69 -117 0z"/>
     </g>
     <g>
      <path class="fil6" d="M7129 4632c-32,653 -20,1547 -20,1547l-143 92c0,0 441,19 454,6 13,-13 -17,-101 -17,-101 0,0 123,-1133 167,-1557 44,-424 -409,-639 -441,13z"/>
      <path class="fil9" d="M7310 6276l106 -58 -9 -30 -137 88 -43 1 -154 -75 -165 104c-20,12 -11,42 12,42l223 -2 71 -50 20 0 1 50 192 -1 0 -69 -117 0z"/>
     </g>
     <path class="fil11" d="M7928 3567c38,26 123,147 159,265 82,279 84,896 84,896l-1065 0c0,0 6,-593 48,-851 22,-137 82,-257 119,-309l655 -1z"/>
     <path class="fil2 str18" d="M7333 3559c-32,27 -86,127 -101,240 -51,383 -40,929 -40,929"/>
    </g>
    <g>
     <g>
      <path class="fil1" d="M7668 2602c319,20 424,418 424,418l-225 155 -199 -573z"/>
     </g>
     <line class="fil2 str17" x1="7964" y1="3043" x2="8075" y2= "2969" />
     <path class="fil6" d="M7089 2792c0,0 -238,184 -276,184 -39,1 -346,-285 -346,-285l-161 189c0,0 323,440 496,440 231,0 476,-252 476,-252l-189 -276z"/>
     <g>
      <path class="fil1" d="M7434 2602c0,0 37,28 108,20 71,-8 129,-24 129,-24 1,2 287,133 296,299 11,185 10,295 -38,671 -123,0 -675,0 -656,0 0,0 -102,-460 -102,-636 0,-176 263,-330 263,-330z"/>
     </g>
     <g>
      <path class="fil1" d="M7434 2602c0,0 -97,-4 -181,43 -144,81 -264,210 -264,210l190 337 201 -142 54 -448z"/>
     </g>
     <path class="fil2 str17" d="M7973 3102c5,-155 -19,-261 -19,-261"/>
     <line class="fil2 str17" x1="7037" y1="2808" x2="7232" y2= "3163" />
     <line class="fil2 str17" x1="7200" y1="3186" x2="7367" y2= "3067" />
     <g>
      <path class="fil6" d="M6584 2798c0,0 -271,-251 -288,-245 -17,6 31,54 17,56 -15,2 -123,-112 -138,-101 -21,14 72,108 72,108 0,0 -24,-16 -39,1 -10,12 19,50 19,50 0,0 -28,-19 -38,-6 -11,13 15,52 15,52 0,0 -21,-15 -27,-1 -11,22 123,178 248,316l159 -230z"/>
     </g>
    </g>
    <g>
     <path class="fil6" d="M7655 2433l24 183c0,0 -119,122 -245,-14l-7 -102 228 -67z"/>
     <path class="fil6" d="M7456 2194c0,0 -172,194 -109,275 32,41 173,92 224,61 37,-24 108,-188 92,-220 -61,-123 -207,-116 -207,-116z"/>
     <path class="fil9" d="M7463 2230c-10,112 23,170 23,170 0,0 -75,236 -58,259 16,22 258,57 375,7 0,0 19,-357 -89,-448 -103,-86 -236,-78 -308,-33 0,0 6,21 33,33 12,6 27,12 27,12l-3 0z"/>
     <path class="fil6" d="M7463 2371c21,-26 38,-22 47,-7 12,19 -12,59 -24,66 -23,14 -42,13 -44,-6l21 -53z"/>
     <path class="fil2 str19" d="M7428 2517c24,0 32,-20 32,-20"/>
     <g>
      <g>
       <path class="fil15" d="M7410 2304c-7,6 -14,17 -10,25 2,2 4,3 6,3 16,-2 19,-40 4,-28z"/>
      </g>
     </g>
     <g>
      <path class="fil2 str20" d="M7412 2275c10,3 27,12 33,25"/>
     </g>
     <path class="fil3" d="M7391 2392l-35 -19c0,0 -23,43 -7,53 18,10 42,-34 42,-34z"/>
     <g>
      <path class="fil9" d="M7654 2185c-15,-4 -26,-20 -26,-35 1,-16 11,-30 25,-38 14,-7 31,-8 46,-4 5,2 11,4 16,8 19,14 19,45 5,65 -6,9 -14,16 -23,18 -10,2 -21,-1 -26,-10l-17 -4z"/>
     </g>
    </g>
   </g>
   <g>
    <g>
     <path class="fil3 str3" d="M5206 5832c-291,-88 -484,-188 -643,-346 -169,-169 -229,-332 -275,-561 -63,-320 -133,-829 -478,-951 -322,-113 -608,142 -772,404 -210,337 -274,675 -275,1071 0,321 83,909 1096,909 0,0 692,0 1204,0 665,0 562,-400 143,-526z"/>
     <g>
      <path class="fil16" d="M5117 5810c-60,-122 -313,-85 -586,-372 -159,-166 -224,-309 -269,-525 -38,-182 -180,-792 -433,-816 -102,-9 -206,3 -295,53 -125,68 -221,179 -290,303 -68,125 -110,261 -144,399 -47,191 -80,326 -56,521 40,331 249,624 572,701 327,78 622,51 1008,48 147,-2 616,-59 493,-312z"/>
     </g>
     <g>
      <g>
       <path class="fil10" d="M3432 4213c-135,117 -230,275 -296,439 -74,184 -115,383 -115,581 1,184 38,374 136,532 112,178 288,277 488,328 317,83 656,62 979,34 6,-1 6,-11 0,-10 -283,7 -567,32 -847,-15 -219,-37 -436,-117 -572,-301 -224,-302 -198,-737 -82,-1075 64,-188 165,-373 316,-506 4,-4 -2,-10 -7,-7z"/>
      </g>
     </g>
    </g>
    <g>
     <g>
      <g>
       <g>
        <path class="fil17" d="M5240 5874l411 306 77 118 441 -300c10,-8 13,-22 6,-33 -6,-8 -15,-12 -25,-10l-250 41 -407 -336 -253 214z"/>
        <g>
         <path class="fil18" d="M6204 5967c-14,-11 -33,-22 -44,-20l-261 50c-81,120 -248,183 -248,183l77 170c3,5 10,6 15,2l492 -332c10,-6 -30,-53 -31,-53z"/>
        </g>
        <path class="fil2 str21" d="M5949 5976c-1,22 0,45 4,67"/>
        <path class="fil2 str21" d="M5985 5974c-1,24 1,37 4,57"/>
        <path class="fil2 str21" d="M6014 5971c-1,16 1,36 3,52"/>
       </g>
       <line class="fil2 str21" x1="5714" y1="6324" x2="6217" y2= "5981" />
       <path class="fil2 str21" d="M5678 6240c0,0 120,-77 178,-13"/>
       <path class="fil2 str21" d="M6107 5958c0,0 -1,68 7,94"/>
      </g>
     </g>
     <g>
      <g>
       <g>
        <path class="fil17" d="M4647 5732l175 428 -2 141 533 -3c13,0 24,-10 24,-23 0,-10 -6,-19 -15,-22l-230 -106 -156 -450 -329 35z"/>
        <g>
         <path class="fil18" d="M5400 6293c-5,-18 -15,-37 -25,-41l-244 -105c-135,54 -309,13 -309,13l-31 183c0,6 5,11 11,11l594 0c12,0 4,-61 4,-61z"/>
        </g>
        <path class="fil2 str21" d="M5184 6157c-14,18 -26,38 -35,58"/>
        <path class="fil2 str21" d="M5214 6176c-14,19 -20,31 -28,49"/>
        <path class="fil2 str21" d="M5240 6189c-9,13 -19,31 -26,45"/>
       </g>
       <line class="fil2 str21" x1="4794" y1="6315" x2="5403" y2= "6312" />
       <path class="fil2 str21" d="M4811 6225c0,0 143,3 155,89"/>
       <path class="fil2 str21" d="M5325 6230c0,0 -40,56 -48,82"/>
      </g>
     </g>
     <g>
      <g>
       <path class="fil17" d="M3885 3939c0,0 117,184 67,263 -26,41 -123,69 -172,45 -36,-18 -116,-161 -105,-192 45,-118 210,-116 210,-116z"/>
       <path class="fil17" d="M3666 4197l-11 142c0,0 91,226 254,22l-7 -156 -236 -8z"/>
       <g>
        <path class="fil19" d="M3616 4154c-17,-41 -31,-62 -38,-112 -7,-52 35,-67 35,-67 0,0 -7,6 16,-39 22,-43 94,-41 138,-48 57,-9 142,-60 176,-38 15,10 15,99 -32,125 -26,15 -70,6 -101,11 -58,9 -71,21 -78,58 -4,20 -42,17 -21,58 4,7 5,13 6,18l-23 16c-29,20 34,71 29,95 -2,13 -28,18 -51,8 -22,-11 -38,-40 -56,-85z"/>
       </g>
       <path class="fil17" d="M3709 4138c-26,-26 -44,-20 -53,-3 -11,23 20,64 34,70 27,13 47,9 47,-12l-28 -55z"/>
       <path class="fil2 str22" d="M3904 4246c-88,20 -133,-6 -133,-6"/>
       <path class="fil2 str23" d="M3874 4049c0,0 42,46 42,61 -1,14 -35,22 -35,22"/>
       <path class="fil3" d="M3932 4138l-90 28c0,0 26,45 74,26 35,-14 16,-54 16,-54z"/>
       <g>
        <g>
         <path class="fil8" d="M3899 4031c1,4 3,9 5,13 4,7 14,1 11,-6 -2,-4 -4,-8 -6,-11 -3,-5 -12,-2 -10,4z"/>
        </g>
       </g>
       <path class="fil2 str12" d="M3876 4010c0,0 11,-21 34,-10"/>
       <g>
        <g>
         <path class="fil8" d="M3798 4074c1,4 2,8 4,11 3,8 15,5 12,-3 -2,-4 -4,-9 -6,-13 -3,-5 -12,-1 -10,5z"/>
        </g>
       </g>
       <path class="fil2 str12" d="M3807 4033c0,0 -24,-4 -43,27"/>
      </g>
      <g>
       <path class="fil17" d="M4330 4649c0,0 139,268 180,274 49,6 434,-279 434,-279l156 188c0,0 -361,438 -604,438 -243,0 -468,-438 -468,-438l302 -183z"/>
       <g>
        <path class="fil11" d="M3655 4339c0,0 35,64 139,59 80,-4 115,-37 115,-37 0,0 237,62 284,374 43,291 97,788 97,788l-901 60c0,0 -22,-326 11,-706 25,-284 255,-538 255,-538z"/>
       </g>
       <g>
        <path class="fil13" d="M3634 5321l485 7 -1 29 -512 -7c1,-16 13,-29 28,-29z"/>
        <path class="fil13" d="M4709 5365l-681 -9 136 -455c7,-23 27,-39 50,-39l615 9c14,0 24,15 19,29l-139 465z"/>
        <path class="fil14" d="M4739 5366l-681 -10 137 -455c7,-23 27,-39 49,-38l616 8c14,0 23,15 19,29l-140 466z"/>
        <path class="fil13" d="M4542 5094c-5,21 -28,38 -54,38 -25,-1 -42,-18 -38,-39 5,-22 29,-39 54,-38 25,0 42,18 38,39z"/>
       </g>
       <g>
        <path class="fil11" d="M3909 4361c90,-6 205,17 268,58 169,109 239,343 239,343l-232 59 -275 -460z"/>
       </g>
       <g>
        <g>
         <path class="fil17" d="M3575 4871c0,0 -68,239 -53,291 12,39 356,89 356,89l18 228c0,0 -608,40 -696,-70 -120,-151 17,-608 17,-608l358 70z"/>
         <g>
          <g>
           <g>
            <path class="fil17" d="M3806 5248c51,1 318,14 317,28 -1,13 -78,22 -74,29 5,9 63,15 96,14 29,0 77,5 78,18 4,24 -158,23 -158,23 0,0 174,-31 179,-11 7,29 -178,55 -184,62 0,0 154,-67 160,-46 5,22 -132,85 -176,89 36,-10 139,-81 143,-62 4,20 -88,63 -104,67 -126,28 -245,18 -245,18l-32 -229z"/>
           </g>
          </g>
         </g>
         <g>
          <path class="fil20" d="M4207 5349c-20,5 -41,8 -62,10 -10,1 -21,2 -31,2 -11,0 -21,0 -32,-1 21,-4 42,-7 62,-9 21,-2 42,-3 63,-2z"/>
         </g>
         <g>
          <path class="fil20" d="M4193 5379c-22,9 -43,15 -66,20 -11,2 -22,4 -34,6 -11,1 -22,2 -34,0 45,-8 88,-20 134,-26z"/>
         </g>
         <g>
          <path class="fil20" d="M4168 5409c-19,9 -38,16 -57,21 -10,3 -20,6 -30,7 -10,2 -20,4 -30,4 19,-7 38,-13 58,-18 19,-6 39,-11 59,-14z"/>
         </g>
        </g>
       </g>
       <g>
        <path class="fil11" d="M3655 4339c0,0 -182,12 -251,64 -186,140 -229,413 -229,413l407 107 74 -225 -1 -359z"/>
       </g>
       <path class="fil2 str18" d="M3566 4924c21,-105 56,-189 56,-189"/>
       <path class="fil2 str18" d="M4206 4815c-30,-156 -68,-252 -68,-252"/>
       <line class="fil2 str18" x1="3190" y1="4753" x2="3579" y2= "4868" />
       <line class="fil2 str18" x1="4396" y1="4707" x2="4195" y2= "4761" />
       <path class="fil2 str21" d="M3616 4343c0,0 49,95 191,86 143,-10 149,-68 149,-68"/>
       <g>
        <path class="fil17" d="M4841 4723c0,0 269,-209 282,-205 14,5 -23,44 -12,46 12,1 97,-86 110,-79 16,11 -71,94 -71,94 0,0 102,-85 113,-72 9,10 -91,105 -91,105 0,0 101,-73 109,-63 9,10 -80,94 -80,94 0,0 70,-61 81,-51 11,11 -138,201 -267,330l-174 -199z"/>
       </g>
       <path class="fil2 str22" d="M5092 4575c0,0 -19,49 -44,86"/>
       <path class="fil2 str22" d="M5081 4684c29,-29 67,-34 103,-33"/>
      </g>
     </g>
     <g>
      <path class="fil21" d="M3783 5931c0,0 -25,145 123,135 360,-24 934,-453 934,-453l698 540 287 -306c0,0 -472,-394 -611,-501 -58,-44 -178,-144 -312,-135 -135,9 -894,305 -894,305l-225 415z"/>
      <path class="fil2 str14" d="M3901 5988c311,-21 779,-359 903,-434 19,-11 43,-10 60,3"/>
      <line class="fil2 str14" x1="4864" y1="5557" x2="5576" y2= "6113" />
      <path class="fil10" d="M3420 5581c0,0 -60,533 384,504 313,-21 706,-467 706,-467l241 547 411 -122c0,0 -202,-507 -271,-679 -59,-147 -166,-262 -272,-276 -106,-14 -218,34 -351,111 -106,62 -439,355 -439,355l-409 27z"/>
      <path class="fil2 str14" d="M3538 5573c0,0 -26,441 291,420 191,-13 565,-391 670,-482 15,-13 36,-8 44,10"/>
      <line class="fil2 str14" x1="4543" y1="5521" x2="4817" y2= "6145" />
      <path class="fil2 str14" d="M3542 5684c0,0 126,-16 135,-120"/>
      <line class="fil2 str14" x1="4718" y1="6089" x2="5131" y2= "5965" />
      <line class="fil2 str14" x1="5471" y1="6101" x2="5759" y2= "5792" />
     </g>
    </g>
   </g>
   <g>
    <g>
     <g>
      <path class="fil7" d="M2030 2344c0,-7 9,-11 15,-10 10,2 18,9 22,18 5,8 6,18 6,28 0,9 0,18 -4,26 -8,14 -27,21 -41,14l2 -76z"/>
     </g>
     <path class="fil6" d="M2022 2217c0,0 56,213 25,257 -46,65 -156,70 -202,40 -38,-25 -70,-161 -70,-197 0,-95 196,-151 247,-100z"/>
     <path class="fil6" d="M1738 2468l-21 187c0,0 69,76 175,76 106,0 106,-71 106,-71l-20 -161 -163 -171 -77 140z"/>
     <g>
      <path class="fil22" d="M1837 2311c0,-12 -1,-24 -1,-37 0,-2 -1,-28 -4,-29 53,11 106,14 159,11 17,-1 35,-3 49,-12 13,-9 10,-131 -145,-137 -29,-1 -60,0 -86,14 -27,14 -67,41 -67,71 -39,12 -79,88 -57,168 12,45 20,91 53,108 42,-17 71,-65 78,-75 16,-22 21,-56 21,-82z"/>
     </g>
     <path class="fil2 str10" d="M1981 2526c0,0 -73,14 -124,-13 -40,-21 -54,-71 -54,-71"/>
     <g>
      <path class="fil6" d="M1828 2372c-5,-8 -20,-18 -29,-17 -8,1 -16,6 -22,13 -28,31 2,91 45,85 16,-3 12,-23 12,-23l-6 -58z"/>
     </g>
     <path class="fil2 str11" d="M1986 2328c0,0 32,50 29,64 -3,14 -36,16 -36,16"/>
     <path class="fil3" d="M2015 2425l-90 13c0,0 17,47 66,36 36,-7 24,-49 24,-49z"/>
     <g>
      <g>
       <path class="fil8" d="M2012 2315c1,4 2,8 3,12 2,8 14,5 12,-3 -1,-4 -3,-8 -4,-12 -3,-6 -12,-4 -11,3z"/>
      </g>
     </g>
     <path class="fil2 str12" d="M1994 2291c0,0 14,-19 34,-4"/>
     <g>
      <g>
       <path class="fil8" d="M1909 2338c0,5 1,9 2,14 2,7 14,4 12,-4 -1,-4 -2,-8 -3,-11 -2,-6 -12,-5 -11,1z"/>
      </g>
     </g>
     <path class="fil2 str12" d="M1924 2301c0,0 -22,-7 -45,19"/>
    </g>
    <g>
     <g>
      <g>
       <g>
        <path class="fil6" d="M2065 5732l43 433 -4 136 534 -3c13,0 23,-10 23,-23 0,-10 -6,-19 -15,-22l-230 -106 -22 -450 -329 35z"/>
        <path class="fil9" d="M2685 6293c-6,-18 -16,-37 -26,-41l-244 -105c-134,54 -308,13 -308,13l-31 183c0,6 5,11 11,11l594 0c12,0 4,-61 4,-61z"/>
        <g>
         <path class="fil2 str13" d="M2468 6157c-14,18 -25,38 -34,58"/>
        </g>
        <g>
         <path class="fil2 str13" d="M2499 6176c-14,19 -20,31 -29,49"/>
        </g>
        <g>
         <path class="fil2 str13" d="M2525 6189c-10,13 -19,31 -27,45"/>
        </g>
       </g>
       <g>
        <line class="fil2 str13" x1="2079" y1="6315" x2="2687" y2= "6312" />
       </g>
       <g>
        <path class="fil2 str13" d="M2096 6225c0,0 143,3 155,89"/>
       </g>
       <g>
        <path class="fil2 str13" d="M2609 6230c0,0 -39,56 -47,82"/>
       </g>
      </g>
     </g>
     <g>
      <path class="fil10" d="M2315 3874c91,659 173,2216 173,2216l-459 0c0,0 -95,-973 -175,-1677 -202,-335 -186,-697 -209,-745l670 206z"/>
     </g>
     <path class="fil2 str14" d="M2092 6090c0,0 -114,-1075 -194,-1779"/>
     <g>
      <g>
       <g>
        <path class="fil6" d="M1327 5732l-19 433 -4 136 533 -3c13,0 24,-10 24,-23 0,-10 -6,-19 -15,-22l-230 -106 40 -450 -329 35z"/>
        <path class="fil9" d="M1884 6293c-5,-18 -15,-37 -25,-41l-244 -105c-135,54 -309,13 -309,13l-31 183c0,6 5,11 11,11l594 0c12,0 4,-61 4,-61z"/>
        <g>
         <path class="fil2 str13" d="M1667 6157c-13,18 -25,38 -34,58"/>
        </g>
        <g>
         <path class="fil2 str13" d="M1698 6176c-14,19 -20,31 -28,49"/>
        </g>
        <g>
         <path class="fil2 str13" d="M1724 6189c-9,13 -19,31 -26,45"/>
        </g>
       </g>
       <g>
        <line class="fil2 str13" x1="1278" y1="6315" x2="1887" y2= "6312" />
       </g>
       <g>
        <path class="fil2 str13" d="M1295 6225c0,0 143,3 155,89"/>
       </g>
       <g>
        <path class="fil2 str13" d="M1809 6230c0,0 -40,56 -48,82"/>
       </g>
      </g>
     </g>
     <g>
      <path class="fil10" d="M1341 3813c-12,150 -11,335 12,515 -40,794 -94,1762 -94,1762l459 0c0,0 222,-1757 232,-2290l-609 13z"/>
     </g>
     <path class="fil2 str14" d="M1420 3813c-13,150 -12,335 11,515 -39,794 -93,1762 -93,1762"/>
     <path class="fil2 str14" d="M1882 4663c0,0 64,-551 69,-753"/>
     <line class="fil2 str14" x1="1264" y1="5999" x2="1730" y2= "5999" />
     <line class="fil2 str14" x1="2020" y1="5998" x2="2483" y2= "5998" />
     <path class="fil2 str14" d="M1415 4132c0,0 132,11 204,-177"/>
     <path class="fil2 str14" d="M1931 4132c0,0 46,-13 50,-27 5,-14 17,-185 17,-185"/>
     <path class="fil2 str14" d="M2167 3955c0,0 10,154 179,177"/>
    </g>
    <g>
     <path class="fil6" d="M2425 2991c0,0 107,149 141,156 34,7 331,-325 331,-325l181 140c0,0 -269,544 -522,558 -218,13 -429,-328 -429,-328l298 -201z"/>
     <g>
      <path class="fil11" d="M1724 2596c0,0 30,44 153,57 93,10 116,-35 116,-35 0,0 225,120 291,616 67,495 73,755 73,755l-1054 0c0,0 -4,-377 27,-701 32,-334 102,-615 394,-692z"/>
     </g>
     <g>
      <polygon class="fil16" points="2066,4086 1581,3993 1565,3977 1739,3258 2256,3382 2271,3398 "/>
      <polygon class="fil23" points="2066,4086 1581,3993 1565,3977 1739,3258 1754,3273 "/>
      <polygon class="fil24" points="2098,4118 1581,3993 1754,3273 2271,3398 "/>
      <g>
       <path class="fil3" d="M2102 4132l-516 -124c0,0 111,-469 130,-542 0,0 34,-82 95,-113 35,-17 80,-27 120,-23l345 83 -174 719z"/>
       <g>
        <line class="fil2 str24" x1="2052" y1="4055" x2="1666" y2= "3966" />
        <line class="fil2 str24" x1="2062" y1="4013" x2="1676" y2= "3924" />
        <line class="fil2 str24" x1="2073" y1="3971" x2="1687" y2= "3882" />
        <line class="fil2 str24" x1="2083" y1="3929" x2="1697" y2= "3840" />
        <line class="fil2 str24" x1="2094" y1="3887" x2="1708" y2= "3798" />
        <line class="fil2 str24" x1="2104" y1="3845" x2="1718" y2= "3756" />
        <line class="fil2 str24" x1="2115" y1="3803" x2="1729" y2= "3714" />
        <line class="fil2 str24" x1="2125" y1="3761" x2="1739" y2= "3672" />
        <line class="fil2 str24" x1="2136" y1="3719" x2="1750" y2= "3630" />
        <line class="fil2 str24" x1="2146" y1="3677" x2="1760" y2= "3587" />
        <line class="fil2 str24" x1="2157" y1="3635" x2="1771" y2= "3545" />
        <line class="fil2 str24" x1="2167" y1="3592" x2="1781" y2= "3503" />
        <line class="fil2 str24" x1="2178" y1="3550" x2="1792" y2= "3461" />
        <line class="fil2 str24" x1="2188" y1="3508" x2="1802" y2= "3419" />
        <line class="fil2 str24" x1="2127" y1="3428" x2="1917" y2= "3380" />
       </g>
       <g>
        <path class="fil16" d="M1811 3353c-61,31 -95,113 -95,113 0,0 78,-78 154,-73 1,-40 61,-63 61,-63 -40,-4 -85,6 -120,23z"/>
       </g>
      </g>
     </g>
     <g>
      <path class="fil11" d="M1993 2618c109,10 230,52 293,131 124,155 218,330 218,330l-296 209 -215 -670z"/>
     </g>
     <g>
      <path class="fil2 str18" d="M2286 3231c-18,-139 -56,-317 -56,-317"/>
     </g>
     <g>
      <line class="fil2 str18" x1="2276" y1="3162" x2="2476" y2= "3024" />
     </g>
     <g>
      <g>
       <path class="fil6" d="M1484 3261c0,0 -103,226 -95,280 6,40 339,141 339,141l-17 228c0,0 -607,-51 -678,-173 -96,-167 108,-598 108,-598l343 122z"/>
       <g>
        <g>
         <g>
          <path class="fil6" d="M1657 3668c50,9 312,62 309,75 -3,13 -80,10 -78,18 3,10 60,24 93,29 29,4 75,15 75,28 0,25 -160,-1 -160,-1 0,0 177,-4 178,16 3,30 -184,28 -191,34 0,0 163,-43 165,-21 2,22 -143,64 -187,61 37,-4 150,-59 151,-39 1,20 -97,49 -113,50 -128,10 -245,-18 -245,-18l3 -232z"/>
         </g>
        </g>
       </g>
       <g>
        <path class="fil12" d="M2038 3828c-21,2 -42,2 -63,1 -10,-1 -21,-2 -31,-3 -11,-2 -21,-3 -31,-6 21,-1 42,0 63,1 20,1 41,3 62,7z"/>
       </g>
       <g>
        <path class="fil12" d="M2019 3855c-22,6 -45,9 -67,11 -12,0 -23,1 -35,0 -11,0 -23,-1 -34,-4 46,-2 90,-7 136,-7z"/>
       </g>
       <g>
        <path class="fil12" d="M1990 3881c-19,7 -39,10 -59,13 -11,1 -21,2 -31,3 -10,0 -20,0 -30,-2 20,-3 40,-6 60,-9 20,-2 40,-4 60,-5z"/>
       </g>
      </g>
     </g>
     <g>
      <path class="fil11" d="M1728 2596c-125,-2 -246,21 -324,78 -145,108 -283,465 -283,465l403 156 175 -342 29 -357z"/>
     </g>
     <g>
      <line class="fil2 str18" x1="1496" y1="3288" x2="1631" y2= "3052" />
     </g>
     <g>
      <line class="fil2 str18" x1="1534" y1="3221" x2="1156" y2= "3064" />
     </g>
     <path class="fil2 str25" d="M1674 2596c0,0 68,89 205,89 136,0 151,-62 151,-62"/>
     <g>
      <path class="fil6" d="M2821 2910c0,0 198,-249 212,-248 13,1 -13,47 -1,45 11,-1 71,-102 84,-97 18,6 -39,95 -39,95 0,0 16,-16 30,-6 10,7 -1,34 -1,34 0,0 17,-9 27,-2 10,8 0,31 0,31 0,0 16,-19 27,-3 10,15 -43,151 -135,300l-204 -149z"/>
     </g>
     <path class="fil2 str15" d="M3018 2730c0,0 -7,49 -22,90"/>
     <g>
      <path class="fil12" d="M3155 2790c-7,12 -15,23 -24,34 -4,6 -9,11 -14,16 -2,3 -5,5 -8,7 -3,2 -8,5 -12,1 -3,-4 -2,-8 -2,-12 1,-3 2,-7 3,-10 2,-7 5,-14 7,-20 6,-13 12,-26 18,-38l6 3c-8,14 -16,27 -26,40 -4,6 -9,13 -15,19 -3,3 -6,6 -10,8 -2,1 -5,2 -9,0 -4,-2 -4,-6 -5,-8 0,-9 3,-17 5,-24 2,-8 5,-15 8,-23 6,-15 12,-29 19,-43l6 3c-8,14 -16,28 -25,42 -5,6 -9,13 -15,19 -3,3 -6,6 -9,9 -2,1 -5,2 -8,2 -3,-1 -5,-5 -5,-7 0,-18 7,-32 13,-47 6,-15 12,-30 19,-45 -6,15 -12,30 -17,46 -2,7 -5,15 -7,23 -2,7 -4,15 -3,22 0,2 1,3 1,3 1,0 2,-1 4,-2 3,-2 5,-5 8,-8 5,-6 10,-12 14,-19 8,-13 16,-27 24,-41l6 3c-6,14 -13,28 -18,43 -5,14 -12,30 -12,44 0,1 1,2 0,2 0,0 1,0 2,-1 3,-1 6,-4 9,-7 5,-5 10,-11 14,-17 10,-13 18,-26 26,-39l6 3c-6,12 -13,25 -19,37 -2,6 -5,13 -7,19 -2,4 -3,7 -3,10 -1,3 -1,7 0,8 1,1 4,1 7,-1 3,-2 5,-4 8,-6 5,-5 10,-10 14,-15 9,-10 18,-21 26,-33z"/>
     </g>
    </g>
   </g>
  </g>
 </g>
</svg>
