<?xml version="1.0" encoding="UTF-8"?>
<svg width="18px" height="16px" viewBox="0 0 18 16" version="1.1" xmlns="http://www.w3.org/2000/svg" xmlns:xlink="http://www.w3.org/1999/xlink">
    <!-- Generator: sketchtool 63.1 (101010) - https://sketch.com -->
    <title>FB98B0B9-F8D4-4AF1-8C1A-384DD396C2F6</title>
    <desc>Created with sketchtool.</desc>
    <g id="Page-1" stroke="none" stroke-width="1" fill="none" fill-rule="evenodd">
        <g id="2.1-Jobs-Listing-Filter" transform="translate(-189.000000, -417.000000)">
            <g id="Group-4" transform="translate(149.000000, 353.000000)">
                <g id="Group-5" transform="translate(40.000000, 63.000000)">
                    <g id="office-copy">
                        <rect id="Rectangle" fill="#D8D8D8" opacity="0" x="0" y="0" width="18" height="18"></rect>
                        <g id="briefcase" transform="translate(0.750000, 1.500000)" fill="#3B95CB" fill-rule="nonzero">
                            <path d="M2.25,15 C1.00735931,15 0,13.9926407 0,12.75 L0,12.75 L0,5.25 C0,4.00735931 1.00735931,3 2.25,3 L2.25,3 L4.5,3 L4.5,2.25 C4.5,1.05173934 5.43668997,0.0722543404 6.61779541,0.00381952006 L6.75,0 L9.75,0 C10.9482607,0 11.9277457,0.936689973 11.9961805,2.11779541 L12,2.25 L12,3 L14.25,3 C15.440864,3 16.4156449,3.92516159 16.4948092,5.09595119 L16.5,5.25 L16.5,12.75 C16.5,13.9926407 15.4926407,15 14.25,15 L14.25,15 Z M4.5,4.5 L2.25,4.5 C1.83578644,4.5 1.5,4.83578644 1.5,5.25 L1.5,5.25 L1.5,12.75 C1.5,13.1642136 1.83578644,13.5 2.25,13.5 L2.25,13.5 L4.5,13.5 L4.5,4.5 Z M10.5,4.5 L6,4.5 L6,13.5 L10.5,13.5 L10.5,4.5 Z M14.25,4.5 L12,4.5 L12,13.5 L14.25,13.5 C14.6296958,13.5 14.943491,13.2178461 14.9931534,12.8517706 L15,12.75 L15,5.25 C15,4.83578644 14.6642136,4.5 14.25,4.5 L14.25,4.5 Z M9.75,1.5 L6.75,1.5 C6.36537312,1.5 6.04836963,1.78953014 6.0050458,2.16253416 L6,2.25 L6,3 L10.5,3 L10.5,2.25 C10.5,1.86537312 10.2104699,1.54836963 9.83746584,1.5050458 L9.75,1.5 Z" id="Combined-Shape"></path>
                        </g>
                    </g>
                </g>
            </g>
        </g>
    </g>
</svg>