<?xml version="1.0" encoding="UTF-8"?>
<svg width="622px" height="536px" viewBox="0 0 622 536" version="1.1" xmlns="http://www.w3.org/2000/svg" xmlns:xlink="http://www.w3.org/1999/xlink">
    <!-- Generator: sketchtool 61.2 (101010) - https://sketch.com -->
    <title>CF2A9F5D-DEC3-4734-B232-CDBA9B54CCC1</title>
    <desc>Created with sketchtool.</desc>
    <defs>
        <polygon id="path-1" points="0.564 129.782 20.1641 194.9819 243.3641 194.3818 184.4642 0.4819"></polygon>
    </defs>
    <g id="Color-Change" stroke="none" stroke-width="1" fill="none" fill-rule="evenodd">
        <g id="Illustration" transform="translate(-633.000000, -2330.000000)">
            <g id="Color-corrected" transform="translate(230.000000, 331.000000)">
                <g id="Group-4" transform="translate(403.000000, 1999.000000)">
                    <path d="M86.2642,535.3818 C86.2642,239.9819 325.7642,0.4819 621.1642,0.4819 L621.9642,535.8818" id="Path" fill="#FADCE8" fill-rule="nonzero" opacity="0.2"></path>
                    <g id="Group" transform="translate(527.000000, 434.000000)" stroke="#FFA300" stroke-width="2">
                        <line x1="19.7643" y1="100.082" x2="17.3641" y2="90.3818" id="Path"></line>
                        <line x1="12.6642" y1="71.4819" x2="5.5641" y2="43.082" id="Path" stroke-dasharray="19.4927,19.4927"></line>
                        <polyline id="Path" points="3.2643 33.582 0.7643 23.8818 10.4642 21.4819"></polyline>
                        <line x1="35.2643" y1="15.282" x2="72.2643" y2="5.8818" id="Path" stroke-dasharray="25.4851,25.4851"></line>
                        <line x1="84.6642" y1="2.782" x2="94.3641" y2="0.282" id="Path"></line>
                    </g>
                    <polygon id="Path" fill="#AAD87C" fill-rule="nonzero" points="231.3641 469.6819 251.064 534.8818 474.1642 534.282 415.3641 340.3818"></polygon>
                    <g id="Clipped" transform="translate(231.000000, 340.000000)">
                        <mask id="mask-2" fill="white">
                            <use xlink:href="#path-1"></use>
                        </mask>
                        <g id="SVGID_13_"></g>
                        <g id="Group" mask="url(#mask-2)" opacity="0.6" stroke="#501DA0">
                            <g transform="translate(-33.000000, -118.000000)" id="Path">
                                <line x1="26.064" y1="381.8818" x2="186.4642" y2="30.1819"></line>
                                <line x1="13.1641" y1="366.8818" x2="173.5641" y2="15.1819"></line>
                                <line x1="0.2642" y1="351.8818" x2="160.6642" y2="0.1819"></line>
                                <line x1="38.9642" y1="396.8818" x2="199.3641" y2="45.1819"></line>
                                <line x1="51.8641" y1="411.782" x2="212.2643" y2="60.1819"></line>
                                <line x1="64.7642" y1="426.782" x2="225.1642" y2="75.082"></line>
                                <line x1="77.6641" y1="441.782" x2="238.0641" y2="90.082"></line>
                                <line x1="90.4642" y1="456.782" x2="250.9642" y2="105.082"></line>
                                <line x1="103.3641" y1="471.782" x2="263.7643" y2="120.082"></line>
                                <line x1="116.2642" y1="486.6819" x2="276.6642" y2="135.082"></line>
                                <line x1="129.1641" y1="501.6819" x2="289.5641" y2="149.9819"></line>
                                <line x1="143.9642" y1="505.6819" x2="304.3641" y2="153.9819"></line>
                                <line x1="156.8641" y1="520.6819" x2="317.2643" y2="168.9819"></line>
                                <line x1="172.2643" y1="524.082" x2="332.6642" y2="172.3818"></line>
                            </g>
                        </g>
                    </g>
                    <path d="M232.7642,470.9819 C244.3643,484.4819 294.0642,465.1819 344.0643,428.382 C394.3643,391.2819 426.7643,351.582 413.1644,337.082 C400.9644,323.9819 351.6644,342.6819 301.8643,379.6819 C252.1641,416.582 221.1641,457.4819 232.7642,470.9819 Z" id="Path" fill="#165D0A" fill-rule="nonzero"></path>
                    <circle id="Oval" fill="#FADCE8" fill-rule="nonzero" cx="548.9642" cy="192.9819" r="15.4"></circle>
                    <circle id="Oval" fill="#E24D8A" fill-rule="nonzero" opacity="0.7" cx="16.2642" cy="455.3818" r="15.4"></circle>
                    <path d="M332.3641,436.782 L315.4642,335.782 C315.4642,335.782 315.1642,330.782 310.5643,329.082 C305.9642,327.382 255.0643,303.782 226.1644,200.1819 C226.1644,200.1819 208.3644,152.8819 233.6644,143.582 C233.6644,143.582 185.2645,55.782 216.6644,39.882 C240.6644,27.682 251.5643,60.2819 251.5643,60.2819 L276.9642,52.7819 C276.9642,52.7819 261.8641,18.682 287.0643,12.4819 C296.5643,10.1819 305.5643,14.7819 315.3643,40.382 C324.9644,65.682 337.5643,79.682 337.5643,79.682 C337.5643,79.682 341.3643,19.0819 361.8643,14.982 C372.7642,12.782 381.0643,19.5819 382.6643,29.182 C384.8643,35.7819 389.1643,159.382 388.3643,185.0819 C388.3643,185.0819 431.2642,182.3819 443.9644,223.5819 C461.1644,279.2819 413.2644,314.5819 413.2644,314.5819 L416.3645,345.5819 C416.4642,345.6819 419.9642,375.8818 332.3641,436.782 Z" id="Path" fill="#FE9B71" fill-rule="nonzero"></path>
                    <path d="M389.6642,253.082 L297.1641,282.9819 C291.8641,284.6819 286.2642,281.7819 284.564,276.582 L221.364,81.282 C219.664,75.982 222.564,70.3819 227.7639,68.6819 L320.2639,38.782 C325.5639,37.082 331.1638,39.982 332.864,45.1819 L396.064,240.4819 C397.7643,245.6819 394.9642,251.3818 389.6642,253.082 Z" id="Path" fill="#165D0A" fill-rule="nonzero"></path>
                    <rect id="Rectangle" fill="#FFFFFF" fill-rule="nonzero" transform="translate(306.532217, 152.936270) rotate(-17.920384) translate(-306.532217, -152.936270) " x="255.730566" y="61.0333707" width="101.603302" height="183.805799"></rect>
                    <ellipse id="Oval" fill="#DFD5EF" fill-rule="nonzero" transform="translate(295.715981, 119.040327) rotate(-30.000728) translate(-295.715981, -119.040327) " cx="295.715981" cy="119.040327" rx="28.998762" ry="30.6986246"></ellipse>
                    <path d="M362.1642,225.3818 L304.564,244.3818 C297.264,246.7819 289.4639,242.8818 287.064,235.5818 L287.064,235.5818 C284.6641,228.2818 288.564,220.4819 295.864,218.0818 L353.4642,199.0818 C360.7642,196.6819 368.5643,200.5818 370.9642,207.8818 L370.9642,207.8818 C373.4642,215.1819 369.4642,222.9819 362.1642,225.3818 Z" id="Path" fill="#DFD5EF" fill-rule="nonzero"></path>
                    <circle id="Oval" fill="#00CF69" fill-rule="nonzero" cx="300.3641" cy="231.1819" r="13.8"></circle>
                    <path d="M295.3641,232.4819 L298.4642,229.582 L296.1642,225.782 L291.8642,228.082 C291.8642,228.082 295.3642,238.4819 308.5642,235.382 L307.5642,230.582 L303.2642,230.6819 L303.0642,235.582" id="Path" stroke="#FFFFFF" fill="#FFFFFF" fill-rule="nonzero"></path>
                    <path d="M227.4642,146.782 C227.4642,146.782 251.6642,129.1819 260.8641,172.582 C270.1641,215.9819 269.264,231.9819 269.264,231.9819" id="Path" fill="#FE9B71" fill-rule="nonzero"></path>
                    <path d="M388.4642,185.082 C388.4642,185.082 328.7642,185.282 329.2642,219.282 C329.2642,219.282 329.9642,244.6819 379.6642,241.582 C379.6642,241.582 363.5641,251.9819 355.9642,286.582 L435.0643,254.4819 L388.4642,185.082 Z" id="Path" fill="#FE9B71" fill-rule="nonzero"></path>
                    <path d="M379.6642,241.6819 C379.6642,241.6819 363.5641,252.082 355.9642,286.6819" id="Path" stroke="#501DA0"></path>
                    <path d="M388.4642,185.082 C388.4642,185.082 378.7642,185.382 370.8641,186.782" id="Path" stroke="#501DA0"></path>
                    <path d="M310.6641,328.9819 C310.6641,328.9819 323.064,334.1819 339.7643,332.9819 L319.4642,360.882 L315.7642,336.9819 C315.6641,336.9819 315.9642,331.282 310.6641,328.9819 Z" id="Path" fill="#165D0A" fill-rule="nonzero"></path>
                    <path d="M337.0641,218.282 C336.564,200.582 358.5641,195.8819 367.3641,194.6819 C369.1641,194.4819 370.764,195.8819 370.764,197.782 C370.6639,202.6819 370.3641,211.982 369.8641,220.3819" id="Path" stroke="#501DA0"></path>
                </g>
            </g>
        </g>
    </g>
</svg>