<?xml version="1.0" encoding="UTF-8"?>
<svg width="16px" height="16px" viewBox="0 0 16 16" version="1.1" xmlns="http://www.w3.org/2000/svg" xmlns:xlink="http://www.w3.org/1999/xlink">
    <!-- Generator: sketchtool 63.1 (101010) - https://sketch.com -->
    <title>54500039-BA04-4DFA-A09D-4EC6AABCF890</title>
    <desc>Created with sketchtool.</desc>
    <g id="Page-2" stroke="none" stroke-width="1" fill="none" fill-rule="evenodd">
        <g id="1.1-Admin-Industries" transform="translate(-1285.000000, -69.000000)" fill="#E85697" fill-rule="nonzero">
            <g id="::-Bottom-Area-::">
                <g id="add-industry" transform="translate(1285.000000, 68.000000)">
                    <g id="add" transform="translate(0.000000, 1.000000)">
                        <path d="M7.99008673,0 C12.4114002,0 16,3.56877323 16,7.99008673 C16,12.4114002 12.4114002,16 7.99008673,16 C3.56877323,16 0,12.4114002 0,7.99008673 C0,3.56877323 3.56877323,0 7.99008673,0 Z M7.5142503,7.5142503 L4.28252787,7.5142503 C3.6480793,7.5142503 3.6480793,8.46592315 4.28252787,8.46592315 L7.5142503,8.46592315 L7.5142503,11.7174721 C7.5142503,12.3320941 8.46592315,12.3320941 8.46592315,11.7174721 L8.46592315,8.46592315 L11.7174721,8.46592315 C12.3320941,8.46592315 12.3320941,7.5142503 11.7174721,7.5142503 L8.46592315,7.5142503 L8.46592315,4.28252787 C8.46592315,3.6480793 7.5142503,3.6480793 7.5142503,4.28252787 L7.5142503,7.5142503 Z" id="Shape"></path>
                    </g>
                </g>
            </g>
        </g>
    </g>
</svg>