<?xml version="1.0" encoding="UTF-8"?>
<svg width="54px" height="54px" viewBox="0 0 54 54" version="1.1" xmlns="http://www.w3.org/2000/svg" xmlns:xlink="http://www.w3.org/1999/xlink">
    <!-- Generator: sketchtool 61.1 (101010) - https://sketch.com -->
    <title>1E59E236-FD4B-4917-8A0E-9FE721A174F6</title>
    <desc>Created with sketchtool.</desc>
    <g id="Page-2" stroke="none" stroke-width="1" fill="none" fill-rule="evenodd">
        <g id="7.1-Training-Started-Video" transform="translate(-697.000000, -618.000000)" fill-rule="nonzero">
            <g id="Group-4" transform="translate(697.000000, 142.000000)">
                <g id="icon" transform="translate(0.000000, 476.000000)">
                    <path d="M26.9169231,0 C12.0485275,0 0,12.0485275 0,26.9169231 C0,41.7853187 12.0485275,53.8338462 26.9169231,53.8338462 C41.7853187,53.8338462 53.8338462,41.7853187 53.8338462,26.9169231 C53.8338462,12.0485275 41.7853187,0 26.9169231,0 Z" id="Shape" fill="#FFFFFF" opacity="0.8"></path>
                    <path d="M36.1455824,29.2240879 L23.328,38.0041319 C21.4694505,39.2858901 18.9059341,37.940044 18.9059341,35.696967 L18.9059341,18.1368791 C18.9059341,15.8938022 21.5335385,14.547956 23.328,15.8297143 L36.0814945,24.6097582 C37.7477802,25.6992527 37.7477802,28.1345934 36.1455824,29.2240879 Z" id="Path" fill="#533092"></path>
                </g>
            </g>
        </g>
    </g>
</svg>