<?xml version="1.0" encoding="UTF-8"?>
<svg width="75px" height="75px" viewBox="0 0 75 75" version="1.1" xmlns="http://www.w3.org/2000/svg" xmlns:xlink="http://www.w3.org/1999/xlink">
    <!-- Generator: sketchtool 61.2 (101010) - https://sketch.com -->
    <title>801F2424-5970-4073-B38D-9A0C7DE82B8E</title>
    <desc>Created with sketchtool.</desc>
    <defs>
        <path d="M37.2184615,0 C16.6596923,0 0,16.6596923 0,37.2184615 C0,57.7772308 16.6596923,74.4369231 37.2184615,74.4369231 C57.7772308,74.4369231 74.4369231,57.7772308 74.4369231,37.2184615 C74.4369231,16.6596923 57.7772308,0 37.2184615,0 Z" id="path-1"></path>
        <filter x="-23.5%" y="-20.8%" width="147.0%" height="147.0%" filterUnits="objectBoundingBox" id="filter-2">
            <feMorphology radius="2" operator="dilate" in="SourceAlpha" result="shadowSpreadOuter1"></feMorphology>
            <feOffset dx="0" dy="2" in="shadowSpreadOuter1" result="shadowOffsetOuter1"></feOffset>
            <feGaussianBlur stdDeviation="3.5" in="shadowOffsetOuter1" result="shadowBlurOuter1"></feGaussianBlur>
            <feColorMatrix values="0 0 0 0 0   0 0 0 0 0   0 0 0 0 0  0 0 0 0.0150513549 0" type="matrix" in="shadowBlurOuter1"></feColorMatrix>
        </filter>
    </defs>
    <g id="Color-Change" stroke="none" stroke-width="1" fill="none" fill-rule="evenodd">
        <g id="icons" transform="translate(-707.000000, -277.000000)" fill-rule="nonzero">
            <g id="play-icon-big" transform="translate(707.000000, 277.000000)">
                <g id="Shape" opacity="0.238630022">
                    <use fill="black" fill-opacity="1" filter="url(#filter-2)" xlink:href="#path-1"></use>
                    <use fill="#3B95CB" xlink:href="#path-1"></use>
                </g>
                <path d="M49.9790769,40.4086154 L32.256,52.5489231 C29.6861538,54.3212308 26.1415385,52.4603077 26.1415385,49.3587692 L26.1415385,25.0781538 C26.1415385,21.9766154 29.7747692,20.1156923 32.256,21.888 L49.8904615,34.0283077 C52.1944615,35.5347692 52.1944615,38.9021538 49.9790769,40.4086154 Z" id="Path" fill="#0098D6"></path>
            </g>
        </g>
    </g>
</svg>