<?xml version="1.0" encoding="UTF-8"?>
<!DOCTYPE svg PUBLIC "-//W3C//DTD SVG 1.1//EN" "http://www.w3.org/Graphics/SVG/1.1/DTD/svg11.dtd">
<!-- Creator: CorelDRAW X8 -->
<svg xmlns="http://www.w3.org/2000/svg" xml:space="preserve" width="0.333488in" height="0.394213in" version="1.1" style="shape-rendering:geometricPrecision; text-rendering:geometricPrecision; image-rendering:optimizeQuality; fill-rule:evenodd; clip-rule:evenodd"
viewBox="0 0 15 17"
 xmlns:xlink="http://www.w3.org/1999/xlink">
 <defs>
  <style type="text/css">
   <![CDATA[
    .fil0 {fill:#0096DB;fill-rule:nonzero}
   ]]>
  </style>
 </defs>
 <g id="Layer_x0020_1">
  <metadata id="CorelCorpID_0Corel-Layer"/>
  <g id="_3027436948672">
   <g>
    <path class="fil0" d="M11 4c0,-2 -2,-4 -4,-4 -2,0 -3,2 -3,4 0,2 1,3 3,3 2,0 4,-1 4,-3z"/>
   </g>
   <g>
    <path class="fil0" d="M14 17c-1,0 -13,0 -13,0 -1,0 -1,0 -1,-1 0,-4 3,-7 7,-7 4,0 8,3 8,7 0,1 -1,1 -1,1z"/>
   </g>
  </g>
 </g>
</svg>
