<?xml version="1.0" encoding="UTF-8"?>
<svg width="528px" height="358px" viewBox="0 0 528 358" version="1.1" xmlns="http://www.w3.org/2000/svg" xmlns:xlink="http://www.w3.org/1999/xlink">
    <!-- Generator: sketchtool 60.1 (101010) - https://sketch.com -->
    <title>54741712-A86A-40DC-BDB6-CCC5D0301209</title>
    <desc>Created with sketchtool.</desc>
    <defs>
        <linearGradient x1="50%" y1="0%" x2="50%" y2="100%" id="linearGradient-1">
            <stop stop-color="#F3F4F9" offset="0%"></stop>
            <stop stop-color="#E7E9EF" offset="100%"></stop>
        </linearGradient>
        <circle id="path-2" cx="126" cy="126" r="126"></circle>
        <linearGradient x1="50%" y1="0%" x2="50%" y2="100%" id="linearGradient-4">
            <stop stop-color="#F62E61" offset="0%"></stop>
            <stop stop-color="#8C5ED6" offset="17.9186022%"></stop>
            <stop stop-color="#4DBFCF" offset="39.6985853%"></stop>
            <stop stop-color="#4AB4E0" offset="81.8438556%"></stop>
            <stop stop-color="#53E29A" offset="100%"></stop>
        </linearGradient>
        <path d="M52.1197879,228.025525 C72.9771904,243.092761 98.6800671,252 126.550218,252 C195.587878,252 252,195.587878 252,126.550218 C252,56.4121215 195.587878,0 126.550218,0" id="path-5"></path>
        <circle id="path-7" cx="126" cy="126" r="95"></circle>
        <filter x="-9.5%" y="-4.7%" width="118.9%" height="118.9%" filterUnits="objectBoundingBox" id="filter-8">
            <feOffset dx="0" dy="9" in="SourceAlpha" result="shadowOffsetOuter1"></feOffset>
            <feGaussianBlur stdDeviation="4.5" in="shadowOffsetOuter1" result="shadowBlurOuter1"></feGaussianBlur>
            <feColorMatrix values="0 0 0 0 0   0 0 0 0 0   0 0 0 0 0  0 0 0 0.11833479 0" type="matrix" in="shadowBlurOuter1"></feColorMatrix>
        </filter>
        <path d="M220.352,16.64 C220.352,16.64 251.008,23.808 253.12,34.688 C255.232,45.632 253.568,52.736 240.064,66.624 C226.624,80.512 193.408,106.56 193.408,106.56 L183.424,79.552 L212.224,51.904 C213.568,50.624 212.992,48.384 211.2,47.936 L168.704,36.544 C167.68,36.288 166.784,37.12 166.976,38.144 L176.64,85.952 L83.776,101.888 L84.416,79.168 C84.416,78.4 83.328,78.144 83.072,78.912 C78.784,90.816 60.736,115.328 0.384,123.392 L17.472,81.344 C17.472,81.344 56.512,79.68 69.952,50.688 C83.392,21.696 94.336,5.312 122.048,0.704" id="path-9"></path>
        <path d="M220.352,16.64 C220.352,16.64 251.008,23.808 253.12,34.688 C255.232,45.632 253.568,52.736 240.064,66.624 C226.624,80.512 193.408,106.56 193.408,106.56 L183.424,79.552 L212.224,51.904 C213.568,50.624 212.992,48.384 211.2,47.936 L168.704,36.544 C167.68,36.288 166.784,37.12 166.976,38.144 L176.64,85.952 L83.776,101.888 L84.416,79.168 C84.416,78.4 83.328,78.144 83.072,78.912 C78.784,90.816 60.736,115.328 0.384,123.392 L17.472,81.344 C17.472,81.344 56.512,79.68 69.952,50.688 C83.392,21.696 94.336,5.312 122.048,0.704" id="path-11"></path>
        <path d="M220.352,16.64 C220.352,16.64 251.008,23.808 253.12,34.688 C255.232,45.632 253.568,52.736 240.064,66.624 C226.624,80.512 193.408,106.56 193.408,106.56 L183.424,79.552 L212.224,51.904 C213.568,50.624 212.992,48.384 211.2,47.936 L168.704,36.544 C167.68,36.288 166.784,37.12 166.976,38.144 L176.64,85.952 L83.776,101.888 L84.416,79.168 C84.416,78.4 83.328,78.144 83.072,78.912 C78.784,90.816 60.736,115.328 0.384,123.392 L17.472,81.344 C17.472,81.344 56.512,79.68 69.952,50.688 C83.392,21.696 94.336,5.312 122.048,0.704" id="path-13"></path>
        <path d="M220.352,16.64 C220.352,16.64 251.008,23.808 253.12,34.688 C255.232,45.632 253.568,52.736 240.064,66.624 C226.624,80.512 193.408,106.56 193.408,106.56 L183.424,79.552 L212.224,51.904 C213.568,50.624 212.992,48.384 211.2,47.936 L168.704,36.544 C167.68,36.288 166.784,37.12 166.976,38.144 L176.64,85.952 L83.776,101.888 L84.416,79.168 C84.416,78.4 83.328,78.144 83.072,78.912 C78.784,90.816 60.736,115.328 0.384,123.392 L17.472,81.344 C17.472,81.344 56.512,79.68 69.952,50.688 C83.392,21.696 94.336,5.312 122.048,0.704" id="path-15"></path>
        <path d="M220.352,16.64 C220.352,16.64 251.008,23.808 253.12,34.688 C255.232,45.632 253.568,52.736 240.064,66.624 C226.624,80.512 193.408,106.56 193.408,106.56 L183.424,79.552 L212.224,51.904 C213.568,50.624 212.992,48.384 211.2,47.936 L168.704,36.544 C167.68,36.288 166.784,37.12 166.976,38.144 L176.64,85.952 L83.776,101.888 L84.416,79.168 C84.416,78.4 83.328,78.144 83.072,78.912 C78.784,90.816 60.736,115.328 0.384,123.392 L17.472,81.344 C17.472,81.344 56.512,79.68 69.952,50.688 C83.392,21.696 94.336,5.312 122.048,0.704" id="path-17"></path>
        <path d="M220.352,16.64 C220.352,16.64 251.008,23.808 253.12,34.688 C255.232,45.632 253.568,52.736 240.064,66.624 C226.624,80.512 193.408,106.56 193.408,106.56 L183.424,79.552 L212.224,51.904 C213.568,50.624 212.992,48.384 211.2,47.936 L168.704,36.544 C167.68,36.288 166.784,37.12 166.976,38.144 L176.64,85.952 L83.776,101.888 L84.416,79.168 C84.416,78.4 83.328,78.144 83.072,78.912 C78.784,90.816 60.736,115.328 0.384,123.392 L17.472,81.344 C17.472,81.344 56.512,79.68 69.952,50.688 C83.392,21.696 94.336,5.312 122.048,0.704" id="path-19"></path>
        <path d="M220.352,16.64 C220.352,16.64 251.008,23.808 253.12,34.688 C255.232,45.632 253.568,52.736 240.064,66.624 C226.624,80.512 193.408,106.56 193.408,106.56 L183.424,79.552 L212.224,51.904 C213.568,50.624 212.992,48.384 211.2,47.936 L168.704,36.544 C167.68,36.288 166.784,37.12 166.976,38.144 L176.64,85.952 L83.776,101.888 L84.416,79.168 C84.416,78.4 83.328,78.144 83.072,78.912 C78.784,90.816 60.736,115.328 0.384,123.392 L17.472,81.344 C17.472,81.344 56.512,79.68 69.952,50.688 C83.392,21.696 94.336,5.312 122.048,0.704" id="path-21"></path>
        <path d="M220.352,16.64 C220.352,16.64 251.008,23.808 253.12,34.688 C255.232,45.632 253.568,52.736 240.064,66.624 C226.624,80.512 193.408,106.56 193.408,106.56 L183.424,79.552 L212.224,51.904 C213.568,50.624 212.992,48.384 211.2,47.936 L168.704,36.544 C167.68,36.288 166.784,37.12 166.976,38.144 L176.64,85.952 L83.776,101.888 L84.416,79.168 C84.416,78.4 83.328,78.144 83.072,78.912 C78.784,90.816 60.736,115.328 0.384,123.392 L17.472,81.344 C17.472,81.344 56.512,79.68 69.952,50.688 C83.392,21.696 94.336,5.312 122.048,0.704" id="path-23"></path>
        <path d="M220.352,16.64 C220.352,16.64 251.008,23.808 253.12,34.688 C255.232,45.632 253.568,52.736 240.064,66.624 C226.624,80.512 193.408,106.56 193.408,106.56 L183.424,79.552 L212.224,51.904 C213.568,50.624 212.992,48.384 211.2,47.936 L168.704,36.544 C167.68,36.288 166.784,37.12 166.976,38.144 L176.64,85.952 L83.776,101.888 L84.416,79.168 C84.416,78.4 83.328,78.144 83.072,78.912 C78.784,90.816 60.736,115.328 0.384,123.392 L17.472,81.344 C17.472,81.344 56.512,79.68 69.952,50.688 C83.392,21.696 94.336,5.312 122.048,0.704" id="path-25"></path>
        <path d="M220.352,16.64 C220.352,16.64 251.008,23.808 253.12,34.688 C255.232,45.632 253.568,52.736 240.064,66.624 C226.624,80.512 193.408,106.56 193.408,106.56 L183.424,79.552 L212.224,51.904 C213.568,50.624 212.992,48.384 211.2,47.936 L168.704,36.544 C167.68,36.288 166.784,37.12 166.976,38.144 L176.64,85.952 L83.776,101.888 L84.416,79.168 C84.416,78.4 83.328,78.144 83.072,78.912 C78.784,90.816 60.736,115.328 0.384,123.392 L17.472,81.344 C17.472,81.344 56.512,79.68 69.952,50.688 C83.392,21.696 94.336,5.312 122.048,0.704" id="path-27"></path>
        <path d="M220.352,16.64 C220.352,16.64 251.008,23.808 253.12,34.688 C255.232,45.632 253.568,52.736 240.064,66.624 C226.624,80.512 193.408,106.56 193.408,106.56 L183.424,79.552 L212.224,51.904 C213.568,50.624 212.992,48.384 211.2,47.936 L168.704,36.544 C167.68,36.288 166.784,37.12 166.976,38.144 L176.64,85.952 L83.776,101.888 L84.416,79.168 C84.416,78.4 83.328,78.144 83.072,78.912 C78.784,90.816 60.736,115.328 0.384,123.392 L17.472,81.344 C17.472,81.344 56.512,79.68 69.952,50.688 C83.392,21.696 94.336,5.312 122.048,0.704" id="path-29"></path>
        <path d="M220.352,16.64 C220.352,16.64 251.008,23.808 253.12,34.688 C255.232,45.632 253.568,52.736 240.064,66.624 C226.624,80.512 193.408,106.56 193.408,106.56 L183.424,79.552 L212.224,51.904 C213.568,50.624 212.992,48.384 211.2,47.936 L168.704,36.544 C167.68,36.288 166.784,37.12 166.976,38.144 L176.64,85.952 L83.776,101.888 L84.416,79.168 C84.416,78.4 83.328,78.144 83.072,78.912 C78.784,90.816 60.736,115.328 0.384,123.392 L17.472,81.344 C17.472,81.344 56.512,79.68 69.952,50.688 C83.392,21.696 94.336,5.312 122.048,0.704" id="path-31"></path>
        <path d="M220.352,16.64 C220.352,16.64 251.008,23.808 253.12,34.688 C255.232,45.632 253.568,52.736 240.064,66.624 C226.624,80.512 193.408,106.56 193.408,106.56 L183.424,79.552 L212.224,51.904 C213.568,50.624 212.992,48.384 211.2,47.936 L168.704,36.544 C167.68,36.288 166.784,37.12 166.976,38.144 L176.64,85.952 L83.776,101.888 L84.416,79.168 C84.416,78.4 83.328,78.144 83.072,78.912 C78.784,90.816 60.736,115.328 0.384,123.392 L17.472,81.344 C17.472,81.344 56.512,79.68 69.952,50.688 C83.392,21.696 94.336,5.312 122.048,0.704" id="path-33"></path>
        <path d="M220.352,16.64 C220.352,16.64 251.008,23.808 253.12,34.688 C255.232,45.632 253.568,52.736 240.064,66.624 C226.624,80.512 193.408,106.56 193.408,106.56 L183.424,79.552 L212.224,51.904 C213.568,50.624 212.992,48.384 211.2,47.936 L168.704,36.544 C167.68,36.288 166.784,37.12 166.976,38.144 L176.64,85.952 L83.776,101.888 L84.416,79.168 C84.416,78.4 83.328,78.144 83.072,78.912 C78.784,90.816 60.736,115.328 0.384,123.392 L17.472,81.344 C17.472,81.344 56.512,79.68 69.952,50.688 C83.392,21.696 94.336,5.312 122.048,0.704" id="path-35"></path>
        <path d="M220.352,16.64 C220.352,16.64 251.008,23.808 253.12,34.688 C255.232,45.632 253.568,52.736 240.064,66.624 C226.624,80.512 193.408,106.56 193.408,106.56 L183.424,79.552 L212.224,51.904 C213.568,50.624 212.992,48.384 211.2,47.936 L168.704,36.544 C167.68,36.288 166.784,37.12 166.976,38.144 L176.64,85.952 L83.776,101.888 L84.416,79.168 C84.416,78.4 83.328,78.144 83.072,78.912 C78.784,90.816 60.736,115.328 0.384,123.392 L17.472,81.344 C17.472,81.344 56.512,79.68 69.952,50.688 C83.392,21.696 94.336,5.312 122.048,0.704" id="path-37"></path>
        <path d="M220.352,16.64 C220.352,16.64 251.008,23.808 253.12,34.688 C255.232,45.632 253.568,52.736 240.064,66.624 C226.624,80.512 193.408,106.56 193.408,106.56 L183.424,79.552 L212.224,51.904 C213.568,50.624 212.992,48.384 211.2,47.936 L168.704,36.544 C167.68,36.288 166.784,37.12 166.976,38.144 L176.64,85.952 L83.776,101.888 L84.416,79.168 C84.416,78.4 83.328,78.144 83.072,78.912 C78.784,90.816 60.736,115.328 0.384,123.392 L17.472,81.344 C17.472,81.344 56.512,79.68 69.952,50.688 C83.392,21.696 94.336,5.312 122.048,0.704" id="path-39"></path>
        <path d="M220.352,16.64 C220.352,16.64 251.008,23.808 253.12,34.688 C255.232,45.632 253.568,52.736 240.064,66.624 C226.624,80.512 193.408,106.56 193.408,106.56 L183.424,79.552 L212.224,51.904 C213.568,50.624 212.992,48.384 211.2,47.936 L168.704,36.544 C167.68,36.288 166.784,37.12 166.976,38.144 L176.64,85.952 L83.776,101.888 L84.416,79.168 C84.416,78.4 83.328,78.144 83.072,78.912 C78.784,90.816 60.736,115.328 0.384,123.392 L17.472,81.344 C17.472,81.344 56.512,79.68 69.952,50.688 C83.392,21.696 94.336,5.312 122.048,0.704" id="path-41"></path>
        <path d="M220.352,16.64 C220.352,16.64 251.008,23.808 253.12,34.688 C255.232,45.632 253.568,52.736 240.064,66.624 C226.624,80.512 193.408,106.56 193.408,106.56 L183.424,79.552 L212.224,51.904 C213.568,50.624 212.992,48.384 211.2,47.936 L168.704,36.544 C167.68,36.288 166.784,37.12 166.976,38.144 L176.64,85.952 L83.776,101.888 L84.416,79.168 C84.416,78.4 83.328,78.144 83.072,78.912 C78.784,90.816 60.736,115.328 0.384,123.392 L17.472,81.344 C17.472,81.344 56.512,79.68 69.952,50.688 C83.392,21.696 94.336,5.312 122.048,0.704" id="path-43"></path>
        <path d="M220.352,16.64 C220.352,16.64 251.008,23.808 253.12,34.688 C255.232,45.632 253.568,52.736 240.064,66.624 C226.624,80.512 193.408,106.56 193.408,106.56 L183.424,79.552 L212.224,51.904 C213.568,50.624 212.992,48.384 211.2,47.936 L168.704,36.544 C167.68,36.288 166.784,37.12 166.976,38.144 L176.64,85.952 L83.776,101.888 L84.416,79.168 C84.416,78.4 83.328,78.144 83.072,78.912 C78.784,90.816 60.736,115.328 0.384,123.392 L17.472,81.344 C17.472,81.344 56.512,79.68 69.952,50.688 C83.392,21.696 94.336,5.312 122.048,0.704" id="path-45"></path>
        <path d="M220.352,16.64 C220.352,16.64 251.008,23.808 253.12,34.688 C255.232,45.632 253.568,52.736 240.064,66.624 C226.624,80.512 193.408,106.56 193.408,106.56 L183.424,79.552 L212.224,51.904 C213.568,50.624 212.992,48.384 211.2,47.936 L168.704,36.544 C167.68,36.288 166.784,37.12 166.976,38.144 L176.64,85.952 L83.776,101.888 L84.416,79.168 C84.416,78.4 83.328,78.144 83.072,78.912 C78.784,90.816 60.736,115.328 0.384,123.392 L17.472,81.344 C17.472,81.344 56.512,79.68 69.952,50.688 C83.392,21.696 94.336,5.312 122.048,0.704" id="path-47"></path>
        <path d="M220.352,16.64 C220.352,16.64 251.008,23.808 253.12,34.688 C255.232,45.632 253.568,52.736 240.064,66.624 C226.624,80.512 193.408,106.56 193.408,106.56 L183.424,79.552 L212.224,51.904 C213.568,50.624 212.992,48.384 211.2,47.936 L168.704,36.544 C167.68,36.288 166.784,37.12 166.976,38.144 L176.64,85.952 L83.776,101.888 L84.416,79.168 C84.416,78.4 83.328,78.144 83.072,78.912 C78.784,90.816 60.736,115.328 0.384,123.392 L17.472,81.344 C17.472,81.344 56.512,79.68 69.952,50.688 C83.392,21.696 94.336,5.312 122.048,0.704" id="path-49"></path>
        <path d="M220.352,16.64 C220.352,16.64 251.008,23.808 253.12,34.688 C255.232,45.632 253.568,52.736 240.064,66.624 C226.624,80.512 193.408,106.56 193.408,106.56 L183.424,79.552 L212.224,51.904 C213.568,50.624 212.992,48.384 211.2,47.936 L168.704,36.544 C167.68,36.288 166.784,37.12 166.976,38.144 L176.64,85.952 L83.776,101.888 L84.416,79.168 C84.416,78.4 83.328,78.144 83.072,78.912 C78.784,90.816 60.736,115.328 0.384,123.392 L17.472,81.344 C17.472,81.344 56.512,79.68 69.952,50.688 C83.392,21.696 94.336,5.312 122.048,0.704" id="path-51"></path>
        <path d="M220.352,16.64 C220.352,16.64 251.008,23.808 253.12,34.688 C255.232,45.632 253.568,52.736 240.064,66.624 C226.624,80.512 193.408,106.56 193.408,106.56 L183.424,79.552 L212.224,51.904 C213.568,50.624 212.992,48.384 211.2,47.936 L168.704,36.544 C167.68,36.288 166.784,37.12 166.976,38.144 L176.64,85.952 L83.776,101.888 L84.416,79.168 C84.416,78.4 83.328,78.144 83.072,78.912 C78.784,90.816 60.736,115.328 0.384,123.392 L17.472,81.344 C17.472,81.344 56.512,79.68 69.952,50.688 C83.392,21.696 94.336,5.312 122.048,0.704" id="path-53"></path>
        <path d="M220.352,16.64 C220.352,16.64 251.008,23.808 253.12,34.688 C255.232,45.632 253.568,52.736 240.064,66.624 C226.624,80.512 193.408,106.56 193.408,106.56 L183.424,79.552 L212.224,51.904 C213.568,50.624 212.992,48.384 211.2,47.936 L168.704,36.544 C167.68,36.288 166.784,37.12 166.976,38.144 L176.64,85.952 L83.776,101.888 L84.416,79.168 C84.416,78.4 83.328,78.144 83.072,78.912 C78.784,90.816 60.736,115.328 0.384,123.392 L17.472,81.344 C17.472,81.344 56.512,79.68 69.952,50.688 C83.392,21.696 94.336,5.312 122.048,0.704" id="path-55"></path>
        <path d="M220.352,16.64 C220.352,16.64 251.008,23.808 253.12,34.688 C255.232,45.632 253.568,52.736 240.064,66.624 C226.624,80.512 193.408,106.56 193.408,106.56 L183.424,79.552 L212.224,51.904 C213.568,50.624 212.992,48.384 211.2,47.936 L168.704,36.544 C167.68,36.288 166.784,37.12 166.976,38.144 L176.64,85.952 L83.776,101.888 L84.416,79.168 C84.416,78.4 83.328,78.144 83.072,78.912 C78.784,90.816 60.736,115.328 0.384,123.392 L17.472,81.344 C17.472,81.344 56.512,79.68 69.952,50.688 C83.392,21.696 94.336,5.312 122.048,0.704" id="path-57"></path>
        <path d="M220.352,16.64 C220.352,16.64 251.008,23.808 253.12,34.688 C255.232,45.632 253.568,52.736 240.064,66.624 C226.624,80.512 193.408,106.56 193.408,106.56 L183.424,79.552 L212.224,51.904 C213.568,50.624 212.992,48.384 211.2,47.936 L168.704,36.544 C167.68,36.288 166.784,37.12 166.976,38.144 L176.64,85.952 L83.776,101.888 L84.416,79.168 C84.416,78.4 83.328,78.144 83.072,78.912 C78.784,90.816 60.736,115.328 0.384,123.392 L17.472,81.344 C17.472,81.344 56.512,79.68 69.952,50.688 C83.392,21.696 94.336,5.312 122.048,0.704" id="path-59"></path>
        <path d="M220.352,16.64 C220.352,16.64 251.008,23.808 253.12,34.688 C255.232,45.632 253.568,52.736 240.064,66.624 C226.624,80.512 193.408,106.56 193.408,106.56 L183.424,79.552 L212.224,51.904 C213.568,50.624 212.992,48.384 211.2,47.936 L168.704,36.544 C167.68,36.288 166.784,37.12 166.976,38.144 L176.64,85.952 L83.776,101.888 L84.416,79.168 C84.416,78.4 83.328,78.144 83.072,78.912 C78.784,90.816 60.736,115.328 0.384,123.392 L17.472,81.344 C17.472,81.344 56.512,79.68 69.952,50.688 C83.392,21.696 94.336,5.312 122.048,0.704" id="path-61"></path>
        <path d="M220.352,16.64 C220.352,16.64 251.008,23.808 253.12,34.688 C255.232,45.632 253.568,52.736 240.064,66.624 C226.624,80.512 193.408,106.56 193.408,106.56 L183.424,79.552 L212.224,51.904 C213.568,50.624 212.992,48.384 211.2,47.936 L168.704,36.544 C167.68,36.288 166.784,37.12 166.976,38.144 L176.64,85.952 L83.776,101.888 L84.416,79.168 C84.416,78.4 83.328,78.144 83.072,78.912 C78.784,90.816 60.736,115.328 0.384,123.392 L17.472,81.344 C17.472,81.344 56.512,79.68 69.952,50.688 C83.392,21.696 94.336,5.312 122.048,0.704" id="path-63"></path>
        <path d="M220.352,16.64 C220.352,16.64 251.008,23.808 253.12,34.688 C255.232,45.632 253.568,52.736 240.064,66.624 C226.624,80.512 193.408,106.56 193.408,106.56 L183.424,79.552 L212.224,51.904 C213.568,50.624 212.992,48.384 211.2,47.936 L168.704,36.544 C167.68,36.288 166.784,37.12 166.976,38.144 L176.64,85.952 L83.776,101.888 L84.416,79.168 C84.416,78.4 83.328,78.144 83.072,78.912 C78.784,90.816 60.736,115.328 0.384,123.392 L17.472,81.344 C17.472,81.344 56.512,79.68 69.952,50.688 C83.392,21.696 94.336,5.312 122.048,0.704" id="path-65"></path>
        <path d="M220.352,16.64 C220.352,16.64 251.008,23.808 253.12,34.688 C255.232,45.632 253.568,52.736 240.064,66.624 C226.624,80.512 193.408,106.56 193.408,106.56 L183.424,79.552 L212.224,51.904 C213.568,50.624 212.992,48.384 211.2,47.936 L168.704,36.544 C167.68,36.288 166.784,37.12 166.976,38.144 L176.64,85.952 L83.776,101.888 L84.416,79.168 C84.416,78.4 83.328,78.144 83.072,78.912 C78.784,90.816 60.736,115.328 0.384,123.392 L17.472,81.344 C17.472,81.344 56.512,79.68 69.952,50.688 C83.392,21.696 94.336,5.312 122.048,0.704" id="path-67"></path>
        <path d="M220.352,16.64 C220.352,16.64 251.008,23.808 253.12,34.688 C255.232,45.632 253.568,52.736 240.064,66.624 C226.624,80.512 193.408,106.56 193.408,106.56 L183.424,79.552 L212.224,51.904 C213.568,50.624 212.992,48.384 211.2,47.936 L168.704,36.544 C167.68,36.288 166.784,37.12 166.976,38.144 L176.64,85.952 L83.776,101.888 L84.416,79.168 C84.416,78.4 83.328,78.144 83.072,78.912 C78.784,90.816 60.736,115.328 0.384,123.392 L17.472,81.344 C17.472,81.344 56.512,79.68 69.952,50.688 C83.392,21.696 94.336,5.312 122.048,0.704" id="path-69"></path>
        <path d="M220.352,16.64 C220.352,16.64 251.008,23.808 253.12,34.688 C255.232,45.632 253.568,52.736 240.064,66.624 C226.624,80.512 193.408,106.56 193.408,106.56 L183.424,79.552 L212.224,51.904 C213.568,50.624 212.992,48.384 211.2,47.936 L168.704,36.544 C167.68,36.288 166.784,37.12 166.976,38.144 L176.64,85.952 L83.776,101.888 L84.416,79.168 C84.416,78.4 83.328,78.144 83.072,78.912 C78.784,90.816 60.736,115.328 0.384,123.392 L17.472,81.344 C17.472,81.344 56.512,79.68 69.952,50.688 C83.392,21.696 94.336,5.312 122.048,0.704" id="path-71"></path>
        <path d="M220.352,16.64 C220.352,16.64 251.008,23.808 253.12,34.688 C255.232,45.632 253.568,52.736 240.064,66.624 C226.624,80.512 193.408,106.56 193.408,106.56 L183.424,79.552 L212.224,51.904 C213.568,50.624 212.992,48.384 211.2,47.936 L168.704,36.544 C167.68,36.288 166.784,37.12 166.976,38.144 L176.64,85.952 L83.776,101.888 L84.416,79.168 C84.416,78.4 83.328,78.144 83.072,78.912 C78.784,90.816 60.736,115.328 0.384,123.392 L17.472,81.344 C17.472,81.344 56.512,79.68 69.952,50.688 C83.392,21.696 94.336,5.312 122.048,0.704" id="path-73"></path>
        <path d="M220.352,16.64 C220.352,16.64 251.008,23.808 253.12,34.688 C255.232,45.632 253.568,52.736 240.064,66.624 C226.624,80.512 193.408,106.56 193.408,106.56 L183.424,79.552 L212.224,51.904 C213.568,50.624 212.992,48.384 211.2,47.936 L168.704,36.544 C167.68,36.288 166.784,37.12 166.976,38.144 L176.64,85.952 L83.776,101.888 L84.416,79.168 C84.416,78.4 83.328,78.144 83.072,78.912 C78.784,90.816 60.736,115.328 0.384,123.392 L17.472,81.344 C17.472,81.344 56.512,79.68 69.952,50.688 C83.392,21.696 94.336,5.312 122.048,0.704" id="path-75"></path>
        <path d="M220.352,16.64 C220.352,16.64 251.008,23.808 253.12,34.688 C255.232,45.632 253.568,52.736 240.064,66.624 C226.624,80.512 193.408,106.56 193.408,106.56 L183.424,79.552 L212.224,51.904 C213.568,50.624 212.992,48.384 211.2,47.936 L168.704,36.544 C167.68,36.288 166.784,37.12 166.976,38.144 L176.64,85.952 L83.776,101.888 L84.416,79.168 C84.416,78.4 83.328,78.144 83.072,78.912 C78.784,90.816 60.736,115.328 0.384,123.392 L17.472,81.344 C17.472,81.344 56.512,79.68 69.952,50.688 C83.392,21.696 94.336,5.312 122.048,0.704" id="path-77"></path>
        <path d="M220.352,16.64 C220.352,16.64 251.008,23.808 253.12,34.688 C255.232,45.632 253.568,52.736 240.064,66.624 C226.624,80.512 193.408,106.56 193.408,106.56 L183.424,79.552 L212.224,51.904 C213.568,50.624 212.992,48.384 211.2,47.936 L168.704,36.544 C167.68,36.288 166.784,37.12 166.976,38.144 L176.64,85.952 L83.776,101.888 L84.416,79.168 C84.416,78.4 83.328,78.144 83.072,78.912 C78.784,90.816 60.736,115.328 0.384,123.392 L17.472,81.344 C17.472,81.344 56.512,79.68 69.952,50.688 C83.392,21.696 94.336,5.312 122.048,0.704" id="path-79"></path>
        <path d="M220.352,16.64 C220.352,16.64 251.008,23.808 253.12,34.688 C255.232,45.632 253.568,52.736 240.064,66.624 C226.624,80.512 193.408,106.56 193.408,106.56 L183.424,79.552 L212.224,51.904 C213.568,50.624 212.992,48.384 211.2,47.936 L168.704,36.544 C167.68,36.288 166.784,37.12 166.976,38.144 L176.64,85.952 L83.776,101.888 L84.416,79.168 C84.416,78.4 83.328,78.144 83.072,78.912 C78.784,90.816 60.736,115.328 0.384,123.392 L17.472,81.344 C17.472,81.344 56.512,79.68 69.952,50.688 C83.392,21.696 94.336,5.312 122.048,0.704" id="path-81"></path>
        <path d="M220.352,16.64 C220.352,16.64 251.008,23.808 253.12,34.688 C255.232,45.632 253.568,52.736 240.064,66.624 C226.624,80.512 193.408,106.56 193.408,106.56 L183.424,79.552 L212.224,51.904 C213.568,50.624 212.992,48.384 211.2,47.936 L168.704,36.544 C167.68,36.288 166.784,37.12 166.976,38.144 L176.64,85.952 L83.776,101.888 L84.416,79.168 C84.416,78.4 83.328,78.144 83.072,78.912 C78.784,90.816 60.736,115.328 0.384,123.392 L17.472,81.344 C17.472,81.344 56.512,79.68 69.952,50.688 C83.392,21.696 94.336,5.312 122.048,0.704" id="path-83"></path>
        <path d="M220.352,16.64 C220.352,16.64 251.008,23.808 253.12,34.688 C255.232,45.632 253.568,52.736 240.064,66.624 C226.624,80.512 193.408,106.56 193.408,106.56 L183.424,79.552 L212.224,51.904 C213.568,50.624 212.992,48.384 211.2,47.936 L168.704,36.544 C167.68,36.288 166.784,37.12 166.976,38.144 L176.64,85.952 L83.776,101.888 L84.416,79.168 C84.416,78.4 83.328,78.144 83.072,78.912 C78.784,90.816 60.736,115.328 0.384,123.392 L17.472,81.344 C17.472,81.344 56.512,79.68 69.952,50.688 C83.392,21.696 94.336,5.312 122.048,0.704" id="path-85"></path>
        <path d="M220.352,16.64 C220.352,16.64 251.008,23.808 253.12,34.688 C255.232,45.632 253.568,52.736 240.064,66.624 C226.624,80.512 193.408,106.56 193.408,106.56 L183.424,79.552 L212.224,51.904 C213.568,50.624 212.992,48.384 211.2,47.936 L168.704,36.544 C167.68,36.288 166.784,37.12 166.976,38.144 L176.64,85.952 L83.776,101.888 L84.416,79.168 C84.416,78.4 83.328,78.144 83.072,78.912 C78.784,90.816 60.736,115.328 0.384,123.392 L17.472,81.344 C17.472,81.344 56.512,79.68 69.952,50.688 C83.392,21.696 94.336,5.312 122.048,0.704" id="path-87"></path>
        <path d="M220.352,16.64 C220.352,16.64 251.008,23.808 253.12,34.688 C255.232,45.632 253.568,52.736 240.064,66.624 C226.624,80.512 193.408,106.56 193.408,106.56 L183.424,79.552 L212.224,51.904 C213.568,50.624 212.992,48.384 211.2,47.936 L168.704,36.544 C167.68,36.288 166.784,37.12 166.976,38.144 L176.64,85.952 L83.776,101.888 L84.416,79.168 C84.416,78.4 83.328,78.144 83.072,78.912 C78.784,90.816 60.736,115.328 0.384,123.392 L17.472,81.344 C17.472,81.344 56.512,79.68 69.952,50.688 C83.392,21.696 94.336,5.312 122.048,0.704" id="path-89"></path>
        <path d="M220.352,16.64 C220.352,16.64 251.008,23.808 253.12,34.688 C255.232,45.632 253.568,52.736 240.064,66.624 C226.624,80.512 193.408,106.56 193.408,106.56 L183.424,79.552 L212.224,51.904 C213.568,50.624 212.992,48.384 211.2,47.936 L168.704,36.544 C167.68,36.288 166.784,37.12 166.976,38.144 L176.64,85.952 L83.776,101.888 L84.416,79.168 C84.416,78.4 83.328,78.144 83.072,78.912 C78.784,90.816 60.736,115.328 0.384,123.392 L17.472,81.344 C17.472,81.344 56.512,79.68 69.952,50.688 C83.392,21.696 94.336,5.312 122.048,0.704" id="path-91"></path>
        <path d="M220.352,16.64 C220.352,16.64 251.008,23.808 253.12,34.688 C255.232,45.632 253.568,52.736 240.064,66.624 C226.624,80.512 193.408,106.56 193.408,106.56 L183.424,79.552 L212.224,51.904 C213.568,50.624 212.992,48.384 211.2,47.936 L168.704,36.544 C167.68,36.288 166.784,37.12 166.976,38.144 L176.64,85.952 L83.776,101.888 L84.416,79.168 C84.416,78.4 83.328,78.144 83.072,78.912 C78.784,90.816 60.736,115.328 0.384,123.392 L17.472,81.344 C17.472,81.344 56.512,79.68 69.952,50.688 C83.392,21.696 94.336,5.312 122.048,0.704" id="path-93"></path>
        <path d="M220.352,16.64 C220.352,16.64 251.008,23.808 253.12,34.688 C255.232,45.632 253.568,52.736 240.064,66.624 C226.624,80.512 193.408,106.56 193.408,106.56 L183.424,79.552 L212.224,51.904 C213.568,50.624 212.992,48.384 211.2,47.936 L168.704,36.544 C167.68,36.288 166.784,37.12 166.976,38.144 L176.64,85.952 L83.776,101.888 L84.416,79.168 C84.416,78.4 83.328,78.144 83.072,78.912 C78.784,90.816 60.736,115.328 0.384,123.392 L17.472,81.344 C17.472,81.344 56.512,79.68 69.952,50.688 C83.392,21.696 94.336,5.312 122.048,0.704" id="path-95"></path>
        <path d="M220.352,16.64 C220.352,16.64 251.008,23.808 253.12,34.688 C255.232,45.632 253.568,52.736 240.064,66.624 C226.624,80.512 193.408,106.56 193.408,106.56 L183.424,79.552 L212.224,51.904 C213.568,50.624 212.992,48.384 211.2,47.936 L168.704,36.544 C167.68,36.288 166.784,37.12 166.976,38.144 L176.64,85.952 L83.776,101.888 L84.416,79.168 C84.416,78.4 83.328,78.144 83.072,78.912 C78.784,90.816 60.736,115.328 0.384,123.392 L17.472,81.344 C17.472,81.344 56.512,79.68 69.952,50.688 C83.392,21.696 94.336,5.312 122.048,0.704" id="path-97"></path>
        <path d="M220.352,16.64 C220.352,16.64 251.008,23.808 253.12,34.688 C255.232,45.632 253.568,52.736 240.064,66.624 C226.624,80.512 193.408,106.56 193.408,106.56 L183.424,79.552 L212.224,51.904 C213.568,50.624 212.992,48.384 211.2,47.936 L168.704,36.544 C167.68,36.288 166.784,37.12 166.976,38.144 L176.64,85.952 L83.776,101.888 L84.416,79.168 C84.416,78.4 83.328,78.144 83.072,78.912 C78.784,90.816 60.736,115.328 0.384,123.392 L17.472,81.344 C17.472,81.344 56.512,79.68 69.952,50.688 C83.392,21.696 94.336,5.312 122.048,0.704" id="path-99"></path>
        <path d="M220.352,16.64 C220.352,16.64 251.008,23.808 253.12,34.688 C255.232,45.632 253.568,52.736 240.064,66.624 C226.624,80.512 193.408,106.56 193.408,106.56 L183.424,79.552 L212.224,51.904 C213.568,50.624 212.992,48.384 211.2,47.936 L168.704,36.544 C167.68,36.288 166.784,37.12 166.976,38.144 L176.64,85.952 L83.776,101.888 L84.416,79.168 C84.416,78.4 83.328,78.144 83.072,78.912 C78.784,90.816 60.736,115.328 0.384,123.392 L17.472,81.344 C17.472,81.344 56.512,79.68 69.952,50.688 C83.392,21.696 94.336,5.312 122.048,0.704" id="path-101"></path>
        <path d="M220.352,16.64 C220.352,16.64 251.008,23.808 253.12,34.688 C255.232,45.632 253.568,52.736 240.064,66.624 C226.624,80.512 193.408,106.56 193.408,106.56 L183.424,79.552 L212.224,51.904 C213.568,50.624 212.992,48.384 211.2,47.936 L168.704,36.544 C167.68,36.288 166.784,37.12 166.976,38.144 L176.64,85.952 L83.776,101.888 L84.416,79.168 C84.416,78.4 83.328,78.144 83.072,78.912 C78.784,90.816 60.736,115.328 0.384,123.392 L17.472,81.344 C17.472,81.344 56.512,79.68 69.952,50.688 C83.392,21.696 94.336,5.312 122.048,0.704" id="path-103"></path>
        <path d="M220.352,16.64 C220.352,16.64 251.008,23.808 253.12,34.688 C255.232,45.632 253.568,52.736 240.064,66.624 C226.624,80.512 193.408,106.56 193.408,106.56 L183.424,79.552 L212.224,51.904 C213.568,50.624 212.992,48.384 211.2,47.936 L168.704,36.544 C167.68,36.288 166.784,37.12 166.976,38.144 L176.64,85.952 L83.776,101.888 L84.416,79.168 C84.416,78.4 83.328,78.144 83.072,78.912 C78.784,90.816 60.736,115.328 0.384,123.392 L17.472,81.344 C17.472,81.344 56.512,79.68 69.952,50.688 C83.392,21.696 94.336,5.312 122.048,0.704" id="path-105"></path>
        <path d="M220.352,16.64 C220.352,16.64 251.008,23.808 253.12,34.688 C255.232,45.632 253.568,52.736 240.064,66.624 C226.624,80.512 193.408,106.56 193.408,106.56 L183.424,79.552 L212.224,51.904 C213.568,50.624 212.992,48.384 211.2,47.936 L168.704,36.544 C167.68,36.288 166.784,37.12 166.976,38.144 L176.64,85.952 L83.776,101.888 L84.416,79.168 C84.416,78.4 83.328,78.144 83.072,78.912 C78.784,90.816 60.736,115.328 0.384,123.392 L17.472,81.344 C17.472,81.344 56.512,79.68 69.952,50.688 C83.392,21.696 94.336,5.312 122.048,0.704" id="path-107"></path>
    </defs>
    <g id="Page-2" stroke="none" stroke-width="1" fill="none" fill-rule="evenodd">
        <g id="14.3-Home" transform="translate(-748.000000, -2161.000000)">
            <g id="::-Career-AI-Visor-::" transform="translate(0.000000, 2047.000000)">
                <g id="Group-18" transform="translate(748.000000, 118.000000)">
                    <g id="Illustration" transform="translate(21.000000, 0.000000)">
                        <g id="Group-4-Copy">
                            <g id="graph">
                                <g id="Group">
                                    <mask id="mask-3" fill="white">
                                        <use xlink:href="#path-2"></use>
                                    </mask>
                                    <use id="Oval" stroke="#E8E8E8" fill="url(#linearGradient-1)" xlink:href="#path-2"></use>
                                    <mask id="mask-6" fill="white">
                                        <use xlink:href="#path-5"></use>
                                    </mask>
                                    <use id="Oval" stroke="url(#linearGradient-4)" stroke-width="8" stroke-linecap="round" stroke-linejoin="round" xlink:href="#path-5"></use>
                                </g>
                                <circle id="Oval" stroke="#50D2B4" stroke-width="8" fill="#FFFFFF" cx="47" cy="223" r="15"></circle>
                            </g>
                            <g id="Oval">
                                <use fill="black" fill-opacity="1" filter="url(#filter-8)" xlink:href="#path-7"></use>
                                <use fill="#FFFFFF" fill-rule="evenodd" xlink:href="#path-7"></use>
                            </g>
                            <circle id="Oval-Copy-2" stroke="#EFF0F5" fill="#FFFFFF" cx="126" cy="126" r="73"></circle>
                            <g id="Group-2" transform="translate(91.000000, 92.000000)" fill="#282232">
                                <text id="62%" font-family="Muli-ExtraBold, Muli" font-size="32" font-weight="600">
                                    <tspan x="0" y="32">62%</tspan>
                                </text>
                                <text id="Good" font-family="Muli-Regular, Muli" font-size="24" font-weight="normal">
                                    <tspan x="5" y="62">Good</tspan>
                                </text>
                            </g>
                        </g>
                    </g>
                    <g id="Group-202" transform="translate(0.000000, 17.000000)">
                        <path d="M398.400064,0.932224 C404.055104,0.932224 408.640064,5.517184 408.640064,11.172224 C408.640064,16.827904 404.055104,21.412224 398.400064,21.412224 C392.745024,21.412224 388.160064,16.827904 388.160064,11.172224 C388.160064,5.517184 392.745024,0.932224 398.400064,0.932224" id="Fill-1" fill="#2C105A"></path>
                        <path d="M349.311936,230.820352 C349.311936,230.820352 366.463936,327.716352 364.799936,336.100352 L399.423936,336.420352 L375.871936,228.132352 C375.871936,228.132352 354.047936,229.604992 349.311936,230.820352" id="Fill-3" fill="#FE9B71"></path>
                        <path d="M437.631936,277.98848 L425.983936,306.34048 C425.983936,306.34048 423.935936,282.53248 412.287936,298.21248 C400.639936,313.89248 387.455936,336.16448 387.455936,336.16448 L461.375936,336.16448 L437.631936,277.98848 Z" id="Fill-5" fill="#56DBC9"></path>
                        <path d="M443.776,216.420352 C443.776,216.420352 461.12,270.436352 468.864,284.900352 C476.928,300.004992 488.256,335.780352 488.256,335.780352 L453.76,335.780352 L413.888,224.036352 C418.304,223.140352 422.848,222.116352 427.52,220.900352 C433.152,219.556352 438.592,218.020352 443.776,216.420352" id="Fill-7" fill="#FE9B71"></path>
                        <path d="M454.144128,249.444672 C454.144128,249.444672 459.520128,213.284672 484.160128,222.308672 C504.000128,229.604672 498.112128,249.444672 486.208128,265.060032 C473.408128,281.892032 478.016128,294.244672 487.424128,288.100032 C496.896128,281.956672 508.416128,274.532032 514.560128,284.388672 C520.704128,294.244672 488.256128,335.780032 488.256128,335.780032 L454.144128,249.444672 Z" id="Fill-9" fill="#56DBC9"></path>
                        <path d="M349.504128,232.740352 L376.256128,230.180352 L379.904128,246.116352 C377.792128,247.652352 373.376128,250.468352 367.040128,251.492352 C360.576128,252.516352 355.392128,251.108352 352.960128,250.276352 C351.808128,244.516352 350.656128,238.628352 349.504128,232.740352" id="Fill-11" fill="#F4624D"></path>
                        <path d="M413.824128,224.100352 L420.416128,242.212352 C423.296128,242.660352 428.864128,243.108352 435.392128,241.060352 C442.560128,238.756352 447.104128,234.532352 449.088128,232.420352 L443.776128,216.548352 L413.824128,224.100352 Z" id="Fill-13" fill="#F4624D"></path>
                        <path d="M342.016,153.700352 L345.728,234.340352 C360.32,236.068352 376.96,236.068352 401.984,230.948352 C423.68,226.532352 445.504,216.548352 457.6,210.212352 C451.584,185.188352 440.896,162.660352 434.88,137.700352 L342.016,153.700352 Z" id="Fill-15" fill="#501DA0"></path>
                        <path d="M373.824128,9.572224 C382.837248,9.572224 390.144128,16.879104 390.144128,25.892224 C390.144128,34.905984 382.837248,42.212224 373.824128,42.212224 C364.811008,42.212224 357.504128,34.905984 357.504128,25.892224 C357.504128,16.879104 364.811008,9.572224 373.824128,9.572224" id="Fill-17" fill="#FE9B71"></path>
                        <path d="M377.664128,21.34848 C378.547328,21.34848 379.264128,22.06464 379.264128,22.94848 C379.264128,23.83232 378.547328,24.54848 377.664128,24.54848 C376.780288,24.54848 376.064128,23.83232 376.064128,22.94848 C376.064128,22.06464 376.780288,21.34848 377.664128,21.34848" id="Fill-19" fill="#2C105A"></path>
                        <path d="M360.767872,23.972224 C361.510272,23.972224 362.111872,24.573824 362.111872,25.316864 C362.111872,26.058624 361.510272,26.660224 360.767872,26.660224 C360.025472,26.660224 359.423872,26.058624 359.423872,25.316864 C359.423872,24.573824 360.025472,23.972224 360.767872,23.972224" id="Fill-21" fill="#2C105A"></path>
                        <line x1="390.720064" y1="0.100352" x2="406.784064" y2="31.140352" id="Stroke-23" stroke="#FFFFFF" stroke-width="0.64"></line>
                        <path d="M362.687872,32.164672 C362.687872,32.164672 372.159872,31.140032 374.783872,30.628672 C374.783872,30.628672 377.023872,37.732032 369.983872,37.988672 C364.415872,38.244672 362.687872,32.164672 362.687872,32.164672" id="Fill-25" fill="#E33E26"></path>
                        <path d="M275.711936,133.092224 C275.711936,133.092224 314.751936,131.428224 328.191936,102.436864 C341.631936,73.444864 352.575936,57.060224 380.287936,52.452224 C407.999936,47.844864 478.591936,68.388224 478.591936,68.388224 C478.591936,68.388224 509.247936,75.556864 511.359936,86.436864 C513.471936,97.380224 511.807936,104.484864 498.303936,118.372224 C484.863936,132.260224 451.647936,158.308224 451.647936,158.308224 L441.663936,131.300224 L470.463936,103.652224 C471.807936,102.372224 471.231936,100.132224 469.439936,99.684864 L426.943936,88.292224 C425.919936,88.036864 425.023936,88.868224 425.215936,89.892224 L434.879936,137.700224 L342.015936,153.636864 L342.655936,130.916864 C342.655936,130.148224 341.567936,129.892224 341.311936,130.660224 C337.023936,142.564864 318.975936,167.076864 258.623936,175.140224 L275.711936,133.092224 Z" id="Fill-27" fill="#FFCA1E"></path>
                        <path d="M193.791936,335.780352 C193.791936,335.780352 235.391936,270.372352 251.391936,272.420352 C267.455936,274.468352 217.279936,335.716352 217.279936,335.716352 C217.279936,335.716352 193.215936,336.420352 193.791936,335.780352" id="Fill-29" fill="#56DBC9"></path>
                        <path d="M213.760064,335.58848 C213.760064,335.58848 250.304064,289.50848 262.272064,291.04448 C274.240064,292.58048 230.720064,335.71648 230.720064,335.71648 C230.720064,335.71648 213.312064,336.03648 213.760064,335.58848" id="Fill-31" fill="#56DBC9"></path>
                        <path d="M6.4e-05,335.652224 L22.720064,335.652224 C22.720064,335.652224 30.400064,316.004864 38.144064,318.692224 C45.824064,321.380224 40.448064,330.212224 38.144064,330.212224 C35.840064,330.212224 40.448064,315.556864 49.280064,317.540224 C58.112064,319.524864 50.432064,329.444864 50.432064,329.444864" id="Stroke-33" stroke="#56DBC9" stroke-width="0.64"></path>
                        <line x1="54.911936" y1="335.972224" x2="527.231936" y2="335.972224" id="Stroke-35" stroke="#56DBC9" stroke-width="0.64"></line>
                        <path d="M441.727872,131.364672 L439.231872,133.348672 C439.231872,133.348672 438.527872,130.084672 433.663872,130.660032 C433.663872,130.660032 439.231872,147.236672 418.175872,155.172032 C418.175872,155.172032 418.559872,159.332032 421.567872,160.740032 C421.567872,160.740032 421.375872,165.988672 426.815872,165.412032 C426.815872,165.412032 427.775872,170.276672 433.727872,169.252032 C433.727872,169.252032 445.567872,164.900032 445.375872,157.348672 L450.431872,155.172032 L441.727872,131.364672 Z" id="Fill-37" fill="#FE9B71"></path>
                        <path d="M426.240064,165.220352 C426.240064,165.220352 438.208064,163.876352 442.048064,154.020352" id="Stroke-39" stroke="#501DA0" stroke-width="0.64"></path>
                        <path d="M227.264128,318.30848 C227.264128,318.30848 242.944128,303.46048 247.104128,297.89248" id="Stroke-41" stroke="#FFFFFF" stroke-width="0.64"></path>
                        <path d="M429.504128,296.612224 C429.504128,296.612224 425.600128,306.148224 420.160128,319.012224" id="Stroke-43" stroke="#FFFFFF" stroke-width="0.64"></path>
                        <path d="M420.864128,161.316544 C420.864128,161.316544 433.920128,159.396544 437.824128,150.308544" id="Stroke-45" stroke="#501DA0" stroke-width="0.64"></path>
                        <g id="Group-199" transform="translate(257.920000, 52.260480)">
                            <g id="Group-119">
                                <g id="Group-49">
                                    <mask id="mask-10" fill="white">
                                        <use xlink:href="#path-9"></use>
                                    </mask>
                                    <g id="Clip-48"></g>
                                    <line x1="47.424128" y1="182.144192" x2="26.496128" y2="1.344192" id="Stroke-47" stroke="#501DA0" stroke-width="0.64" mask="url(#mask-10)"></line>
                                </g>
                                <g id="Group-52">
                                    <mask id="mask-12" fill="white">
                                        <use xlink:href="#path-11"></use>
                                    </mask>
                                    <g id="Clip-51"></g>
                                    <line x1="41.344128" y1="180.096064" x2="20.416128" y2="-0.639936" id="Stroke-50" stroke="#501DA0" stroke-width="0.64" mask="url(#mask-12)"></line>
                                </g>
                                <g id="Group-55">
                                    <mask id="mask-14" fill="white">
                                        <use xlink:href="#path-13"></use>
                                    </mask>
                                    <g id="Clip-54"></g>
                                    <line x1="35.264128" y1="178.111744" x2="14.336128" y2="-2.688256" id="Stroke-53" stroke="#501DA0" stroke-width="0.64" mask="url(#mask-14)"></line>
                                </g>
                                <g id="Group-58">
                                    <mask id="mask-16" fill="white">
                                        <use xlink:href="#path-15"></use>
                                    </mask>
                                    <g id="Clip-57"></g>
                                    <line x1="29.184128" y1="176.064192" x2="8.320128" y2="-4.671808" id="Stroke-56" stroke="#501DA0" stroke-width="0.64" mask="url(#mask-16)"></line>
                                </g>
                                <g id="Group-61">
                                    <mask id="mask-18" fill="white">
                                        <use xlink:href="#path-17"></use>
                                    </mask>
                                    <g id="Clip-60"></g>
                                    <line x1="53.504128" y1="184.128" x2="32.576128" y2="3.392" id="Stroke-59" stroke="#501DA0" stroke-width="0.64" mask="url(#mask-18)"></line>
                                </g>
                                <g id="Group-64">
                                    <mask id="mask-20" fill="white">
                                        <use xlink:href="#path-19"></use>
                                    </mask>
                                    <g id="Clip-63"></g>
                                    <line x1="59.584128" y1="186.176064" x2="38.656128" y2="5.376064" id="Stroke-62" stroke="#501DA0" stroke-width="0.64" mask="url(#mask-20)"></line>
                                </g>
                                <g id="Group-67">
                                    <mask id="mask-22" fill="white">
                                        <use xlink:href="#path-21"></use>
                                    </mask>
                                    <g id="Clip-66"></g>
                                    <line x1="65.664128" y1="188.159872" x2="44.736128" y2="7.424512" id="Stroke-65" stroke="#501DA0" stroke-width="0.64" mask="url(#mask-22)"></line>
                                </g>
                                <g id="Group-70">
                                    <mask id="mask-24" fill="white">
                                        <use xlink:href="#path-23"></use>
                                    </mask>
                                    <g id="Clip-69"></g>
                                    <line x1="71.680064" y1="190.144192" x2="50.816064" y2="9.408192" id="Stroke-68" stroke="#501DA0" stroke-width="0.64" mask="url(#mask-24)"></line>
                                </g>
                                <g id="Group-73">
                                    <mask id="mask-26" fill="white">
                                        <use xlink:href="#path-25"></use>
                                    </mask>
                                    <g id="Clip-72"></g>
                                    <line x1="77.760064" y1="192.191744" x2="56.896064" y2="11.456384" id="Stroke-71" stroke="#501DA0" stroke-width="0.64" mask="url(#mask-26)"></line>
                                </g>
                                <g id="Group-76">
                                    <mask id="mask-28" fill="white">
                                        <use xlink:href="#path-27"></use>
                                    </mask>
                                    <g id="Clip-75"></g>
                                    <line x1="83.840064" y1="194.176064" x2="62.976064" y2="13.440064" id="Stroke-74" stroke="#501DA0" stroke-width="0.64" mask="url(#mask-28)"></line>
                                </g>
                                <g id="Group-79">
                                    <mask id="mask-30" fill="white">
                                        <use xlink:href="#path-29"></use>
                                    </mask>
                                    <g id="Clip-78"></g>
                                    <line x1="89.920064" y1="196.224192" x2="69.056064" y2="15.488192" id="Stroke-77" stroke="#501DA0" stroke-width="0.64" mask="url(#mask-30)"></line>
                                </g>
                                <g id="Group-82">
                                    <mask id="mask-32" fill="white">
                                        <use xlink:href="#path-31"></use>
                                    </mask>
                                    <g id="Clip-81"></g>
                                    <line x1="96.000064" y1="198.208" x2="75.136064" y2="17.472" id="Stroke-80" stroke="#501DA0" stroke-width="0.64" mask="url(#mask-32)"></line>
                                </g>
                                <g id="Group-85">
                                    <mask id="mask-34" fill="white">
                                        <use xlink:href="#path-33"></use>
                                    </mask>
                                    <g id="Clip-84"></g>
                                    <line x1="99.007872" y1="179.008" x2="78.143872" y2="-1.728" id="Stroke-83" stroke="#501DA0" stroke-width="0.64" mask="url(#mask-34)"></line>
                                </g>
                                <g id="Group-88">
                                    <mask id="mask-36" fill="white">
                                        <use xlink:href="#path-35"></use>
                                    </mask>
                                    <g id="Clip-87"></g>
                                    <line x1="105.087872" y1="180.991744" x2="84.223872" y2="0.256384" id="Stroke-86" stroke="#501DA0" stroke-width="0.64" mask="url(#mask-36)"></line>
                                </g>
                                <g id="Group-91">
                                    <mask id="mask-38" fill="white">
                                        <use xlink:href="#path-37"></use>
                                    </mask>
                                    <g id="Clip-90"></g>
                                    <line x1="109.120064" y1="168.896064" x2="88.256064" y2="-11.903936" id="Stroke-89" stroke="#501DA0" stroke-width="0.64" mask="url(#mask-38)"></line>
                                </g>
                                <g id="Group-94">
                                    <mask id="mask-40" fill="white">
                                        <use xlink:href="#path-39"></use>
                                    </mask>
                                    <g id="Clip-93"></g>
                                    <line x1="113.151936" y1="156.736064" x2="92.223936" y2="-24.063936" id="Stroke-92" stroke="#501DA0" stroke-width="0.64" mask="url(#mask-40)"></line>
                                </g>
                                <g id="Group-97">
                                    <mask id="mask-42" fill="white">
                                        <use xlink:href="#path-41"></use>
                                    </mask>
                                    <g id="Clip-96"></g>
                                    <line x1="117.184128" y1="144.576064" x2="96.256128" y2="-36.159936" id="Stroke-95" stroke="#501DA0" stroke-width="0.64" mask="url(#mask-42)"></line>
                                </g>
                                <g id="Group-100">
                                    <mask id="mask-44" fill="white">
                                        <use xlink:href="#path-43"></use>
                                    </mask>
                                    <g id="Clip-99"></g>
                                    <line x1="121.216" y1="132.416064" x2="100.288" y2="-48.319936" id="Stroke-98" stroke="#501DA0" stroke-width="0.64" mask="url(#mask-44)"></line>
                                </g>
                                <g id="Group-103">
                                    <mask id="mask-46" fill="white">
                                        <use xlink:href="#path-45"></use>
                                    </mask>
                                    <g id="Clip-102"></g>
                                    <line x1="127.296" y1="134.464192" x2="106.368" y2="-46.335808" id="Stroke-101" stroke="#501DA0" stroke-width="0.64" mask="url(#mask-46)"></line>
                                </g>
                                <g id="Group-106">
                                    <mask id="mask-48" fill="white">
                                        <use xlink:href="#path-47"></use>
                                    </mask>
                                    <g id="Clip-105"></g>
                                    <line x1="133.376" y1="136.448" x2="112.448" y2="-44.288" id="Stroke-104" stroke="#501DA0" stroke-width="0.64" mask="url(#mask-48)"></line>
                                </g>
                                <g id="Group-109">
                                    <mask id="mask-50" fill="white">
                                        <use xlink:href="#path-49"></use>
                                    </mask>
                                    <g id="Clip-108"></g>
                                    <line x1="139.456" y1="138.496064" x2="118.528" y2="-42.303936" id="Stroke-107" stroke="#501DA0" stroke-width="0.64" mask="url(#mask-50)"></line>
                                </g>
                                <g id="Group-112">
                                    <mask id="mask-52" fill="white">
                                        <use xlink:href="#path-51"></use>
                                    </mask>
                                    <g id="Clip-111"></g>
                                    <line x1="145.536" y1="140.479872" x2="124.608" y2="-40.255488" id="Stroke-110" stroke="#501DA0" stroke-width="0.64" mask="url(#mask-52)"></line>
                                </g>
                                <g id="Group-115">
                                    <mask id="mask-54" fill="white">
                                        <use xlink:href="#path-53"></use>
                                    </mask>
                                    <g id="Clip-114"></g>
                                    <line x1="151.551936" y1="142.528" x2="130.687936" y2="-38.272" id="Stroke-113" stroke="#501DA0" stroke-width="0.64" mask="url(#mask-54)"></line>
                                </g>
                                <g id="Group-118">
                                    <mask id="mask-56" fill="white">
                                        <use xlink:href="#path-55"></use>
                                    </mask>
                                    <g id="Clip-117"></g>
                                    <line x1="157.631936" y1="144.511744" x2="136.767936" y2="-36.223616" id="Stroke-116" stroke="#501DA0" stroke-width="0.64" mask="url(#mask-56)"></line>
                                </g>
                            </g>
                            <g id="Group-198">
                                <g id="Group-122">
                                    <mask id="mask-58" fill="white">
                                        <use xlink:href="#path-57"></use>
                                    </mask>
                                    <g id="Clip-121"></g>
                                    <line x1="179.967872" y1="136.448" x2="159.039872" y2="-44.288" id="Stroke-120" stroke="#501DA0" stroke-width="0.64" mask="url(#mask-58)"></line>
                                </g>
                                <g id="Group-125">
                                    <mask id="mask-60" fill="white">
                                        <use xlink:href="#path-59"></use>
                                    </mask>
                                    <g id="Clip-124"></g>
                                    <line x1="173.887872" y1="134.464192" x2="152.959872" y2="-46.335808" id="Stroke-123" stroke="#501DA0" stroke-width="0.64" mask="url(#mask-60)"></line>
                                </g>
                                <g id="Group-128">
                                    <mask id="mask-62" fill="white">
                                        <use xlink:href="#path-61"></use>
                                    </mask>
                                    <g id="Clip-127"></g>
                                    <line x1="167.807872" y1="132.416064" x2="146.879872" y2="-48.319936" id="Stroke-126" stroke="#501DA0" stroke-width="0.64" mask="url(#mask-62)"></line>
                                </g>
                                <g id="Group-131">
                                    <mask id="mask-64" fill="white">
                                        <use xlink:href="#path-63"></use>
                                    </mask>
                                    <g id="Clip-130"></g>
                                    <line x1="161.727872" y1="130.431744" x2="140.799872" y2="-50.368256" id="Stroke-129" stroke="#501DA0" stroke-width="0.64" mask="url(#mask-64)"></line>
                                </g>
                                <g id="Group-134">
                                    <mask id="mask-66" fill="white">
                                        <use xlink:href="#path-65"></use>
                                    </mask>
                                    <g id="Clip-133"></g>
                                    <line x1="186.047872" y1="138.496064" x2="165.119872" y2="-42.303936" id="Stroke-132" stroke="#501DA0" stroke-width="0.64" mask="url(#mask-66)"></line>
                                </g>
                                <g id="Group-137">
                                    <mask id="mask-68" fill="white">
                                        <use xlink:href="#path-67"></use>
                                    </mask>
                                    <g id="Clip-136"></g>
                                    <line x1="192.064128" y1="140.479872" x2="171.200128" y2="-40.255488" id="Stroke-135" stroke="#501DA0" stroke-width="0.64" mask="url(#mask-68)"></line>
                                </g>
                                <g id="Group-140">
                                    <mask id="mask-70" fill="white">
                                        <use xlink:href="#path-69"></use>
                                    </mask>
                                    <g id="Clip-139"></g>
                                    <line x1="198.144128" y1="142.528" x2="177.280128" y2="-38.272" id="Stroke-138" stroke="#501DA0" stroke-width="0.64" mask="url(#mask-70)"></line>
                                </g>
                                <g id="Group-143">
                                    <mask id="mask-72" fill="white">
                                        <use xlink:href="#path-71"></use>
                                    </mask>
                                    <g id="Clip-142"></g>
                                    <line x1="204.224128" y1="144.511744" x2="183.360128" y2="-36.223616" id="Stroke-141" stroke="#501DA0" stroke-width="0.64" mask="url(#mask-72)"></line>
                                </g>
                                <g id="Group-146">
                                    <mask id="mask-74" fill="white">
                                        <use xlink:href="#path-73"></use>
                                    </mask>
                                    <g id="Clip-145"></g>
                                    <line x1="210.304128" y1="146.559872" x2="189.440128" y2="-34.240128" id="Stroke-144" stroke="#501DA0" stroke-width="0.64" mask="url(#mask-74)"></line>
                                </g>
                                <g id="Group-149">
                                    <mask id="mask-76" fill="white">
                                        <use xlink:href="#path-75"></use>
                                    </mask>
                                    <g id="Clip-148"></g>
                                    <line x1="216.384128" y1="148.544192" x2="195.520128" y2="-32.191808" id="Stroke-147" stroke="#501DA0" stroke-width="0.64" mask="url(#mask-76)"></line>
                                </g>
                                <g id="Group-152">
                                    <mask id="mask-78" fill="white">
                                        <use xlink:href="#path-77"></use>
                                    </mask>
                                    <g id="Clip-151"></g>
                                    <line x1="222.464128" y1="150.591744" x2="201.600128" y2="-30.208256" id="Stroke-150" stroke="#501DA0" stroke-width="0.64" mask="url(#mask-78)"></line>
                                </g>
                                <g id="Group-155">
                                    <mask id="mask-80" fill="white">
                                        <use xlink:href="#path-79"></use>
                                    </mask>
                                    <g id="Clip-154"></g>
                                    <line x1="228.544128" y1="152.576064" x2="207.616128" y2="-28.159936" id="Stroke-153" stroke="#501DA0" stroke-width="0.64" mask="url(#mask-80)"></line>
                                </g>
                                <g id="Group-158">
                                    <mask id="mask-82" fill="white">
                                        <use xlink:href="#path-81"></use>
                                    </mask>
                                    <g id="Clip-157"></g>
                                    <line x1="231.551936" y1="133.376064" x2="210.623936" y2="-47.423936" id="Stroke-156" stroke="#501DA0" stroke-width="0.64" mask="url(#mask-82)"></line>
                                </g>
                                <g id="Group-161">
                                    <mask id="mask-84" fill="white">
                                        <use xlink:href="#path-83"></use>
                                    </mask>
                                    <g id="Clip-160"></g>
                                    <line x1="237.631936" y1="135.359872" x2="216.703936" y2="-45.375488" id="Stroke-159" stroke="#501DA0" stroke-width="0.64" mask="url(#mask-84)"></line>
                                </g>
                                <g id="Group-164">
                                    <mask id="mask-86" fill="white">
                                        <use xlink:href="#path-85"></use>
                                    </mask>
                                    <g id="Clip-163"></g>
                                    <line x1="244.927872" y1="139.199872" x2="223.999872" y2="-41.600128" id="Stroke-162" stroke="#501DA0" stroke-width="0.64" mask="url(#mask-86)"></line>
                                </g>
                                <g id="Group-167">
                                    <mask id="mask-88" fill="white">
                                        <use xlink:href="#path-87"></use>
                                    </mask>
                                    <g id="Clip-166"></g>
                                    <line x1="250.944128" y1="141.184192" x2="230.080128" y2="-39.551808" id="Stroke-165" stroke="#501DA0" stroke-width="0.64" mask="url(#mask-88)"></line>
                                </g>
                                <g id="Group-170">
                                    <mask id="mask-90" fill="white">
                                        <use xlink:href="#path-89"></use>
                                    </mask>
                                    <g id="Clip-169"></g>
                                    <line x1="257.024128" y1="143.231744" x2="236.160128" y2="-37.568256" id="Stroke-168" stroke="#501DA0" stroke-width="0.64" mask="url(#mask-90)"></line>
                                </g>
                                <g id="Group-173">
                                    <mask id="mask-92" fill="white">
                                        <use xlink:href="#path-91"></use>
                                    </mask>
                                    <g id="Clip-172"></g>
                                    <line x1="263.104128" y1="145.216064" x2="242.240128" y2="-35.519936" id="Stroke-171" stroke="#501DA0" stroke-width="0.64" mask="url(#mask-92)"></line>
                                </g>
                                <g id="Group-176">
                                    <mask id="mask-94" fill="white">
                                        <use xlink:href="#path-93"></use>
                                    </mask>
                                    <g id="Clip-175"></g>
                                    <line x1="266.111936" y1="126.016064" x2="245.247936" y2="-54.783936" id="Stroke-174" stroke="#501DA0" stroke-width="0.64" mask="url(#mask-94)"></line>
                                </g>
                                <g id="Group-179">
                                    <mask id="mask-96" fill="white">
                                        <use xlink:href="#path-95"></use>
                                    </mask>
                                    <g id="Clip-178"></g>
                                    <line x1="272.191936" y1="127.999872" x2="251.327936" y2="-52.735488" id="Stroke-177" stroke="#501DA0" stroke-width="0.64" mask="url(#mask-96)"></line>
                                </g>
                                <g id="Group-182">
                                    <mask id="mask-98" fill="white">
                                        <use xlink:href="#path-97"></use>
                                    </mask>
                                    <g id="Clip-181"></g>
                                    <line x1="-3.072128" y1="190.719872" x2="-24.000128" y2="9.919872" id="Stroke-180" stroke="#501DA0" stroke-width="0.64" mask="url(#mask-98)"></line>
                                </g>
                                <g id="Group-185">
                                    <mask id="mask-100" fill="white">
                                        <use xlink:href="#path-99"></use>
                                    </mask>
                                    <g id="Clip-184"></g>
                                    <line x1="3.007872" y1="192.704192" x2="-17.920128" y2="11.968192" id="Stroke-183" stroke="#501DA0" stroke-width="0.64" mask="url(#mask-100)"></line>
                                </g>
                                <g id="Group-188">
                                    <mask id="mask-102" fill="white">
                                        <use xlink:href="#path-101"></use>
                                    </mask>
                                    <g id="Clip-187"></g>
                                    <line x1="9.087872" y1="194.688" x2="-11.840128" y2="13.952" id="Stroke-186" stroke="#501DA0" stroke-width="0.64" mask="url(#mask-102)"></line>
                                </g>
                                <g id="Group-191">
                                    <mask id="mask-104" fill="white">
                                        <use xlink:href="#path-103"></use>
                                    </mask>
                                    <g id="Clip-190"></g>
                                    <line x1="15.167872" y1="196.736064" x2="-5.760128" y2="16.000064" id="Stroke-189" stroke="#501DA0" stroke-width="0.64" mask="url(#mask-104)"></line>
                                </g>
                                <g id="Group-194">
                                    <mask id="mask-106" fill="white">
                                        <use xlink:href="#path-105"></use>
                                    </mask>
                                    <g id="Clip-193"></g>
                                    <line x1="18.176" y1="177.471744" x2="-2.752" y2="-3.263616" id="Stroke-192" stroke="#501DA0" stroke-width="0.64" mask="url(#mask-106)"></line>
                                </g>
                                <g id="Group-197">
                                    <mask id="mask-108" fill="white">
                                        <use xlink:href="#path-107"></use>
                                    </mask>
                                    <g id="Clip-196"></g>
                                    <line x1="24.256" y1="179.519872" x2="3.328" y2="-1.215488" id="Stroke-195" stroke="#501DA0" stroke-width="0.64" mask="url(#mask-108)"></line>
                                </g>
                            </g>
                        </g>
                        <path d="M363.520064,57.82848 C363.520064,57.82848 354.176064,68.26048 368.320064,68.38848 C383.936064,68.58048 391.424064,52.00448 391.424064,52.00448 C391.424064,52.00448 379.136064,50.53248 363.520064,57.82848" id="Fill-200" fill="#F4624D"></path>
                    </g>
                </g>
            </g>
        </g>
    </g>
</svg>