<?xml version="1.0" encoding="UTF-8"?>
<svg width="32px" height="32px" viewBox="0 0 32 32" version="1.1" xmlns="http://www.w3.org/2000/svg" xmlns:xlink="http://www.w3.org/1999/xlink">
    <!-- Generator: sketchtool 61.2 (101010) - https://sketch.com -->
    <title>2C6647D8-D84D-4162-B38B-7B6449C163F4</title>
    <desc>Created with sketchtool.</desc>
    <g id="Page-2" stroke="none" stroke-width="1" fill="none" fill-rule="evenodd">
        <g id="14.3-Home-3" transform="translate(-1021.000000, -4785.000000)" fill-rule="nonzero">
            <g id="::-Footer-::" transform="translate(0.000000, 4323.000000)">
                <g id="Group-9-Copy-2">
                    <g transform="translate(1021.000000, 462.000000)">
                        <g id="Quora-Copy">
                            <path d="M16,0 C7.16479494,0 0,7.16479494 0,16 C0,24.8352051 7.16479494,32 16,32 C24.8352051,32 32,24.8352051 32,16 C32,7.16479494 24.8352051,0 16,0 Z" id="Shape" fill="#FFFFFF"></path>
                            <path d="M19.8609062,22.34 C21.8869062,21.071 23.2359062,18.798 23.2359062,16.207 C23.2359062,12.228 20.0519063,9 16.1249063,9 C12.1969062,9 9.01390625,12.228 9.01390625,16.208 C9.01390625,20.19 12.1969062,23.416 16.1249062,23.416 C16.7029062,23.416 17.2629063,23.345 17.8009062,23.213 C18.4749062,24.44 19.5049062,25.31 21.6869062,24.895 L21.6869062,23.672 C21.6869062,23.672 20.2879062,23.32 19.8609062,22.34 Z M19.8109063,17.162 C19.8109063,18.365 19.4269063,19.458 18.8049063,20.264 C18.0239062,19.431 16.7989063,18.748 15.2449062,18.835 L15.2449062,18.981 L15.2449062,20.252 C15.2449062,20.252 16.2999062,20.294 17.0209062,21.534 C16.7499062,21.614 16.4699063,21.657 16.1789062,21.657 C14.1729062,21.657 12.5479062,19.644 12.5479062,17.161 L12.5479062,15.305 C12.5479062,12.821 14.1729062,10.808 16.1789062,10.808 C18.1849062,10.808 19.8119062,12.821 19.8119062,15.305 L19.8109063,17.162 Z" id="Shape" fill="#260E48"></path>
                        </g>
                    </g>
                </g>
            </g>
        </g>
    </g>
</svg>