<?xml version="1.0" encoding="UTF-8"?>
<svg width="24px" height="18px" viewBox="0 0 24 18" version="1.1" xmlns="http://www.w3.org/2000/svg" xmlns:xlink="http://www.w3.org/1999/xlink">
    <!-- Generator: sketchtool 63.1 (101010) - https://sketch.com -->
    <title>92EAA2DD-40BF-4748-8792-E22CFBF99BE6</title>
    <desc>Created with sketchtool.</desc>
    <g id="Page-1" stroke="none" stroke-width="1" fill="none" fill-rule="evenodd" opacity="0.5">
        <g id="1.1-Jobs-Listing" transform="translate(-1218.000000, -401.000000)">
            <g id="Group-4" transform="translate(149.000000, 353.000000)">
                <g id="right-arrow-(3)" transform="translate(1069.000000, 48.000000)">
                    <rect id="Rectangle" fill="#D8D8D8" opacity="0" x="0" y="0" width="24" height="17"></rect>
                    <path d="M15.90375,0.75525 C15.582,0.42225 15.0465,0.42225 14.7135,0.75525 C14.39175,1.077 14.39175,1.6125 14.7135,1.9335 L20.74875,7.96875 L0.83325,7.96875 C0.369,7.9695 0,8.3385 0,8.80275 C0,9.267 0.369,9.648 0.83325,9.648 L20.74875,9.648 L14.7135,15.672 C14.39175,16.005 14.39175,16.54125 14.7135,16.86225 C15.0465,17.19525 15.58275,17.19525 15.90375,16.86225 L23.36775,9.39825 C23.70075,9.0765 23.70075,8.541 23.36775,8.22 L15.90375,0.75525 Z" id="Path" fill="#282232" fill-rule="nonzero"></path>
                </g>
            </g>
        </g>
    </g>
</svg>