<?xml version="1.0" encoding="UTF-8"?>
<svg width="16px" height="13px" viewBox="0 0 16 13" version="1.1" xmlns="http://www.w3.org/2000/svg" xmlns:xlink="http://www.w3.org/1999/xlink">
    <!-- Generator: Sketch 61.2 (89653) - https://sketch.com -->
    <title>right-arrow (2)</title>
    <desc>Created with Sketch.</desc>
    <g id="Color-Change" stroke="none" stroke-width="1" fill="none" fill-rule="evenodd" opacity="0.5">
        <g id="icons" transform="translate(-739.000000, -538.000000)" fill="#000000" fill-rule="nonzero">
            <g id="right-arrow-(2)" transform="translate(747.000000, 544.500000) scale(-1, 1) translate(-747.000000, -544.500000) translate(739.000000, 538.000000)">
                <path d="M9.4016,0.17664 C9.14592,-0.06688 8.74112,-0.05728 8.49664,0.1984 C8.2528,0.4544 8.26272,0.85952 8.5184,1.10336 L13.42752,5.76 L0.64,5.76 C0.28672,5.76 0,6.04672 0,6.4 C0,6.75328 0.28672,7.04 0.64,7.04 L13.40544,7.04 L8.5184,11.69664 C8.2624,11.94048 8.2528,12.3456 8.49664,12.6016 C8.6224,12.73344 8.79136,12.8 8.96,12.8 C9.11872,12.8 9.27744,12.74144 9.4016,12.62336 L14.984,7.30336 C15.22656,7.0608 15.36,6.74016 15.36,6.4 C15.36,6.05984 15.22656,5.7392 14.9728,5.48544 L9.4016,0.17664 Z" id="Path"></path>
            </g>
        </g>
    </g>
</svg>