<?xml version="1.0" encoding="UTF-8"?>
<svg width="198px" height="39px" viewBox="0 0 198 39" version="1.1" xmlns="http://www.w3.org/2000/svg" xmlns:xlink="http://www.w3.org/1999/xlink">
    <!-- Generator: sketchtool 60.1 (101010) - https://sketch.com -->
    <title>5A67055A-2579-4A14-9612-4D8E6B18A922</title>
    <desc>Created with sketchtool.</desc>
    <defs>
        <polygon id="path-1" points="0 0.0683755153 37.5686225 0.0683755153 37.5686225 37.5934165 0 37.5934165"></polygon>
        <polygon id="path-3" points="0.13216321 0.0907273317 23.0177128 0.0907273317 23.0177128 25.2740601 0.13216321 25.2740601"></polygon>
    </defs>
    <g id="Page-2" stroke="none" stroke-width="1" fill="none" fill-rule="evenodd">
        <g id="14.3-Home" transform="translate(-64.000000, -24.000000)">
            <g id="::-Header-::">
                <g id=":-Logo-:" transform="translate(64.000000, 24.000000)">
                    <g id="Group-19">
                        <g id="Group-3" transform="translate(0.000000, 0.157286)">
                            <mask id="mask-2" fill="white">
                                <use xlink:href="#path-1"></use>
                            </mask>
                            <g id="Clip-2"></g>
                            <path d="M34.0296269,19.0975071 C34.0370864,18.9302917 34.044546,18.7628507 34.0520056,18.5956353 C33.6421819,18.4121723 33.2425304,18.0978255 32.8207262,18.0648788 C25.369983,17.4837998 20.1632108,12.3073445 19.5345734,4.8724663 C19.4999881,4.46311585 19.1010148,3.78838717 18.8098659,3.75363526 C18.0259341,3.66043695 18.0630058,4.37217416 18.0223173,4.94512939 C17.5105463,12.1818766 12.1554871,17.5309631 4.92468787,18.0346402 C4.3602479,18.0739053 3.67148195,18.0190695 3.68021402,18.8201688 C3.68888759,19.6187858 4.37787959,19.5454457 4.94141537,19.5849365 C10.9531418,20.006924 15.9114881,23.9291512 17.4974356,29.5964208 C17.8080245,30.706451 17.8134497,31.8988478 18.0645881,33.0298646 C18.1398619,33.3694855 18.5702558,33.6303505 18.8381218,33.9275471 C19.0772798,33.6434389 19.3358778,33.3728704 19.5445195,33.0680014 C19.6157243,32.964197 19.5526572,32.7739641 19.5666721,32.624576 C20.0915538,26.9654302 22.9135276,22.8883991 28.1424524,20.6401309 C29.5916413,20.0168531 31.2684598,19.9283937 32.8336109,19.5634986 C33.2461471,19.4673667 33.6317837,19.2559216 34.0296269,19.0975071 M37.5686225,18.7858682 C37.5699788,29.1554777 29.279018,37.4406494 19.0562574,37.5913915 C8.65017251,37.7446158 -0.0605580568,29.1818801 -6.77899428e-05,18.8440889 C0.0619595497,8.339985 8.3309938,0.0541362578 18.8833313,0.0683346821 C29.2781138,0.0821183169 37.5672663,8.38556868 37.5686225,18.7858682" id="Fill-1" fill="#FFFFFF" mask="url(#mask-2)"></path>
                        </g>
                        <path d="M46.8810004,27.4486849 C47.6911538,26.2872038 48.4391441,25.2150847 49.0284493,24.3695301 C51.0475033,25.2888761 52.8891102,26.2964559 54.8457751,26.9707333 C56.8327304,27.6551654 58.9327093,27.5879182 60.9443037,26.8660262 C62.0064997,26.4848835 62.9082022,25.8552872 63.1261117,24.6412269 C63.3835795,23.2055667 62.6855456,22.1289344 61.0374352,21.6342838 C59.2769792,21.1062353 57.4629501,20.7580392 55.6911918,20.2633886 C54.3206674,19.8806662 52.941101,19.4844042 51.6322875,18.9355948 C47.3098121,17.1242078 47.5424147,11.557809 50.6618667,9.17797997 C52.7107589,7.61482092 55.0720484,7.10392268 57.5601504,7.12513488 C61.0161867,7.15469658 64.1055744,8.29090357 66.8900244,10.495619 C66.0425733,11.5472029 65.2267688,12.5588446 64.3727623,13.6181009 C62.5160102,12.1612285 60.5539201,11.0785034 58.2832756,10.9496505 C56.8919548,10.8708945 55.4443482,11.0805343 54.0824136,11.4095492 C53.046213,11.6600337 52.40989,12.5062654 52.4216445,13.690764 C52.4331729,14.8389311 53.1777725,15.3931564 54.1201635,15.6723 C56.2436513,16.3018963 58.3983336,16.8249803 60.5254382,17.4430678 C61.6403032,17.7668925 62.7712175,18.1001949 63.8128432,18.5995844 C68.3799018,20.7898575 67.9666874,26.341137 64.9254478,28.8331198 C62.7440919,30.6208124 60.1766473,31.1779713 57.4328858,31.1229098 C53.9359349,31.0525033 50.6544071,30.2570456 47.7756954,28.1669663 C47.505795,27.9708662 47.2544305,27.7497177 46.8810004,27.4486849" id="Fill-4" fill="#FFFFFF"></path>
                        <path d="M79.9771652,20.3460711 L79.9771652,20.3519383 C81.2577229,20.3519383 82.5396368,20.3869158 83.817934,20.3314031 C84.2085436,20.3142528 84.8579773,20.1136394 84.9124547,19.8843671 C85.0030997,19.5014191 84.827461,18.9320744 84.5607252,18.6073472 C82.3278305,15.8860919 77.483186,15.9648479 75.3004738,18.7429699 C75.0667409,19.0403921 74.7710711,19.6271127 74.8933627,19.7920714 C75.1151151,20.0910733 75.6237214,20.3031953 76.0235989,20.3226022 C77.3387418,20.3857875 78.6588577,20.3460711 79.9771652,20.3460711 M89.9521962,23.4317701 L86.9500446,23.4317701 C83.4492509,23.4319957 79.9484572,23.4315444 76.4476636,23.4333497 C76.1470207,23.4333497 75.8359797,23.4008544 75.5475434,23.4642654 C74.7120728,23.6481797 74.5131512,24.124326 74.9907891,24.8286164 C76.5457681,27.120663 78.851676,27.6620255 81.420929,27.4751776 C83.6185603,27.3151834 85.5487777,26.4165983 87.4190926,25.0111768 C88.0870622,25.9102132 88.7208987,26.7632147 89.34931,27.6085437 C84.4626207,32.1432169 77.0876033,32.1813537 73.1471477,28.4599655 C70.4101677,25.87501 69.7049003,22.6789624 70.8654269,19.1798511 C72.0397423,15.6387666 74.7256356,13.701686 78.3505293,13.1621287 C81.9874034,12.6207662 85.2551423,13.4272813 87.6677446,16.4222643 C89.2758447,18.4180169 89.9562469,20.7513596 89.9521962,23.4317701" id="Fill-6" fill="#FFFFFF"></path>
                        <path d="M97.3604922,19.8419652 C97.799928,20.0324238 98.1606994,20.3210452 98.5250876,20.3257841 C101.345027,20.3639209 104.166323,20.3655005 106.986262,20.3345849 C107.703736,20.3269124 108.052753,19.6661747 107.653553,19.0893833 C106.390175,17.2637796 104.58451,16.4999145 102.402928,16.6355372 C100.203714,16.7720626 98.4541088,17.6688424 97.3604922,19.8419652 M112.628627,23.4317926 C108.643188,23.4317926 104.734153,23.4317926 100.824892,23.4320183 C100.071929,23.4320183 99.316479,23.3959124 98.5662282,23.4430757 C97.4484246,23.5137079 97.1622488,24.0862118 97.8089699,24.980058 C99.3998904,27.1786806 101.694948,27.6588888 104.213567,27.4677533 C106.408033,27.3012149 108.317454,26.3543382 110.159513,25.0396327 C110.819797,25.9242268 111.443009,26.7584984 112.122055,27.6676897 C109.963982,29.5174392 107.532618,30.7208934 104.752011,31.043364 C101.577404,31.4114184 98.5693929,30.8357552 96.086942,28.6712075 C91.3376894,24.5309911 92.3729858,16.9067827 98.0250711,14.1072228 C105.12205,10.5918638 112.958882,15.507454 112.628627,23.4317926" id="Fill-8" fill="#FFFFFF"></path>
                        <path d="M127.900311,19.7315941 C126.703843,20.7488773 126.696384,20.8675754 127.729194,22.054105 C129.853359,24.4944113 131.981368,26.9315584 134.104178,29.3727674 C134.393744,29.7058442 134.663419,30.0556199 135.100368,30.5917923 C133.416316,30.5917923 131.958311,30.6355706 130.50641,30.5588456 C130.173216,30.541244 129.814931,30.1524288 129.548648,29.8613251 C127.59786,27.7279188 125.667869,25.5760082 123.646328,23.3356382 C122.417309,24.3594656 121.225588,25.3178511 120.08631,26.3349087 C119.883094,26.5163408 119.832233,26.9385539 119.822739,27.2529008 C119.791318,28.302228 119.810759,29.3529092 119.810759,30.5003992 L115.891099,30.5003992 L115.891099,6.00165521 L119.811663,6.00165521 L119.811663,21.3286024 C120.523033,20.980632 121.055375,20.8382394 121.43423,20.5157687 C123.869437,18.4419371 126.251071,16.3051458 128.702101,14.2502698 C129.142667,13.8810871 129.813801,13.6452706 130.394517,13.610293 C131.878291,13.5213823 133.371107,13.5807313 135.146482,13.5807313 C132.583106,15.7563364 130.2399,17.7417086 127.900311,19.7315941 Z" id="Fill-10" fill="#FFFFFF"></path>
                        <g id="Group-14" transform="translate(174.960567, 13.471330)">
                            <mask id="mask-4" fill="white">
                                <use xlink:href="#path-3"></use>
                            </mask>
                            <g id="Clip-13"></g>
                            <path d="M3.02252291,19.415284 C3.35662074,19.8645766 3.5813117,20.2114187 3.84985583,20.5203497 C4.87452799,21.6987554 6.39107895,21.9368286 7.69898831,21.0709644 C8.1587684,20.7665466 8.53400683,20.3231213 8.91218387,19.9106116 C9.89164658,18.8423288 10.0417419,17.8385852 9.27272922,16.4205267 C6.62368157,11.5344981 4.16089684,6.54782439 1.63120213,1.59748221 C1.41238839,1.16940184 1.2229608,0.726653455 0.940401746,0.120074626 C2.40903069,0.120074626 3.74564805,0.0729113168 5.07390166,0.157760141 C5.35600862,0.175813082 5.69440134,0.630521542 5.85964188,0.958182427 C7.60043171,4.41261275 9.29442976,7.89028624 11.0535294,11.3350131 C11.2513208,11.7222487 11.7533717,12.1469441 12.1462418,12.1803421 C12.4495972,12.2065188 12.9263308,11.709386 13.1153063,11.337721 C14.8687548,7.88938359 16.5939474,4.42615246 18.2813901,0.945094045 C18.5885883,0.311210142 18.9437085,0.0566636696 19.6492019,0.0943491846 C20.7364892,0.152795582 21.8292016,0.109919847 23.017758,0.109919847 C22.9479094,0.382519261 22.9332163,0.595995292 22.8432495,0.771108823 C19.6661555,6.95063064 16.5240988,13.1484311 13.2690185,19.2868824 C12.4694894,20.79498 11.4599624,22.2653921 10.2662069,23.4771958 C7.52809659,26.2564461 2.6956586,25.7078623 0.452365746,22.5479206 C0.0172248,21.9347976 -0.0291148851,21.5344736 0.657616644,21.0982694 C1.44652153,20.5973003 2.18479183,20.0168982 3.02252291,19.415284" id="Fill-12" fill="#FFFFFF" mask="url(#mask-4)"></path>
                        </g>
                        <path d="M164.426879,13.5877945 L172.668561,13.5877945 L172.668561,16.8871952 C171.257122,16.8871952 169.843875,16.8867439 168.430627,16.8874209 C167.639688,16.8876465 166.848523,16.879974 166.05781,16.8928368 C164.952212,16.9111154 164.274523,17.5973528 164.272262,18.7175378 C164.265481,22.2523037 164.24152,25.7872953 164.287407,29.3211585 C164.299614,30.2648761 164.101597,30.6516603 163.047086,30.6254836 C160.179451,30.5553028 160.179225,30.6047227 160.177869,27.6961682 C160.176512,24.7257823 160.180129,21.7551708 160.167018,18.7845593 C160.161141,17.4402922 159.603483,16.9005093 158.251042,16.8896775 C157.275196,16.8817793 156.29935,16.8880979 155.237154,16.8880979 L155.237154,13.5803477 C156.572189,13.5803477 157.913779,13.5622947 159.254466,13.5882458 C159.897344,13.6006572 160.240258,13.4957245 160.365488,12.7140322 C161.006332,8.7103411 163.497372,6.20549549 167.391488,5.51655011 C171.416712,4.80436158 175.206846,6.4905063 177.205103,9.95306044 C176.3303,10.7255007 175.438318,11.5132859 174.458177,12.3784731 C172.718066,9.52949331 170.302073,8.35898573 167.083612,9.34873823 C165.452229,9.85038434 164.541259,11.3314025 164.426879,13.5877945" id="Fill-15" fill="#FFFFFF"></path>
                        <path d="M138.224838,13.6331751 L149.40084,13.6331751 C149.423445,14.1145116 149.460969,14.5507158 149.461647,14.98692 C149.46662,18.4054701 149.459386,21.8240202 149.467298,25.2425703 C149.470463,26.6006029 150.176182,27.2924818 151.546255,27.3021853 C152.787932,27.3109861 154.030288,27.3249771 155.271513,27.2976721 C155.887718,27.2841323 156.149255,27.4847457 156.137048,28.1366825 C156.080762,31.1296345 156.491716,30.5713473 153.844929,30.5891746 C149.066064,30.6212186 144.286747,30.5979754 139.507656,30.5939135 C139.101676,30.5934622 138.695695,30.5605155 138.215344,30.539529 L138.215344,27.3046676 C140.013776,27.3046676 141.768355,27.3055702 143.522708,27.3046676 C145.41834,27.3033136 145.933728,26.795349 145.93418,24.9273209 C145.935084,22.9363071 145.935536,20.9452933 145.933501,18.9542796 C145.931693,17.4678455 145.348717,16.8960186 143.820864,16.8921823 C141.984908,16.8872178 140.148952,16.891054 138.224838,16.891054 L138.224838,13.6331751 Z" id="Fill-17" fill="#FFFFFF"></path>
                    </g>
                </g>
            </g>
        </g>
    </g>
</svg>