<?xml version="1.0" encoding="UTF-8"?>
<svg width="16px" height="16px" viewBox="0 0 16 16" version="1.1" xmlns="http://www.w3.org/2000/svg" xmlns:xlink="http://www.w3.org/1999/xlink">
    <!-- Generator: Sketch 61.2 (89653) - https://sketch.com -->
    <title>seek-sm</title>
    <desc>Created with Sketch.</desc>
    <defs>
        <polygon id="path-1" points="0 0 16 0 16 16 0 16"></polygon>
    </defs>
    <g id="Color-Change" stroke="none" stroke-width="1" fill="none" fill-rule="evenodd">
        <g id="add.svg" transform="translate(-982.000000, -302.000000)">
            <g id="seek-sm" transform="translate(982.000000, 302.000000)">
                <mask id="mask-2" fill="white">
                    <use xlink:href="#path-1"></use>
                </mask>
                <g id="path-1"></g>
                <path d="M14.4928019,8.11369056 C14.4959788,8.04239306 14.4991557,7.97099934 14.5023326,7.89970184 C14.3277957,7.82147664 14.1575909,7.68744504 13.9779517,7.67339722 C10.8048068,7.42563599 8.58733098,5.21849239 8.319605,2.04839953 C8.30487574,1.87386017 8.13495976,1.58616849 8.01096441,1.57135093 C7.67710116,1.53161291 7.69288939,1.83508433 7.67556085,2.07938171 C7.45760629,5.16499521 5.17697759,7.44574554 2.0975031,7.66050401 C1.85711771,7.67724593 1.563784,7.65386497 1.56746784,7.9954387 C1.57119676,8.33595403 1.86462675,8.3046832 2.10462706,8.32152134 C4.66491917,8.50144891 6.77659458,10.1738131 7.45202265,12.5902308 C7.58429719,13.0635269 7.58660766,13.5719425 7.69356328,14.0541869 C7.72562108,14.1989949 7.90891855,14.3102229 8.02299812,14.4369419 C8.12485144,14.3158035 8.23498395,14.2004382 8.32384087,14.0704477 C8.35416581,14.0261875 8.32730657,13.9450758 8.33327529,13.8813795 C8.55681349,11.4684257 9.75864416,9.73005594 11.9855544,8.77143648 C12.6027393,8.5056825 13.3168678,8.46796506 13.983439,8.31238064 C14.1591312,8.27139179 14.3233673,8.18123557 14.4928019,8.11369056 M16,7.98081357 C16.0005776,12.4022209 12.4695983,15.934863 8.11589836,15.9991366 C3.68412368,16.0644686 -0.0256284041,12.4134784 -1.77635684e-14,8.0056378 C0.026549762,3.52688458 3.54819089,-0.00604617352 8.04225205,1.77635684e-14 C12.4692132,0.0058848525 15.9994224,3.54632061 16,7.98081357" id="Fill-1" fill="#0098D6" fill-rule="nonzero" mask="url(#mask-2)"></path>
            </g>
        </g>
    </g>
</svg>