<?xml version="1.0" encoding="UTF-8"?>
<svg width="295px" height="520px" viewBox="0 0 295 520" version="1.1" xmlns="http://www.w3.org/2000/svg" xmlns:xlink="http://www.w3.org/1999/xlink">
    <!-- Generator: sketchtool 60 (101010) - https://sketch.com -->
    <title>27653E42-8C7A-49A9-8E58-4B96034CA016</title>
    <desc>Created with sketchtool.</desc>
    <defs>
        <polygon id="path-1" points="0 0 595 0 595 595 0 595"></polygon>
    </defs>
    <g id="Page-2" stroke="none" stroke-width="1" fill="none" fill-rule="evenodd" opacity="0.400000006">
        <g id="14.3-Home" transform="translate(0.000000, -2979.000000)">
            <g id="::-Testi-::" transform="translate(-72.000000, 2904.000000)">
                <g id="Group-3" transform="translate(297.500000, 297.500000) rotate(-180.000000) translate(-297.500000, -297.500000) ">
                    <mask id="mask-2" fill="white">
                        <use xlink:href="#path-1"></use>
                    </mask>
                    <g id="Clip-2"></g>
                    <path d="M767.947828,225.727868 C768.065968,223.076492 768.184108,220.425116 768.302249,217.770162 C761.811696,214.861163 755.482243,209.876862 748.80553,209.354459 C630.804914,200.144417 548.343029,118.062686 538.383449,0.178435784 C537.835708,-6.31582494 531.516996,-17.0143591 526.905946,-17.5618092 C514.490482,-19.0395666 515.077603,-7.75780129 514.436782,1.32700752 C506.331645,116.073259 421.521276,200.888662 307.000427,208.874993 C298.061149,209.497583 287.152868,208.628104 287.291161,221.330377 C287.432108,233.993291 298.34039,232.830406 307.265348,233.456575 C402.479218,240.147631 481.003095,302.342254 506.120425,392.202785 C511.039355,409.799906 511.125275,428.710191 515.102663,446.640076 C516.298385,452.025124 523.114719,456.161413 527.353447,460.873778 C531.141095,456.368943 535.236623,452.078795 538.54097,447.248354 C539.672252,445.598847 538.67343,442.582505 538.89181,440.213799 C547.204587,350.48208 591.897396,285.840033 674.710122,250.187794 C697.661548,240.308646 724.221621,238.902451 749.00959,233.116655 C755.543103,231.59596 761.647015,228.239698 767.947828,225.727868 M824,220.786505 C824.02148,385.20759 692.710398,516.581296 530.808154,518.967892 C366.002525,521.397425 228.046949,385.626228 229.00496,221.713234 C229.990893,55.1560204 360.947555,-76.2248421 528.069449,-75.9997111 C692.699658,-75.781157 823.97852,55.8787976 824,220.786505" id="Fill-1" stroke="#F5A623" mask="url(#mask-2)"></path>
                </g>
            </g>
        </g>
    </g>
</svg>