<?xml version="1.0" encoding="UTF-8"?>
<svg width="193px" height="38px" viewBox="0 0 193 38" version="1.1" xmlns="http://www.w3.org/2000/svg" xmlns:xlink="http://www.w3.org/1999/xlink">
    <!-- Generator: sketchtool 60.1 (101010) - https://sketch.com -->
    <title>68D0728A-FE85-48D3-BB79-B5FEB188D942</title>
    <desc>Created with sketchtool.</desc>
    <defs>
        <polygon id="path-1" points="0 0.0666661274 36.6246873 0.0666661274 36.6246873 36.6535811 0 36.6535811"></polygon>
        <polygon id="path-3" points="0.128842526 0.0884591484 22.4393783 0.0884591484 22.4393783 24.6422086 0.128842526 24.6422086"></polygon>
    </defs>
    <g id="Page-2" stroke="none" stroke-width="1" fill="none" fill-rule="evenodd">
        <g id="Idea-3.1" transform="translate(-62.000000, -58.000000)">
            <g id="Group-20" transform="translate(62.000000, 58.000000)">
                <g id="Group-19">
                    <g id="Group-3" transform="translate(0.000000, 0.153354)">
                        <mask id="mask-2" fill="white">
                            <use xlink:href="#path-1"></use>
                        </mask>
                        <g id="Clip-2"></g>
                        <path d="M33.1746111,18.6200694 C33.1818833,18.4570344 33.1891554,18.2937794 33.1964275,18.1307444 C32.7969009,17.951868 32.4072909,17.6453798 31.9960849,17.6132569 C24.7325462,17.0467048 19.6565974,11.9996609 19.0437549,4.75065464 C19.0100387,4.35153796 18.6210898,3.69367749 18.3372562,3.65979438 C17.5730211,3.56892603 17.6091614,4.26286981 17.5694953,4.82150115 C17.0705829,11.8773297 11.8500729,17.092689 4.800952,17.5837742 C4.25069394,17.6220577 3.57923366,17.5685928 3.58774633,18.3496646 C3.59620197,19.1283161 4.26788261,19.0568095 4.8172592,19.0953131 C10.6779373,19.5067509 15.511702,23.3309224 17.0578015,28.8565103 C17.3605867,29.9387897 17.3658755,31.1013766 17.610704,32.2041179 C17.6840865,32.5352484 18.1036665,32.7895917 18.3648022,33.0793584 C18.5979512,32.8023529 18.8500518,32.5385487 19.0534511,32.2413014 C19.1228669,32.1400921 19.0613844,31.954615 19.0750472,31.8089616 C19.5867409,26.2912945 22.3378108,22.3161891 27.4353556,20.1241276 C28.8481328,19.5164318 30.4828201,19.4301839 32.0086458,19.0744112 C32.4108168,18.9806825 32.786764,18.7745236 33.1746111,18.6200694 M36.6246873,18.3162215 C36.6260095,28.4265907 28.5433643,36.5046332 18.577457,36.6516067 C8.43283149,36.8010004 -0.0590364976,28.4523331 -6.60866779e-05,18.3729867 C0.0604027771,8.13148538 8.12167235,0.0527828514 18.4088757,0.066626315 C28.5424828,0.0800653589 36.6233651,8.17592946 36.6246873,18.3162215" id="Fill-1" fill="#533092" mask="url(#mask-2)"></path>
                    </g>
                    <path d="M45.7030859,26.7624678 C46.4928836,25.6300237 47.2220802,24.5847076 47.7965787,23.7602919 C49.7649027,24.6566542 51.560238,25.6390445 53.4677406,26.296465 C55.4047723,26.9637863 57.4519879,26.8982203 59.4130398,26.1943756 C60.4485475,25.8227614 61.3275941,25.208905 61.5400285,24.0251962 C61.7910273,22.6254275 61.1105319,21.5757111 59.5038313,21.0934267 C57.7876079,20.5785794 56.0191574,20.2390882 54.2919156,19.7568039 C52.9558265,19.3836496 51.6109226,18.9972941 50.3349938,18.4622049 C46.1211233,16.6961026 46.3478817,11.2688637 49.3889554,8.94853048 C51.386368,7.42445039 53.6883286,6.92632461 56.1139155,6.94700651 C59.4831167,6.97582916 62.4948816,8.08363098 65.2093705,10.2332286 C64.3832121,11.2585228 63.5879052,12.2448734 62.7553562,13.2776484 C60.9452562,11.8571978 59.0324648,10.8015408 56.8188716,10.6759092 C55.4625087,10.5991222 54.0512741,10.803521 52.7235589,11.1243105 C51.7133936,11.3685329 51.0930586,12.1936087 51.1045177,13.3484949 C51.1157565,14.4679578 51.8416476,15.0083274 52.7603604,15.2804925 C54.8304942,15.8943489 56.9310388,16.4043558 59.0046985,17.0069911 C60.0915518,17.3227202 61.1940513,17.64769 62.2095055,18.1345948 C66.6618138,20.2701111 66.2589817,25.6826085 63.2941551,28.1122919 C61.1676072,29.8552921 58.6646712,30.398522 55.9898485,30.344837 C52.5807607,30.2761907 49.3816833,29.5006195 46.5753011,27.4627922 C46.3121821,27.2715946 46.0671332,27.0559748 45.7030859,26.7624678" id="Fill-4" fill="#533092"></path>
                    <path d="M77.9676887,19.8374193 L77.9676887,19.8431398 C79.2160715,19.8431398 80.4657766,19.877243 81.7119557,19.823118 C82.092751,19.8063964 82.7258673,19.6107985 82.778976,19.3872579 C82.8673434,19.0138836 82.6961177,18.4587726 82.4360839,18.1421635 C80.2592921,15.4889396 75.5363723,15.5657267 73.4085021,18.2743956 C73.1806419,18.5643823 72.892401,19.1364349 73.0116199,19.2972696 C73.2278006,19.5887964 73.7236278,19.7956154 74.1134582,19.8145372 C75.3955573,19.8761429 76.6825045,19.8374193 77.9676887,19.8374193 M87.6920907,22.8459758 L84.7653701,22.8459758 C81.3525361,22.8461958 77.939702,22.8457558 74.526868,22.847516 C74.233779,22.847516 73.9305531,22.815833 73.6493639,22.8776587 C72.8348851,23.0569752 72.6409615,23.5212179 73.1065984,24.207901 C74.6225076,26.4426464 76.8704781,26.9704749 79.375177,26.7882982 C81.5175914,26.6323038 83.3993109,25.7561833 85.222633,24.3858974 C85.8738195,25.2624579 86.4917304,26.0941344 87.1043525,26.9183301 C82.3404443,31.3396365 75.1507289,31.3768199 71.3092797,27.7484664 C68.641068,25.2281348 67.9535209,22.1119884 69.0848885,18.7003548 C70.2296985,15.2477975 72.8481071,13.3591439 76.381923,12.8330755 C79.9274184,12.305247 83.1130533,13.0915993 85.4650374,16.0117077 C87.032733,17.9575665 87.6960397,20.2325756 87.6920907,22.8459758" id="Fill-6" fill="#533092"></path>
                    <path d="M94.9142487,19.3459161 C95.3426434,19.5316132 95.6943502,19.813019 96.0495829,19.8176395 C98.7986695,19.8548229 101.549078,19.856363 104.298165,19.8262203 C104.997612,19.8187396 105.33786,19.1745204 104.94869,18.6121487 C103.717055,16.8321851 101.956759,16.0874166 99.8299902,16.2196488 C97.6860332,16.352761 95.9803874,17.2271214 94.9142487,19.3459161 M109.798762,22.8459978 C105.91346,22.8459978 102.102642,22.8459978 98.2916035,22.8462178 C97.5575588,22.8462178 96.8210901,22.8110146 96.0896898,22.8569988 C94.9999717,22.9258652 94.7209862,23.4840565 95.3514581,24.3555566 C96.9024057,26.4992136 99.1397987,26.9674166 101.595135,26.7810595 C103.734464,26.6186846 105.59591,25.6954797 107.391686,24.4136419 C108.03538,25.2761212 108.642934,26.0895359 109.304918,26.9759974 C107.201068,28.7795032 104.830794,29.952871 102.120051,30.2672799 C99.0252075,30.6261329 96.0927749,30.0648613 93.6726972,27.9544273 C89.0427726,23.9177163 90.0520565,16.4841131 95.5621296,13.7545422 C102.480793,10.3270672 110.120719,15.1197677 109.798762,22.8459978" id="Fill-8" fill="#533092"></path>
                    <path d="M124.686736,19.2383042 C123.52033,20.2301554 123.513057,20.345886 124.519917,21.5027524 C126.590712,23.882051 128.665253,26.2582694 130.734726,28.6384482 C131.017017,28.9631981 131.279916,29.3042294 131.705887,29.8269975 C130.064147,29.8269975 128.642776,29.8696814 127.227354,29.7948745 C126.902533,29.7777129 126.55325,29.3986181 126.293657,29.114792 C124.391884,27.0347208 122.510385,24.936608 120.539637,22.7522472 C119.341498,23.7504789 118.179719,24.6849048 117.069066,25.676536 C116.870956,25.8534322 116.821373,26.2650901 116.812117,26.5715782 C116.781486,27.5946723 116.800438,28.6190864 116.800438,29.7378893 L112.979263,29.7378893 L112.979263,5.85161383 L116.801319,5.85161383 L116.801319,20.7953873 C117.494817,20.4561162 118.013782,20.3172834 118.383119,20.0028745 C120.757139,17.9808887 123.078933,15.8975172 125.46838,13.894013 C125.897876,13.5340599 126.552148,13.3041388 127.118272,13.2700357 C128.564766,13.1833477 130.020074,13.241213 131.750842,13.241213 C129.251872,15.362428 126.967541,17.2981659 124.686736,19.2383042 Z" id="Fill-10" fill="#533092"></path>
                    <g id="Group-14" transform="translate(170.564573, 13.134547)">
                        <mask id="mask-4" fill="white">
                            <use xlink:href="#path-3"></use>
                        </mask>
                        <g id="Clip-13"></g>
                        <path d="M2.94658013,18.9299019 C3.27228354,19.3679621 3.491329,19.7061332 3.75312578,20.0073409 C4.75205241,21.1562865 6.23049908,21.3884078 7.50554639,20.5441903 C7.95377422,20.247383 8.31958455,19.8150432 8.68825965,19.4128463 C9.64311275,18.3712705 9.78943688,17.3926206 9.03974608,16.0100135 C6.45725741,11.2461357 4.05635169,6.38412878 1.59021715,1.55754516 C1.37690125,1.14016679 1.19223314,0.708487118 0.916773562,0.11707276 C2.34850228,0.11707276 3.65153629,0.0710885339 4.94641669,0.153816138 C5.22143554,0.171417755 5.55132593,0.614758504 5.7124147,0.934227867 C7.40946609,4.30229743 9.06090137,7.69302908 10.7758025,11.0516378 C10.9686243,11.4291925 11.4580608,11.8432705 11.8410598,11.8758335 C12.1367932,11.9013559 12.6015487,11.4166513 12.785776,11.054278 C14.495168,7.692149 16.177014,4.31549865 17.8220586,0.921466694 C18.1215383,0.303429889 18.4677359,0.0552470779 19.1555034,0.091990455 C20.2154719,0.148975693 21.2807292,0.10717185 22.4394223,0.10717185 C22.3713287,0.372956279 22.3570048,0.58109541 22.2692985,0.751831102 C19.172031,6.77686487 16.1089204,12.8197203 12.935626,18.8047104 C12.1561856,20.2751055 11.1720236,21.7087573 10.008262,22.8902659 C7.33894844,25.6000349 2.62792848,25.0651658 0.440999772,21.9842226 C0.0167920161,21.3864277 -0.0283833553,20.9961118 0.641093612,20.5708127 C1.41017676,20.0823678 2.12989756,19.5164758 2.94658013,18.9299019" id="Fill-12" fill="#533092" mask="url(#mask-4)"></path>
                    </g>
                    <path d="M160.29555,13.2480997 L168.330155,13.2480997 L168.330155,16.4650153 C166.954179,16.4650153 165.576441,16.4645753 164.198702,16.4652353 C163.427636,16.4654554 162.656349,16.4579747 161.885503,16.4705158 C160.807684,16.4883375 160.147022,17.157419 160.144819,18.2495994 C160.138208,21.6959961 160.114849,25.1426129 160.159583,28.5881296 C160.171483,29.5082542 159.978441,29.8853688 158.950426,29.8598465 C156.154842,29.7914202 156.154621,29.8396046 156.153299,27.003764 C156.151977,24.1076378 156.155503,21.2112916 156.142721,18.3149454 C156.136992,17.0042849 155.593345,16.4779965 154.274885,16.4674356 C153.323558,16.4597348 152.372231,16.4658954 151.336723,16.4658954 L151.336723,13.240839 C152.638214,13.240839 153.946096,13.2232374 155.253097,13.2485397 C155.879823,13.2606408 156.21412,13.1583314 156.336204,12.3961814 C156.960947,8.49258257 159.389398,6.0503581 163.185672,5.37863636 C167.109759,4.68425254 170.804664,6.32824364 172.752714,9.70423393 C171.899891,10.4573632 171.03032,11.2254538 170.074806,12.0690113 C168.378416,9.29125598 166.023126,8.15001108 162.885531,9.11501978 C161.295138,9.60412473 160.407056,11.0481175 160.29555,13.2480997" id="Fill-15" fill="#533092"></path>
                    <path d="M134.751852,13.2923457 L145.64705,13.2923457 C145.669087,13.7616489 145.705668,14.1869479 145.706329,14.612247 C145.711177,17.9453334 145.704125,21.2784197 145.711838,24.6115061 C145.714923,25.9355878 146.402911,26.6101698 147.73856,26.6196307 C148.949039,26.6282114 150.16018,26.6418527 151.370219,26.6152303 C151.970941,26.602029 152.225906,26.797627 152.214007,27.4332654 C152.159135,30.3513937 152.559763,29.8070636 149.979479,29.8244452 C145.320686,29.8556881 140.661452,29.833026 136.002439,29.8290656 C135.606659,29.8286256 135.210878,29.7965026 134.742597,29.7760408 L134.742597,26.6220509 C136.495842,26.6220509 138.206336,26.622931 139.916609,26.6220509 C141.764613,26.6207308 142.267051,26.1254652 142.267492,24.3041378 C142.268373,22.3628994 142.268814,20.421661 142.266831,18.4804226 C142.265068,17.0311494 141.696739,16.4736181 140.207274,16.4698778 C138.417448,16.4650373 136.627622,16.4687777 134.751852,16.4687777 L134.751852,13.2923457 Z" id="Fill-17" fill="#533092"></path>
                </g>
            </g>
        </g>
    </g>
</svg>