<?xml version="1.0" encoding="UTF-8"?>
<svg width="880px" height="822px" viewBox="0 0 880 822" version="1.1" xmlns="http://www.w3.org/2000/svg" xmlns:xlink="http://www.w3.org/1999/xlink">
    <!-- Generator: sketchtool 61.2 (101010) - https://sketch.com -->
    <title>080DBC32-161A-4711-840A-24A44EDFF99F</title>
    <desc>Created with sketchtool.</desc>
    <defs>
        <path d="M0.8154,16.4729 C0.8154,16.4729 24.8154,11.2729 45.8154,6.7729 C61.9155,3.3729 76.2153,0.3729 76.4155,0.4729 C76.9155,0.7729 92.1155,66.7729 92.1155,66.7729 L9.7156,78.3729 L0.8154,16.4729 Z" id="path-1"></path>
        <path d="M0.4156,142.173 C11.2156,121.073 29.6156,95.4729 50.6156,68.573 C68.3156,45.8729 84.1155,25.3729 99.2156,11.8729 C114.6155,-0.8271 127.5156,-0.8271 141.3157,3.2729 C167.7156,11.1729 169.6157,43.973 169.6157,43.973 L177.4157,103.873 L275.6157,89.473 L281.8157,157.073 C281.9158,158.073 281.2156,159.073 280.2156,159.273 L175.1155,178.073 C175.1155,178.073 146.4155,185.273 136.8155,159.673 L132.8155,169.273 C112.1155,168.5729 86.9156,168.0729 58.9157,161.473 C37.2155,156.2729 15.9156,150.4729 0.4156,142.173 Z" id="path-3"></path>
        <path d="M0.4156,142.173 C11.2156,121.073 29.6156,95.4729 50.6156,68.573 C68.3156,45.8729 84.1155,25.3729 99.2156,11.8729 C114.6155,-0.8271 127.5156,-0.8271 141.3157,3.2729 C167.7156,11.1729 169.6157,43.973 169.6157,43.973 L177.4157,103.873 L275.6157,89.473 L281.8157,157.073 C281.9158,158.073 281.2156,159.073 280.2156,159.273 L175.1155,178.073 C175.1155,178.073 146.4155,185.273 136.8155,159.673 L132.8155,169.273 C112.1155,168.5729 86.9156,168.0729 58.9157,161.473 C37.2155,156.2729 15.9156,150.4729 0.4156,142.173 Z" id="path-5"></path>
    </defs>
    <g id="Color-Change" stroke="none" stroke-width="1" fill="none" fill-rule="evenodd">
        <g id="Illustration" transform="translate(-1703.000000, -1330.000000)">
            <g id="Color-corrected" transform="translate(230.000000, 331.000000)">
                <g id="Group-3" transform="translate(1473.000000, 999.000000)">
                    <circle id="Oval" fill="#E24D8A" fill-rule="nonzero" opacity="0.2" cx="214.2155" cy="214.073" r="213.6001"></circle>
                    <path d="M485.2153,71.573 L485.2153,151.673 L418.5153,151.673 C409.3153,121.573 393.7153,94.373 373.3153,71.573 L485.2153,71.573 Z" id="Path" fill="#FFFFFF" fill-rule="nonzero"></path>
                    <path d="M355.9155,721.2729 C410.9155,781.9729 490.3154,820.0729 578.6155,820.0729 C744.5154,820.0729 878.9155,685.5729 878.9155,519.7729 C878.9155,353.9729 744.4155,219.4729 578.6155,219.4729 C412.8155,219.4729 278.3156,353.8729 278.3156,519.673 C278.3156,544.273 281.2155,568.073 286.8156,590.9729" id="Path" stroke="#FFCA1E"></path>
                    <g id="Group" transform="translate(214.000000, 213.000000)" fill="#FFFFFF" fill-rule="nonzero">
                        <rect id="Rectangle" x="0.5155" y="0.673" width="552.3" height="351.2"></rect>
                    </g>
                    <line x1="216.0155" y1="246.073" x2="768.4155" y2="246.073" id="Path" stroke="#FDFBFF" stroke-width="3"></line>
                    <path d="M699.1155,235.9729 L699.1155,235.9729 C695.1155,235.9729 691.9155,232.7729 691.9155,228.7729 L691.9155,228.7729 C691.9155,224.7729 695.1155,221.5728 699.1155,221.5728 L699.1155,221.5728 C703.1155,221.5728 706.3155,224.7729 706.3155,228.7729 L706.3155,228.7729 C706.4155,232.7729 703.1155,235.9729 699.1155,235.9729 Z" id="Path" fill="#FFA300" fill-rule="nonzero"></path>
                    <path d="M729.1155,235.9729 L729.1155,235.9729 C725.1155,235.9729 721.9155,232.7729 721.9155,228.7729 L721.9155,228.7729 C721.9155,224.7729 725.1155,221.5728 729.1155,221.5728 L729.1155,221.5728 C733.1155,221.5728 736.3155,224.7729 736.3155,228.7729 L736.3155,228.7729 C736.4155,232.7729 733.1155,235.9729 729.1155,235.9729 Z" id="Path" fill="#34CC67" fill-rule="nonzero"></path>
                    <path d="M670.1155,236.9729 L670.1155,236.9729 C665.6155,236.9729 661.9155,233.2729 661.9155,228.7729 L661.9155,228.7729 C661.9155,224.2729 665.6155,220.5728 670.1155,220.5728 L670.1155,220.5728 C674.6155,220.5728 678.3155,224.2729 678.3155,228.7729 L678.3155,228.7729 C678.4155,233.2729 674.7153,236.9729 670.1155,236.9729 Z" id="Path" fill="#F4624D" fill-rule="nonzero"></path>
                    <polygon id="Path" fill="#2482EA" fill-rule="nonzero" points="196.8156 639.4729 133.9156 656.373 287.1156 657.6729 334.2153 639.7729"></polygon>
                    <line x1="135.9156" y1="656.373" x2="63.9156" y2="820.073" id="Path" stroke="#2482EA"></line>
                    <line x1="197.1156" y1="639.6729" x2="125.1156" y2="820.073" id="Path" stroke="#2482EA"></line>
                    <line x1="286.0155" y1="656.373" x2="214.0155" y2="820.073" id="Path" stroke="#2482EA"></line>
                    <line x1="333.7153" y1="638.4729" x2="261.7155" y2="820.073" id="Path" stroke="#2482EA"></line>
                    <polygon id="Path" fill="#AFE2F9" fill-rule="nonzero" points="702.9155 516.0729 739.3154 606.373 798.2153 529.4729"></polygon>
                    <rect id="Rectangle" fill="#AFE2F9" fill-rule="nonzero" transform="translate(793.530962, 582.874857) rotate(-52.905491) translate(-793.530962, -582.874857) " x="780.182361" y="552.378052" width="26.6972032" height="60.9936089"></rect>
                    <line x1="5.2155" y1="820.9729" x2="855.9155" y2="820.9729" id="Path" stroke="#2482EA"></line>
                    <line x1="798.6155" y1="181.673" x2="823.6155" y2="167.7729" id="Path" stroke="#2482EA"></line>
                    <line x1="782.7153" y1="179.2729" x2="805.6155" y2="147.673" id="Path" stroke="#2482EA"></line>
                    <line x1="775.4155" y1="163.8729" x2="780.0154" y2="138.8729" id="Path" stroke="#2482EA"></line>
                    <circle id="Oval" fill="#2482EA" fill-rule="nonzero" cx="781.1155" cy="180.4729" r="10"></circle>
                    <circle id="Oval" stroke="#FFCA1E" cx="502.6155" cy="214.573" r="10"></circle>
                    <circle id="Oval" fill="#DFD5EF" fill-rule="nonzero" opacity="0.2" cx="353.8154" cy="351.673" r="88.7"></circle>
                    <circle id="Oval" fill="#FFCA1E" fill-rule="nonzero" cx="49.0155" cy="566.673" r="10"></circle>
                    <path d="M400.3154,323.8729 C400.3154,323.8729 406.2153,328.8729 406.4155,339.3729 C406.6157,349.8729 406.4155,339.3729 406.4155,339.3729 C406.4155,339.3729 401.9155,328.8729 398.2155,326.2729 C394.5155,323.6729 398.2155,326.2729 398.2155,326.2729 L400.3154,323.8729" id="Path" fill="#2C105A" fill-rule="nonzero"></path>
                    <polygon id="Path" fill="#AFE2F9" fill-rule="nonzero" points="505.5154 459.7729 576.3154 512.3729 635.9155 493.9729 567.9155 444.7729"></polygon>
                    <path d="M517.7153,481.673 C517.7153,481.673 524.3154,478.273 521.6152,469.673 C521.6152,469.673 528.3152,470.873 528.3152,462.573 C528.2151,447.473 508.3152,436.173 490.3152,435.973 C472.3152,435.873 440.9153,441.673 440.9153,441.673 L457.0154,506.973 C457.0154,506.973 474.4153,508.573 482.3154,489.673 C482.3154,489.673 496.4155,486.3731 500.6154,486.473 L517.7153,481.673 Z" id="Path" stroke="#501DA0" fill="#FFFFFF" fill-rule="nonzero"></path>
                    <path d="M366.5154,456.7729 C366.5154,456.7729 390.5154,451.5728 411.5154,447.0728 C427.6155,443.6728 441.9153,440.6728 442.1155,440.7729 C442.6155,441.0728 457.8155,507.0728 457.8155,507.0728 L375.4156,518.6728 L366.5154,456.7729 Z" id="Path" fill="#165D0A" fill-rule="nonzero"></path>
                    <g id="Clipped" transform="translate(366.000000, 441.000000)">
                        <mask id="mask-2" fill="white">
                            <use xlink:href="#path-1"></use>
                        </mask>
                        <g id="SVGID_7_"></g>
                        <g id="Group" mask="url(#mask-2)" opacity="0.6" stroke="#2C105A">
                            <g transform="translate(-54.000000, -37.000000)" id="Path">
                                <line x1="0.9155" y1="74.9729" x2="159.5154" y2="0.5729"></line>
                                <line x1="0.9155" y1="84.9729" x2="159.5154" y2="10.5729"></line>
                                <line x1="0.9155" y1="94.9729" x2="159.5154" y2="20.5729"></line>
                                <line x1="0.9155" y1="104.9729" x2="159.5154" y2="30.5729"></line>
                                <line x1="0.9155" y1="114.9729" x2="159.5154" y2="40.5729"></line>
                                <line x1="0.9155" y1="124.9729" x2="159.5154" y2="50.5729"></line>
                                <line x1="0.9155" y1="134.9729" x2="159.5154" y2="60.5729"></line>
                                <line x1="0.9155" y1="144.9729" x2="159.5154" y2="70.5729"></line>
                                <line x1="0.9155" y1="154.9729" x2="159.5154" y2="80.5729"></line>
                                <line x1="30.9155" y1="149.9729" x2="189.5154" y2="75.5729"></line>
                                <line x1="30.9155" y1="159.9729" x2="189.5154" y2="85.5729"></line>
                            </g>
                        </g>
                    </g>
                    <path d="M474.1155,466.2729 L501.4155,463.8729 C501.4155,463.8729 514.1155,462.2729 515.8154,470.0729 C517.3154,476.9729 515.1154,482.273 500.1154,485.9729" id="Path" stroke="#501DA0"></path>
                    <path d="M521.6155,469.5729 C521.6155,469.5729 517.1155,449.773 495.2156,449.9729 C473.3157,450.173 475.0156,450.173 475.0156,450.173" id="Path" stroke="#501DA0"></path>
                    <polygon id="Path" fill="#AFE2F9" fill-rule="nonzero" points="643.2153 402.9729 569.1155 376.7729 567.8154 444.673 636.0154 493.9729"></polygon>
                    <polygon id="Path" fill="#FFFFFF" fill-rule="nonzero" points="631.8154 413.673 578.4155 392.4729 577.8154 431.9729 628.8154 462.8729"></polygon>
                    <ellipse id="Oval" fill="#F0E3FF" fill-rule="nonzero" transform="translate(595.713908, 415.175640) rotate(-17.933051) translate(-595.713908, -415.175640) " cx="595.713908" cy="415.17564" rx="6.39968599" ry="9.79962542"></ellipse>
                    <line x1="607.3154" y1="417.8729" x2="622.2153" y2="425.3729" id="Path" stroke="#F0E3FF" stroke-width="2" stroke-linecap="round" stroke-linejoin="round"></line>
                    <line x1="606.3154" y1="422.8729" x2="614.1155" y2="426.673" id="Path" stroke="#F0E3FF" stroke-width="2" stroke-linecap="round" stroke-linejoin="round"></line>
                    <path d="M430.7153,566.2729 C430.7153,566.2729 499.8154,552.2729 504.7153,609.8728 C509.6152,667.4729 476.0153,748.573 476.0153,748.573 L393.7153,739.9729 L327.9153,572.0729 L356.7153,544.0729 L430.7153,566.2729 Z" id="Path" fill="#2482EA" fill-rule="nonzero"></path>
                    <circle id="Oval" fill="#FE9B71" fill-rule="nonzero" cx="373.6155" cy="350.2729" r="34.6001"></circle>
                    <path d="M403.9155,342.3729 L412.4155,349.1729 C414.1155,350.4728 414.0156,353.1729 412.1155,354.2729 L406.7156,357.7729" id="Path" fill="#F4624D" fill-rule="nonzero"></path>
                    <path d="M400.3154,323.8729 C400.3154,323.8729 372.5154,360.1729 344.9155,372.573 C344.9155,372.573 325.9155,340.8729 352.3154,317.8729 C365.0154,306.8729 391.1155,313.073 400.3154,323.8729 Z" id="Path" fill="#2C105A" fill-rule="nonzero"></path>
                    <circle id="Oval" fill="#2C105A" fill-rule="nonzero" cx="390.9155" cy="350.9729" r="3"></circle>
                    <path d="M392.3154,367.573 C392.6154,368.073 394.1154,369.9729 396.9155,370.673 C399.4155,371.173 401.3154,370.373 401.9155,370.073" id="Path" stroke="#F4624D" stroke-width="2"></path>
                    <path d="M476.1155,748.373 C476.1155,748.373 543.5154,747.573 539.6155,773.073 C535.7153,797.9729 476.1155,748.373 476.1155,748.373 Z" id="Path" stroke="#2482EA"></path>
                    <path d="M475.2153,746.4729 C475.2153,746.4729 518.5153,719.373 525.9153,727.9729 C538.1155,742.1729 475.2153,746.4729 475.2153,746.4729 Z" id="Path" stroke="#2482EA"></path>
                    <path d="M476.1155,748.573 C476.1155,748.573 472.0154,768.1729 499.8155,784.4729 C527.6156,800.7729 556.7154,778.373 560.1155,820.9729 L382.6155,820.9729 L393.8155,739.9729 L476.1155,748.573 Z" id="Path" fill="#2482EA" fill-rule="nonzero"></path>
                    <path d="M616.9155,326.673 L492.9155,326.673 C485.4155,326.673 479.4155,320.673 479.4155,313.173 L479.4155,313.173 C479.4155,305.673 485.4155,299.673 492.9155,299.673 L616.9155,299.673 C624.4155,299.673 630.4155,305.673 630.4155,313.173 L630.4155,313.173 C630.4155,320.673 624.3154,326.673 616.9155,326.673 Z" id="Path" fill="#DFD5EF" fill-rule="nonzero" opacity="0.2"></path>
                    <path d="M511.1155,372.573 L483.8155,372.573 C482.4156,372.573 481.3155,371.4729 481.3155,370.073 L481.3155,370.073 C481.3155,368.673 482.4156,367.573 483.8155,367.573 L511.1155,367.573 C512.5154,367.573 513.6155,368.673 513.6155,370.073 L513.6155,370.073 C513.6155,371.4729 512.5154,372.573 511.1155,372.573 Z" id="Path" fill="#DFD5EF" fill-rule="nonzero"></path>
                    <g id="Group" transform="translate(479.000000, 337.000000)" fill="#2482EA">
                        <g id="Group-3_9_" transform="translate(24.000000, 0.153354)">
                            <path d="M19.5154,9.7729 C19.5154,9.6729 19.5154,9.5728 19.5154,9.4729 C19.2154,9.3729 19.0154,9.173 18.7154,9.173 C14.1153,8.773 10.8155,5.573 10.5154,0.9729 C10.5154,0.673 10.2154,0.2729 10.1155,0.2729 C9.6155,0.1729 9.6155,0.6729 9.6155,0.9729 C9.3155,5.4729 6.0154,8.7729 1.5154,9.073 C1.1155,9.073 0.7154,9.073 0.7154,9.573 C0.7154,10.073 1.1153,9.9729 1.5154,10.073 C5.2154,10.3729 8.3154,12.773 9.3154,16.273 C9.5154,16.9731 9.5154,17.673 9.7153,18.373 C9.7153,18.5731 10.0153,18.773 10.2153,18.9731 C10.3154,18.773 10.5153,18.6731 10.6152,18.4731 C10.6152,18.373 10.6152,18.273 10.6152,18.1731 C10.9152,14.6731 12.7153,12.1731 15.9152,10.7731 C16.8151,10.3732 17.8151,10.3732 18.8151,10.0731 C19.0154,9.9729 19.3154,9.8729 19.5154,9.7729" id="Fill-1_9_"></path>
                        </g>
                        <g id="Group-3_8_" transform="translate(0.000000, 0.153354)">
                            <path d="M19.6155,9.7729 C19.6155,9.6729 19.6155,9.5728 19.6155,9.4729 C19.3155,9.3729 19.1155,9.173 18.8155,9.173 C14.2154,8.773 10.9156,5.573 10.6155,0.9729 C10.6155,0.673 10.3155,0.2729 10.2156,0.2729 C9.7156,0.1729 9.7156,0.6729 9.7156,0.9729 C9.4156,5.4729 6.1155,8.7729 1.6155,9.073 C1.2156,9.073 0.8155,9.073 0.8155,9.573 C0.8155,10.073 1.2154,9.9729 1.6155,10.073 C5.3155,10.3729 8.4155,12.773 9.4155,16.273 C9.6155,16.9731 9.6155,17.673 9.8154,18.373 C9.8154,18.5731 10.1154,18.773 10.3154,18.9731 C10.4155,18.773 10.6154,18.6731 10.7153,18.4731 C10.7153,18.373 10.7153,18.273 10.7153,18.1731 C11.0153,14.6731 12.8154,12.1731 16.0153,10.7731 C16.9152,10.3732 17.9152,10.3732 18.9152,10.0731 C19.1155,9.9729 19.3154,9.8729 19.6155,9.7729" id="Fill-1_8_"></path>
                        </g>
                        <g id="Group-3_7_" transform="translate(49.000000, 0.153354)">
                            <path d="M19.1155,9.7729 C19.1155,9.6729 19.1155,9.5728 19.1155,9.4729 C18.8155,9.3729 18.6155,9.173 18.3155,9.173 C13.7154,8.773 10.4156,5.573 10.1155,0.9729 C10.1155,0.673 9.8155,0.2729 9.7156,0.2729 C9.2156,0.1729 9.2156,0.6729 9.2156,0.9729 C8.9156,5.4729 5.6155,8.7729 1.1155,9.073 C0.7156,9.073 0.3155,9.073 0.3155,9.573 C0.3155,10.073 0.7154,9.9729 1.1155,10.073 C4.8155,10.3729 7.9155,12.773 8.9155,16.273 C9.1155,16.9731 9.1155,17.673 9.3154,18.373 C9.3154,18.5731 9.6154,18.773 9.8154,18.9731 C9.9155,18.773 10.1154,18.6731 10.2153,18.4731 C10.2153,18.373 10.2153,18.273 10.2153,18.1731 C10.5153,14.6731 12.3154,12.1731 15.5153,10.7731 C16.4152,10.3732 17.4152,10.3732 18.4152,10.0731 C18.7153,9.9729 18.9155,9.8729 19.1155,9.7729" id="Fill-1_7_"></path>
                        </g>
                        <g id="Group-3_6_" transform="translate(74.000000, 0.153354)">
                            <path d="M19.4155,9.7729 C19.4155,9.6729 19.4155,9.5728 19.4155,9.4729 C19.1155,9.3729 18.9155,9.173 18.6155,9.173 C14.0154,8.773 10.7156,5.573 10.4155,0.9729 C10.4155,0.673 10.1155,0.2729 10.0156,0.2729 C9.5156,0.1729 9.5156,0.6729 9.5156,0.9729 C9.2156,5.4729 5.9155,8.7729 1.4155,9.073 C1.0156,9.073 0.6155,9.073 0.6155,9.573 C0.6155,10.073 1.0154,9.9729 1.4155,10.073 C5.1155,10.3729 8.2155,12.773 9.2155,16.273 C9.4155,16.9731 9.4155,17.673 9.6154,18.373 C9.6154,18.5731 9.9154,18.773 10.1154,18.9731 C10.2155,18.773 10.4154,18.6731 10.5153,18.4731 C10.5153,18.373 10.5153,18.273 10.5153,18.1731 C10.8153,14.6731 12.6154,12.1731 15.8153,10.7731 C16.7152,10.3732 17.7152,10.3732 18.7152,10.0731 C18.9155,9.9729 19.2153,9.8729 19.4155,9.7729" id="Fill-1_6_"></path>
                        </g>
                        <g id="Group-3_5_" transform="translate(97.000000, 0.153354)">
                            <path d="M10.3154,0.2729 C9.8154,0.1729 9.8154,0.6729 9.8154,0.9729 C9.5154,5.4729 6.2153,8.7729 1.7153,9.073 C1.4153,9.073 0.9153,9.073 0.9153,9.573 C0.9153,10.073 1.3152,10.073 1.7153,10.073 C5.4153,10.3729 8.5153,12.773 9.5153,16.273 C9.7153,16.9731 9.7153,17.673 9.9152,18.373 C9.9152,18.5731 10.2152,18.773 10.4152,18.9731 L10.5153,18.873 L10.5153,0.373 C10.4155,0.2729 10.4155,0.2729 10.3154,0.2729 Z" id="Fill-1_5_"></path>
                        </g>
                    </g>
                    <path d="M319.0154,733.373 L288.6156,821.073 L319.5154,821.073 L341.7154,789.373 L347.2154,821.073 L486.6153,821.073 C486.6153,821.073 483.4153,792.573 460.5152,790.9729 L443.1153,790.1731 C443.1153,790.1731 436.3153,790.9729 430.4153,778.273 C422.3152,760.573 410.2153,744.1731 410.2153,744.1731 L319.0154,733.373 Z" id="Path" fill="#AFE2F9" fill-rule="nonzero"></path>
                    <path d="M216.5155,539.173 C216.5155,539.173 190.2155,577.273 189.4154,608.9729 C188.7154,637.7729 202.6154,651.373 223.5155,651.873 C244.5155,652.373 331.7153,651.873 331.7153,651.873 C331.7153,651.873 341.4153,651.873 338.0153,663.573 C334.6153,675.273 318.9152,733.373 318.9152,733.373 L410.1152,744.2729 L435.4152,632.873 C435.4152,632.873 447.7152,580.073 405.7152,574.2729 C363.7152,568.473 346.5152,566.2729 346.5152,566.2729 C346.5152,566.2729 254.4156,556.3729 216.5155,539.173 Z" id="Path" stroke="#AFE2F9" stroke-width="2" fill="#FFFFFF" fill-rule="nonzero"></path>
                    <path d="M409.3154,744.1729 C409.3154,744.1729 476.7153,744.3731 472.4155,769.773 C468.2153,794.6729 409.3154,744.1729 409.3154,744.1729 Z" id="Path" stroke="#FFFFFF"></path>
                    <path d="M410.2153,744.1729 C410.2153,744.1729 434.4153,699.1729 445.0153,702.9729 C462.6155,709.373 410.2153,744.1729 410.2153,744.1729 Z" id="Path" stroke="#FFFFFF"></path>
                    <path d="M489.5154,487.2729 L520.7154,464.7729 C520.7154,464.7729 533.2154,455.8729 553.6153,462.0728 C570.8153,467.2729 582.0152,473.7729 585.3153,502.9728 C585.3153,502.9728 585.8153,510.2728 577.5153,509.8728 C577.5153,509.8728 591.6154,510.1728 592.6154,519.8728 C593.6154,529.5729 580.5153,529.0729 580.5153,529.0729 C580.5153,529.0729 543.2153,530.9729 538.4152,532.9729 C538.4152,532.9729 536.0153,543.5729 527.3151,545.5729 C518.6151,547.4729 495.715,550.8728 495.715,550.8728 L489.5154,487.2729 Z" id="Path" fill="#FE9B71" fill-rule="nonzero"></path>
                    <path d="M531.7153,481.7729 C531.7153,481.7729 575.5153,473.8729 578.8154,510.5728" id="Path" stroke="#501DA0"></path>
                    <path d="M531.6155,506.0729 C531.6155,506.0729 561.6155,506.6729 579.4155,510.0729" id="Path" stroke="#501DA0"></path>
                    <path d="M214.3156,540.0729 C225.1156,518.9729 243.5156,493.3729 264.5156,466.4729 C282.2156,443.7729 298.0155,423.2729 313.1156,409.7729 C328.5155,397.0728 341.4156,397.0728 355.2157,401.1729 C381.6156,409.0729 383.5157,441.8729 383.5157,441.8729 L391.3157,501.7729 L489.5157,487.3729 L495.7157,554.9729 C495.8158,555.9729 495.1156,556.9729 494.1156,557.173 L389.0155,575.9729 C389.0155,575.9729 360.3155,583.1729 350.7155,557.5729 L346.7155,567.1729 C326.0155,566.4729 300.8156,565.9729 272.8157,559.373 C251.1156,554.173 229.8156,548.3729 214.3156,540.0729 Z" id="Path" fill="#AAD87C" fill-rule="nonzero"></path>
                    <circle id="Oval" fill="#2C105A" fill-rule="nonzero" cx="329.4155" cy="324.7729" r="24.3999"></circle>
                    <circle id="Oval" fill="#2C105A" fill-rule="nonzero" cx="296.1155" cy="307.4729" r="9.5"></circle>
                    <path d="M361.5154,356.9729 C357.1155,357.2729 353.4153,360.2729 352.3154,364.173 C351.0154,368.9729 354.0154,374.4729 359.5154,376.173" id="Path" fill="#FE9B71" fill-rule="nonzero"></path>
                    <path d="M358.2153,376.7729 C358.2153,376.7729 351.1152,375.2729 351.9153,366.4729" id="Path" stroke="#F4624D"></path>
                    <g id="Group" opacity="0.6" transform="translate(214.000000, 397.000000)">
                        <g id="Clipped">
                            <g>
                                <mask id="mask-4" fill="white">
                                    <use xlink:href="#path-3"></use>
                                </mask>
                                <g id="SVGID_9_"></g>
                                <g id="Group" mask="url(#mask-4)" opacity="0.6" stroke="#501DA0">
                                    <g transform="translate(-32.000000, -64.000000)" id="Path">
                                        <line x1="20.1156" y1="282.1729" x2="137.3154" y2="23.173"></line>
                                        <line x1="13.6156" y1="274.6729" x2="130.8154" y2="15.573"></line>
                                        <line x1="7.1156" y1="267.073" x2="124.3154" y2="7.9729"></line>
                                        <line x1="0.5155" y1="259.4729" x2="117.8154" y2="0.4729"></line>
                                        <line x1="26.6156" y1="289.7729" x2="143.9155" y2="30.7729"></line>
                                        <line x1="33.1156" y1="297.373" x2="150.4155" y2="38.3729"></line>
                                        <line x1="39.7155" y1="304.9729" x2="156.9155" y2="45.8729"></line>
                                        <line x1="46.2155" y1="312.573" x2="163.4155" y2="53.4729"></line>
                                        <line x1="52.7155" y1="320.073" x2="169.9155" y2="61.0729"></line>
                                        <line x1="59.2155" y1="327.6729" x2="176.5154" y2="68.673"></line>
                                        <line x1="65.8156" y1="335.2729" x2="183.0154" y2="76.2729"></line>
                                        <line x1="72.3156" y1="342.873" x2="189.5154" y2="83.8729"></line>
                                        <line x1="91.8156" y1="319.4729" x2="209.0154" y2="60.4729"></line>
                                        <line x1="98.3156" y1="327.073" x2="215.5154" y2="68.0729"></line>
                                        <line x1="113.4155" y1="314.073" x2="230.7153" y2="54.9729"></line>
                                        <line x1="128.6155" y1="300.9729" x2="245.8154" y2="41.9729"></line>
                                        <line x1="143.8154" y1="287.9729" x2="261.0154" y2="28.8729"></line>
                                        <line x1="158.9155" y1="274.873" x2="276.2153" y2="15.8729"></line>
                                        <line x1="165.4155" y1="282.4729" x2="282.7153" y2="23.4729"></line>
                                        <line x1="172.0154" y1="290.073" x2="289.2153" y2="31.073"></line>
                                        <line x1="178.5154" y1="297.6729" x2="295.7153" y2="38.573"></line>
                                        <line x1="185.0154" y1="305.2729" x2="302.2153" y2="46.173"></line>
                                        <line x1="191.5154" y1="312.7729" x2="308.8154" y2="53.7729"></line>
                                        <line x1="198.1155" y1="320.373" x2="315.3154" y2="61.3729"></line>
                                    </g>
                                </g>
                            </g>
                        </g>
                        <g id="Clipped">
                            <g>
                                <mask id="mask-6" fill="white">
                                    <use xlink:href="#path-5"></use>
                                </mask>
                                <g id="SVGID_11_"></g>
                                <g id="Group" mask="url(#mask-6)" opacity="0.6" stroke="#501DA0">
                                    <g transform="translate(195.000000, -50.000000)" id="Path">
                                        <line x1="20.1155" y1="282.1729" x2="137.3154" y2="23.173"></line>
                                        <line x1="13.6155" y1="274.6729" x2="130.8154" y2="15.573"></line>
                                        <line x1="7.1155" y1="267.073" x2="124.3154" y2="7.9729"></line>
                                        <line x1="0.5154" y1="259.4729" x2="117.8154" y2="0.4729"></line>
                                        <line x1="26.6155" y1="289.7729" x2="143.9155" y2="30.7729"></line>
                                        <line x1="33.1155" y1="297.373" x2="150.4155" y2="38.3729"></line>
                                        <line x1="39.7153" y1="304.9729" x2="156.9155" y2="45.8729"></line>
                                    </g>
                                </g>
                            </g>
                        </g>
                    </g>
                    <path d="M350.6155,557.5729 L337.2156,471.773 L319.2156,565.473 C319.2156,565.473 337.5156,567.873 346.6155,567.1731 C355.7156,566.473 346.6155,567.1731 346.6155,567.1731 L350.6155,557.5729" id="Path" fill="#165D0A" fill-rule="nonzero"></path>
                    <polygon id="Path" fill="#F4624D" fill-rule="nonzero" points="489.5154 487.2729 495.7153 550.8729 509.7153 549.0729"></polygon>
                </g>
            </g>
        </g>
    </g>
</svg>