<?xml version="1.0" encoding="UTF-8"?>
<svg width="20px" height="21px" viewBox="0 0 20 21" version="1.1" xmlns="http://www.w3.org/2000/svg" xmlns:xlink="http://www.w3.org/1999/xlink">
    <!-- Generator: Sketch 61.2 (89653) - https://sketch.com -->
    <title>sfl</title>
    <desc>Created with Sketch.</desc>
    <g id="Color-Change" stroke="none" stroke-width="1" fill="none" fill-rule="evenodd">
        <g id="add.svg" transform="translate(-1015.000000, -300.000000)" fill="#0098D6" fill-rule="nonzero">
            <g id="sfl" transform="translate(1015.000000, 300.000000)">
                <path d="M19.0562358,9.13207547 L10.9433962,9.13207547 L10.9433962,1.01877358 C10.9433962,0.497750236 10.5210233,0.0753773585 10,0.0753773585 C9.47897665,0.0753773585 9.05660377,0.497750236 9.05660377,1.01877358 L9.05660377,9.13207547 L0.943764151,9.13207547 C0.422740802,9.13207547 0.000367924528,9.55444835 0.000367924528,10.0754717 C0.000367924528,10.596495 0.422740802,11.0188679 0.943764151,11.0188679 L9.05660377,11.0188679 L9.05660377,19.1317075 C9.05660377,19.6527309 9.47897665,20.0751038 10,20.0751038 C10.5210233,20.0751038 10.9433962,19.6527309 10.9433962,19.1317075 L10.9433962,11.0188679 L19.0562358,11.0188679 C19.5772592,11.0188679 19.9996321,10.596495 19.9996321,10.0754717 C19.9996321,9.55444835 19.5772592,9.13207547 19.0562358,9.13207547 Z" id="Path"></path>
            </g>
        </g>
    </g>
</svg>