<?xml version="1.0" encoding="UTF-8"?>
<svg width="60px" height="56px" viewBox="0 0 60 56" version="1.1" xmlns="http://www.w3.org/2000/svg" xmlns:xlink="http://www.w3.org/1999/xlink">
    <!-- Generator: sketchtool 60 (101010) - https://sketch.com -->
    <title>C433EC3E-3B88-4803-985F-FC7CBB3B51B1</title>
    <desc>Created with sketchtool.</desc>
    <g id="Page-2" stroke="none" stroke-width="1" fill="none" fill-rule="evenodd">
        <g id="14.3-Home" transform="translate(-741.000000, -986.000000)" fill="#001632" fill-rule="nonzero">
            <g id="::-How-seekify-work-::" transform="translate(150.000000, 825.000000)">
                <g id="Group-9" transform="translate(621.000000, 189.000000) scale(-1, 1) translate(-621.000000, -189.000000) translate(591.000000, 161.000000)">
                    <path d="M58.5608153,0.000753027329 C58.6748153,0.00475302733 58.7868153,0.0317530273 58.8898153,0.0817530273 C59.0488153,0.200753027 59.1788153,0.352753027 59.2728153,0.526753027 C59.4048153,0.916753027 59.4968153,1.31775303 59.5488153,1.72475303 C60.2368153,6.48075303 60.1368153,11.315753 59.2538153,16.038753 C59.1868153,16.404753 59.1278153,16.773753 59.0678153,17.142753 C58.8448153,18.514753 58.6208153,19.894753 58.0578153,21.193753 C57.1908153,23.295753 56.2078153,25.348753 55.1148153,27.344753 C52.6918153,31.606753 49.4008153,35.315753 45.4558153,38.235753 C42.3008153,40.516753 38.8638153,42.382753 35.2298153,43.787753 C33.5088153,44.485753 31.7518153,45.094753 29.9678153,45.612753 C27.9388153,46.196753 25.8688153,46.667753 23.8138153,47.109753 C19.4358153,48.079753 14.9738153,48.456753 10.5148153,48.823753 C10.0098153,48.860753 9.50181527,48.862753 8.99581527,48.830753 C8.74581527,48.818753 8.50281527,48.739753 8.29281527,48.602753 C8.10281527,48.451753 7.96281527,48.247753 7.88881527,48.017753 C7.85981527,47.851753 7.88581527,47.681753 7.96381527,47.531753 C8.04081527,47.382753 8.16581527,47.263753 8.31881527,47.192753 C8.89381527,47.076753 9.47581527,46.998753 10.0618153,46.958753 C13.7738153,46.780753 17.4698153,46.356753 21.1258153,45.689753 C25.2988153,45.003753 29.3948153,43.918753 33.3598153,42.450753 C37.0998153,41.108753 40.6438153,39.275753 43.8978153,36.998753 C46.3188153,35.228753 48.6988153,33.295753 50.5278153,30.834753 C51.5848153,29.414753 52.5768153,27.940753 53.4958153,26.431753 C55.2938153,23.574753 56.5498153,20.412753 57.2008153,17.102753 C58.0158153,12.622753 58.5218153,8.10375303 57.8868153,3.53675303 C57.7928153,2.86875303 57.7158153,2.20075303 57.6748153,1.52775303 C57.6678153,1.19275303 57.6968153,0.858753027 57.7598153,0.530753027 C57.8008153,0.423753027 57.8628153,0.326753027 57.9438153,0.245753027 C58.0238153,0.163753027 58.1198153,0.0997530273 58.2258153,0.0577530273 C58.3328153,0.0157530273 58.4458153,-0.00424697267 58.5608153,0.000753027329 Z" id="Path"></path>
                    <path d="M8.79081527,53.603753 C8.39681527,53.512753 8.00281527,53.421753 7.60881527,53.329753 C6.15681527,52.859753 4.79881527,52.220753 3.45081527,51.587753 C2.60181527,51.188753 1.75681527,50.790753 0.893815274,50.438753 C0.673815274,50.315753 0.470815274,50.161753 0.291815274,49.983753 C0.129815274,49.842753 0.026815274,49.646753 0.00481527402,49.433753 C-0.018184726,49.219753 0.041815274,49.006753 0.171815274,48.835753 C0.509815274,48.462753 0.881815274,48.121753 1.28181527,47.815753 C2.31381527,47.094753 3.30781527,46.298753 4.30481527,45.501753 C5.02281527,44.927753 5.74281527,44.351753 6.47781527,43.802753 C9.18781527,41.776753 11.8228153,39.676753 14.3508153,37.442753 C14.5818153,37.237753 14.8148153,37.033753 15.0468153,36.829753 C16.6488153,35.426753 18.2558153,34.017753 19.4018153,32.168753 C19.5388153,31.956753 19.7358153,31.791753 19.9678153,31.692753 C20.1928153,31.598753 20.4448153,31.589753 20.6768153,31.667753 C20.8358153,31.730753 20.9678153,31.847753 21.0498153,31.997753 C21.1318153,32.147753 21.1588153,32.321753 21.1258153,32.488753 C21.0818153,32.733753 21.0038153,32.971753 20.8958153,33.195753 C20.2938153,34.308753 19.5018153,35.308753 18.5548153,36.150753 C15.1688153,39.427753 11.4678153,42.312753 7.76881527,45.195753 C6.54781527,46.147753 5.32681527,47.098753 4.11781527,48.063753 C3.79081527,48.311753 3.48181527,48.581753 3.19281527,48.872753 C3.16581527,48.945753 3.15781527,49.023753 3.16981527,49.100753 C3.18181527,49.177753 3.21381527,49.249753 3.26181527,49.310753 C3.52181527,49.521753 3.80781527,49.699753 4.11081527,49.840753 C7.39781527,51.400753 10.8998153,52.222753 14.3998153,53.044753 C14.5118153,53.071753 14.6248153,53.097753 14.7368153,53.124753 C18.8818153,54.096753 23.0598153,54.541753 27.2908153,53.695753 C27.6208153,53.633753 27.9598153,53.626753 28.2918153,53.676753 C28.4548153,53.714753 28.6028153,53.801753 28.7168153,53.924753 C28.8308153,54.047753 28.9048153,54.201753 28.9298153,54.367753 C28.9548153,54.532753 28.9288153,54.701753 28.8568153,54.852753 C28.7848153,55.004753 28.6688153,55.130753 28.5238153,55.214753 C28.1248153,55.352753 27.7168153,55.464753 27.3038153,55.550753 C22.9018153,56.424753 18.5648153,55.921753 14.2558153,54.907753 C13.7218153,54.781753 13.1898153,54.650753 12.6578153,54.519753 C12.1248153,54.388753 11.5928153,54.257753 11.0588153,54.131753 C10.3028153,53.952753 9.54681527,53.778753 8.79081527,53.603753 Z" id="Path"></path>
                </g>
            </g>
        </g>
    </g>
</svg>