<?xml version="1.0" encoding="UTF-8"?>
<svg width="31px" height="32px" viewBox="0 0 31 32" version="1.1" xmlns="http://www.w3.org/2000/svg" xmlns:xlink="http://www.w3.org/1999/xlink">
    <!-- Generator: Sketch 63.1 (92452) - https://sketch.com -->
    <title>sms</title>
    <desc>Created with Sketch.</desc>
    <defs>
        <filter x="-9.1%" y="-33.3%" width="118.2%" height="166.7%" filterUnits="objectBoundingBox" id="filter-1">
            <feOffset dx="0" dy="2" in="SourceAlpha" result="shadowOffsetOuter1"></feOffset>
            <feGaussianBlur stdDeviation="3" in="shadowOffsetOuter1" result="shadowBlurOuter1"></feGaussianBlur>
            <feColorMatrix values="0 0 0 0 0   0 0 0 0 0.466666667   0 0 0 0 0.709803922  0 0 0 0.3 0" type="matrix" in="shadowBlurOuter1" result="shadowMatrixOuter1"></feColorMatrix>
            <feMerge>
                <feMergeNode in="shadowMatrixOuter1"></feMergeNode>
                <feMergeNode in="SourceGraphic"></feMergeNode>
            </feMerge>
        </filter>
    </defs>
    <g id="Page-4" stroke="none" stroke-width="1" fill="none" fill-rule="evenodd">
        <g id="1.1-User-Login" transform="translate(-414.000000, -566.000000)" fill="#FFFFFF" fill-rule="nonzero">
            <g id="Linkedin-CTA-Copy" filter="url(#filter-1)" transform="translate(400.000000, 556.000000)">
                <g id="sms" transform="translate(20.000000, 14.000000)">
                    <path d="M12.6,15.229541 L14.1,15.229541 L14.1,16.95 C14.1,18.1907227 13.0907227,19.2 11.85,19.2 L2.25,19.2 C1.00927733,19.2 0,18.1907227 0,16.95 L0,2.25 C0,1.00927733 1.00927733,0 2.25,0 L11.85,0 C13.0907227,0 14.1,1.00927733 14.1,2.25 L14.1,4.50454102 L12.6,4.50454102 L12.6,2.25 C12.6,1.8364746 12.2635254,1.5 11.85,1.5 L2.25,1.5 C1.8364746,1.5 1.5,1.8364746 1.5,2.25 L1.5,16.95 C1.5,17.3635254 1.8364746,17.7 2.25,17.7 L11.85,17.7 C12.2635254,17.7 12.6,17.3635254 12.6,16.95 L12.6,15.229541 Z M8.55,3.00454103 L5.55,3.00454103 L5.55,4.50454103 L8.55,4.50454103 L8.55,3.00454103 Z M6.3,15.454541 C6.3,15.8687988 6.63574219,16.204541 7.05,16.204541 C7.46425781,16.204541 7.8,15.8687988 7.8,15.454541 C7.8,15.0402832 7.46425781,14.704541 7.05,14.704541 C6.63574219,14.704541 6.3,15.0402832 6.3,15.454541 Z M18.225,6.00454103 L18.225,13.729541 L7.95,13.729541 L7.95,6.00454103 L18.225,6.00454103 Z M10.617627,7.50454103 L13.0875,9.34160156 L15.557373,7.50454103 L10.617627,7.50454103 Z M16.725,12.229541 L16.725,8.50546875 L13.0875,11.2111817 L9.45,8.50546875 L9.45,12.229541 L16.725,12.229541 Z" id="Shape"></path>
                </g>
            </g>
        </g>
    </g>
</svg>