<?xml version="1.0" encoding="UTF-8"?>
<svg width="176px" height="32px" viewBox="0 0 176 32" version="1.1" xmlns="http://www.w3.org/2000/svg" xmlns:xlink="http://www.w3.org/1999/xlink">
    <!-- Generator: Sketch 52.4 (67378) - http://www.bohemiancoding.com/sketch -->
    <title>SOCIALSTORY</title>
    <desc>Created with Sketch.</desc>
    <g id="Specifications" stroke="none" stroke-width="1" fill="none" fill-rule="evenodd">
        <g id="Logos" transform="translate(-50.000000, -262.000000)" fill="#008D71">
            <path d="M50.132,269.744 C50.132,264.772 52.508,262 57.26,262 C62.012,262 64.388,264.772 64.388,269.744 L64.388,270.712 L59.812,270.712 L59.812,269.436 C59.812,267.192 58.932,266.4 57.392,266.4 C55.852,266.4 54.972,267.192 54.972,269.436 C54.972,271.548 56.028,273.088 57.436,274.496 C58.14,275.244 58.888,275.948 59.724,276.652 C61.308,278.104 62.804,279.776 63.728,281.932 C64.212,283.032 64.432,284.308 64.432,285.76 C64.432,290.732 61.968,293.504 57.216,293.504 C52.464,293.504 50,290.732 50,285.76 L50,283.868 L54.576,283.868 L54.576,286.068 C54.576,288.312 55.544,289.06 57.084,289.06 C58.624,289.06 59.592,288.312 59.592,286.068 C59.592,283.956 58.536,282.416 57.128,280.964 C56.424,280.26 55.676,279.556 54.884,278.808 C53.256,277.4 51.76,275.728 50.836,273.572 C50.352,272.472 50.132,271.196 50.132,269.744 Z M66.808,285.76 L66.808,269.744 C66.808,264.772 69.404,262 74.156,262 C78.908,262 81.504,264.772 81.504,269.744 L81.504,285.76 C81.504,290.732 78.908,293.504 74.156,293.504 C69.404,293.504 66.808,290.732 66.808,285.76 Z M71.648,269.436 L71.648,286.068 C71.648,288.312 72.616,289.104 74.156,289.104 C75.696,289.104 76.664,288.312 76.664,286.068 L76.664,269.436 C76.664,267.192 75.696,266.4 74.156,266.4 C72.616,266.4 71.648,267.192 71.648,269.436 Z M94.088,281.668 L98.664,281.668 L98.664,285.76 C98.664,290.732 96.2,293.504 91.448,293.504 C86.696,293.504 84.232,290.732 84.232,285.76 L84.232,269.744 C84.232,264.772 86.696,262 91.448,262 C96.2,262 98.664,264.772 98.664,269.744 L98.664,272.736 L94.088,272.736 L94.088,269.436 C94.088,267.192 93.12,266.4 91.58,266.4 C90.04,266.4 89.072,267.192 89.072,269.436 L89.072,286.068 C89.072,288.312 90.04,289.06 91.58,289.06 C93.12,289.06 94.088,288.312 94.088,286.068 L94.088,281.668 Z M101.612,293.152 L101.612,262.352 L106.452,262.352 L106.452,293.152 L101.612,293.152 Z M120.708,262.352 L125.636,293.152 L120.752,293.152 L119.916,287.564 L113.976,287.564 L113.14,293.152 L108.696,293.152 L113.624,262.352 L120.708,262.352 Z M116.924,267.808 L114.592,283.384 L119.256,283.384 L116.924,267.808 Z M127.88,293.152 L127.88,262.352 L132.72,262.352 L132.72,288.752 L140.684,288.752 L140.684,293.152 L127.88,293.152 Z M142.18,269.744 C142.18,264.772 144.556,262 149.308,262 C154.06,262 156.436,264.772 156.436,269.744 L156.436,270.712 L151.86,270.712 L151.86,269.436 C151.86,267.192 150.98,266.4 149.44,266.4 C147.9,266.4 147.02,267.192 147.02,269.436 C147.02,271.548 148.076,273.088 149.484,274.496 C150.188,275.244 150.936,275.948 151.772,276.652 C153.356,278.104 154.852,279.776 155.776,281.932 C156.26,283.032 156.48,284.308 156.48,285.76 C156.48,290.732 154.016,293.504 149.264,293.504 C144.512,293.504 142.048,290.732 142.048,285.76 L142.048,283.868 L146.624,283.868 L146.624,286.068 C146.624,288.312 147.592,289.06 149.132,289.06 C150.672,289.06 151.64,288.312 151.64,286.068 C151.64,283.956 150.584,282.416 149.176,280.964 C148.472,280.26 147.724,279.556 146.932,278.808 C145.304,277.4 143.808,275.728 142.884,273.572 C142.4,272.472 142.18,271.196 142.18,269.744 Z M157.844,266.752 L157.844,262.352 L172.804,262.352 L172.804,266.752 L167.744,266.752 L167.744,293.152 L162.904,293.152 L162.904,266.752 L157.844,266.752 Z M174.52,285.76 L174.52,269.744 C174.52,264.772 177.116,262 181.868,262 C186.62,262 189.216,264.772 189.216,269.744 L189.216,285.76 C189.216,290.732 186.62,293.504 181.868,293.504 C177.116,293.504 174.52,290.732 174.52,285.76 Z M179.36,269.436 L179.36,286.068 C179.36,288.312 180.328,289.104 181.868,289.104 C183.408,289.104 184.376,288.312 184.376,286.068 L184.376,269.436 C184.376,267.192 183.408,266.4 181.868,266.4 C180.328,266.4 179.36,267.192 179.36,269.436 Z M207.388,293.152 L202.46,293.152 C202.416,292.932 202.328,292.756 202.284,292.58 C202.152,292.228 202.064,291.744 202.064,290.908 C202.02,290.512 202.02,289.984 202.02,289.368 L202.02,284.528 C202.02,281.668 201.096,280.612 198.852,280.612 L197.18,280.612 L197.18,293.152 L192.34,293.152 L192.34,262.352 L199.644,262.352 C204.704,262.352 206.816,264.684 206.816,269.436 L206.816,271.856 C206.816,275.024 205.76,277.092 203.648,278.104 C206.112,279.116 206.86,281.448 206.86,284.66 L206.86,289.412 C206.86,290.952 206.904,291.964 207.388,293.152 Z M199.512,266.752 L197.18,266.752 L197.18,276.212 L199.072,276.212 C200.876,276.212 201.976,275.42 201.976,272.956 L201.976,269.92 C201.976,267.676 201.228,266.752 199.512,266.752 Z M214.12,293.152 L214.12,282.944 L208.004,262.352 L213.064,262.352 L216.76,276.388 L220.456,262.352 L225.076,262.352 L218.96,282.944 L218.96,293.152 L214.12,293.152 Z" id="SOCIALSTORY"></path>
        </g>
    </g>
</svg>