<?xml version="1.0" encoding="UTF-8"?>
<svg width="22px" height="22px" viewBox="0 0 22 22" version="1.1" xmlns="http://www.w3.org/2000/svg" xmlns:xlink="http://www.w3.org/1999/xlink">
    <!-- Generator: sketchtool 60.1 (101010) - https://sketch.com -->
    <title>31316E4C-73CC-4C80-A2AD-9566656763D5</title>
    <desc>Created with sketchtool.</desc>
    <defs>
        <polygon id="path-1" points="0 0.038999368 21.4280292 0.038999368 21.4280292 21.4421709 0 21.4421709"></polygon>
    </defs>
    <g id="Page-2" stroke="none" stroke-width="1" fill="none" fill-rule="evenodd">
        <g id="14.3-Home" transform="translate(-262.000000, -3771.000000)">
            <g id="::-150-Companies-::" transform="translate(150.000000, 3613.000000)">
                <g id="Group-3-Copy-7" transform="translate(112.000000, 158.000000)">
                    <mask id="mask-2" fill="white">
                        <use xlink:href="#path-1"></use>
                    </mask>
                    <g id="Clip-2"></g>
                    <path d="M10.7704926,0.0389760779 C16.6993686,0.0468378548 21.4272556,4.78287991 21.4280292,10.7149026 C21.4288027,16.6294206 16.6998843,21.3550371 10.8691246,21.4410159 C4.9338021,21.5284105 -0.0345405213,16.6444798 -3.86653752e-05,10.74811 C0.0353398913,4.75688034 4.75175202,0.0308777174 10.7704926,0.0389760779 Z M10.2793958,2.82055528 C9.98749681,6.94818146 6.9331297,9.99914191 2.80889605,10.2864244 L2.65698012,10.2949229 C2.37549491,10.3107515 2.09487075,10.3478392 2.09908504,10.7344666 C2.10403218,11.1899741 2.4970128,11.1481431 2.81843691,11.1706675 C6.24734756,11.4113567 9.07544138,13.6484788 9.98001883,16.8809215 C10.1571695,17.5140498 10.1602639,18.1941576 10.3035058,18.8392561 C10.3464397,19.0329658 10.5919237,19.1817555 10.7447065,19.3512676 C10.8811151,19.1892207 11.0286118,19.0348965 11.1476148,18.8610082 C11.188228,18.8018012 11.1522563,18.693298 11.16025,18.6080915 C11.459627,15.3802824 13.0691972,13.0548647 16.051621,11.7725191 C16.8781954,11.4170199 17.834603,11.3665653 18.7273188,11.15844 C18.9626173,11.1036092 19.1825729,10.9830072 19.4094909,10.8926522 C19.4137456,10.7972775 19.4180003,10.7017741 19.422255,10.6063994 C19.1885038,10.5017575 18.9605544,10.3224634 18.7199698,10.3036716 C14.4702866,9.97224136 11.500498,7.01974465 11.1419419,2.77911041 C11.1222155,2.54562904 10.8946529,2.16078379 10.7285902,2.14096233 C10.2814587,2.08780478 10.3026033,2.4937586 10.2793958,2.82055528 Z" id="Combined-Shape" fill="#EFF0F5" mask="url(#mask-2)"></path>
                </g>
            </g>
        </g>
    </g>
</svg>