<?xml version="1.0" encoding="UTF-8"?>
<svg width="20px" height="25px" viewBox="0 0 20 25" version="1.1" xmlns="http://www.w3.org/2000/svg" xmlns:xlink="http://www.w3.org/1999/xlink">
    <!-- Generator: sketchtool 60.1 (101010) - https://sketch.com -->
    <title>C5651E02-0E17-456D-957F-9282D4038676</title>
    <desc>Created with sketchtool.</desc>
    <g id="Final" stroke="none" stroke-width="1" fill="none" fill-rule="evenodd">
        <g id="5.8-Dashboard-CV" transform="translate(-456.000000, -100.000000)" fill="#FFC900" fill-rule="nonzero">
            <g id="tooltip" transform="translate(432.000000, 88.000000)">
                <g id="icon" transform="translate(24.000000, 12.000000)">
                    <polygon id="Path" points="0 14.310087 0 24.435147 3.934029 24.435147 3.934029 14.310087"></polygon>
                    <path d="M16.126737,19.975032 C15.965334,19.984008 15.962859,19.971468 16.126737,19.975032 C16.417764,19.959159 16.587252,19.956915 16.788948,19.704597 C18.492804,17.572731 16.797231,17.323317 16.142412,17.426541 C15.949428,17.436837 15.944511,17.421591 16.142412,17.426541 C16.423374,17.411757 16.809309,17.364534 17.015955,17.221677 C17.281902,17.0379 17.434131,16.612332 17.458518,16.539567 C17.522571,16.335396 17.596887,16.031598 17.602926,15.667839 C17.659125,14.99355 17.086476,14.438358 16.355988,14.438358 L12.316524,14.438358 C11.642235,14.438358 11.087043,13.812876 11.087043,13.138356 C11.087043,12.464067 11.961906,11.010252 12.035793,9.379821 C12.149082,6.868488 9.611745,7.131993 9.611745,7.131993 L9.612867,7.132653 C9.612867,7.132653 9.226239,7.308609 9.226239,7.589571 L9.226239,9.152385 C9.226239,10.064868 8.746716,11.030184 8.137371,11.892738 C7.621119,12.623886 6.950196,13.556763 6.460146,14.046582 C5.95419,14.44014 5.404146,14.977413 4.729857,14.977413 L4.729857,23.992353 C4.729857,23.992353 5.853903,24.5542446 7.539873,24.5542446 L13.827396,24.5542446 C13.910226,24.5542446 15.548511,24.560514 15.993549,23.317833 C16.360014,22.493328 15.668697,22.455048 15.438357,22.434456 C15.240687,22.444521 15.249399,22.417659 15.438357,22.434456 C15.662229,22.423038 16.837755,22.588038 17.054895,20.627838 C17.119146,20.047335 16.489869,19.983315 16.126737,19.975032 Z" id="Path"></path>
                    <path d="M0.838464,9.15354 C0.838464,8.859312 1.083423,8.618709 1.386363,8.618709 L4.943961,8.618709 C5.246901,8.618709 5.49186,8.859609 5.49186,9.15354 C5.49186,9.447768 5.246901,9.688371 4.943961,9.688371 L1.414413,9.688371 C1.086426,9.688371 0.838464,9.45021 0.838464,9.15354 Z M3.561063,3.431043 C3.358014,3.231261 3.358014,2.877171 3.561063,2.677653 C3.766257,2.47599 4.133151,2.47599 4.338378,2.677653 L6.859545,5.155821 C7.062594,5.355603 7.062594,5.709693 6.859545,5.909211 C6.740349,6.026526 6.610494,6.08124 6.456714,6.08124 C6.319269,6.08124 6.165225,6.018342 6.053916,5.909211 L3.561855,3.432132 L3.561063,3.431043 Z M9.606333,4.031742 L9.606333,0.534831 C9.606333,0.240603 9.851292,0 10.154232,0 C10.457172,0 10.702131,0.240867 10.702131,0.534831 L10.702131,4.031742 C10.702131,4.32597 10.457172,4.56657322 10.154232,4.56657322 C9.851292,4.566837 9.606333,4.32597 9.606333,4.031742 Z M15.364503,8.618445 L18.922101,8.618445 C19.225041,8.618445 19.47,8.859312 19.47,9.153276 C19.47,9.447504 19.225041,9.688107 18.922101,9.688107 L15.364503,9.688107 C15.061563,9.688107 14.8166038,9.44724 14.8166038,9.153276 C14.81634,8.859312 15.061299,8.618445 15.364503,8.618445 Z M13.449183,5.909211 C13.246167,5.709429 13.246167,5.355339 13.449183,5.155821 L15.97035,2.677653 C16.175577,2.47599 16.542471,2.47599 16.747698,2.677653 C16.950747,2.877435 16.950747,3.231558 16.747698,3.431043 L14.226531,5.909211 C14.107335,6.026526 13.97748,6.08124 13.8237,6.08124 C13.696056,6.08124 13.566498,6.024612 13.449183,5.909211 Z" id="Shape"></path>
                </g>
            </g>
        </g>
    </g>
</svg>