<?xml version="1.0" encoding="UTF-8"?>
<svg width="19px" height="19px" viewBox="0 0 19 19" version="1.1" xmlns="http://www.w3.org/2000/svg" xmlns:xlink="http://www.w3.org/1999/xlink">
    <!-- Generator: Sketch 61.2 (89653) - https://sketch.com -->
    <title>Hisotory</title>
    <desc>Created with Sketch.</desc>
    <defs>
        <polygon id="path-1" points="2 2 22 2 22 22 2 22"></polygon>
    </defs>
    <g id="Color-Change" stroke="none" stroke-width="1" fill="none" fill-rule="evenodd">
        <g id="add.svg" transform="translate(-829.000000, -57.000000)">
            <g id="Hisotory" transform="translate(826.000000, 54.000000)">
                <rect id="Rectangle-Copy-6" fill="#D8D8D8" opacity="0" x="0" y="0" width="24" height="24"></rect>
                <mask id="mask-2" fill="white">
                    <use xlink:href="#path-1"></use>
                </mask>
                <use id="Clip-2" fill="#FFFFFF" opacity="0" xlink:href="#path-1"></use>
                <g id="icon" mask="url(#mask-2)" fill="#0098D6" fill-rule="nonzero">
                    <g transform="translate(3.000000, 3.000000)" id="Path">
                        <path d="M13.3696805,0.822622971 C11.0506601,-0.204793992 8.41177483,-0.283826066 6.01278821,0.664558823 C4.4134638,1.29681541 2.97407183,2.32423238 1.93451096,3.66777764 L1.53467986,2.2452003 C1.45471364,1.77100786 1.05488253,1.53391164 0.575085209,1.61294371 C0.175254106,1.77100786 -0.0646445563,2.16616823 0.0153216644,2.5613286 L0.814983871,5.80164364 C0.894950092,6.19680401 1.21481497,6.43390023 1.61464608,6.43390023 C1.6946123,6.43390023 1.77457852,6.43390023 1.77457852,6.43390023 L5.05319357,5.64357949 C5.45302467,5.56454741 5.77288955,5.09035497 5.61295711,4.6951946 C5.61295711,4.22100215 5.13315979,3.98390593 4.73332868,4.14197008 L3.37390293,4.45809838 C4.25353136,3.43068141 5.29309223,2.64036067 6.57255176,2.16616823 C8.57170728,1.37584749 10.7307952,1.45487956 12.7299508,2.32423238 C14.64914,3.19358519 16.1684982,4.6951946 16.9681604,6.67099645 C17.7678227,8.6467983 17.6878564,10.7806643 16.808228,12.7564662 C15.9285996,14.732268 14.4092414,16.1548453 12.4100859,16.9451661 C9.61126814,17.972583 6.49258554,17.4983906 4.25353136,15.5225887 C3.29393671,14.6532359 2.49427451,13.625819 2.01447718,12.4403379 C1.85454474,12.0451775 1.37474742,11.8080813 0.974916312,11.9661454 C0.575085209,12.1242096 0.335186547,12.598402 0.495118988,12.9935624 C1.05488253,14.4161397 2.01447718,15.759685 3.13400427,16.7080699 C4.89326113,18.2096793 7.1323153,19 9.4513357,19 C10.650829,19 11.7703561,18.7629038 12.8898832,18.3677434 C15.2888698,17.4193585 17.1280929,15.6806529 18.1676538,13.3887227 C19.2072146,11.0967926 19.2871808,8.48873415 18.3275862,6.11777193 C17.3679915,3.74680971 15.7686671,1.85003993 13.3696805,0.822622971 Z"></path>
                        <path d="M9.83689946,5 C9.33475978,5 9,5.32727273 9,5.81818182 L9,10.7272727 C9,10.9727273 9.08368995,11.2181818 9.33475978,11.3818182 L12.6823576,13.8363636 C12.8497375,13.9181818 13.0171174,14 13.1844973,14 C13.4355671,14 13.686637,13.9181818 13.8540169,13.6727273 C14.1050867,13.3454545 14.0213967,12.7727273 13.686637,12.5272727 L10.6737989,10.3181818 L10.6737989,5.81818182 C10.6737989,5.32727273 10.3390391,5 9.83689946,5 Z"></path>
                    </g>
                </g>
            </g>
        </g>
    </g>
</svg>