<?xml version="1.0" encoding="UTF-8"?>
<svg width="32px" height="30px" viewBox="0 0 32 30" version="1.1" xmlns="http://www.w3.org/2000/svg" xmlns:xlink="http://www.w3.org/1999/xlink">
    <!-- Generator: sketchtool 61 (101010) - https://sketch.com -->
    <title>B723355E-718C-477B-BF43-37E29B5C15BA</title>
    <desc>Created with sketchtool.</desc>
    <g id="Page-2" stroke="none" stroke-width="1" fill="none" fill-rule="evenodd" opacity="0.2">
        <g id="14.3-Home-2" transform="translate(-1162.000000, -4922.000000)" fill="#fff">
            <g id="::-Footer-::" transform="translate(0.000000, 4508.000000)">
                <g id="Group-9">
                    <g transform="translate(1115.000000, 414.000000)">
                        <g id="twitter" transform="translate(47.000000, 0.000000)">
                            <path d="M22.362,12.737 C22.368,12.878 22.372,13.019 22.372,13.162 C22.372,17.499 19.07,22.501 13.032,22.501 C11.178,22.501 9.453,21.958 8,21.027 C8.257,21.057 8.518,21.072 8.783,21.072 C10.321,21.072 11.736,20.548 12.86,19.667 C11.423,19.641 10.211,18.692 9.793,17.388 C9.994,17.426 10.199,17.446 10.411,17.446 C10.71,17.446 11,17.406 11.276,17.331 C9.774,17.03 8.643,15.703 8.643,14.113 L8.643,14.071 C9.085,14.317 9.592,14.465 10.13,14.482 C9.249,13.893 8.669,12.888 8.669,11.75 C8.669,11.148 8.831,10.584 9.114,10.099 C10.733,12.085 13.152,13.392 15.88,13.529 C15.824,13.289 15.795,13.038 15.795,12.781 C15.795,10.968 17.265,9.498 19.077,9.498 C20.022,9.498 20.875,9.897 21.473,10.535 C22.221,10.388 22.924,10.115 23.558,9.739 C23.313,10.505 22.792,11.148 22.115,11.555 C22.779,11.475 23.411,11.299 24,11.038 C23.56,11.696 23.003,12.274 22.362,12.737 M16,0 C7.163,0 0,6.7153125 0,15 C0,23.28375 7.163,30 16,30 C24.837,30 32,23.28375 32,15 C32,6.7153125 24.837,0 16,0" id="Fill-
                            "></path>
                        </g>
                    </g>
                </g>
            </g>
        </g>
    </g>
</svg>