<?xml version="1.0" encoding="UTF-8"?>
<svg width="21px" height="21px" viewBox="0 0 21 21" version="1.1" xmlns="http://www.w3.org/2000/svg" xmlns:xlink="http://www.w3.org/1999/xlink">
    <!-- Generator: sketchtool 61.2 (101010) - https://sketch.com -->
    <title>DEE9BEDB-665A-4AB7-A272-9E00144656A1</title>
    <desc>Created with sketchtool.</desc>
    <g id="Final" stroke="none" stroke-width="1" fill="none" fill-rule="evenodd">
        <g id="5.5-Add-Video" transform="translate(-426.000000, -710.000000)" fill="#0098D6" fill-rule="nonzero">
            <g id="::-Video-::" transform="translate(150.000000, 324.000000)">
                <g id="Play-Icon-Copy" transform="translate(276.000000, 386.000000)">
                    <g id="download-(61)">
                        <path d="M16.5,0 C18.9852814,0 21,2.01471863 21,4.5 L21,4.5 L21,19.5 C21,20.3284271 20.3284271,21 19.5,21 L19.5,21 L4.5,21 C3.67157288,21 3,20.3284271 3,19.5 L3,19.5 L3,3.75 C3,2.50735931 1.99264069,1.5 0.75,1.5 C0.335786438,1.5 0,1.16421356 0,0.75 C0,0.335786438 0.335786438,0 0.75,0 L0.75,0 Z M14.625,15.75 L9.375,15.75 C8.96078644,15.75 8.625,16.0857864 8.625,16.5 C8.625,16.9142136 8.96078644,17.25 9.375,17.25 L9.375,17.25 L14.625,17.25 C15.0392136,17.25 15.375,16.9142136 15.375,16.5 C15.375,16.0857864 15.0392136,15.75 14.625,15.75 L14.625,15.75 Z M14.625,12.75 L9.375,12.75 C8.96078644,12.75 8.625,13.0857864 8.625,13.5 C8.625,13.9142136 8.96078644,14.25 9.375,14.25 L9.375,14.25 L14.625,14.25 C15.0392136,14.25 15.375,13.9142136 15.375,13.5 C15.375,13.0857864 15.0392136,12.75 14.625,12.75 L14.625,12.75 Z M10.9275,3.135 C10.4694011,2.87028102 9.90572406,2.86647732 9.44409437,3.12498994 C8.98246467,3.38350257 8.69116766,3.86609174 8.6775,4.395 L8.6775,4.395 L8.6775,9.105 C8.69116766,9.63390826 8.98246467,10.1164974 9.44409437,10.3750101 C9.90572406,10.6335227 10.4694011,10.629719 10.9275,10.365 L10.9275,10.365 L14.6775,8.01 L14.6775,8.025 C15.1086071,7.74934918 15.3694555,7.27294982 15.3694555,6.76125 C15.3694555,6.24955018 15.1086071,5.77315082 14.6775,5.4975 L14.6775,5.4975 Z M10.125,4.41 L13.8825,6.7425 L10.125,9.105 L10.125,4.41 Z" id="Combined-Shape"></path>
                    </g>
                </g>
            </g>
        </g>
    </g>
</svg>