<?xml version="1.0" encoding="UTF-8"?>
<svg width="36px" height="36px" viewBox="0 0 36 36" version="1.1" xmlns="http://www.w3.org/2000/svg" xmlns:xlink="http://www.w3.org/1999/xlink">
    <!-- Generator: Sketch 61.2 (89653) - https://sketch.com -->
    <title>pdf (1) copy</title>
    <desc>Created with Sketch.</desc>
    <g id="Page-1" stroke="none" stroke-width="1" fill="none" fill-rule="evenodd">
        <g id="16.1-Payment-History-Copy" transform="translate(-1097.000000, -380.000000)">
            <g id="pdf-(1)-copy" transform="translate(1097.000000, 380.000000)">
                <path d="M28.9938462,22.3029231 C32.6871923,22.3029231 35.6847692,25.2981923 35.6847692,28.9938462 C35.6847692,32.6895 32.6873077,35.6847692 28.9938462,35.6847692 C25.3003846,35.6847692 22.3029231,32.6895 22.3029231,28.9938462 C22.3029231,25.3003846 25.3005,22.3029231 28.9938462,22.3029231 Z" id="Path" fill="#414141" fill-rule="nonzero"></path>
                <g id="Group-5" transform="translate(25.000000, 26.000000)" fill="#FFFFFF">
                    <path d="M4.31246949,0 C5.2124939,0 6.11203005,0.35375975 6.98617555,1.05139159 C7.66793824,1.595459 8.15792849,2.21191406 8.36715699,2.47509766 C8.41403199,2.53405763 8.48934937,2.64074706 8.51132202,2.67199706 C8.6628113,2.88757325 8.6628113,3.17492675 8.51132202,3.39050294 C8.48934937,3.421875 8.41403199,3.52844237 8.36727905,3.58740234 C8.15792849,3.850708 7.66793824,4.467041 6.98617555,5.01110841 C6.11203005,5.70874025 5.2124939,6.0625 4.31246949,6.0625 C3.41244509,6.0625 2.51290893,5.70874025 1.63876343,5.01110841 C0.957000742,4.467041 0.467010492,3.85058594 0.257781992,3.58740234 C0.210906992,3.52844237 0.135589617,3.42175294 0.113616961,3.39050294 C-0.0378723203,3.17492675 -0.0378723203,2.88745119 0.113616961,2.671875 C0.135589617,2.640625 0.210906992,2.53393556 0.257781992,2.47497559 C0.467010492,2.211792 0.957000742,1.595459 1.63876343,1.05139159 C2.51290893,0.35375975 3.41244509,0 4.31246949,0 Z M4.31246949,1.25 C3.38424684,1.25 2.4111023,1.84887694 1.4173279,3.03125 C2.4111023,4.21350097 3.38412477,4.8125 4.31246949,4.8125 C5.24081421,4.8125 6.21383668,4.21362306 7.20761109,3.03125 C6.21383668,1.84899903 5.24081421,1.25 4.31246949,1.25 Z" id="Combined-Shape"></path>
                    <path d="M4.34371949,1.84375 C3.68783571,1.84375 3.15621949,2.37536622 3.15621949,3.03125 C3.15621949,3.68713378 3.68783571,4.21875 4.34371949,4.21875 C4.99960327,4.21875 5.53121949,3.68713378 5.53121949,3.03125 C5.53121949,2.37536622 4.99960327,1.84375 4.34371949,1.84375 Z" id="Path"></path>
                </g>
                <path d="M20.7228462,28.9937308 C20.7228462,24.4261154 24.4262308,20.7227308 28.9938462,20.7227308 C29.7666923,20.7227308 30.5138077,20.8375385 31.2241154,21.0361154 L31.2241154,10.0051154 L21.1801154,0 L2.23038462,0 C0.999230769,0 0.000115384616,0.998076923 0.000115384616,2.23026923 L0.000115384616,33.4543846 C0.000115384616,34.6865769 0.999230769,35.6846538 2.23038462,35.6846538 L24.1452692,35.6846538 C22.0744615,34.1814231 20.7228462,31.7493462 20.7228462,28.9937308 Z" id="Path" fill="#414141" fill-rule="nonzero"></path>
                <path d="M31.1916923,10.0362692 L23.418,10.0362692 C22.1868462,10.0362692 21.1877308,9.03715385 21.1877308,7.806 L21.1877308,0.0222692308 L31.1916923,10.0362692 Z" id="Path" fill="#808080" fill-rule="nonzero"></path>
                <path d="M22.8582692,16.9089231 C23.2318846,16.9089231 23.4147692,16.5833077 23.4147692,16.2677308 C23.4147692,15.9409615 23.2240385,15.6253846 22.8582692,15.6253846 L20.7305769,15.6253846 C20.3146154,15.6253846 20.0826923,15.9699231 20.0826923,16.3502308 L20.0826923,21.5791154 C20.0826923,22.0452692 20.3480769,22.3039615 20.7071538,22.3039615 C21.0640385,22.3039615 21.3305769,22.0452692 21.3305769,21.5791154 L21.3305769,20.1439615 L22.6174615,20.1439615 C23.0166923,20.1439615 23.2163077,19.8171923 23.2163077,19.4927308 C23.2163077,19.1749615 23.0166923,18.8592692 22.6174615,18.8592692 L21.3305769,18.8592692 L21.3305769,16.9089231 C21.3305769,16.9089231 22.8582692,16.9089231 22.8582692,16.9089231 Z M15.6668077,15.6253846 L14.1100385,15.6253846 C13.6873846,15.6253846 13.3873846,15.9153462 13.3873846,16.3457308 L13.3873846,21.5836154 C13.3873846,22.1177308 13.8189231,22.2850385 14.1278077,22.2850385 L15.7615385,22.2850385 C17.6951538,22.2850385 18.972,21.0126923 18.972,19.0488462 C18.9709615,16.9725 17.7688846,15.6253846 15.6668077,15.6253846 Z M15.7414615,20.9937692 L14.7924231,20.9937692 L14.7924231,16.9167692 L15.6477692,16.9167692 C16.9425,16.9167692 17.5055769,17.7855 17.5055769,18.9842308 C17.5055769,20.1061154 16.9525385,20.9937692 15.7414615,20.9937692 Z M10.0386923,15.6253846 L8.49646154,15.6253846 C8.06042308,15.6253846 7.81730769,15.9130385 7.81730769,16.3502308 L7.81730769,21.5791154 C7.81730769,22.0452692 8.09607692,22.3039615 8.47073077,22.3039615 C8.84538462,22.3039615 9.12415385,22.0452692 9.12415385,21.5791154 L9.12415385,20.0524615 L10.0909615,20.0524615 C11.2841538,20.0524615 12.2688462,19.2071538 12.2688462,17.8478077 C12.2689615,16.5175385 11.3188846,15.6253846 10.0386923,15.6253846 Z M10.0129615,18.8259231 L9.12415385,18.8259231 L9.12415385,16.8531923 L10.0129615,16.8531923 C10.5616154,16.8531923 10.9106538,17.2813846 10.9106538,17.8400769 C10.9096154,18.3977308 10.5616154,18.8259231 10.0129615,18.8259231 Z" id="Shape" fill="#FFFFFF" fill-rule="nonzero"></path>
            </g>
        </g>
    </g>
</svg>