<?xml version="1.0" encoding="UTF-8"?>
<svg width="152px" height="38px" viewBox="0 0 152 38" version="1.1" xmlns="http://www.w3.org/2000/svg" xmlns:xlink="http://www.w3.org/1999/xlink">
    <!-- Generator: sketchtool 60.1 (101010) - https://sketch.com -->
    <title>D878E982-F0E3-4559-9D0F-BE50BC689D0B</title>
    <desc>Created with sketchtool.</desc>
    <g id="Page-2" stroke="none" stroke-width="1" fill="none" fill-rule="evenodd">
        <g id="14.3-Home" transform="translate(-757.000000, -3694.000000)" fill="#533092" fill-rule="nonzero">
            <g id="::-150-Companies-::" transform="translate(150.000000, 3613.000000)">
                <g id="Group-17" transform="translate(607.000000, 74.000000)">
                    <g id="5" transform="translate(0.000000, 7.000000)">
                        <path d="M0.76302,8.32032 C0.76302,8.32032 4.52061,23.71518 5.12001,26.21322 C5.81985,29.13084 7.08021,30.20409 10.71711,29.47995 L13.06206,19.93491 C13.65741,17.56404 14.05593,15.87438 14.43825,13.46301 L14.50548,13.46301 C14.77359,15.89787 15.15591,17.57133 15.64515,19.94301 C15.64515,19.94301 16.60095,24.27651 17.08938,26.55261 C17.58024,28.8279 18.94428,30.2616 22.50585,29.48076 L28.09485,8.32194 L23.58234,8.32194 L21.67398,17.47008 C21.16125,20.13255 20.6955,22.21344 20.33667,24.64911 L20.27268,24.64911 C19.94625,22.23774 19.53153,20.23947 19.00989,17.64504 L17.02296,8.32194 L12.3201,8.32194 L10.19466,17.41014 C9.59202,20.17224 9.02826,22.40217 8.67105,24.75522 L8.60625,24.75522 C8.18339393,22.1841876 7.72164103,19.6197037 7.22115,17.06265 C7.22115,17.06265 5.96079,10.5624 5.51772,8.32194 L0.76383,8.32194 L0.76302,8.32032 Z M43.78617,8.32032 L43.78617,29.47914 L48.08322,29.47914 L48.08322,8.3187 L43.78617,8.3187 L43.78617,8.32032 Z M104.3037,8.32032 L104.3037,23.92902 C104.3037,26.082 104.7087,27.59022 105.5754,28.51038 C106.33194,29.31633 107.57934,29.83878 109.07379,29.83878 C110.34387,29.83878 111.5937,29.5974 112.18257,29.37708 L112.12749,26.01963 C111.593795,26.152889 111.045405,26.2182059 110.49534,26.21403 C109.03167,26.21403 108.54081,25.27686 108.54081,23.3442 L108.54081,17.37207 L112.28301,17.37207 L112.28301,13.32369 L108.54,13.32369 L108.54,8.32032 L104.30289,8.32032 L104.3037,8.32032 Z M34.18443,13.22487 C31.51386,13.22487 29.39409,13.97493 28.23903,14.64237 L29.08386,17.53812 C30.14172,16.87149 31.8249,16.31988 33.41979,16.31988 C36.05877,16.31259 36.4905,17.8119 36.4905,18.77418 L36.4905,19.00098 C30.7395,18.99288 27.10584,20.98305 27.10584,25.03953 C27.10584,27.51651 28.95507,29.83797 32.17158,29.83797 C34.15122,29.83797 35.80686,29.04822 36.79911,27.783 L36.89631,27.783 C36.89631,27.783 37.55322,30.53052 41.17311,29.47995 C40.98276,28.33704 40.9212,27.11718 40.9212,25.64865 L40.9212,19.99647 C40.9212,16.39359 39.38301,13.22487 34.18443,13.22487 L34.18443,13.22487 Z M59.88735,13.22487 C57.19815,13.22487 55.99044,14.5881 55.25739,15.74397 L55.19421,15.74397 L55.19421,13.5837 L51.09318,13.5837 L51.09318,29.47995 L55.41291,29.47995 L55.41291,20.15766 C55.41291,19.72026 55.46313,19.25856 55.61541,18.8568 C55.97343,17.9172 56.84661,16.81965 58.24062,16.81965 C59.98374,16.81965 60.80022,18.29385 60.80022,20.4201 L60.80022,29.47995 L65.11428,29.47995 L65.11428,20.04507 C65.11428,19.62792 65.17179,19.12491 65.29491,18.75636 C65.64969,17.68878 66.59091,16.82046 67.88691,16.82046 C69.65352,16.82046 70.50159,18.26793 70.50159,20.77002 L70.50159,29.47995 L74.8197,29.47995 L74.8197,20.11797 C74.8197,15.18021 72.31275,13.22487 69.48261,13.22487 C68.22954,13.22487 67.23972,13.53915 66.34548,14.08833 C65.5938,14.55003 64.92069,15.20613 64.33263,16.06878 L64.26864,16.06878 C63.58419,14.35563 61.97877,13.22568 59.88654,13.22568 L59.88735,13.22487 Z M83.6082,13.22487 C80.93844,13.22487 78.81948,13.97493 77.6628,14.64237 L78.50925,17.53812 C79.56549,16.87149 81.25029,16.31988 82.84437,16.31988 C85.48173,16.31259 85.91427,17.8119 85.91427,18.77418 L85.91427,19.00098 C80.16327,18.99288 76.53042,20.98305 76.53042,25.03953 C76.53042,27.51651 78.38046,29.83797 81.59778,29.83797 C83.5758,29.83797 85.23225,29.04822 86.22288,27.783 L86.32008,27.783 C86.32008,27.783 86.9778,30.53052 90.59769,29.47995 C90.40734,28.33704 90.34659,27.11718 90.34659,25.64865 L90.34659,19.99647 C90.34659,16.39359 88.80759,13.22487 83.6082,13.22487 L83.6082,13.22487 Z M101.54727,13.22487 C99.89244,13.22487 98.01081,14.29326 97.22106,16.58151 L97.09956,16.58151 L97.09956,13.58451 L93.21156,13.58451 L93.21156,29.47995 L97.64469,29.47995 L97.64469,21.33945 C97.64469,20.90124 97.67142,20.51811 97.74027,20.16738 C98.06832,18.46233 99.37242,17.37207 101.24433,17.37207 C101.75868,17.37207 102.12642,17.42796 102.52413,17.48547 L102.52413,13.32369 C102.203391,13.2533084 101.875606,13.2201493 101.54727,13.22487 Z M36.62982,21.81816 L36.62982,23.80104 C36.62982,24.09426 36.6039,24.3972 36.5229,24.66207 C36.1908,25.76367 35.0487,26.69355 33.6231,26.69355 C32.43402,26.69355 31.48875,26.01882 31.48875,24.5916 C31.48875,22.40784 33.89283,21.80358 36.62982,21.81816 L36.62982,21.81816 Z M86.05359,21.81816 L86.05359,23.80104 C86.05359,24.09426 86.02767,24.3972 85.94667,24.66207 C85.61457,25.76367 84.47409,26.69355 83.04687,26.69355 C81.85779,26.69355 80.91333,26.01882 80.91333,24.5916 C80.91333,22.40784 83.31741,21.80358 86.05359,21.81816 Z" id="Shape"></path>
                        <path d="M135.51543,0.66744 C134.1279,0.66744 133.02549,1.44261 133.02549,2.38545 L133.86789,11.92482 C133.96104,12.49992 134.66493,12.94299 135.51543,12.94299 C136.36836,12.94137 137.07063,12.4983 137.1654,11.92482 L138.01185,2.38545 C138.01185,1.44261 136.9062,0.66825 135.51705,0.66825 L135.51543,0.66744 Z M121.78593,8.31951 C121.06665,8.33652 120.24855,8.88165 119.72853,9.78399 C119.03193,10.98522 119.15505,12.3282 119.96991,12.79881 L128.65068,16.84233 C129.19338,17.04402 129.93048,16.65846 130.35654,15.92298 C130.78503,15.18426 130.75182,14.3532 130.30065,13.98465 L122.45985,8.48475 C122.255439,8.36831702 122.022645,8.3111003 121.78755,8.31951 L121.78593,8.31951 Z M149.24331,8.31951 C149.008197,8.31092818 148.775357,8.36815631 148.57101,8.48475 L140.73021,13.98465 C140.28147,14.3532 140.24826,15.18345 140.67432,15.92298 C141.10362,16.65846 141.83667,17.04402 142.37937,16.84233 L151.065,12.79962 C151.88229,12.3282 151.99974,10.98522 151.308,9.78399 C150.78555,8.88165 149.96583,8.33652 149.24574,8.31951 L149.24331,8.31951 Z M128.9763,20.9061 C128.86585,20.903684 128.755934,20.922095 128.6523,20.96037 L119.97153,24.99822 C119.15748,25.47126 119.03436,26.81424 119.73015,28.01709 C120.42351,29.21589 121.64661,29.78613 122.46147,29.31633 L130.30227,23.82048 C130.75344,23.44788 130.78746,22.61682 130.35897,21.87891 L130.36221,21.88053 C130.01553,21.2787 129.46311,20.91258 128.9763,20.9061 L128.9763,20.9061 Z M142.05942,20.9061 C141.57342,20.91258 141.02181,21.2787 140.67432,21.88053 L140.67756,21.87891 C140.25069,22.61682 140.2839,23.44788 140.73264,23.82048 L148.57425,29.31633 C149.38749,29.78613 150.6114,29.21589 151.30881,28.01709 C151.99974,26.81424 151.88229,25.47126 151.065,24.99822 L142.3818,20.96037 C142.278685,20.9222581 142.16933,20.9038491 142.05942,20.9061 L142.05942,20.9061 Z M135.51462,24.8589 C134.66493,24.86052 133.96266,25.30197 133.87032,25.87545 L133.02792,35.41401 C133.02792,36.35847 134.12952,37.13121 135.51705,37.13121 C136.90701,37.13121 138.01185,36.35847 138.01185,35.41401 L137.16702,25.87545 C137.07225,25.30197 136.37079,24.86052 135.51786,24.85971 L135.51462,24.85971 L135.51462,24.8589 Z" id="Shape"></path>
                    </g>
                </g>
            </g>
        </g>
    </g>
</svg>