<?xml version="1.0" encoding="UTF-8"?>
<svg width="32px" height="32px" viewBox="0 0 32 32" version="1.1" xmlns="http://www.w3.org/2000/svg" xmlns:xlink="http://www.w3.org/1999/xlink">
    <!-- Generator: sketchtool 61.2 (101010) - https://sketch.com -->
    <title>3EE9F138-3BA5-40A2-B2AA-5129CA6DDF0C</title>
    <desc>Created with sketchtool.</desc>
    <g id="Page-2" stroke="none" stroke-width="1" fill="none" fill-rule="evenodd" opacity="0.2">
        <g id="14.3-Home-3" transform="translate(-1068.000000, -4737.000000)" fill="#FFFFFF" fill-rule="nonzero">
            <g id="::-Footer-::" transform="translate(0.000000, 4323.000000)">
                <g id="Group-9">
                    <g transform="translate(1021.000000, 414.000000)">
                        <g id="youtube" transform="translate(47.000000, 0.000000)">
                            <polygon id="Path" points="14.0070801 18.9975586 19.2116699 16 14.0070801 13.0024414"></polygon>
                            <path d="M16,0 C7.16479494,0 0,7.16479494 0,16 C0,24.8352051 7.16479494,32 16,32 C24.8352051,32 32,24.8352051 32,16 C32,7.16479494 24.8352051,0 16,0 Z M25.9976446,16.0163574 C25.9976446,16.0163574 25.9976446,19.2612305 25.5859375,20.8259278 C25.3552246,21.6823731 24.6799316,22.357666 23.8234863,22.5881348 C22.2587891,23 16,23 16,23 C16,23 9.75756837,23 8.17651369,22.5717774 C7.32006837,22.3413086 6.64477538,21.6657715 6.4140625,20.8093262 C6.00219725,19.2612305 6.00219725,16 6.00219725,16 C6.00219725,16 6.00219725,12.7553711 6.4140625,11.1906738 C6.64453125,10.3342285 7.33642575,9.642334 8.17651369,9.41186525 C9.74121094,9 16,9 16,9 C16,9 22.2587891,9 23.8234863,9.42822263 C24.6799316,9.65869138 25.3552246,10.3342285 25.5859375,11.1906738 C26.0141601,12.7553711 25.9976446,16.0163574 25.9976446,16.0163574 L25.9976446,16.0163574 Z" id="Shape"></path>
                        </g>
                    </g>
                </g>
            </g>
        </g>
    </g>
</svg>